%TF.GenerationSoftware,KiCad,Pcbnew,8.0.2*%
%TF.CreationDate,2024-05-28T14:09:15+02:00*%
%TF.ProjectId,Lora_2__BUS,4c6f7261-5f32-45fb-9542-55532e6b6963,rev?*%
%TF.SameCoordinates,Original*%
%TF.FileFunction,Copper,L1,Top*%
%TF.FilePolarity,Positive*%
%FSLAX46Y46*%
G04 Gerber Fmt 4.6, Leading zero omitted, Abs format (unit mm)*
G04 Created by KiCad (PCBNEW 8.0.2) date 2024-05-28 14:09:15*
%MOMM*%
%LPD*%
G01*
G04 APERTURE LIST*
%TA.AperFunction,EtchedComponent*%
%ADD10C,0.200000*%
%TD*%
%TA.AperFunction,ComponentPad*%
%ADD11C,1.778000*%
%TD*%
%TA.AperFunction,ComponentPad*%
%ADD12R,1.524000X1.524000*%
%TD*%
%TA.AperFunction,ComponentPad*%
%ADD13C,1.524000*%
%TD*%
%TA.AperFunction,ViaPad*%
%ADD14C,0.800000*%
%TD*%
%TA.AperFunction,Conductor*%
%ADD15C,0.300000*%
%TD*%
%TA.AperFunction,Conductor*%
%ADD16C,0.500000*%
%TD*%
%TA.AperFunction,Conductor*%
%ADD17C,0.600000*%
%TD*%
G04 APERTURE END LIST*
D10*
%TO.C,MikroBUS_adapter1*%
X116792000Y-107003200D02*
X116792000Y-82883200D01*
X119332000Y-80343200D02*
X142192000Y-80343200D01*
X139652000Y-109543200D02*
X119332000Y-109543200D01*
X142192000Y-80343200D02*
X142192000Y-107003200D01*
X116792000Y-82883200D02*
G75*
G02*
X119332000Y-80343200I2540001J-1D01*
G01*
X119332000Y-109543200D02*
G75*
G02*
X116792000Y-107003200I1J2540001D01*
G01*
X142192000Y-107003200D02*
G75*
G02*
X139652000Y-109543200I-2540000J0D01*
G01*
%TD*%
D11*
%TO.P,LoRA_breakout1,0,G0*%
%TO.N,/DIO_1*%
X126728000Y-107057000D03*
%TO.P,LoRA_breakout1,1,G1*%
%TO.N,unconnected-(LoRA_breakout1-G1-Pad1)*%
X119108000Y-81657000D03*
%TO.P,LoRA_breakout1,2,G2*%
%TO.N,unconnected-(LoRA_breakout1-G2-Pad2)*%
X121648000Y-81657000D03*
%TO.P,LoRA_breakout1,3,G3*%
%TO.N,unconnected-(LoRA_breakout1-G3-Pad3)*%
X124188000Y-81657000D03*
%TO.P,LoRA_breakout1,4,G4*%
%TO.N,unconnected-(LoRA_breakout1-G4-Pad4)*%
X126728000Y-81657000D03*
%TO.P,LoRA_breakout1,5,G5*%
%TO.N,unconnected-(LoRA_breakout1-G5-Pad5)*%
X129268000Y-81657000D03*
%TO.P,LoRA_breakout1,6,Vin*%
%TO.N,/5V*%
X119108000Y-107057000D03*
%TO.P,LoRA_breakout1,7,GND*%
%TO.N,/GND*%
X121648000Y-107057000D03*
%TO.P,LoRA_breakout1,8,EN*%
%TO.N,/DIO_0*%
X124188000Y-107057000D03*
%TO.P,LoRA_breakout1,9,SCK*%
%TO.N,/SCK*%
X129268000Y-107057000D03*
%TO.P,LoRA_breakout1,10,MISO*%
%TO.N,/MISO*%
X131808000Y-107057000D03*
%TO.P,LoRA_breakout1,11,MOSI*%
%TO.N,/MOSI*%
X134348000Y-107057000D03*
%TO.P,LoRA_breakout1,12,CS*%
%TO.N,/CS*%
X136888000Y-107057000D03*
%TO.P,LoRA_breakout1,13,RST*%
%TO.N,/RST*%
X139428000Y-107057000D03*
%TD*%
D12*
%TO.P,MikroBUS_adapter1,1,AN*%
%TO.N,unconnected-(MikroBUS_adapter1-AN-Pad1)*%
X118130800Y-86183200D03*
D13*
%TO.P,MikroBUS_adapter1,2,RST*%
%TO.N,/RST*%
X118130800Y-88723200D03*
%TO.P,MikroBUS_adapter1,3,CS*%
%TO.N,/CS*%
X118130800Y-91263200D03*
%TO.P,MikroBUS_adapter1,4,SCK*%
%TO.N,/SCK*%
X118130800Y-93803200D03*
%TO.P,MikroBUS_adapter1,5,MISO*%
%TO.N,/MISO*%
X118130800Y-96343200D03*
%TO.P,MikroBUS_adapter1,6,MOSI*%
%TO.N,/MOSI*%
X118130800Y-98883200D03*
%TO.P,MikroBUS_adapter1,7,3.3V*%
%TO.N,unconnected-(MikroBUS_adapter1-3.3V-Pad7)*%
X118130800Y-101423200D03*
%TO.P,MikroBUS_adapter1,8,GND*%
%TO.N,/GND*%
X118130800Y-103963200D03*
%TO.P,MikroBUS_adapter1,9,PWM_DIO*%
%TO.N,/DIO_0*%
X140992000Y-86183200D03*
%TO.P,MikroBUS_adapter1,10,INT_DIO*%
%TO.N,/DIO_1*%
X140992000Y-88723200D03*
%TO.P,MikroBUS_adapter1,11,Rx*%
%TO.N,unconnected-(MikroBUS_adapter1-Rx-Pad11)*%
X140992000Y-91263200D03*
%TO.P,MikroBUS_adapter1,12,Tx*%
%TO.N,unconnected-(MikroBUS_adapter1-Tx-Pad12)*%
X140992000Y-93803200D03*
%TO.P,MikroBUS_adapter1,13,SCL*%
%TO.N,unconnected-(MikroBUS_adapter1-SCL-Pad13)*%
X140992000Y-96343200D03*
%TO.P,MikroBUS_adapter1,14,SDA*%
%TO.N,unconnected-(MikroBUS_adapter1-SDA-Pad14)*%
X140992000Y-98883200D03*
%TO.P,MikroBUS_adapter1,15,5V*%
%TO.N,/5V*%
X140992000Y-101423200D03*
%TO.P,MikroBUS_adapter1,16,GND*%
%TO.N,/GND*%
X140992000Y-103992000D03*
%TD*%
D14*
%TO.N,/DIO_1*%
X126792000Y-99392000D03*
%TO.N,/SCK*%
X121631400Y-97352600D03*
%TO.N,/GND*%
X121682000Y-89992000D03*
X121682000Y-93192000D03*
X121682000Y-99482000D03*
%TO.N,/MOSI*%
X122792000Y-103892000D03*
%TO.N,/DIO_0*%
X124192000Y-99392000D03*
%TD*%
D15*
%TO.N,/DIO_1*%
X137412000Y-88772000D02*
X140992000Y-88772000D01*
X126792000Y-99392000D02*
X137412000Y-88772000D01*
%TO.N,/SCK*%
X121631400Y-97352600D02*
X118130800Y-93852000D01*
%TO.N,/MOSI*%
X132292000Y-103892000D02*
X134348000Y-105948000D01*
X122792000Y-103892000D02*
X132292000Y-103892000D01*
X134348000Y-105948000D02*
X134348000Y-107057000D01*
D16*
%TO.N,/5V*%
X140992000Y-101472000D02*
X140972000Y-101492000D01*
D17*
X123092000Y-101492000D02*
X119108000Y-105476000D01*
X119108000Y-105476000D02*
X119108000Y-107062000D01*
X140972000Y-101492000D02*
X123092000Y-101492000D01*
D15*
%TO.N,/DIO_0*%
X124192000Y-99392000D02*
X137352000Y-86232000D01*
X137352000Y-86232000D02*
X140992000Y-86232000D01*
%TD*%
%TA.AperFunction,Conductor*%
%TO.N,/GND*%
G36*
X120723213Y-80906407D02*
G01*
X120759177Y-80955907D01*
X120759177Y-81017093D01*
X120744027Y-81046158D01*
X120728917Y-81066167D01*
X120717721Y-81080993D01*
X120717716Y-81081002D01*
X120627720Y-81261738D01*
X120627719Y-81261741D01*
X120572462Y-81455947D01*
X120553832Y-81657000D01*
X120572462Y-81858053D01*
X120627719Y-82052259D01*
X120717720Y-82233005D01*
X120839400Y-82394136D01*
X120988616Y-82530165D01*
X121160287Y-82636459D01*
X121348567Y-82709399D01*
X121547043Y-82746500D01*
X121748957Y-82746500D01*
X121947433Y-82709399D01*
X122135713Y-82636459D01*
X122307384Y-82530165D01*
X122456600Y-82394136D01*
X122578280Y-82233005D01*
X122668281Y-82052259D01*
X122723538Y-81858053D01*
X122742168Y-81657000D01*
X122723538Y-81455947D01*
X122668281Y-81261741D01*
X122578280Y-81080995D01*
X122551973Y-81046159D01*
X122531995Y-80988329D01*
X122549824Y-80929799D01*
X122598651Y-80892927D01*
X122630978Y-80887500D01*
X123205022Y-80887500D01*
X123263213Y-80906407D01*
X123299177Y-80955907D01*
X123299177Y-81017093D01*
X123284027Y-81046158D01*
X123268917Y-81066167D01*
X123257721Y-81080993D01*
X123257716Y-81081002D01*
X123167720Y-81261738D01*
X123167719Y-81261741D01*
X123112462Y-81455947D01*
X123093832Y-81657000D01*
X123112462Y-81858053D01*
X123167719Y-82052259D01*
X123257720Y-82233005D01*
X123379400Y-82394136D01*
X123528616Y-82530165D01*
X123700287Y-82636459D01*
X123888567Y-82709399D01*
X124087043Y-82746500D01*
X124288957Y-82746500D01*
X124487433Y-82709399D01*
X124675713Y-82636459D01*
X124847384Y-82530165D01*
X124996600Y-82394136D01*
X125118280Y-82233005D01*
X125208281Y-82052259D01*
X125263538Y-81858053D01*
X125282168Y-81657000D01*
X125263538Y-81455947D01*
X125208281Y-81261741D01*
X125118280Y-81080995D01*
X125091973Y-81046159D01*
X125071995Y-80988329D01*
X125089824Y-80929799D01*
X125138651Y-80892927D01*
X125170978Y-80887500D01*
X125745022Y-80887500D01*
X125803213Y-80906407D01*
X125839177Y-80955907D01*
X125839177Y-81017093D01*
X125824027Y-81046158D01*
X125808917Y-81066167D01*
X125797721Y-81080993D01*
X125797716Y-81081002D01*
X125707720Y-81261738D01*
X125707719Y-81261741D01*
X125652462Y-81455947D01*
X125633832Y-81657000D01*
X125652462Y-81858053D01*
X125707719Y-82052259D01*
X125797720Y-82233005D01*
X125919400Y-82394136D01*
X126068616Y-82530165D01*
X126240287Y-82636459D01*
X126428567Y-82709399D01*
X126627043Y-82746500D01*
X126828957Y-82746500D01*
X127027433Y-82709399D01*
X127215713Y-82636459D01*
X127387384Y-82530165D01*
X127536600Y-82394136D01*
X127658280Y-82233005D01*
X127748281Y-82052259D01*
X127803538Y-81858053D01*
X127822168Y-81657000D01*
X127803538Y-81455947D01*
X127748281Y-81261741D01*
X127658280Y-81080995D01*
X127631973Y-81046159D01*
X127611995Y-80988329D01*
X127629824Y-80929799D01*
X127678651Y-80892927D01*
X127710978Y-80887500D01*
X128285022Y-80887500D01*
X128343213Y-80906407D01*
X128379177Y-80955907D01*
X128379177Y-81017093D01*
X128364027Y-81046158D01*
X128348917Y-81066167D01*
X128337721Y-81080993D01*
X128337716Y-81081002D01*
X128247720Y-81261738D01*
X128247719Y-81261741D01*
X128192462Y-81455947D01*
X128173832Y-81657000D01*
X128192462Y-81858053D01*
X128247719Y-82052259D01*
X128337720Y-82233005D01*
X128459400Y-82394136D01*
X128608616Y-82530165D01*
X128780287Y-82636459D01*
X128968567Y-82709399D01*
X129167043Y-82746500D01*
X129368957Y-82746500D01*
X129567433Y-82709399D01*
X129755713Y-82636459D01*
X129927384Y-82530165D01*
X130076600Y-82394136D01*
X130198280Y-82233005D01*
X130288281Y-82052259D01*
X130343538Y-81858053D01*
X130362168Y-81657000D01*
X130343538Y-81455947D01*
X130288281Y-81261741D01*
X130198280Y-81080995D01*
X130171973Y-81046159D01*
X130151995Y-80988329D01*
X130169824Y-80929799D01*
X130218651Y-80892927D01*
X130250978Y-80887500D01*
X141622500Y-80887500D01*
X141680691Y-80906407D01*
X141716655Y-80955907D01*
X141721500Y-80986500D01*
X141721500Y-85327434D01*
X141702593Y-85385625D01*
X141653093Y-85421589D01*
X141591907Y-85421589D01*
X141559696Y-85403963D01*
X141529328Y-85379041D01*
X141529326Y-85379040D01*
X141529324Y-85379038D01*
X141432780Y-85327434D01*
X141362120Y-85289665D01*
X141362115Y-85289663D01*
X141180683Y-85234626D01*
X141180678Y-85234625D01*
X140992003Y-85216043D01*
X140991997Y-85216043D01*
X140803321Y-85234625D01*
X140803316Y-85234626D01*
X140621884Y-85289663D01*
X140621879Y-85289665D01*
X140454681Y-85379035D01*
X140454671Y-85379041D01*
X140308121Y-85499313D01*
X140308113Y-85499321D01*
X140187841Y-85645871D01*
X140187835Y-85645881D01*
X140098465Y-85813079D01*
X140096604Y-85817574D01*
X140095051Y-85816931D01*
X140064052Y-85861425D01*
X140006247Y-85881481D01*
X140004287Y-85881500D01*
X137305856Y-85881500D01*
X137251297Y-85896118D01*
X137216707Y-85905387D01*
X137136791Y-85951527D01*
X137136790Y-85951528D01*
X124323724Y-98764592D01*
X124269207Y-98792369D01*
X124240800Y-98792741D01*
X124192003Y-98786318D01*
X124191999Y-98786318D01*
X124035241Y-98806955D01*
X124035233Y-98806957D01*
X123889161Y-98867462D01*
X123889160Y-98867462D01*
X123763723Y-98963713D01*
X123763713Y-98963723D01*
X123667462Y-99089160D01*
X123667462Y-99089161D01*
X123606957Y-99235233D01*
X123606955Y-99235241D01*
X123586318Y-99391999D01*
X123586318Y-99392000D01*
X123606955Y-99548758D01*
X123606957Y-99548766D01*
X123667462Y-99694838D01*
X123667462Y-99694839D01*
X123763713Y-99820276D01*
X123763718Y-99820282D01*
X123889159Y-99916536D01*
X124035238Y-99977044D01*
X124152809Y-99992522D01*
X124191999Y-99997682D01*
X124192000Y-99997682D01*
X124192001Y-99997682D01*
X124223352Y-99993554D01*
X124348762Y-99977044D01*
X124494841Y-99916536D01*
X124620282Y-99820282D01*
X124716536Y-99694841D01*
X124777044Y-99548762D01*
X124797682Y-99392000D01*
X124791257Y-99343199D01*
X124802407Y-99283040D01*
X124819403Y-99260277D01*
X137468186Y-86611496D01*
X137522703Y-86583719D01*
X137538190Y-86582500D01*
X140054725Y-86582500D01*
X140112916Y-86601407D01*
X140142034Y-86634831D01*
X140187838Y-86720524D01*
X140308117Y-86867083D01*
X140454676Y-86987362D01*
X140621885Y-87076737D01*
X140748280Y-87115077D01*
X140803316Y-87131773D01*
X140803321Y-87131774D01*
X140991997Y-87150357D01*
X140992000Y-87150357D01*
X140992003Y-87150357D01*
X141180678Y-87131774D01*
X141180683Y-87131773D01*
X141362115Y-87076737D01*
X141529324Y-86987362D01*
X141559696Y-86962435D01*
X141616670Y-86940136D01*
X141675873Y-86955583D01*
X141714689Y-87002879D01*
X141721500Y-87038964D01*
X141721500Y-87867434D01*
X141702593Y-87925625D01*
X141653093Y-87961589D01*
X141591907Y-87961589D01*
X141559696Y-87943963D01*
X141529328Y-87919041D01*
X141529326Y-87919040D01*
X141529324Y-87919038D01*
X141432780Y-87867434D01*
X141362120Y-87829665D01*
X141362115Y-87829663D01*
X141180683Y-87774626D01*
X141180678Y-87774625D01*
X140992003Y-87756043D01*
X140991997Y-87756043D01*
X140803321Y-87774625D01*
X140803316Y-87774626D01*
X140621884Y-87829663D01*
X140621879Y-87829665D01*
X140454681Y-87919035D01*
X140454671Y-87919041D01*
X140308121Y-88039313D01*
X140308113Y-88039321D01*
X140187841Y-88185871D01*
X140187835Y-88185881D01*
X140098465Y-88353079D01*
X140096604Y-88357574D01*
X140095051Y-88356931D01*
X140064052Y-88401425D01*
X140006247Y-88421481D01*
X140004287Y-88421500D01*
X137365856Y-88421500D01*
X137276712Y-88445386D01*
X137196788Y-88491530D01*
X126923724Y-98764592D01*
X126869207Y-98792369D01*
X126840800Y-98792741D01*
X126792003Y-98786318D01*
X126791999Y-98786318D01*
X126635241Y-98806955D01*
X126635233Y-98806957D01*
X126489161Y-98867462D01*
X126489160Y-98867462D01*
X126363723Y-98963713D01*
X126363713Y-98963723D01*
X126267462Y-99089160D01*
X126267462Y-99089161D01*
X126206957Y-99235233D01*
X126206955Y-99235241D01*
X126186318Y-99391999D01*
X126186318Y-99392000D01*
X126206955Y-99548758D01*
X126206957Y-99548766D01*
X126267462Y-99694838D01*
X126267462Y-99694839D01*
X126363713Y-99820276D01*
X126363718Y-99820282D01*
X126489159Y-99916536D01*
X126635238Y-99977044D01*
X126752809Y-99992522D01*
X126791999Y-99997682D01*
X126792000Y-99997682D01*
X126792001Y-99997682D01*
X126823352Y-99993554D01*
X126948762Y-99977044D01*
X127094841Y-99916536D01*
X127220282Y-99820282D01*
X127316536Y-99694841D01*
X127377044Y-99548762D01*
X127397682Y-99392000D01*
X127391257Y-99343199D01*
X127402407Y-99283040D01*
X127419403Y-99260277D01*
X137528186Y-89151496D01*
X137582703Y-89123719D01*
X137598190Y-89122500D01*
X140054725Y-89122500D01*
X140112916Y-89141407D01*
X140142034Y-89174831D01*
X140168991Y-89225264D01*
X140187834Y-89260518D01*
X140187838Y-89260524D01*
X140308117Y-89407083D01*
X140454676Y-89527362D01*
X140621885Y-89616737D01*
X140748280Y-89655077D01*
X140803316Y-89671773D01*
X140803321Y-89671774D01*
X140991997Y-89690357D01*
X140992000Y-89690357D01*
X140992003Y-89690357D01*
X141180678Y-89671774D01*
X141180683Y-89671773D01*
X141362115Y-89616737D01*
X141529324Y-89527362D01*
X141559696Y-89502435D01*
X141616670Y-89480136D01*
X141675873Y-89495583D01*
X141714689Y-89542879D01*
X141721500Y-89578964D01*
X141721500Y-90407434D01*
X141702593Y-90465625D01*
X141653093Y-90501589D01*
X141591907Y-90501589D01*
X141559696Y-90483963D01*
X141529328Y-90459041D01*
X141529326Y-90459040D01*
X141529324Y-90459038D01*
X141432780Y-90407434D01*
X141362120Y-90369665D01*
X141362115Y-90369663D01*
X141180683Y-90314626D01*
X141180678Y-90314625D01*
X140992003Y-90296043D01*
X140991997Y-90296043D01*
X140803321Y-90314625D01*
X140803316Y-90314626D01*
X140621884Y-90369663D01*
X140621879Y-90369665D01*
X140454681Y-90459035D01*
X140454671Y-90459041D01*
X140308121Y-90579313D01*
X140308113Y-90579321D01*
X140187841Y-90725871D01*
X140187835Y-90725881D01*
X140098465Y-90893079D01*
X140098463Y-90893084D01*
X140043426Y-91074516D01*
X140043425Y-91074521D01*
X140024843Y-91263196D01*
X140024843Y-91263203D01*
X140043425Y-91451878D01*
X140043426Y-91451883D01*
X140098463Y-91633315D01*
X140098465Y-91633320D01*
X140166797Y-91761159D01*
X140187838Y-91800524D01*
X140308117Y-91947083D01*
X140454676Y-92067362D01*
X140621885Y-92156737D01*
X140748280Y-92195077D01*
X140803316Y-92211773D01*
X140803321Y-92211774D01*
X140991997Y-92230357D01*
X140992000Y-92230357D01*
X140992003Y-92230357D01*
X141180678Y-92211774D01*
X141180683Y-92211773D01*
X141362115Y-92156737D01*
X141529324Y-92067362D01*
X141559696Y-92042435D01*
X141616670Y-92020136D01*
X141675873Y-92035583D01*
X141714689Y-92082879D01*
X141721500Y-92118964D01*
X141721500Y-92947434D01*
X141702593Y-93005625D01*
X141653093Y-93041589D01*
X141591907Y-93041589D01*
X141559696Y-93023963D01*
X141529328Y-92999041D01*
X141529326Y-92999040D01*
X141529324Y-92999038D01*
X141432780Y-92947434D01*
X141362120Y-92909665D01*
X141362115Y-92909663D01*
X141180683Y-92854626D01*
X141180678Y-92854625D01*
X140992003Y-92836043D01*
X140991997Y-92836043D01*
X140803321Y-92854625D01*
X140803316Y-92854626D01*
X140621884Y-92909663D01*
X140621879Y-92909665D01*
X140454681Y-92999035D01*
X140454671Y-92999041D01*
X140308121Y-93119313D01*
X140308113Y-93119321D01*
X140187841Y-93265871D01*
X140187835Y-93265881D01*
X140098465Y-93433079D01*
X140098463Y-93433084D01*
X140043426Y-93614516D01*
X140043425Y-93614521D01*
X140024843Y-93803196D01*
X140024843Y-93803203D01*
X140043425Y-93991878D01*
X140043426Y-93991883D01*
X140098463Y-94173315D01*
X140098465Y-94173320D01*
X140152279Y-94273998D01*
X140187838Y-94340524D01*
X140308117Y-94487083D01*
X140454676Y-94607362D01*
X140621885Y-94696737D01*
X140748280Y-94735077D01*
X140803316Y-94751773D01*
X140803321Y-94751774D01*
X140991997Y-94770357D01*
X140992000Y-94770357D01*
X140992003Y-94770357D01*
X141180678Y-94751774D01*
X141180683Y-94751773D01*
X141207639Y-94743596D01*
X141362115Y-94696737D01*
X141529324Y-94607362D01*
X141559696Y-94582435D01*
X141616670Y-94560136D01*
X141675873Y-94575583D01*
X141714689Y-94622879D01*
X141721500Y-94658964D01*
X141721500Y-95487434D01*
X141702593Y-95545625D01*
X141653093Y-95581589D01*
X141591907Y-95581589D01*
X141559696Y-95563963D01*
X141529328Y-95539041D01*
X141529326Y-95539040D01*
X141529324Y-95539038D01*
X141432780Y-95487434D01*
X141362120Y-95449665D01*
X141362115Y-95449663D01*
X141180683Y-95394626D01*
X141180678Y-95394625D01*
X140992003Y-95376043D01*
X140991997Y-95376043D01*
X140803321Y-95394625D01*
X140803316Y-95394626D01*
X140621884Y-95449663D01*
X140621879Y-95449665D01*
X140454681Y-95539035D01*
X140454671Y-95539041D01*
X140308121Y-95659313D01*
X140308113Y-95659321D01*
X140187841Y-95805871D01*
X140187835Y-95805881D01*
X140098465Y-95973079D01*
X140098463Y-95973084D01*
X140043426Y-96154516D01*
X140043425Y-96154521D01*
X140024843Y-96343196D01*
X140024843Y-96343203D01*
X140043425Y-96531878D01*
X140043426Y-96531883D01*
X140098463Y-96713315D01*
X140098465Y-96713320D01*
X140166797Y-96841159D01*
X140187838Y-96880524D01*
X140308117Y-97027083D01*
X140454676Y-97147362D01*
X140621885Y-97236737D01*
X140748280Y-97275077D01*
X140803316Y-97291773D01*
X140803321Y-97291774D01*
X140991997Y-97310357D01*
X140992000Y-97310357D01*
X140992003Y-97310357D01*
X141180678Y-97291774D01*
X141180683Y-97291773D01*
X141362115Y-97236737D01*
X141529324Y-97147362D01*
X141559696Y-97122435D01*
X141616670Y-97100136D01*
X141675873Y-97115583D01*
X141714689Y-97162879D01*
X141721500Y-97198964D01*
X141721500Y-98027434D01*
X141702593Y-98085625D01*
X141653093Y-98121589D01*
X141591907Y-98121589D01*
X141559696Y-98103963D01*
X141529328Y-98079041D01*
X141529326Y-98079040D01*
X141529324Y-98079038D01*
X141432780Y-98027434D01*
X141362120Y-97989665D01*
X141362115Y-97989663D01*
X141180683Y-97934626D01*
X141180678Y-97934625D01*
X140992003Y-97916043D01*
X140991997Y-97916043D01*
X140803321Y-97934625D01*
X140803316Y-97934626D01*
X140621884Y-97989663D01*
X140621879Y-97989665D01*
X140454681Y-98079035D01*
X140454671Y-98079041D01*
X140308121Y-98199313D01*
X140308113Y-98199321D01*
X140187841Y-98345871D01*
X140187835Y-98345881D01*
X140098465Y-98513079D01*
X140098463Y-98513084D01*
X140043426Y-98694516D01*
X140043425Y-98694521D01*
X140024843Y-98883196D01*
X140024843Y-98883203D01*
X140043425Y-99071878D01*
X140043426Y-99071883D01*
X140098463Y-99253315D01*
X140098465Y-99253320D01*
X140114351Y-99283040D01*
X140187838Y-99420524D01*
X140308117Y-99567083D01*
X140454676Y-99687362D01*
X140621885Y-99776737D01*
X140748280Y-99815077D01*
X140803316Y-99831773D01*
X140803321Y-99831774D01*
X140991997Y-99850357D01*
X140992000Y-99850357D01*
X140992003Y-99850357D01*
X141180678Y-99831774D01*
X141180683Y-99831773D01*
X141362115Y-99776737D01*
X141529324Y-99687362D01*
X141559696Y-99662435D01*
X141616670Y-99640136D01*
X141675873Y-99655583D01*
X141714689Y-99702879D01*
X141721500Y-99738964D01*
X141721500Y-100567434D01*
X141702593Y-100625625D01*
X141653093Y-100661589D01*
X141591907Y-100661589D01*
X141559696Y-100643963D01*
X141529328Y-100619041D01*
X141529326Y-100619040D01*
X141529324Y-100619038D01*
X141432780Y-100567434D01*
X141362120Y-100529665D01*
X141362115Y-100529663D01*
X141180683Y-100474626D01*
X141180678Y-100474625D01*
X140992003Y-100456043D01*
X140991997Y-100456043D01*
X140803321Y-100474625D01*
X140803316Y-100474626D01*
X140621884Y-100529663D01*
X140621879Y-100529665D01*
X140454681Y-100619035D01*
X140454671Y-100619041D01*
X140308121Y-100739313D01*
X140308113Y-100739321D01*
X140187837Y-100885876D01*
X140187833Y-100885882D01*
X140159352Y-100939168D01*
X140115247Y-100981575D01*
X140072042Y-100991500D01*
X123157893Y-100991500D01*
X123026108Y-100991500D01*
X122948200Y-101012375D01*
X122898809Y-101025609D01*
X122784690Y-101091496D01*
X118800686Y-105075500D01*
X118800685Y-105075499D01*
X118707500Y-105168685D01*
X118707496Y-105168690D01*
X118641609Y-105282809D01*
X118607500Y-105410109D01*
X118607500Y-106030315D01*
X118588593Y-106088506D01*
X118560617Y-106114486D01*
X118448617Y-106183833D01*
X118448616Y-106183834D01*
X118299400Y-106319863D01*
X118177721Y-106480993D01*
X118177716Y-106481002D01*
X118087720Y-106661738D01*
X118087719Y-106661741D01*
X118032462Y-106855947D01*
X118013832Y-107057000D01*
X118032462Y-107258053D01*
X118087719Y-107452259D01*
X118177720Y-107633005D01*
X118299400Y-107794136D01*
X118448616Y-107930165D01*
X118620287Y-108036459D01*
X118808567Y-108109399D01*
X119007043Y-108146500D01*
X119208957Y-108146500D01*
X119407433Y-108109399D01*
X119595713Y-108036459D01*
X119767384Y-107930165D01*
X119916600Y-107794136D01*
X120038280Y-107633005D01*
X120128281Y-107452259D01*
X120183538Y-107258053D01*
X120202168Y-107057000D01*
X123093832Y-107057000D01*
X123112462Y-107258053D01*
X123167719Y-107452259D01*
X123257720Y-107633005D01*
X123379400Y-107794136D01*
X123528616Y-107930165D01*
X123700287Y-108036459D01*
X123888567Y-108109399D01*
X124087043Y-108146500D01*
X124288957Y-108146500D01*
X124487433Y-108109399D01*
X124675713Y-108036459D01*
X124847384Y-107930165D01*
X124996600Y-107794136D01*
X125118280Y-107633005D01*
X125208281Y-107452259D01*
X125263538Y-107258053D01*
X125282168Y-107057000D01*
X125633832Y-107057000D01*
X125652462Y-107258053D01*
X125707719Y-107452259D01*
X125797720Y-107633005D01*
X125919400Y-107794136D01*
X126068616Y-107930165D01*
X126240287Y-108036459D01*
X126428567Y-108109399D01*
X126627043Y-108146500D01*
X126828957Y-108146500D01*
X127027433Y-108109399D01*
X127215713Y-108036459D01*
X127387384Y-107930165D01*
X127536600Y-107794136D01*
X127658280Y-107633005D01*
X127748281Y-107452259D01*
X127803538Y-107258053D01*
X127822168Y-107057000D01*
X128173832Y-107057000D01*
X128192462Y-107258053D01*
X128247719Y-107452259D01*
X128337720Y-107633005D01*
X128459400Y-107794136D01*
X128608616Y-107930165D01*
X128780287Y-108036459D01*
X128968567Y-108109399D01*
X129167043Y-108146500D01*
X129368957Y-108146500D01*
X129567433Y-108109399D01*
X129755713Y-108036459D01*
X129927384Y-107930165D01*
X130076600Y-107794136D01*
X130198280Y-107633005D01*
X130288281Y-107452259D01*
X130343538Y-107258053D01*
X130362168Y-107057000D01*
X130713832Y-107057000D01*
X130732462Y-107258053D01*
X130787719Y-107452259D01*
X130877720Y-107633005D01*
X130999400Y-107794136D01*
X131148616Y-107930165D01*
X131320287Y-108036459D01*
X131508567Y-108109399D01*
X131707043Y-108146500D01*
X131908957Y-108146500D01*
X132107433Y-108109399D01*
X132295713Y-108036459D01*
X132467384Y-107930165D01*
X132616600Y-107794136D01*
X132738280Y-107633005D01*
X132828281Y-107452259D01*
X132883538Y-107258053D01*
X132902168Y-107057000D01*
X132883538Y-106855947D01*
X132828281Y-106661741D01*
X132738280Y-106480995D01*
X132616600Y-106319864D01*
X132467384Y-106183835D01*
X132295713Y-106077541D01*
X132107433Y-106004601D01*
X132107432Y-106004600D01*
X132107430Y-106004600D01*
X131908957Y-105967500D01*
X131707043Y-105967500D01*
X131508569Y-106004600D01*
X131494039Y-106010229D01*
X131320287Y-106077541D01*
X131260619Y-106114486D01*
X131148613Y-106183837D01*
X130999400Y-106319863D01*
X130877721Y-106480993D01*
X130877716Y-106481002D01*
X130787720Y-106661738D01*
X130787719Y-106661741D01*
X130732462Y-106855947D01*
X130713832Y-107057000D01*
X130362168Y-107057000D01*
X130343538Y-106855947D01*
X130288281Y-106661741D01*
X130198280Y-106480995D01*
X130076600Y-106319864D01*
X129927384Y-106183835D01*
X129755713Y-106077541D01*
X129567433Y-106004601D01*
X129567432Y-106004600D01*
X129567430Y-106004600D01*
X129368957Y-105967500D01*
X129167043Y-105967500D01*
X128968569Y-106004600D01*
X128954039Y-106010229D01*
X128780287Y-106077541D01*
X128720619Y-106114486D01*
X128608613Y-106183837D01*
X128459400Y-106319863D01*
X128337721Y-106480993D01*
X128337716Y-106481002D01*
X128247720Y-106661738D01*
X128247719Y-106661741D01*
X128192462Y-106855947D01*
X128173832Y-107057000D01*
X127822168Y-107057000D01*
X127803538Y-106855947D01*
X127748281Y-106661741D01*
X127658280Y-106480995D01*
X127536600Y-106319864D01*
X127387384Y-106183835D01*
X127215713Y-106077541D01*
X127027433Y-106004601D01*
X127027432Y-106004600D01*
X127027430Y-106004600D01*
X126828957Y-105967500D01*
X126627043Y-105967500D01*
X126428569Y-106004600D01*
X126414039Y-106010229D01*
X126240287Y-106077541D01*
X126180619Y-106114486D01*
X126068613Y-106183837D01*
X125919400Y-106319863D01*
X125797721Y-106480993D01*
X125797716Y-106481002D01*
X125707720Y-106661738D01*
X125707719Y-106661741D01*
X125652462Y-106855947D01*
X125633832Y-107057000D01*
X125282168Y-107057000D01*
X125263538Y-106855947D01*
X125208281Y-106661741D01*
X125118280Y-106480995D01*
X124996600Y-106319864D01*
X124847384Y-106183835D01*
X124675713Y-106077541D01*
X124487433Y-106004601D01*
X124487432Y-106004600D01*
X124487430Y-106004600D01*
X124288957Y-105967500D01*
X124087043Y-105967500D01*
X123888569Y-106004600D01*
X123874039Y-106010229D01*
X123700287Y-106077541D01*
X123640619Y-106114486D01*
X123528613Y-106183837D01*
X123379400Y-106319863D01*
X123257721Y-106480993D01*
X123257716Y-106481002D01*
X123167720Y-106661738D01*
X123167719Y-106661741D01*
X123112462Y-106855947D01*
X123093832Y-107057000D01*
X120202168Y-107057000D01*
X120183538Y-106855947D01*
X120128281Y-106661741D01*
X120038280Y-106480995D01*
X119916600Y-106319864D01*
X119767384Y-106183835D01*
X119767383Y-106183834D01*
X119767382Y-106183833D01*
X119655383Y-106114486D01*
X119615862Y-106067777D01*
X119608500Y-106030315D01*
X119608500Y-105724322D01*
X119627407Y-105666131D01*
X119637496Y-105654318D01*
X121399815Y-103891999D01*
X122186318Y-103891999D01*
X122186318Y-103892000D01*
X122206955Y-104048758D01*
X122206957Y-104048766D01*
X122267462Y-104194838D01*
X122267462Y-104194839D01*
X122363713Y-104320276D01*
X122363718Y-104320282D01*
X122489159Y-104416536D01*
X122635238Y-104477044D01*
X122752809Y-104492522D01*
X122791999Y-104497682D01*
X122792000Y-104497682D01*
X122792001Y-104497682D01*
X122823352Y-104493554D01*
X122948762Y-104477044D01*
X123094841Y-104416536D01*
X123220282Y-104320282D01*
X123250245Y-104281232D01*
X123300669Y-104246577D01*
X123328787Y-104242500D01*
X132105810Y-104242500D01*
X132164001Y-104261407D01*
X132175814Y-104271496D01*
X133846991Y-105942673D01*
X133874768Y-105997190D01*
X133865197Y-106057622D01*
X133829104Y-106096848D01*
X133688617Y-106183833D01*
X133688616Y-106183834D01*
X133539400Y-106319863D01*
X133417721Y-106480993D01*
X133417716Y-106481002D01*
X133327720Y-106661738D01*
X133327719Y-106661741D01*
X133272462Y-106855947D01*
X133253832Y-107057000D01*
X133272462Y-107258053D01*
X133327719Y-107452259D01*
X133417720Y-107633005D01*
X133539400Y-107794136D01*
X133688616Y-107930165D01*
X133860287Y-108036459D01*
X134048567Y-108109399D01*
X134247043Y-108146500D01*
X134448957Y-108146500D01*
X134647433Y-108109399D01*
X134835713Y-108036459D01*
X135007384Y-107930165D01*
X135156600Y-107794136D01*
X135278280Y-107633005D01*
X135368281Y-107452259D01*
X135423538Y-107258053D01*
X135442168Y-107057000D01*
X135793832Y-107057000D01*
X135812462Y-107258053D01*
X135867719Y-107452259D01*
X135957720Y-107633005D01*
X136079400Y-107794136D01*
X136228616Y-107930165D01*
X136400287Y-108036459D01*
X136588567Y-108109399D01*
X136787043Y-108146500D01*
X136988957Y-108146500D01*
X137187433Y-108109399D01*
X137375713Y-108036459D01*
X137547384Y-107930165D01*
X137696600Y-107794136D01*
X137818280Y-107633005D01*
X137908281Y-107452259D01*
X137963538Y-107258053D01*
X137982168Y-107057000D01*
X138333832Y-107057000D01*
X138352462Y-107258053D01*
X138407719Y-107452259D01*
X138497720Y-107633005D01*
X138619400Y-107794136D01*
X138768616Y-107930165D01*
X138940287Y-108036459D01*
X139128567Y-108109399D01*
X139327043Y-108146500D01*
X139528957Y-108146500D01*
X139727433Y-108109399D01*
X139915713Y-108036459D01*
X140087384Y-107930165D01*
X140236600Y-107794136D01*
X140358280Y-107633005D01*
X140448281Y-107452259D01*
X140503538Y-107258053D01*
X140522168Y-107057000D01*
X140503538Y-106855947D01*
X140448281Y-106661741D01*
X140358280Y-106480995D01*
X140236600Y-106319864D01*
X140087384Y-106183835D01*
X139915713Y-106077541D01*
X139727433Y-106004601D01*
X139727432Y-106004600D01*
X139727430Y-106004600D01*
X139528957Y-105967500D01*
X139327043Y-105967500D01*
X139128569Y-106004600D01*
X139114039Y-106010229D01*
X138940287Y-106077541D01*
X138880619Y-106114486D01*
X138768613Y-106183837D01*
X138619400Y-106319863D01*
X138497721Y-106480993D01*
X138497716Y-106481002D01*
X138407720Y-106661738D01*
X138407719Y-106661741D01*
X138352462Y-106855947D01*
X138333832Y-107057000D01*
X137982168Y-107057000D01*
X137963538Y-106855947D01*
X137908281Y-106661741D01*
X137818280Y-106480995D01*
X137696600Y-106319864D01*
X137547384Y-106183835D01*
X137375713Y-106077541D01*
X137187433Y-106004601D01*
X137187432Y-106004600D01*
X137187430Y-106004600D01*
X136988957Y-105967500D01*
X136787043Y-105967500D01*
X136588569Y-106004600D01*
X136574039Y-106010229D01*
X136400287Y-106077541D01*
X136340619Y-106114486D01*
X136228613Y-106183837D01*
X136079400Y-106319863D01*
X135957721Y-106480993D01*
X135957716Y-106481002D01*
X135867720Y-106661738D01*
X135867719Y-106661741D01*
X135812462Y-106855947D01*
X135793832Y-107057000D01*
X135442168Y-107057000D01*
X135423538Y-106855947D01*
X135368281Y-106661741D01*
X135278280Y-106480995D01*
X135156600Y-106319864D01*
X135007384Y-106183835D01*
X134835713Y-106077541D01*
X134835709Y-106077539D01*
X134835707Y-106077538D01*
X134761736Y-106048881D01*
X134714305Y-106010229D01*
X134698500Y-105956567D01*
X134698500Y-105901857D01*
X134698500Y-105901856D01*
X134674614Y-105812712D01*
X134657641Y-105783314D01*
X134657640Y-105783312D01*
X134657640Y-105783311D01*
X134641331Y-105755065D01*
X134628470Y-105732788D01*
X132507212Y-103611530D01*
X132427288Y-103565386D01*
X132338144Y-103541500D01*
X132338142Y-103541500D01*
X123328787Y-103541500D01*
X123270596Y-103522593D01*
X123250245Y-103502767D01*
X123220285Y-103463722D01*
X123220282Y-103463718D01*
X123220277Y-103463714D01*
X123220276Y-103463713D01*
X123094838Y-103367462D01*
X122948766Y-103306957D01*
X122948758Y-103306955D01*
X122792001Y-103286318D01*
X122791999Y-103286318D01*
X122635241Y-103306955D01*
X122635233Y-103306957D01*
X122489161Y-103367462D01*
X122489160Y-103367462D01*
X122363723Y-103463713D01*
X122363713Y-103463723D01*
X122267462Y-103589160D01*
X122267462Y-103589161D01*
X122206957Y-103735233D01*
X122206955Y-103735241D01*
X122186318Y-103891999D01*
X121399815Y-103891999D01*
X123270318Y-102021496D01*
X123324835Y-101993719D01*
X123340322Y-101992500D01*
X140167257Y-101992500D01*
X140225448Y-102011407D01*
X140243784Y-102028694D01*
X140308117Y-102107083D01*
X140454676Y-102227362D01*
X140621885Y-102316737D01*
X140748280Y-102355077D01*
X140803316Y-102371773D01*
X140803321Y-102371774D01*
X140991997Y-102390357D01*
X140992000Y-102390357D01*
X140992003Y-102390357D01*
X141180678Y-102371774D01*
X141180683Y-102371773D01*
X141362115Y-102316737D01*
X141529324Y-102227362D01*
X141559696Y-102202435D01*
X141616670Y-102180136D01*
X141675873Y-102195583D01*
X141714689Y-102242879D01*
X141721500Y-102278964D01*
X141721500Y-107053759D01*
X141721288Y-107060234D01*
X141704476Y-107316730D01*
X141702786Y-107329569D01*
X141653271Y-107578498D01*
X141649919Y-107591007D01*
X141568335Y-107831344D01*
X141563379Y-107843307D01*
X141451130Y-108070926D01*
X141444655Y-108082142D01*
X141303647Y-108293175D01*
X141295764Y-108303448D01*
X141128422Y-108494265D01*
X141119265Y-108503422D01*
X140928448Y-108670764D01*
X140918175Y-108678647D01*
X140707142Y-108819655D01*
X140695926Y-108826130D01*
X140468307Y-108938379D01*
X140456344Y-108943335D01*
X140216007Y-109024919D01*
X140203498Y-109028271D01*
X139954569Y-109077786D01*
X139941730Y-109079476D01*
X139685235Y-109096288D01*
X139678760Y-109096500D01*
X119365240Y-109096500D01*
X119358765Y-109096288D01*
X119102269Y-109079476D01*
X119089430Y-109077786D01*
X118840501Y-109028271D01*
X118827992Y-109024919D01*
X118587655Y-108943335D01*
X118575692Y-108938379D01*
X118348073Y-108826130D01*
X118336857Y-108819655D01*
X118125824Y-108678647D01*
X118115551Y-108670764D01*
X117924734Y-108503422D01*
X117915577Y-108494265D01*
X117748235Y-108303448D01*
X117740352Y-108293175D01*
X117599344Y-108082142D01*
X117592869Y-108070926D01*
X117480620Y-107843307D01*
X117475664Y-107831344D01*
X117394078Y-107591002D01*
X117390728Y-107578498D01*
X117341213Y-107329569D01*
X117339523Y-107316730D01*
X117335677Y-107258053D01*
X117322712Y-107060234D01*
X117322500Y-107053759D01*
X117322500Y-102214294D01*
X117341407Y-102156103D01*
X117390907Y-102120139D01*
X117452093Y-102120139D01*
X117484303Y-102137765D01*
X117593476Y-102227362D01*
X117760685Y-102316737D01*
X117887080Y-102355077D01*
X117942116Y-102371773D01*
X117942121Y-102371774D01*
X118130797Y-102390357D01*
X118130800Y-102390357D01*
X118130803Y-102390357D01*
X118319478Y-102371774D01*
X118319483Y-102371773D01*
X118500915Y-102316737D01*
X118668124Y-102227362D01*
X118814683Y-102107083D01*
X118934962Y-101960524D01*
X119024337Y-101793315D01*
X119079373Y-101611883D01*
X119079374Y-101611878D01*
X119097957Y-101423203D01*
X119097957Y-101423196D01*
X119079374Y-101234521D01*
X119079373Y-101234516D01*
X119062677Y-101179480D01*
X119024337Y-101053085D01*
X118934962Y-100885876D01*
X118814683Y-100739317D01*
X118684046Y-100632105D01*
X118668128Y-100619041D01*
X118668126Y-100619040D01*
X118668124Y-100619038D01*
X118571580Y-100567434D01*
X118500920Y-100529665D01*
X118500915Y-100529663D01*
X118319483Y-100474626D01*
X118319478Y-100474625D01*
X118130803Y-100456043D01*
X118130797Y-100456043D01*
X117942121Y-100474625D01*
X117942116Y-100474626D01*
X117760684Y-100529663D01*
X117760679Y-100529665D01*
X117593481Y-100619035D01*
X117593471Y-100619041D01*
X117484305Y-100708633D01*
X117427329Y-100730933D01*
X117368126Y-100715485D01*
X117329310Y-100668188D01*
X117322500Y-100632105D01*
X117322500Y-99674294D01*
X117341407Y-99616103D01*
X117390907Y-99580139D01*
X117452093Y-99580139D01*
X117484303Y-99597765D01*
X117593476Y-99687362D01*
X117760685Y-99776737D01*
X117887080Y-99815077D01*
X117942116Y-99831773D01*
X117942121Y-99831774D01*
X118130797Y-99850357D01*
X118130800Y-99850357D01*
X118130803Y-99850357D01*
X118319478Y-99831774D01*
X118319483Y-99831773D01*
X118500915Y-99776737D01*
X118668124Y-99687362D01*
X118814683Y-99567083D01*
X118934962Y-99420524D01*
X119024337Y-99253315D01*
X119079373Y-99071883D01*
X119079374Y-99071878D01*
X119097957Y-98883203D01*
X119097957Y-98883196D01*
X119079374Y-98694521D01*
X119079373Y-98694516D01*
X119062677Y-98639480D01*
X119024337Y-98513085D01*
X118934962Y-98345876D01*
X118814683Y-98199317D01*
X118684046Y-98092105D01*
X118668128Y-98079041D01*
X118668126Y-98079040D01*
X118668124Y-98079038D01*
X118571580Y-98027434D01*
X118500920Y-97989665D01*
X118500915Y-97989663D01*
X118319483Y-97934626D01*
X118319478Y-97934625D01*
X118130803Y-97916043D01*
X118130797Y-97916043D01*
X117942121Y-97934625D01*
X117942116Y-97934626D01*
X117760684Y-97989663D01*
X117760679Y-97989665D01*
X117593481Y-98079035D01*
X117593471Y-98079041D01*
X117484305Y-98168633D01*
X117427329Y-98190933D01*
X117368126Y-98175485D01*
X117329310Y-98128188D01*
X117322500Y-98092105D01*
X117322500Y-97134294D01*
X117341407Y-97076103D01*
X117390907Y-97040139D01*
X117452093Y-97040139D01*
X117484303Y-97057765D01*
X117593476Y-97147362D01*
X117760685Y-97236737D01*
X117887080Y-97275077D01*
X117942116Y-97291773D01*
X117942121Y-97291774D01*
X118130797Y-97310357D01*
X118130800Y-97310357D01*
X118130803Y-97310357D01*
X118319478Y-97291774D01*
X118319483Y-97291773D01*
X118500915Y-97236737D01*
X118668124Y-97147362D01*
X118814683Y-97027083D01*
X118934962Y-96880524D01*
X119024337Y-96713315D01*
X119079373Y-96531883D01*
X119079374Y-96531878D01*
X119097957Y-96343203D01*
X119097957Y-96343196D01*
X119079374Y-96154521D01*
X119079373Y-96154516D01*
X119062677Y-96099480D01*
X119024337Y-95973085D01*
X118934962Y-95805876D01*
X118814683Y-95659317D01*
X118684046Y-95552105D01*
X118668128Y-95539041D01*
X118668126Y-95539040D01*
X118668124Y-95539038D01*
X118571580Y-95487434D01*
X118500920Y-95449665D01*
X118500915Y-95449663D01*
X118319483Y-95394626D01*
X118319478Y-95394625D01*
X118130803Y-95376043D01*
X118130797Y-95376043D01*
X117942121Y-95394625D01*
X117942116Y-95394626D01*
X117760684Y-95449663D01*
X117760679Y-95449665D01*
X117593481Y-95539035D01*
X117593471Y-95539041D01*
X117484305Y-95628633D01*
X117427329Y-95650933D01*
X117368126Y-95635485D01*
X117329310Y-95588188D01*
X117322500Y-95552105D01*
X117322500Y-94594294D01*
X117341407Y-94536103D01*
X117390907Y-94500139D01*
X117452093Y-94500139D01*
X117484303Y-94517765D01*
X117593476Y-94607362D01*
X117760685Y-94696737D01*
X117887080Y-94735077D01*
X117942116Y-94751773D01*
X117942121Y-94751774D01*
X118130797Y-94770357D01*
X118130800Y-94770357D01*
X118130803Y-94770357D01*
X118319478Y-94751774D01*
X118319479Y-94751773D01*
X118319483Y-94751773D01*
X118427972Y-94718863D01*
X118489145Y-94720064D01*
X118526714Y-94743596D01*
X121003992Y-97220874D01*
X121031769Y-97275391D01*
X121032141Y-97303797D01*
X121025718Y-97352595D01*
X121025718Y-97352600D01*
X121046355Y-97509358D01*
X121046357Y-97509366D01*
X121106862Y-97655438D01*
X121106862Y-97655439D01*
X121106864Y-97655441D01*
X121203118Y-97780882D01*
X121328559Y-97877136D01*
X121328560Y-97877136D01*
X121328561Y-97877137D01*
X121467352Y-97934626D01*
X121474638Y-97937644D01*
X121592209Y-97953122D01*
X121631399Y-97958282D01*
X121631400Y-97958282D01*
X121631401Y-97958282D01*
X121662752Y-97954154D01*
X121788162Y-97937644D01*
X121934241Y-97877136D01*
X122059682Y-97780882D01*
X122155936Y-97655441D01*
X122216444Y-97509362D01*
X122237082Y-97352600D01*
X122216444Y-97195838D01*
X122196363Y-97147358D01*
X122155937Y-97049761D01*
X122155937Y-97049760D01*
X122059686Y-96924323D01*
X122059685Y-96924322D01*
X122059682Y-96924318D01*
X122059677Y-96924314D01*
X122059676Y-96924313D01*
X121934238Y-96828062D01*
X121788166Y-96767557D01*
X121788158Y-96767555D01*
X121631401Y-96746918D01*
X121631396Y-96746918D01*
X121582597Y-96753341D01*
X121522437Y-96742189D01*
X121499674Y-96725192D01*
X119048480Y-94273998D01*
X119020703Y-94219481D01*
X119023747Y-94175256D01*
X119024334Y-94173320D01*
X119024337Y-94173315D01*
X119079373Y-93991883D01*
X119079374Y-93991878D01*
X119097957Y-93803203D01*
X119097957Y-93803196D01*
X119079374Y-93614521D01*
X119079373Y-93614516D01*
X119062677Y-93559480D01*
X119024337Y-93433085D01*
X118934962Y-93265876D01*
X118814683Y-93119317D01*
X118684046Y-93012105D01*
X118668128Y-92999041D01*
X118668126Y-92999040D01*
X118668124Y-92999038D01*
X118571580Y-92947434D01*
X118500920Y-92909665D01*
X118500915Y-92909663D01*
X118319483Y-92854626D01*
X118319478Y-92854625D01*
X118130803Y-92836043D01*
X118130797Y-92836043D01*
X117942121Y-92854625D01*
X117942116Y-92854626D01*
X117760684Y-92909663D01*
X117760679Y-92909665D01*
X117593481Y-92999035D01*
X117593471Y-92999041D01*
X117484305Y-93088633D01*
X117427329Y-93110933D01*
X117368126Y-93095485D01*
X117329310Y-93048188D01*
X117322500Y-93012105D01*
X117322500Y-92054294D01*
X117341407Y-91996103D01*
X117390907Y-91960139D01*
X117452093Y-91960139D01*
X117484303Y-91977765D01*
X117593476Y-92067362D01*
X117760685Y-92156737D01*
X117887080Y-92195077D01*
X117942116Y-92211773D01*
X117942121Y-92211774D01*
X118130797Y-92230357D01*
X118130800Y-92230357D01*
X118130803Y-92230357D01*
X118319478Y-92211774D01*
X118319483Y-92211773D01*
X118500915Y-92156737D01*
X118668124Y-92067362D01*
X118814683Y-91947083D01*
X118934962Y-91800524D01*
X119024337Y-91633315D01*
X119079373Y-91451883D01*
X119079374Y-91451878D01*
X119097957Y-91263203D01*
X119097957Y-91263196D01*
X119079374Y-91074521D01*
X119079373Y-91074516D01*
X119062677Y-91019480D01*
X119024337Y-90893085D01*
X118934962Y-90725876D01*
X118814683Y-90579317D01*
X118684046Y-90472105D01*
X118668128Y-90459041D01*
X118668126Y-90459040D01*
X118668124Y-90459038D01*
X118571580Y-90407434D01*
X118500920Y-90369665D01*
X118500915Y-90369663D01*
X118319483Y-90314626D01*
X118319478Y-90314625D01*
X118130803Y-90296043D01*
X118130797Y-90296043D01*
X117942121Y-90314625D01*
X117942116Y-90314626D01*
X117760684Y-90369663D01*
X117760679Y-90369665D01*
X117593481Y-90459035D01*
X117593471Y-90459041D01*
X117484305Y-90548633D01*
X117427329Y-90570933D01*
X117368126Y-90555485D01*
X117329310Y-90508188D01*
X117322500Y-90472105D01*
X117322500Y-89514294D01*
X117341407Y-89456103D01*
X117390907Y-89420139D01*
X117452093Y-89420139D01*
X117484303Y-89437765D01*
X117593476Y-89527362D01*
X117760685Y-89616737D01*
X117887080Y-89655077D01*
X117942116Y-89671773D01*
X117942121Y-89671774D01*
X118130797Y-89690357D01*
X118130800Y-89690357D01*
X118130803Y-89690357D01*
X118319478Y-89671774D01*
X118319483Y-89671773D01*
X118500915Y-89616737D01*
X118668124Y-89527362D01*
X118814683Y-89407083D01*
X118934962Y-89260524D01*
X119024337Y-89093315D01*
X119079373Y-88911883D01*
X119079374Y-88911878D01*
X119097957Y-88723203D01*
X119097957Y-88723196D01*
X119079374Y-88534521D01*
X119079373Y-88534516D01*
X119045084Y-88421481D01*
X119024337Y-88353085D01*
X118934962Y-88185876D01*
X118814683Y-88039317D01*
X118684046Y-87932105D01*
X118668128Y-87919041D01*
X118668126Y-87919040D01*
X118668124Y-87919038D01*
X118571580Y-87867434D01*
X118500920Y-87829665D01*
X118500915Y-87829663D01*
X118319483Y-87774626D01*
X118319478Y-87774625D01*
X118130803Y-87756043D01*
X118130797Y-87756043D01*
X117942121Y-87774625D01*
X117942116Y-87774626D01*
X117760684Y-87829663D01*
X117760679Y-87829665D01*
X117593481Y-87919035D01*
X117593471Y-87919041D01*
X117484305Y-88008633D01*
X117427329Y-88030933D01*
X117368126Y-88015485D01*
X117329310Y-87968188D01*
X117322500Y-87932105D01*
X117322500Y-87244700D01*
X117341407Y-87186509D01*
X117390907Y-87150545D01*
X117421500Y-87145700D01*
X118912547Y-87145700D01*
X118912548Y-87145700D01*
X118971031Y-87134067D01*
X119037352Y-87089752D01*
X119081667Y-87023431D01*
X119093300Y-86964948D01*
X119093300Y-85401452D01*
X119081667Y-85342969D01*
X119037352Y-85276648D01*
X119037348Y-85276645D01*
X118971033Y-85232334D01*
X118971031Y-85232333D01*
X118971028Y-85232332D01*
X118971027Y-85232332D01*
X118912558Y-85220701D01*
X118912548Y-85220700D01*
X117421500Y-85220700D01*
X117363309Y-85201793D01*
X117327345Y-85152293D01*
X117322500Y-85121700D01*
X117322500Y-82930240D01*
X117322712Y-82923765D01*
X117339523Y-82667269D01*
X117341213Y-82654430D01*
X117365931Y-82530165D01*
X117390730Y-82405493D01*
X117394077Y-82393000D01*
X117475666Y-82152649D01*
X117480617Y-82140699D01*
X117592871Y-81913067D01*
X117599344Y-81901857D01*
X117643424Y-81835887D01*
X117740355Y-81690818D01*
X117748230Y-81680556D01*
X117841613Y-81574074D01*
X117894194Y-81542792D01*
X117955123Y-81548391D01*
X118001124Y-81588733D01*
X118014627Y-81648409D01*
X118013832Y-81657000D01*
X118032462Y-81858053D01*
X118087719Y-82052259D01*
X118177720Y-82233005D01*
X118299400Y-82394136D01*
X118448616Y-82530165D01*
X118620287Y-82636459D01*
X118808567Y-82709399D01*
X119007043Y-82746500D01*
X119208957Y-82746500D01*
X119407433Y-82709399D01*
X119595713Y-82636459D01*
X119767384Y-82530165D01*
X119916600Y-82394136D01*
X120038280Y-82233005D01*
X120128281Y-82052259D01*
X120183538Y-81858053D01*
X120202168Y-81657000D01*
X120183538Y-81455947D01*
X120128281Y-81261741D01*
X120038280Y-81080995D01*
X120011973Y-81046159D01*
X119991995Y-80988329D01*
X120009824Y-80929799D01*
X120058651Y-80892927D01*
X120090978Y-80887500D01*
X120665022Y-80887500D01*
X120723213Y-80906407D01*
G37*
%TD.AperFunction*%
%TD*%
M02*
