%TF.GenerationSoftware,KiCad,Pcbnew,8.0.3*%
%TF.CreationDate,2024-06-13T10:49:38+02:00*%
%TF.ProjectId,Lora_2__BUS,4c6f7261-5f32-45fb-9542-55532e6b6963,rev?*%
%TF.SameCoordinates,Original*%
%TF.FileFunction,Copper,L1,Top*%
%TF.FilePolarity,Positive*%
%FSLAX46Y46*%
G04 Gerber Fmt 4.6, Leading zero omitted, Abs format (unit mm)*
G04 Created by KiCad (PCBNEW 8.0.3) date 2024-06-13 10:49:38*
%MOMM*%
%LPD*%
G01*
G04 APERTURE LIST*
%TA.AperFunction,EtchedComponent*%
%ADD10C,0.200000*%
%TD*%
%TA.AperFunction,ComponentPad*%
%ADD11C,1.778000*%
%TD*%
%TA.AperFunction,ComponentPad*%
%ADD12R,1.524000X1.524000*%
%TD*%
%TA.AperFunction,ComponentPad*%
%ADD13C,1.524000*%
%TD*%
%TA.AperFunction,ViaPad*%
%ADD14C,0.800000*%
%TD*%
%TA.AperFunction,Conductor*%
%ADD15C,0.400000*%
%TD*%
%TA.AperFunction,Conductor*%
%ADD16C,0.600000*%
%TD*%
%TA.AperFunction,Conductor*%
%ADD17C,0.500000*%
%TD*%
G04 APERTURE END LIST*
D10*
%TO.C,MikroBUS_adapter1*%
X116792000Y-107003200D02*
X116792000Y-82883200D01*
X119332000Y-80343200D02*
X142192000Y-80343200D01*
X139652000Y-109543200D02*
X119332000Y-109543200D01*
X142192000Y-80343200D02*
X142192000Y-107003200D01*
X116792000Y-82883200D02*
G75*
G02*
X119332000Y-80343200I2540001J-1D01*
G01*
X119332000Y-109543200D02*
G75*
G02*
X116792000Y-107003200I1J2540001D01*
G01*
X142192000Y-107003200D02*
G75*
G02*
X139652000Y-109543200I-2540000J0D01*
G01*
%TD*%
D11*
%TO.P,LoRA_breakout1,0,G0*%
%TO.N,/DIO_1*%
X126728000Y-107057000D03*
%TO.P,LoRA_breakout1,1,G1*%
%TO.N,unconnected-(LoRA_breakout1-G1-Pad1)*%
X119108000Y-81657000D03*
%TO.P,LoRA_breakout1,2,G2*%
%TO.N,unconnected-(LoRA_breakout1-G2-Pad2)*%
X121648000Y-81657000D03*
%TO.P,LoRA_breakout1,3,G3*%
%TO.N,unconnected-(LoRA_breakout1-G3-Pad3)*%
X124188000Y-81657000D03*
%TO.P,LoRA_breakout1,4,G4*%
%TO.N,unconnected-(LoRA_breakout1-G4-Pad4)*%
X126728000Y-81657000D03*
%TO.P,LoRA_breakout1,5,G5*%
%TO.N,unconnected-(LoRA_breakout1-G5-Pad5)*%
X129268000Y-81657000D03*
%TO.P,LoRA_breakout1,6,Vin*%
%TO.N,/3.3*%
X119108000Y-107057000D03*
%TO.P,LoRA_breakout1,7,GND*%
%TO.N,/GND*%
X121648000Y-107057000D03*
%TO.P,LoRA_breakout1,8,EN*%
%TO.N,/DIO_0*%
X124188000Y-107057000D03*
%TO.P,LoRA_breakout1,9,SCK*%
%TO.N,/SCK*%
X129268000Y-107057000D03*
%TO.P,LoRA_breakout1,10,MISO*%
%TO.N,/MISO*%
X131808000Y-107057000D03*
%TO.P,LoRA_breakout1,11,MOSI*%
%TO.N,/MOSI*%
X134348000Y-107057000D03*
%TO.P,LoRA_breakout1,12,CS*%
%TO.N,/CS*%
X136888000Y-107057000D03*
%TO.P,LoRA_breakout1,13,RST*%
%TO.N,/RST*%
X139428000Y-107057000D03*
%TD*%
D12*
%TO.P,MikroBUS_adapter1,1,AN*%
%TO.N,unconnected-(MikroBUS_adapter1-AN-Pad1)*%
X118130800Y-86183200D03*
D13*
%TO.P,MikroBUS_adapter1,2,RST*%
%TO.N,/RST*%
X118130800Y-88723200D03*
%TO.P,MikroBUS_adapter1,3,CS*%
%TO.N,/CS*%
X118130800Y-91263200D03*
%TO.P,MikroBUS_adapter1,4,SCK*%
%TO.N,/SCK*%
X118130800Y-93803200D03*
%TO.P,MikroBUS_adapter1,5,MISO*%
%TO.N,/MISO*%
X118130800Y-96343200D03*
%TO.P,MikroBUS_adapter1,6,MOSI*%
%TO.N,/MOSI*%
X118130800Y-98883200D03*
%TO.P,MikroBUS_adapter1,7,3.3V*%
%TO.N,/3.3*%
X118130800Y-101423200D03*
%TO.P,MikroBUS_adapter1,8,GND*%
%TO.N,/GND*%
X118130800Y-103963200D03*
%TO.P,MikroBUS_adapter1,9,PWM_DIO*%
%TO.N,/DIO_0*%
X140992000Y-86183200D03*
%TO.P,MikroBUS_adapter1,10,INT_DIO*%
%TO.N,/DIO_1*%
X140992000Y-88723200D03*
%TO.P,MikroBUS_adapter1,11,Rx*%
%TO.N,unconnected-(MikroBUS_adapter1-Rx-Pad11)*%
X140992000Y-91263200D03*
%TO.P,MikroBUS_adapter1,12,Tx*%
%TO.N,unconnected-(MikroBUS_adapter1-Tx-Pad12)*%
X140992000Y-93803200D03*
%TO.P,MikroBUS_adapter1,13,SCL*%
%TO.N,unconnected-(MikroBUS_adapter1-SCL-Pad13)*%
X140992000Y-96343200D03*
%TO.P,MikroBUS_adapter1,14,SDA*%
%TO.N,unconnected-(MikroBUS_adapter1-SDA-Pad14)*%
X140992000Y-98883200D03*
%TO.P,MikroBUS_adapter1,15,5V*%
%TO.N,unconnected-(MikroBUS_adapter1-5V-Pad15)*%
X140992000Y-101423200D03*
%TO.P,MikroBUS_adapter1,16,GND*%
%TO.N,/GND*%
X140992000Y-103992000D03*
%TD*%
D14*
%TO.N,/SCK*%
X123392000Y-97392000D03*
%TO.N,/MOSI*%
X128000000Y-102000000D03*
%TD*%
D15*
%TO.N,/DIO_1*%
X140992000Y-88772000D02*
X137412000Y-88772000D01*
X137412000Y-88772000D02*
X126728000Y-99456000D01*
X126728000Y-99456000D02*
X126728000Y-107057000D01*
%TO.N,/SCK*%
X119852000Y-93852000D02*
X118130800Y-93852000D01*
X123392000Y-97392000D02*
X119852000Y-93852000D01*
%TO.N,/MOSI*%
X128000000Y-102000000D02*
X132000000Y-102000000D01*
X132000000Y-102000000D02*
X134348000Y-104348000D01*
X134348000Y-104348000D02*
X134348000Y-107057000D01*
D16*
%TO.N,/3.3*%
X120000000Y-105000000D02*
X120000000Y-103292400D01*
X119108000Y-105892000D02*
X120000000Y-105000000D01*
X120000000Y-103292400D02*
X118130800Y-101423200D01*
X119108000Y-107062000D02*
X119108000Y-105892000D01*
D15*
%TO.N,/DIO_0*%
X137352000Y-86232000D02*
X124188000Y-99396000D01*
X124188000Y-99396000D02*
X124188000Y-107057000D01*
X140992000Y-86232000D02*
X137352000Y-86232000D01*
D17*
%TO.N,unconnected-(MikroBUS_adapter1-5V-Pad15)*%
X140992000Y-101472000D02*
X140972000Y-101492000D01*
%TD*%
%TA.AperFunction,Conductor*%
%TO.N,/GND*%
G36*
X141647000Y-80907462D02*
G01*
X141701538Y-80962000D01*
X141721500Y-81036500D01*
X141721500Y-85153794D01*
X141701538Y-85228294D01*
X141647000Y-85282832D01*
X141572500Y-85302794D01*
X141502262Y-85285200D01*
X141389037Y-85224680D01*
X141194408Y-85165639D01*
X140992000Y-85145704D01*
X140789591Y-85165639D01*
X140594962Y-85224680D01*
X140415609Y-85320547D01*
X140415601Y-85320552D01*
X140415599Y-85320553D01*
X140415598Y-85320554D01*
X140325423Y-85394559D01*
X140258380Y-85449580D01*
X140129352Y-85606801D01*
X140129349Y-85606805D01*
X140088764Y-85682737D01*
X140036040Y-85739031D01*
X139962233Y-85761420D01*
X139957357Y-85761500D01*
X137290057Y-85761500D01*
X137170392Y-85793564D01*
X137063105Y-85855506D01*
X123811506Y-99107105D01*
X123749564Y-99214392D01*
X123717500Y-99334056D01*
X123717500Y-105901559D01*
X123697538Y-105976059D01*
X123646939Y-106028241D01*
X123486252Y-106127734D01*
X123486251Y-106127735D01*
X123327448Y-106272504D01*
X123197952Y-106443983D01*
X123197949Y-106443987D01*
X123102167Y-106636343D01*
X123102165Y-106636348D01*
X123043359Y-106843034D01*
X123023533Y-107056995D01*
X123023533Y-107057004D01*
X123043359Y-107270965D01*
X123102165Y-107477651D01*
X123102167Y-107477656D01*
X123197949Y-107670012D01*
X123197952Y-107670016D01*
X123327448Y-107841495D01*
X123486251Y-107986264D01*
X123486256Y-107986268D01*
X123668945Y-108099384D01*
X123668956Y-108099390D01*
X123794726Y-108148113D01*
X123869328Y-108177014D01*
X124080557Y-108216500D01*
X124080559Y-108216500D01*
X124295441Y-108216500D01*
X124295443Y-108216500D01*
X124506672Y-108177014D01*
X124707048Y-108099388D01*
X124889748Y-107986265D01*
X125048551Y-107841496D01*
X125178050Y-107670013D01*
X125273833Y-107477654D01*
X125314688Y-107334063D01*
X125354276Y-107267871D01*
X125421657Y-107230340D01*
X125498776Y-107231528D01*
X125564969Y-107271116D01*
X125601312Y-107334064D01*
X125642165Y-107477651D01*
X125642167Y-107477656D01*
X125737949Y-107670012D01*
X125737952Y-107670016D01*
X125867448Y-107841495D01*
X126026251Y-107986264D01*
X126026256Y-107986268D01*
X126208945Y-108099384D01*
X126208956Y-108099390D01*
X126334726Y-108148113D01*
X126409328Y-108177014D01*
X126620557Y-108216500D01*
X126620559Y-108216500D01*
X126835441Y-108216500D01*
X126835443Y-108216500D01*
X127046672Y-108177014D01*
X127247048Y-108099388D01*
X127429748Y-107986265D01*
X127588551Y-107841496D01*
X127718050Y-107670013D01*
X127813833Y-107477654D01*
X127854688Y-107334063D01*
X127894276Y-107267871D01*
X127961657Y-107230340D01*
X128038776Y-107231528D01*
X128104969Y-107271116D01*
X128141312Y-107334064D01*
X128182165Y-107477651D01*
X128182167Y-107477656D01*
X128277949Y-107670012D01*
X128277952Y-107670016D01*
X128407448Y-107841495D01*
X128566251Y-107986264D01*
X128566256Y-107986268D01*
X128748945Y-108099384D01*
X128748956Y-108099390D01*
X128874726Y-108148113D01*
X128949328Y-108177014D01*
X129160557Y-108216500D01*
X129160559Y-108216500D01*
X129375441Y-108216500D01*
X129375443Y-108216500D01*
X129586672Y-108177014D01*
X129787048Y-108099388D01*
X129969748Y-107986265D01*
X130128551Y-107841496D01*
X130258050Y-107670013D01*
X130353833Y-107477654D01*
X130394688Y-107334063D01*
X130434276Y-107267871D01*
X130501657Y-107230340D01*
X130578776Y-107231528D01*
X130644969Y-107271116D01*
X130681312Y-107334064D01*
X130722165Y-107477651D01*
X130722167Y-107477656D01*
X130817949Y-107670012D01*
X130817952Y-107670016D01*
X130947448Y-107841495D01*
X131106251Y-107986264D01*
X131106256Y-107986268D01*
X131288945Y-108099384D01*
X131288956Y-108099390D01*
X131414726Y-108148113D01*
X131489328Y-108177014D01*
X131700557Y-108216500D01*
X131700559Y-108216500D01*
X131915441Y-108216500D01*
X131915443Y-108216500D01*
X132126672Y-108177014D01*
X132327048Y-108099388D01*
X132509748Y-107986265D01*
X132668551Y-107841496D01*
X132798050Y-107670013D01*
X132893833Y-107477654D01*
X132934688Y-107334063D01*
X132974276Y-107267871D01*
X133041657Y-107230340D01*
X133118776Y-107231528D01*
X133184969Y-107271116D01*
X133221312Y-107334064D01*
X133262165Y-107477651D01*
X133262167Y-107477656D01*
X133357949Y-107670012D01*
X133357952Y-107670016D01*
X133487448Y-107841495D01*
X133646251Y-107986264D01*
X133646256Y-107986268D01*
X133828945Y-108099384D01*
X133828956Y-108099390D01*
X133954726Y-108148113D01*
X134029328Y-108177014D01*
X134240557Y-108216500D01*
X134240559Y-108216500D01*
X134455441Y-108216500D01*
X134455443Y-108216500D01*
X134666672Y-108177014D01*
X134867048Y-108099388D01*
X135049748Y-107986265D01*
X135208551Y-107841496D01*
X135338050Y-107670013D01*
X135433833Y-107477654D01*
X135474688Y-107334063D01*
X135514276Y-107267871D01*
X135581657Y-107230340D01*
X135658776Y-107231528D01*
X135724969Y-107271116D01*
X135761312Y-107334064D01*
X135802165Y-107477651D01*
X135802167Y-107477656D01*
X135897949Y-107670012D01*
X135897952Y-107670016D01*
X136027448Y-107841495D01*
X136186251Y-107986264D01*
X136186256Y-107986268D01*
X136368945Y-108099384D01*
X136368956Y-108099390D01*
X136494726Y-108148113D01*
X136569328Y-108177014D01*
X136780557Y-108216500D01*
X136780559Y-108216500D01*
X136995441Y-108216500D01*
X136995443Y-108216500D01*
X137206672Y-108177014D01*
X137407048Y-108099388D01*
X137589748Y-107986265D01*
X137748551Y-107841496D01*
X137878050Y-107670013D01*
X137973833Y-107477654D01*
X138014688Y-107334063D01*
X138054276Y-107267871D01*
X138121657Y-107230340D01*
X138198776Y-107231528D01*
X138264969Y-107271116D01*
X138301312Y-107334064D01*
X138342165Y-107477651D01*
X138342167Y-107477656D01*
X138437949Y-107670012D01*
X138437952Y-107670016D01*
X138567448Y-107841495D01*
X138726251Y-107986264D01*
X138726256Y-107986268D01*
X138908945Y-108099384D01*
X138908956Y-108099390D01*
X139034726Y-108148113D01*
X139109328Y-108177014D01*
X139320557Y-108216500D01*
X139320559Y-108216500D01*
X139535441Y-108216500D01*
X139535443Y-108216500D01*
X139746672Y-108177014D01*
X139947048Y-108099388D01*
X140129748Y-107986265D01*
X140288551Y-107841496D01*
X140418050Y-107670013D01*
X140513833Y-107477654D01*
X140572640Y-107270970D01*
X140592467Y-107057000D01*
X140572640Y-106843030D01*
X140513833Y-106636346D01*
X140418050Y-106443987D01*
X140288551Y-106272504D01*
X140129748Y-106127735D01*
X140129743Y-106127731D01*
X139947054Y-106014615D01*
X139947043Y-106014609D01*
X139746676Y-105936987D01*
X139746673Y-105936986D01*
X139746672Y-105936986D01*
X139693391Y-105927025D01*
X139535447Y-105897500D01*
X139535443Y-105897500D01*
X139320557Y-105897500D01*
X139320552Y-105897500D01*
X139109323Y-105936987D01*
X138908956Y-106014609D01*
X138908945Y-106014615D01*
X138726256Y-106127731D01*
X138726251Y-106127735D01*
X138567448Y-106272504D01*
X138437952Y-106443983D01*
X138437949Y-106443987D01*
X138342167Y-106636343D01*
X138342165Y-106636349D01*
X138301312Y-106779935D01*
X138261724Y-106846128D01*
X138194343Y-106883659D01*
X138117224Y-106882471D01*
X138051031Y-106842883D01*
X138014688Y-106779935D01*
X137973834Y-106636349D01*
X137973832Y-106636343D01*
X137878050Y-106443987D01*
X137878047Y-106443983D01*
X137748551Y-106272504D01*
X137589748Y-106127735D01*
X137589743Y-106127731D01*
X137407054Y-106014615D01*
X137407043Y-106014609D01*
X137206676Y-105936987D01*
X137206673Y-105936986D01*
X137206672Y-105936986D01*
X137153391Y-105927025D01*
X136995447Y-105897500D01*
X136995443Y-105897500D01*
X136780557Y-105897500D01*
X136780552Y-105897500D01*
X136569323Y-105936987D01*
X136368956Y-106014609D01*
X136368945Y-106014615D01*
X136186256Y-106127731D01*
X136186251Y-106127735D01*
X136027448Y-106272504D01*
X135897952Y-106443983D01*
X135897949Y-106443987D01*
X135802167Y-106636343D01*
X135802165Y-106636349D01*
X135761312Y-106779935D01*
X135721724Y-106846128D01*
X135654343Y-106883659D01*
X135577224Y-106882471D01*
X135511031Y-106842883D01*
X135474688Y-106779935D01*
X135433834Y-106636349D01*
X135433832Y-106636343D01*
X135338050Y-106443987D01*
X135338047Y-106443983D01*
X135208551Y-106272504D01*
X135049748Y-106127735D01*
X135049747Y-106127734D01*
X134889061Y-106028241D01*
X134836229Y-105972049D01*
X134818500Y-105901559D01*
X134818500Y-104286057D01*
X134818499Y-104286055D01*
X134786436Y-104166395D01*
X134786435Y-104166391D01*
X134724493Y-104059105D01*
X132384989Y-101719602D01*
X132384987Y-101719599D01*
X132288894Y-101623506D01*
X132181607Y-101561564D01*
X132061943Y-101529500D01*
X128536549Y-101529500D01*
X128462049Y-101509538D01*
X128437747Y-101492031D01*
X128383685Y-101444136D01*
X128383683Y-101444134D01*
X128239512Y-101368468D01*
X128239507Y-101368466D01*
X128081413Y-101329500D01*
X127918587Y-101329500D01*
X127760492Y-101368466D01*
X127760487Y-101368468D01*
X127616313Y-101444136D01*
X127494436Y-101552110D01*
X127494435Y-101552110D01*
X127470124Y-101587332D01*
X127411374Y-101637305D01*
X127335509Y-101651207D01*
X127262858Y-101625314D01*
X127212885Y-101566564D01*
X127198500Y-101502690D01*
X127198500Y-99712605D01*
X127218462Y-99638105D01*
X127242141Y-99607246D01*
X137563246Y-89286141D01*
X137630041Y-89247577D01*
X137668605Y-89242500D01*
X140012019Y-89242500D01*
X140086519Y-89262462D01*
X140127197Y-89296975D01*
X140258377Y-89456817D01*
X140258378Y-89456818D01*
X140258380Y-89456820D01*
X140415598Y-89585846D01*
X140415607Y-89585851D01*
X140415609Y-89585852D01*
X140594962Y-89681719D01*
X140594964Y-89681719D01*
X140594967Y-89681721D01*
X140687056Y-89709656D01*
X140789591Y-89740760D01*
X140789592Y-89740760D01*
X140789595Y-89740761D01*
X140992000Y-89760696D01*
X141194405Y-89740761D01*
X141389033Y-89681721D01*
X141502261Y-89621198D01*
X141577375Y-89603685D01*
X141651182Y-89626074D01*
X141703906Y-89682366D01*
X141721500Y-89752605D01*
X141721500Y-90233794D01*
X141701538Y-90308294D01*
X141647000Y-90362832D01*
X141572500Y-90382794D01*
X141502262Y-90365200D01*
X141389037Y-90304680D01*
X141194408Y-90245639D01*
X140992000Y-90225704D01*
X140789591Y-90245639D01*
X140594962Y-90304680D01*
X140415609Y-90400547D01*
X140415601Y-90400552D01*
X140415599Y-90400553D01*
X140415598Y-90400554D01*
X140258380Y-90529580D01*
X140183701Y-90620577D01*
X140129352Y-90686801D01*
X140129347Y-90686809D01*
X140033480Y-90866162D01*
X139974439Y-91060791D01*
X139954504Y-91263200D01*
X139974439Y-91465608D01*
X140033480Y-91660237D01*
X140129347Y-91839590D01*
X140129351Y-91839596D01*
X140129354Y-91839602D01*
X140258380Y-91996820D01*
X140415598Y-92125846D01*
X140415607Y-92125851D01*
X140415609Y-92125852D01*
X140594962Y-92221719D01*
X140594964Y-92221719D01*
X140594967Y-92221721D01*
X140687056Y-92249656D01*
X140789591Y-92280760D01*
X140789592Y-92280760D01*
X140789595Y-92280761D01*
X140992000Y-92300696D01*
X141194405Y-92280761D01*
X141389033Y-92221721D01*
X141502261Y-92161198D01*
X141577375Y-92143685D01*
X141651182Y-92166074D01*
X141703906Y-92222366D01*
X141721500Y-92292605D01*
X141721500Y-92773794D01*
X141701538Y-92848294D01*
X141647000Y-92902832D01*
X141572500Y-92922794D01*
X141502262Y-92905200D01*
X141389037Y-92844680D01*
X141194408Y-92785639D01*
X140992000Y-92765704D01*
X140789591Y-92785639D01*
X140594962Y-92844680D01*
X140415609Y-92940547D01*
X140415601Y-92940552D01*
X140415599Y-92940553D01*
X140415598Y-92940554D01*
X140258380Y-93069580D01*
X140183701Y-93160577D01*
X140129352Y-93226801D01*
X140129347Y-93226809D01*
X140033480Y-93406162D01*
X139974439Y-93600791D01*
X139954504Y-93803200D01*
X139974439Y-94005608D01*
X140033480Y-94200237D01*
X140129347Y-94379590D01*
X140129351Y-94379596D01*
X140129354Y-94379602D01*
X140258380Y-94536820D01*
X140415598Y-94665846D01*
X140415607Y-94665851D01*
X140415609Y-94665852D01*
X140594962Y-94761719D01*
X140594964Y-94761719D01*
X140594967Y-94761721D01*
X140687056Y-94789656D01*
X140789591Y-94820760D01*
X140789592Y-94820760D01*
X140789595Y-94820761D01*
X140992000Y-94840696D01*
X141194405Y-94820761D01*
X141389033Y-94761721D01*
X141502261Y-94701198D01*
X141577375Y-94683685D01*
X141651182Y-94706074D01*
X141703906Y-94762366D01*
X141721500Y-94832605D01*
X141721500Y-95313794D01*
X141701538Y-95388294D01*
X141647000Y-95442832D01*
X141572500Y-95462794D01*
X141502262Y-95445200D01*
X141389037Y-95384680D01*
X141194408Y-95325639D01*
X140992000Y-95305704D01*
X140789591Y-95325639D01*
X140594962Y-95384680D01*
X140415609Y-95480547D01*
X140415601Y-95480552D01*
X140415599Y-95480553D01*
X140415598Y-95480554D01*
X140258380Y-95609580D01*
X140183701Y-95700577D01*
X140129352Y-95766801D01*
X140129347Y-95766809D01*
X140033480Y-95946162D01*
X139974439Y-96140791D01*
X139954504Y-96343200D01*
X139974439Y-96545608D01*
X140033480Y-96740237D01*
X140129347Y-96919590D01*
X140129351Y-96919596D01*
X140129354Y-96919602D01*
X140258380Y-97076820D01*
X140415598Y-97205846D01*
X140415607Y-97205851D01*
X140415609Y-97205852D01*
X140594962Y-97301719D01*
X140594964Y-97301719D01*
X140594967Y-97301721D01*
X140687056Y-97329656D01*
X140789591Y-97360760D01*
X140789592Y-97360760D01*
X140789595Y-97360761D01*
X140992000Y-97380696D01*
X141194405Y-97360761D01*
X141389033Y-97301721D01*
X141502261Y-97241198D01*
X141577375Y-97223685D01*
X141651182Y-97246074D01*
X141703906Y-97302366D01*
X141721500Y-97372605D01*
X141721500Y-97853794D01*
X141701538Y-97928294D01*
X141647000Y-97982832D01*
X141572500Y-98002794D01*
X141502262Y-97985200D01*
X141389037Y-97924680D01*
X141194408Y-97865639D01*
X140992000Y-97845704D01*
X140789591Y-97865639D01*
X140594962Y-97924680D01*
X140415609Y-98020547D01*
X140415601Y-98020552D01*
X140415599Y-98020553D01*
X140415598Y-98020554D01*
X140258380Y-98149580D01*
X140183701Y-98240577D01*
X140129352Y-98306801D01*
X140129347Y-98306809D01*
X140033480Y-98486162D01*
X139974439Y-98680791D01*
X139954504Y-98883200D01*
X139974439Y-99085608D01*
X140033480Y-99280237D01*
X140129347Y-99459590D01*
X140129351Y-99459596D01*
X140129354Y-99459602D01*
X140258380Y-99616820D01*
X140415598Y-99745846D01*
X140415607Y-99745851D01*
X140415609Y-99745852D01*
X140594962Y-99841719D01*
X140594964Y-99841719D01*
X140594967Y-99841721D01*
X140687056Y-99869656D01*
X140789591Y-99900760D01*
X140789592Y-99900760D01*
X140789595Y-99900761D01*
X140992000Y-99920696D01*
X141194405Y-99900761D01*
X141389033Y-99841721D01*
X141502261Y-99781198D01*
X141577375Y-99763685D01*
X141651182Y-99786074D01*
X141703906Y-99842366D01*
X141721500Y-99912605D01*
X141721500Y-100393794D01*
X141701538Y-100468294D01*
X141647000Y-100522832D01*
X141572500Y-100542794D01*
X141502262Y-100525200D01*
X141389037Y-100464680D01*
X141194408Y-100405639D01*
X140992000Y-100385704D01*
X140789591Y-100405639D01*
X140594962Y-100464680D01*
X140415609Y-100560547D01*
X140415601Y-100560552D01*
X140415599Y-100560553D01*
X140415598Y-100560554D01*
X140258380Y-100689580D01*
X140183701Y-100780577D01*
X140129352Y-100846801D01*
X140129347Y-100846809D01*
X140033480Y-101026162D01*
X139974439Y-101220791D01*
X139954504Y-101423200D01*
X139974439Y-101625608D01*
X140033480Y-101820237D01*
X140129347Y-101999590D01*
X140129351Y-101999596D01*
X140129354Y-101999602D01*
X140258380Y-102156820D01*
X140415598Y-102285846D01*
X140415607Y-102285851D01*
X140415609Y-102285852D01*
X140594962Y-102381719D01*
X140594964Y-102381719D01*
X140594967Y-102381721D01*
X140729974Y-102422675D01*
X140789591Y-102440760D01*
X140789592Y-102440760D01*
X140789595Y-102440761D01*
X140992000Y-102460696D01*
X141194405Y-102440761D01*
X141389033Y-102381721D01*
X141502261Y-102321198D01*
X141577375Y-102303685D01*
X141651182Y-102326074D01*
X141703906Y-102382366D01*
X141721500Y-102452605D01*
X141721500Y-107052122D01*
X141721181Y-107061867D01*
X141704690Y-107313463D01*
X141702146Y-107332786D01*
X141653912Y-107575277D01*
X141648867Y-107594104D01*
X141569388Y-107828239D01*
X141561930Y-107846245D01*
X141452578Y-108067990D01*
X141442833Y-108084869D01*
X141305470Y-108290447D01*
X141293605Y-108305910D01*
X141130582Y-108491801D01*
X141116801Y-108505582D01*
X140930910Y-108668605D01*
X140915447Y-108680470D01*
X140709869Y-108817833D01*
X140692990Y-108827578D01*
X140471245Y-108936930D01*
X140453239Y-108944388D01*
X140219104Y-109023867D01*
X140200277Y-109028912D01*
X139957786Y-109077146D01*
X139938463Y-109079690D01*
X139686867Y-109096181D01*
X139677122Y-109096500D01*
X119366878Y-109096500D01*
X119357133Y-109096181D01*
X119105536Y-109079690D01*
X119086213Y-109077146D01*
X118843722Y-109028912D01*
X118824895Y-109023867D01*
X118590760Y-108944388D01*
X118572754Y-108936930D01*
X118351009Y-108827578D01*
X118334130Y-108817833D01*
X118128552Y-108680470D01*
X118113089Y-108668605D01*
X117927198Y-108505582D01*
X117913417Y-108491801D01*
X117750394Y-108305910D01*
X117738529Y-108290447D01*
X117601166Y-108084869D01*
X117591421Y-108067990D01*
X117482069Y-107846245D01*
X117474611Y-107828239D01*
X117395132Y-107594104D01*
X117390089Y-107575286D01*
X117341852Y-107332783D01*
X117339309Y-107313463D01*
X117322819Y-107061867D01*
X117322500Y-107052122D01*
X117322500Y-102409656D01*
X117342462Y-102335156D01*
X117397000Y-102280618D01*
X117471500Y-102260656D01*
X117546000Y-102280618D01*
X117554289Y-102285773D01*
X117554393Y-102285842D01*
X117554398Y-102285846D01*
X117554400Y-102285847D01*
X117554405Y-102285850D01*
X117733762Y-102381719D01*
X117733764Y-102381719D01*
X117733767Y-102381721D01*
X117868774Y-102422675D01*
X117928391Y-102440760D01*
X117928392Y-102440760D01*
X117928395Y-102440761D01*
X118130800Y-102460696D01*
X118270670Y-102446920D01*
X118346768Y-102459483D01*
X118390634Y-102489843D01*
X119385859Y-103485068D01*
X119424423Y-103551863D01*
X119429500Y-103590427D01*
X119429500Y-104701972D01*
X119409538Y-104776472D01*
X119385859Y-104807331D01*
X118651488Y-105541702D01*
X118651483Y-105541708D01*
X118576379Y-105671792D01*
X118537500Y-105816889D01*
X118537500Y-105963476D01*
X118517538Y-106037976D01*
X118466939Y-106090158D01*
X118406254Y-106127733D01*
X118247448Y-106272504D01*
X118117952Y-106443983D01*
X118117949Y-106443987D01*
X118022167Y-106636343D01*
X118022165Y-106636348D01*
X117963359Y-106843034D01*
X117943533Y-107056995D01*
X117943533Y-107057004D01*
X117963359Y-107270965D01*
X118022165Y-107477651D01*
X118022167Y-107477656D01*
X118117949Y-107670012D01*
X118117952Y-107670016D01*
X118247448Y-107841495D01*
X118406251Y-107986264D01*
X118406256Y-107986268D01*
X118588945Y-108099384D01*
X118588956Y-108099390D01*
X118714726Y-108148113D01*
X118789328Y-108177014D01*
X119000557Y-108216500D01*
X119000559Y-108216500D01*
X119215441Y-108216500D01*
X119215443Y-108216500D01*
X119426672Y-108177014D01*
X119627048Y-108099388D01*
X119809748Y-107986265D01*
X119968551Y-107841496D01*
X120098050Y-107670013D01*
X120193833Y-107477654D01*
X120252640Y-107270970D01*
X120272467Y-107057000D01*
X120252640Y-106843030D01*
X120193833Y-106636346D01*
X120098050Y-106443987D01*
X119968551Y-106272504D01*
X119856708Y-106170545D01*
X119815102Y-106105603D01*
X119811540Y-106028558D01*
X119846978Y-105960053D01*
X119851692Y-105955114D01*
X120338026Y-105468780D01*
X120338036Y-105468773D01*
X120371324Y-105435485D01*
X120456514Y-105350295D01*
X120531622Y-105220205D01*
X120570500Y-105075108D01*
X120570500Y-103217292D01*
X120531622Y-103072195D01*
X120456514Y-102942105D01*
X120456511Y-102942102D01*
X120350295Y-102835885D01*
X120350295Y-102835886D01*
X119197443Y-101683034D01*
X119158879Y-101616239D01*
X119154520Y-101563070D01*
X119154668Y-101561564D01*
X119168296Y-101423200D01*
X119148361Y-101220795D01*
X119089321Y-101026167D01*
X119089319Y-101026164D01*
X119089319Y-101026162D01*
X118993452Y-100846809D01*
X118993451Y-100846807D01*
X118993446Y-100846798D01*
X118864420Y-100689580D01*
X118707202Y-100560554D01*
X118707196Y-100560551D01*
X118707190Y-100560547D01*
X118527837Y-100464680D01*
X118333208Y-100405639D01*
X118130800Y-100385704D01*
X117928391Y-100405639D01*
X117733762Y-100464680D01*
X117554395Y-100560554D01*
X117554275Y-100560635D01*
X117554192Y-100560662D01*
X117547942Y-100564004D01*
X117547390Y-100562971D01*
X117481239Y-100585424D01*
X117405593Y-100570374D01*
X117347608Y-100519518D01*
X117322819Y-100446482D01*
X117322500Y-100436743D01*
X117322500Y-99869656D01*
X117342462Y-99795156D01*
X117397000Y-99740618D01*
X117471500Y-99720656D01*
X117546000Y-99740618D01*
X117554289Y-99745773D01*
X117554393Y-99745842D01*
X117554398Y-99745846D01*
X117554400Y-99745847D01*
X117554405Y-99745850D01*
X117733762Y-99841719D01*
X117733764Y-99841719D01*
X117733767Y-99841721D01*
X117825856Y-99869656D01*
X117928391Y-99900760D01*
X117928392Y-99900760D01*
X117928395Y-99900761D01*
X118130800Y-99920696D01*
X118333205Y-99900761D01*
X118527833Y-99841721D01*
X118707202Y-99745846D01*
X118864420Y-99616820D01*
X118993446Y-99459602D01*
X119089321Y-99280233D01*
X119148361Y-99085605D01*
X119168296Y-98883200D01*
X119148361Y-98680795D01*
X119089321Y-98486167D01*
X119089319Y-98486164D01*
X119089319Y-98486162D01*
X118993452Y-98306809D01*
X118993451Y-98306807D01*
X118993446Y-98306798D01*
X118864420Y-98149580D01*
X118707202Y-98020554D01*
X118707196Y-98020551D01*
X118707190Y-98020547D01*
X118527837Y-97924680D01*
X118333208Y-97865639D01*
X118130800Y-97845704D01*
X117928391Y-97865639D01*
X117733762Y-97924680D01*
X117554395Y-98020554D01*
X117554275Y-98020635D01*
X117554192Y-98020662D01*
X117547942Y-98024004D01*
X117547390Y-98022971D01*
X117481239Y-98045424D01*
X117405593Y-98030374D01*
X117347608Y-97979518D01*
X117322819Y-97906482D01*
X117322500Y-97896743D01*
X117322500Y-97329656D01*
X117342462Y-97255156D01*
X117397000Y-97200618D01*
X117471500Y-97180656D01*
X117546000Y-97200618D01*
X117554289Y-97205773D01*
X117554393Y-97205842D01*
X117554398Y-97205846D01*
X117554400Y-97205847D01*
X117554405Y-97205850D01*
X117733762Y-97301719D01*
X117733764Y-97301719D01*
X117733767Y-97301721D01*
X117825856Y-97329656D01*
X117928391Y-97360760D01*
X117928392Y-97360760D01*
X117928395Y-97360761D01*
X118130800Y-97380696D01*
X118333205Y-97360761D01*
X118527833Y-97301721D01*
X118707202Y-97205846D01*
X118864420Y-97076820D01*
X118993446Y-96919602D01*
X119089321Y-96740233D01*
X119148361Y-96545605D01*
X119168296Y-96343200D01*
X119148361Y-96140795D01*
X119089321Y-95946167D01*
X119089319Y-95946164D01*
X119089319Y-95946162D01*
X118993452Y-95766809D01*
X118993451Y-95766807D01*
X118993446Y-95766798D01*
X118864420Y-95609580D01*
X118707202Y-95480554D01*
X118707196Y-95480551D01*
X118707190Y-95480547D01*
X118527837Y-95384680D01*
X118333208Y-95325639D01*
X118130800Y-95305704D01*
X117928391Y-95325639D01*
X117733762Y-95384680D01*
X117554395Y-95480554D01*
X117554275Y-95480635D01*
X117554192Y-95480662D01*
X117547942Y-95484004D01*
X117547390Y-95482971D01*
X117481239Y-95505424D01*
X117405593Y-95490374D01*
X117347608Y-95439518D01*
X117322819Y-95366482D01*
X117322500Y-95356743D01*
X117322500Y-94789656D01*
X117342462Y-94715156D01*
X117397000Y-94660618D01*
X117471500Y-94640656D01*
X117546000Y-94660618D01*
X117554289Y-94665773D01*
X117554393Y-94665842D01*
X117554398Y-94665846D01*
X117554400Y-94665847D01*
X117554405Y-94665850D01*
X117733762Y-94761719D01*
X117733764Y-94761719D01*
X117733767Y-94761721D01*
X117825856Y-94789656D01*
X117928391Y-94820760D01*
X117928392Y-94820760D01*
X117928395Y-94820761D01*
X118130800Y-94840696D01*
X118333205Y-94820761D01*
X118527833Y-94761721D01*
X118707202Y-94665846D01*
X118864420Y-94536820D01*
X118904033Y-94488550D01*
X118995603Y-94376975D01*
X119058296Y-94332050D01*
X119110781Y-94322500D01*
X119595395Y-94322500D01*
X119669895Y-94342462D01*
X119700754Y-94366141D01*
X122678830Y-97344217D01*
X122717394Y-97411012D01*
X122721384Y-97431615D01*
X122736201Y-97553635D01*
X122736201Y-97553638D01*
X122793940Y-97705884D01*
X122886438Y-97839892D01*
X123008313Y-97947863D01*
X123146801Y-98020547D01*
X123152491Y-98023533D01*
X123310587Y-98062500D01*
X123473413Y-98062500D01*
X123631509Y-98023533D01*
X123775685Y-97947864D01*
X123881869Y-97853794D01*
X123897561Y-97839892D01*
X123897561Y-97839891D01*
X123897563Y-97839890D01*
X123990059Y-97705886D01*
X124047798Y-97553640D01*
X124067425Y-97392000D01*
X124047798Y-97230360D01*
X123990059Y-97078114D01*
X123897563Y-96944110D01*
X123897561Y-96944107D01*
X123775686Y-96836136D01*
X123631512Y-96760468D01*
X123631507Y-96760466D01*
X123473413Y-96721500D01*
X123448605Y-96721500D01*
X123374105Y-96701538D01*
X123343246Y-96677859D01*
X120236989Y-93571602D01*
X120236987Y-93571599D01*
X120140894Y-93475506D01*
X120033607Y-93413564D01*
X119913943Y-93381500D01*
X119165443Y-93381500D01*
X119090943Y-93361538D01*
X119036405Y-93307000D01*
X119034036Y-93302737D01*
X118993450Y-93226805D01*
X118993449Y-93226803D01*
X118993446Y-93226798D01*
X118864420Y-93069580D01*
X118707202Y-92940554D01*
X118707196Y-92940551D01*
X118707190Y-92940547D01*
X118527837Y-92844680D01*
X118333208Y-92785639D01*
X118130800Y-92765704D01*
X117928391Y-92785639D01*
X117733762Y-92844680D01*
X117554395Y-92940554D01*
X117554275Y-92940635D01*
X117554192Y-92940662D01*
X117547942Y-92944004D01*
X117547390Y-92942971D01*
X117481239Y-92965424D01*
X117405593Y-92950374D01*
X117347608Y-92899518D01*
X117322819Y-92826482D01*
X117322500Y-92816743D01*
X117322500Y-92249656D01*
X117342462Y-92175156D01*
X117397000Y-92120618D01*
X117471500Y-92100656D01*
X117546000Y-92120618D01*
X117554289Y-92125773D01*
X117554393Y-92125842D01*
X117554398Y-92125846D01*
X117554400Y-92125847D01*
X117554405Y-92125850D01*
X117733762Y-92221719D01*
X117733764Y-92221719D01*
X117733767Y-92221721D01*
X117825856Y-92249656D01*
X117928391Y-92280760D01*
X117928392Y-92280760D01*
X117928395Y-92280761D01*
X118130800Y-92300696D01*
X118333205Y-92280761D01*
X118527833Y-92221721D01*
X118707202Y-92125846D01*
X118864420Y-91996820D01*
X118993446Y-91839602D01*
X119089321Y-91660233D01*
X119148361Y-91465605D01*
X119168296Y-91263200D01*
X119148361Y-91060795D01*
X119089321Y-90866167D01*
X119089319Y-90866164D01*
X119089319Y-90866162D01*
X118993452Y-90686809D01*
X118993451Y-90686807D01*
X118993446Y-90686798D01*
X118864420Y-90529580D01*
X118707202Y-90400554D01*
X118707196Y-90400551D01*
X118707190Y-90400547D01*
X118527837Y-90304680D01*
X118333208Y-90245639D01*
X118130800Y-90225704D01*
X117928391Y-90245639D01*
X117733762Y-90304680D01*
X117554395Y-90400554D01*
X117554275Y-90400635D01*
X117554192Y-90400662D01*
X117547942Y-90404004D01*
X117547390Y-90402971D01*
X117481239Y-90425424D01*
X117405593Y-90410374D01*
X117347608Y-90359518D01*
X117322819Y-90286482D01*
X117322500Y-90276743D01*
X117322500Y-89709656D01*
X117342462Y-89635156D01*
X117397000Y-89580618D01*
X117471500Y-89560656D01*
X117546000Y-89580618D01*
X117554289Y-89585773D01*
X117554393Y-89585842D01*
X117554398Y-89585846D01*
X117554400Y-89585847D01*
X117554405Y-89585850D01*
X117733762Y-89681719D01*
X117733764Y-89681719D01*
X117733767Y-89681721D01*
X117825856Y-89709656D01*
X117928391Y-89740760D01*
X117928392Y-89740760D01*
X117928395Y-89740761D01*
X118130800Y-89760696D01*
X118333205Y-89740761D01*
X118527833Y-89681721D01*
X118707202Y-89585846D01*
X118864420Y-89456820D01*
X118993446Y-89299602D01*
X119089321Y-89120233D01*
X119148361Y-88925605D01*
X119168296Y-88723200D01*
X119148361Y-88520795D01*
X119089321Y-88326167D01*
X119089319Y-88326164D01*
X119089319Y-88326162D01*
X118993452Y-88146809D01*
X118993450Y-88146805D01*
X118993446Y-88146798D01*
X118864420Y-87989580D01*
X118707202Y-87860554D01*
X118707196Y-87860551D01*
X118707190Y-87860547D01*
X118527837Y-87764680D01*
X118333208Y-87705639D01*
X118130800Y-87685704D01*
X117928391Y-87705639D01*
X117733762Y-87764680D01*
X117554395Y-87860554D01*
X117554275Y-87860635D01*
X117554192Y-87860662D01*
X117547942Y-87864004D01*
X117547390Y-87862971D01*
X117481239Y-87885424D01*
X117405593Y-87870374D01*
X117347608Y-87819518D01*
X117322819Y-87746482D01*
X117322500Y-87736743D01*
X117322500Y-87364700D01*
X117342462Y-87290200D01*
X117397000Y-87235662D01*
X117471500Y-87215700D01*
X118919440Y-87215700D01*
X118998344Y-87200005D01*
X119087819Y-87140219D01*
X119147605Y-87050744D01*
X119163300Y-86971840D01*
X119163300Y-85394560D01*
X119147605Y-85315656D01*
X119125672Y-85282832D01*
X119087820Y-85226182D01*
X119087817Y-85226179D01*
X118998345Y-85166395D01*
X118919440Y-85150700D01*
X117471500Y-85150700D01*
X117397000Y-85130738D01*
X117342462Y-85076200D01*
X117322500Y-85001700D01*
X117322500Y-82931877D01*
X117322819Y-82922132D01*
X117329742Y-82816500D01*
X117339309Y-82670530D01*
X117341853Y-82651213D01*
X117390090Y-82408710D01*
X117395132Y-82389895D01*
X117474611Y-82155760D01*
X117482069Y-82137754D01*
X117511707Y-82077654D01*
X117591424Y-81916002D01*
X117601162Y-81899136D01*
X117688063Y-81769079D01*
X117746049Y-81718228D01*
X117821695Y-81703181D01*
X117894730Y-81727973D01*
X117945584Y-81785961D01*
X117960314Y-81838111D01*
X117963359Y-81870966D01*
X118022165Y-82077651D01*
X118022167Y-82077656D01*
X118117949Y-82270012D01*
X118117952Y-82270016D01*
X118247448Y-82441495D01*
X118406251Y-82586264D01*
X118406256Y-82586268D01*
X118588945Y-82699384D01*
X118588956Y-82699390D01*
X118764738Y-82767487D01*
X118789328Y-82777014D01*
X119000557Y-82816500D01*
X119000559Y-82816500D01*
X119215441Y-82816500D01*
X119215443Y-82816500D01*
X119426672Y-82777014D01*
X119627048Y-82699388D01*
X119809748Y-82586265D01*
X119968551Y-82441496D01*
X120098050Y-82270013D01*
X120193833Y-82077654D01*
X120234688Y-81934063D01*
X120274276Y-81867871D01*
X120341657Y-81830340D01*
X120418776Y-81831528D01*
X120484969Y-81871116D01*
X120521312Y-81934064D01*
X120562165Y-82077651D01*
X120562167Y-82077656D01*
X120657949Y-82270012D01*
X120657952Y-82270016D01*
X120787448Y-82441495D01*
X120946251Y-82586264D01*
X120946256Y-82586268D01*
X121128945Y-82699384D01*
X121128956Y-82699390D01*
X121304738Y-82767487D01*
X121329328Y-82777014D01*
X121540557Y-82816500D01*
X121540559Y-82816500D01*
X121755441Y-82816500D01*
X121755443Y-82816500D01*
X121966672Y-82777014D01*
X122167048Y-82699388D01*
X122349748Y-82586265D01*
X122508551Y-82441496D01*
X122638050Y-82270013D01*
X122733833Y-82077654D01*
X122774688Y-81934063D01*
X122814276Y-81867871D01*
X122881657Y-81830340D01*
X122958776Y-81831528D01*
X123024969Y-81871116D01*
X123061312Y-81934064D01*
X123102165Y-82077651D01*
X123102167Y-82077656D01*
X123197949Y-82270012D01*
X123197952Y-82270016D01*
X123327448Y-82441495D01*
X123486251Y-82586264D01*
X123486256Y-82586268D01*
X123668945Y-82699384D01*
X123668956Y-82699390D01*
X123844738Y-82767487D01*
X123869328Y-82777014D01*
X124080557Y-82816500D01*
X124080559Y-82816500D01*
X124295441Y-82816500D01*
X124295443Y-82816500D01*
X124506672Y-82777014D01*
X124707048Y-82699388D01*
X124889748Y-82586265D01*
X125048551Y-82441496D01*
X125178050Y-82270013D01*
X125273833Y-82077654D01*
X125314688Y-81934063D01*
X125354276Y-81867871D01*
X125421657Y-81830340D01*
X125498776Y-81831528D01*
X125564969Y-81871116D01*
X125601312Y-81934064D01*
X125642165Y-82077651D01*
X125642167Y-82077656D01*
X125737949Y-82270012D01*
X125737952Y-82270016D01*
X125867448Y-82441495D01*
X126026251Y-82586264D01*
X126026256Y-82586268D01*
X126208945Y-82699384D01*
X126208956Y-82699390D01*
X126384738Y-82767487D01*
X126409328Y-82777014D01*
X126620557Y-82816500D01*
X126620559Y-82816500D01*
X126835441Y-82816500D01*
X126835443Y-82816500D01*
X127046672Y-82777014D01*
X127247048Y-82699388D01*
X127429748Y-82586265D01*
X127588551Y-82441496D01*
X127718050Y-82270013D01*
X127813833Y-82077654D01*
X127854688Y-81934063D01*
X127894276Y-81867871D01*
X127961657Y-81830340D01*
X128038776Y-81831528D01*
X128104969Y-81871116D01*
X128141312Y-81934064D01*
X128182165Y-82077651D01*
X128182167Y-82077656D01*
X128277949Y-82270012D01*
X128277952Y-82270016D01*
X128407448Y-82441495D01*
X128566251Y-82586264D01*
X128566256Y-82586268D01*
X128748945Y-82699384D01*
X128748956Y-82699390D01*
X128924738Y-82767487D01*
X128949328Y-82777014D01*
X129160557Y-82816500D01*
X129160559Y-82816500D01*
X129375441Y-82816500D01*
X129375443Y-82816500D01*
X129586672Y-82777014D01*
X129787048Y-82699388D01*
X129969748Y-82586265D01*
X130128551Y-82441496D01*
X130258050Y-82270013D01*
X130353833Y-82077654D01*
X130412640Y-81870970D01*
X130423655Y-81752097D01*
X130432467Y-81657004D01*
X130432467Y-81656995D01*
X130421452Y-81538127D01*
X130412640Y-81443030D01*
X130353833Y-81236346D01*
X130287391Y-81102913D01*
X130272055Y-81027327D01*
X130296566Y-80954197D01*
X130354357Y-80903120D01*
X130420772Y-80887500D01*
X141572500Y-80887500D01*
X141647000Y-80907462D01*
G37*
%TD.AperFunction*%
%TD*%
%TA.AperFunction,NonConductor*%
G36*
X127422000Y-102368271D02*
G01*
X127470125Y-102412668D01*
X127494437Y-102447890D01*
X127616313Y-102555863D01*
X127616315Y-102555864D01*
X127760491Y-102631533D01*
X127918587Y-102670500D01*
X128081413Y-102670500D01*
X128239509Y-102631533D01*
X128383685Y-102555864D01*
X128437744Y-102507971D01*
X128506745Y-102473511D01*
X128536549Y-102470500D01*
X131743395Y-102470500D01*
X131817895Y-102490462D01*
X131848754Y-102514141D01*
X133833859Y-104499246D01*
X133872423Y-104566041D01*
X133877500Y-104604605D01*
X133877500Y-105901559D01*
X133857538Y-105976059D01*
X133806939Y-106028241D01*
X133646252Y-106127734D01*
X133646251Y-106127735D01*
X133487448Y-106272504D01*
X133357952Y-106443983D01*
X133357949Y-106443987D01*
X133262167Y-106636343D01*
X133262165Y-106636349D01*
X133221312Y-106779935D01*
X133181724Y-106846128D01*
X133114343Y-106883659D01*
X133037224Y-106882471D01*
X132971031Y-106842883D01*
X132934688Y-106779935D01*
X132893834Y-106636349D01*
X132893832Y-106636343D01*
X132798050Y-106443987D01*
X132798047Y-106443983D01*
X132668551Y-106272504D01*
X132509748Y-106127735D01*
X132509743Y-106127731D01*
X132327054Y-106014615D01*
X132327043Y-106014609D01*
X132126676Y-105936987D01*
X132126673Y-105936986D01*
X132126672Y-105936986D01*
X132073391Y-105927025D01*
X131915447Y-105897500D01*
X131915443Y-105897500D01*
X131700557Y-105897500D01*
X131700552Y-105897500D01*
X131489323Y-105936987D01*
X131288956Y-106014609D01*
X131288945Y-106014615D01*
X131106256Y-106127731D01*
X131106251Y-106127735D01*
X130947448Y-106272504D01*
X130817952Y-106443983D01*
X130817949Y-106443987D01*
X130722167Y-106636343D01*
X130722165Y-106636349D01*
X130681312Y-106779935D01*
X130641724Y-106846128D01*
X130574343Y-106883659D01*
X130497224Y-106882471D01*
X130431031Y-106842883D01*
X130394688Y-106779935D01*
X130353834Y-106636349D01*
X130353832Y-106636343D01*
X130258050Y-106443987D01*
X130258047Y-106443983D01*
X130128551Y-106272504D01*
X129969748Y-106127735D01*
X129969743Y-106127731D01*
X129787054Y-106014615D01*
X129787043Y-106014609D01*
X129586676Y-105936987D01*
X129586673Y-105936986D01*
X129586672Y-105936986D01*
X129533391Y-105927025D01*
X129375447Y-105897500D01*
X129375443Y-105897500D01*
X129160557Y-105897500D01*
X129160552Y-105897500D01*
X128949323Y-105936987D01*
X128748956Y-106014609D01*
X128748945Y-106014615D01*
X128566256Y-106127731D01*
X128566251Y-106127735D01*
X128407448Y-106272504D01*
X128277952Y-106443983D01*
X128277949Y-106443987D01*
X128182167Y-106636343D01*
X128182165Y-106636349D01*
X128141312Y-106779935D01*
X128101724Y-106846128D01*
X128034343Y-106883659D01*
X127957224Y-106882471D01*
X127891031Y-106842883D01*
X127854688Y-106779935D01*
X127813834Y-106636349D01*
X127813832Y-106636343D01*
X127718050Y-106443987D01*
X127718047Y-106443983D01*
X127588551Y-106272504D01*
X127429748Y-106127735D01*
X127429747Y-106127734D01*
X127269061Y-106028241D01*
X127216229Y-105972049D01*
X127198500Y-105901559D01*
X127198500Y-102497309D01*
X127218462Y-102422809D01*
X127273000Y-102368271D01*
X127347500Y-102348309D01*
X127422000Y-102368271D01*
G37*
%TD.AperFunction*%
%TA.AperFunction,NonConductor*%
G36*
X140086519Y-86722462D02*
G01*
X140127197Y-86756975D01*
X140258377Y-86916817D01*
X140258378Y-86916818D01*
X140258380Y-86916820D01*
X140415598Y-87045846D01*
X140415607Y-87045851D01*
X140415609Y-87045852D01*
X140594962Y-87141719D01*
X140594964Y-87141719D01*
X140594967Y-87141721D01*
X140729974Y-87182675D01*
X140789591Y-87200760D01*
X140789592Y-87200760D01*
X140789595Y-87200761D01*
X140992000Y-87220696D01*
X141194405Y-87200761D01*
X141389033Y-87141721D01*
X141502261Y-87081198D01*
X141577375Y-87063685D01*
X141651182Y-87086074D01*
X141703906Y-87142366D01*
X141721500Y-87212605D01*
X141721500Y-87693794D01*
X141701538Y-87768294D01*
X141647000Y-87822832D01*
X141572500Y-87842794D01*
X141502262Y-87825200D01*
X141389037Y-87764680D01*
X141194408Y-87705639D01*
X140992000Y-87685704D01*
X140789591Y-87705639D01*
X140594962Y-87764680D01*
X140415609Y-87860547D01*
X140415601Y-87860552D01*
X140415599Y-87860553D01*
X140415598Y-87860554D01*
X140258380Y-87989580D01*
X140183701Y-88080577D01*
X140129352Y-88146801D01*
X140129349Y-88146805D01*
X140088764Y-88222737D01*
X140036040Y-88279031D01*
X139962233Y-88301420D01*
X139957357Y-88301500D01*
X137483088Y-88301500D01*
X137483072Y-88301499D01*
X137473943Y-88301499D01*
X137350058Y-88301499D01*
X137290226Y-88317531D01*
X137230393Y-88333564D01*
X137123105Y-88395506D01*
X126351506Y-99167105D01*
X126289564Y-99274392D01*
X126257500Y-99394056D01*
X126257500Y-105901559D01*
X126237538Y-105976059D01*
X126186939Y-106028241D01*
X126026252Y-106127734D01*
X126026251Y-106127735D01*
X125867448Y-106272504D01*
X125737952Y-106443983D01*
X125737949Y-106443987D01*
X125642167Y-106636343D01*
X125642165Y-106636349D01*
X125601312Y-106779935D01*
X125561724Y-106846128D01*
X125494343Y-106883659D01*
X125417224Y-106882471D01*
X125351031Y-106842883D01*
X125314688Y-106779935D01*
X125273834Y-106636349D01*
X125273832Y-106636343D01*
X125178050Y-106443987D01*
X125178047Y-106443983D01*
X125048551Y-106272504D01*
X124889748Y-106127735D01*
X124889747Y-106127734D01*
X124729061Y-106028241D01*
X124676229Y-105972049D01*
X124658500Y-105901559D01*
X124658500Y-99652605D01*
X124678462Y-99578105D01*
X124702141Y-99547246D01*
X137503247Y-86746141D01*
X137570042Y-86707577D01*
X137608606Y-86702500D01*
X140012019Y-86702500D01*
X140086519Y-86722462D01*
G37*
%TD.AperFunction*%
M02*
