M48
; DRILL file {KiCad 8.0.2} date 2024-06-13T10:19:43+0200
; FORMAT={-:-/ absolute / inch / decimal}
; #@! TF.CreationDate,2024-06-13T10:19:43+02:00
; #@! TF.GenerationSoftware,Kicad,Pcbnew,8.0.2
; #@! TF.FileFunction,Plated,1,2,PTH
FMAT,2
INCH
; #@! TA.AperFunction,Plated,PTH,ViaDrill
T1C0.0157
; #@! TA.AperFunction,Plated,PTH,ComponentDrill
T2C0.0360
; #@! TA.AperFunction,Plated,PTH,ComponentDrill
T3C0.0394
%
G90
G05
T1
X4.858Y-3.8343
X5.0394Y-4.0157
T2
X4.6508Y-3.393
X4.6508Y-3.493
X4.6508Y-3.593
X4.6508Y-3.693
X4.6508Y-3.793
X4.6508Y-3.893
X4.6508Y-3.993
X4.6508Y-4.093
X5.5509Y-3.393
X5.5509Y-3.493
X5.5509Y-3.593
X5.5509Y-3.693
X5.5509Y-3.793
X5.5509Y-3.893
X5.5509Y-3.993
X5.5509Y-4.0942
T3
X4.6893Y-3.2148
X4.6893Y-4.2148
X4.7893Y-3.2148
X4.7893Y-4.2148
X4.8893Y-3.2148
X4.8893Y-4.2148
X4.9893Y-3.2148
X4.9893Y-4.2148
X5.0893Y-3.2148
X5.0893Y-4.2148
X5.1893Y-4.2148
X5.2893Y-4.2148
X5.3893Y-4.2148
X5.4893Y-4.2148
M30
