%TF.GenerationSoftware,KiCad,Pcbnew,8.0.3-8.0.3-0~ubuntu22.04.1*%
%TF.CreationDate,2024-07-23T11:48:16+02:00*%
%TF.ProjectId,I2c_multi,4932635f-6d75-46c7-9469-2e6b69636164,rev?*%
%TF.SameCoordinates,Original*%
%TF.FileFunction,Profile,NP*%
%FSLAX46Y46*%
G04 Gerber Fmt 4.6, Leading zero omitted, Abs format (unit mm)*
G04 Created by KiCad (PCBNEW 8.0.3-8.0.3-0~ubuntu22.04.1) date 2024-07-23 11:48:16*
%MOMM*%
%LPD*%
G01*
G04 APERTURE LIST*
%TA.AperFunction,Profile*%
%ADD10C,0.050000*%
%TD*%
G04 APERTURE END LIST*
D10*
X201422000Y-78740000D02*
X194310000Y-78740000D01*
X203962000Y-76200000D02*
X201422000Y-78740000D01*
X203962000Y-50800000D02*
X203962000Y-76200000D01*
X201422000Y-48260000D02*
X203962000Y-50800000D01*
X194310000Y-48260000D02*
X201422000Y-48260000D01*
X193040000Y-46990000D02*
X194310000Y-48260000D01*
X193040000Y-39878000D02*
X193040000Y-46990000D01*
X190500000Y-37338000D02*
X193040000Y-39878000D01*
X165100000Y-37338000D02*
X190500000Y-37338000D01*
X162560000Y-39878000D02*
X165100000Y-37338000D01*
X162560000Y-46990000D02*
X162560000Y-39878000D01*
X161290000Y-48260000D02*
X162560000Y-46990000D01*
X154178000Y-48260000D02*
X161290000Y-48260000D01*
X151638000Y-50800000D02*
X154178000Y-48260000D01*
X151638000Y-76200000D02*
X151638000Y-50800000D01*
X154178000Y-78740000D02*
X151638000Y-76200000D01*
X161290000Y-78740000D02*
X154178000Y-78740000D01*
X162560000Y-80010000D02*
X161290000Y-78740000D01*
X162560000Y-87122000D02*
X162560000Y-80010000D01*
X165100000Y-89662000D02*
X162560000Y-87122000D01*
X190500000Y-89662000D02*
X165100000Y-89662000D01*
X193040000Y-87122000D02*
X190500000Y-89662000D01*
X193040000Y-80010000D02*
X193040000Y-87122000D01*
X194310000Y-78740000D02*
X193040000Y-80010000D01*
X201422000Y-78740000D02*
X194310000Y-78740000D01*
X203962000Y-76200000D02*
X201422000Y-78740000D01*
X203962000Y-50800000D02*
X203962000Y-76200000D01*
M02*
