M48
; DRILL file {KiCad 8.0.3-8.0.3-0~ubuntu22.04.1} date 2024-07-22T11:06:39+0200
; FORMAT={-:-/ absolute / inch / decimal}
; #@! TF.CreationDate,2024-07-22T11:06:39+02:00
; #@! TF.GenerationSoftware,Kicad,Pcbnew,8.0.3-8.0.3-0~ubuntu22.04.1
; #@! TF.FileFunction,Plated,1,2,PTH
FMAT,2
INCH
; #@! TA.AperFunction,Plated,PTH,ComponentDrill
T1C0.0394
%
G90
G05
T1
X6.151Y-2.3
X6.151Y-2.4
X6.151Y-2.5
X6.151Y-2.6
X6.151Y-2.7
X6.521Y-2.35
X6.521Y-2.45
X6.521Y-2.55
X6.521Y-2.65
X6.641Y-3.0
X6.641Y-3.1
X6.751Y-2.35
X6.751Y-2.45
X6.751Y-2.55
X6.751Y-2.65
X6.7988Y-1.651
X6.8012Y-3.349
X6.8988Y-1.651
X6.9012Y-3.349
X6.9988Y-1.651
X7.0012Y-3.349
X7.0988Y-1.651
X7.1012Y-3.349
X7.1988Y-1.651
X7.2012Y-3.349
X7.301Y-2.35
X7.301Y-2.45
X7.301Y-2.55
X7.301Y-2.65
X7.531Y-2.3504
X7.531Y-2.4504
X7.531Y-2.5504
X7.531Y-2.6504
X7.849Y-2.2988
X7.849Y-2.3988
X7.849Y-2.4988
X7.849Y-2.5988
X7.849Y-2.6988
M30
