%TF.GenerationSoftware,KiCad,Pcbnew,8.0.3-8.0.3-0~ubuntu22.04.1*%
%TF.CreationDate,2024-07-23T11:48:16+02:00*%
%TF.ProjectId,I2c_multi,4932635f-6d75-46c7-9469-2e6b69636164,rev?*%
%TF.SameCoordinates,Original*%
%TF.FileFunction,Copper,L1,Top*%
%TF.FilePolarity,Positive*%
%FSLAX46Y46*%
G04 Gerber Fmt 4.6, Leading zero omitted, Abs format (unit mm)*
G04 Created by KiCad (PCBNEW 8.0.3-8.0.3-0~ubuntu22.04.1) date 2024-07-23 11:48:16*
%MOMM*%
%LPD*%
G01*
G04 APERTURE LIST*
G04 Aperture macros list*
%AMRoundRect*
0 Rectangle with rounded corners*
0 $1 Rounding radius*
0 $2 $3 $4 $5 $6 $7 $8 $9 X,Y pos of 4 corners*
0 Add a 4 corners polygon primitive as box body*
4,1,4,$2,$3,$4,$5,$6,$7,$8,$9,$2,$3,0*
0 Add four circle primitives for the rounded corners*
1,1,$1+$1,$2,$3*
1,1,$1+$1,$4,$5*
1,1,$1+$1,$6,$7*
1,1,$1+$1,$8,$9*
0 Add four rect primitives between the rounded corners*
20,1,$1+$1,$2,$3,$4,$5,0*
20,1,$1+$1,$4,$5,$6,$7,0*
20,1,$1+$1,$6,$7,$8,$9,0*
20,1,$1+$1,$8,$9,$2,$3,0*%
G04 Aperture macros list end*
%TA.AperFunction,SMDPad,CuDef*%
%ADD10RoundRect,0.237500X-0.237500X0.300000X-0.237500X-0.300000X0.237500X-0.300000X0.237500X0.300000X0*%
%TD*%
%TA.AperFunction,SMDPad,CuDef*%
%ADD11R,0.787400X0.355600*%
%TD*%
%TA.AperFunction,ComponentPad*%
%ADD12R,1.700000X1.700000*%
%TD*%
%TA.AperFunction,ComponentPad*%
%ADD13O,1.700000X1.700000*%
%TD*%
%TA.AperFunction,SMDPad,CuDef*%
%ADD14RoundRect,0.237500X0.300000X0.237500X-0.300000X0.237500X-0.300000X-0.237500X0.300000X-0.237500X0*%
%TD*%
%TA.AperFunction,SMDPad,CuDef*%
%ADD15RoundRect,0.237500X0.237500X-0.300000X0.237500X0.300000X-0.237500X0.300000X-0.237500X-0.300000X0*%
%TD*%
%TA.AperFunction,SMDPad,CuDef*%
%ADD16R,0.355600X0.787400*%
%TD*%
%TA.AperFunction,Conductor*%
%ADD17C,0.508000*%
%TD*%
%TA.AperFunction,Conductor*%
%ADD18C,0.254000*%
%TD*%
G04 APERTURE END LIST*
D10*
%TO.P,C8,1*%
%TO.N,Net-(J4_EZO_CO1-Pin_5)*%
X172669200Y-45873500D03*
%TO.P,C8,2*%
%TO.N,GND*%
X172669200Y-47598500D03*
%TD*%
D11*
%TO.P,U2,1,OUT*%
%TO.N,Net-(J4_EZO_CO1-Pin_5)*%
X174955200Y-45832014D03*
%TO.P,U2,2,GND*%
%TO.N,GND*%
X174955200Y-46482000D03*
%TO.P,U2,3,EN*%
%TO.N,D1*%
X174955200Y-47131986D03*
%TO.P,U2,4,IN*%
%TO.N,3.3*%
X177088800Y-47131986D03*
%TO.P,U2,5,GND*%
%TO.N,GND*%
X177088800Y-46482000D03*
%TO.P,U2,6,N/C*%
%TO.N,unconnected-(U2-N{slash}C-Pad6)*%
X177088800Y-45832014D03*
%TD*%
D10*
%TO.P,C7,1*%
%TO.N,GND*%
X199390000Y-53239500D03*
%TO.P,C7,2*%
%TO.N,Net-(J3_EZO_ORP1-Pin_5)*%
X199390000Y-54964500D03*
%TD*%
D11*
%TO.P,U3,1,OUT*%
%TO.N,Net-(J3_EZO_ORP1-Pin_5)*%
X196900800Y-55005986D03*
%TO.P,U3,2,GND*%
%TO.N,GND*%
X196900800Y-54356000D03*
%TO.P,U3,3,EN*%
%TO.N,D2*%
X196900800Y-53706014D03*
%TO.P,U3,4,IN*%
%TO.N,3.3*%
X194767200Y-53706014D03*
%TO.P,U3,5,GND*%
%TO.N,GND*%
X194767200Y-54356000D03*
%TO.P,U3,6,N/C*%
%TO.N,unconnected-(U3-N{slash}C-Pad6)*%
X194767200Y-55005986D03*
%TD*%
D12*
%TO.P,J3_EZO_ORP1,1,Pin_1*%
%TO.N,SC1*%
X199365000Y-68550000D03*
D13*
%TO.P,J3_EZO_ORP1,2,Pin_2*%
%TO.N,SD1*%
X199365000Y-66010000D03*
%TO.P,J3_EZO_ORP1,3,Pin_3*%
%TO.N,GND*%
X199365000Y-63470000D03*
%TO.P,J3_EZO_ORP1,4,Pin_4*%
%TO.N,unconnected-(J3_EZO_ORP1-Pin_4-Pad4)*%
X199365000Y-60930000D03*
%TO.P,J3_EZO_ORP1,5,Pin_5*%
%TO.N,Net-(J3_EZO_ORP1-Pin_5)*%
X199365000Y-58390000D03*
%TD*%
D14*
%TO.P,C6,1*%
%TO.N,GND*%
X187552500Y-85090000D03*
%TO.P,C6,2*%
%TO.N,Net-(J2_EZO_Ph1-Pin_5)*%
X185827500Y-85090000D03*
%TD*%
D15*
%TO.P,C1,1*%
%TO.N,GND*%
X179578000Y-47090500D03*
%TO.P,C1,2*%
%TO.N,3.3*%
X179578000Y-45365500D03*
%TD*%
D12*
%TO.P,J5_Feather2,1,Pin_1*%
%TO.N,unconnected-(J5_Feather2-Pin_1-Pad1)*%
X171475000Y-59690000D03*
D13*
%TO.P,J5_Feather2,2,Pin_2*%
%TO.N,GND*%
X171475000Y-62230000D03*
%TO.P,J5_Feather2,3,Pin_3*%
%TO.N,SDA*%
X171475000Y-64770000D03*
%TO.P,J5_Feather2,4,Pin_4*%
%TO.N,SCL*%
X171475000Y-67310000D03*
%TD*%
D12*
%TO.P,J4_EZO_CO1,1,Pin_1*%
%TO.N,SC1*%
X182850000Y-41935000D03*
D13*
%TO.P,J4_EZO_CO1,2,Pin_2*%
%TO.N,SD1*%
X180310000Y-41935000D03*
%TO.P,J4_EZO_CO1,3,Pin_3*%
%TO.N,GND*%
X177770000Y-41935000D03*
%TO.P,J4_EZO_CO1,4,Pin_4*%
%TO.N,unconnected-(J4_EZO_CO1-Pin_4-Pad4)*%
X175230000Y-41935000D03*
%TO.P,J4_EZO_CO1,5,Pin_5*%
%TO.N,Net-(J4_EZO_CO1-Pin_5)*%
X172690000Y-41935000D03*
%TD*%
D10*
%TO.P,C2,1*%
%TO.N,3.3*%
X192532000Y-53635486D03*
%TO.P,C2,2*%
%TO.N,GND*%
X192532000Y-55360486D03*
%TD*%
D16*
%TO.P,U4,1,OUT*%
%TO.N,Net-(J2_EZO_Ph1-Pin_5)*%
X185786014Y-82346800D03*
%TO.P,U4,2,GND*%
%TO.N,GND*%
X186436000Y-82346800D03*
%TO.P,U4,3,EN*%
%TO.N,D3*%
X187085986Y-82346800D03*
%TO.P,U4,4,IN*%
%TO.N,3.3*%
X187085986Y-80213200D03*
%TO.P,U4,5,GND*%
%TO.N,GND*%
X186436000Y-80213200D03*
%TO.P,U4,6,N/C*%
%TO.N,unconnected-(U4-N{slash}C-Pad6)*%
X185786014Y-80213200D03*
%TD*%
D12*
%TO.P,J1_EZO_DO1,1,Pin_1*%
%TO.N,SC1*%
X156235000Y-58420000D03*
D13*
%TO.P,J1_EZO_DO1,2,Pin_2*%
%TO.N,SD1*%
X156235000Y-60960000D03*
%TO.P,J1_EZO_DO1,3,Pin_3*%
%TO.N,GND*%
X156235000Y-63500000D03*
%TO.P,J1_EZO_DO1,4,Pin_4*%
%TO.N,unconnected-(J1_EZO_DO1-Pin_4-Pad4)*%
X156235000Y-66040000D03*
%TO.P,J1_EZO_DO1,5,Pin_5*%
%TO.N,Net-(J1_EZO_DO1-Pin_5)*%
X156235000Y-68580000D03*
%TD*%
D12*
%TO.P,J6_PWR1,1,Pin_1*%
%TO.N,Net-(J6_PWR1-Pin_1)*%
X168681000Y-76200000D03*
D13*
%TO.P,J6_PWR1,2,Pin_2*%
%TO.N,GND*%
X168681000Y-78740000D03*
%TD*%
D12*
%TO.P,J2_EZO_Ph1,1,Pin_1*%
%TO.N,SC1*%
X172750000Y-85065000D03*
D13*
%TO.P,J2_EZO_Ph1,2,Pin_2*%
%TO.N,SD1*%
X175290000Y-85065000D03*
%TO.P,J2_EZO_Ph1,3,Pin_3*%
%TO.N,GND*%
X177830000Y-85065000D03*
%TO.P,J2_EZO_Ph1,4,Pin_4*%
%TO.N,unconnected-(J2_EZO_Ph1-Pin_4-Pad4)*%
X180370000Y-85065000D03*
%TO.P,J2_EZO_Ph1,5,Pin_5*%
%TO.N,Net-(J2_EZO_Ph1-Pin_5)*%
X182910000Y-85065000D03*
%TD*%
D14*
%TO.P,C3,1*%
%TO.N,3.3*%
X187044500Y-77724000D03*
%TO.P,C3,2*%
%TO.N,GND*%
X185319500Y-77724000D03*
%TD*%
D11*
%TO.P,U5,1,OUT*%
%TO.N,Net-(J1_EZO_DO1-Pin_5)*%
X158191200Y-71740014D03*
%TO.P,U5,2,GND*%
%TO.N,GND*%
X158191200Y-72390000D03*
%TO.P,U5,3,EN*%
%TO.N,D4*%
X158191200Y-73039986D03*
%TO.P,U5,4,IN*%
%TO.N,3.3*%
X160324800Y-73039986D03*
%TO.P,U5,5,GND*%
%TO.N,GND*%
X160324800Y-72390000D03*
%TO.P,U5,6,N/C*%
%TO.N,unconnected-(U5-N{slash}C-Pad6)*%
X160324800Y-71740014D03*
%TD*%
D15*
%TO.P,C5,1*%
%TO.N,GND*%
X156210000Y-73506500D03*
%TO.P,C5,2*%
%TO.N,Net-(J1_EZO_DO1-Pin_5)*%
X156210000Y-71781500D03*
%TD*%
D12*
%TO.P,J7_Temp1,1,Pin_1*%
%TO.N,3.3*%
X185445000Y-59690000D03*
D13*
%TO.P,J7_Temp1,2,Pin_2*%
%TO.N,GND*%
X185445000Y-62230000D03*
%TO.P,J7_Temp1,3,Pin_3*%
%TO.N,SD0*%
X185445000Y-64770000D03*
%TO.P,J7_Temp1,4,Pin_4*%
%TO.N,SC0*%
X185445000Y-67310000D03*
%TD*%
D12*
%TO.P,J5_Feather1,1,Pin_1*%
%TO.N,D1*%
X165633000Y-59690000D03*
D13*
%TO.P,J5_Feather1,2,Pin_2*%
%TO.N,D2*%
X165633000Y-62230000D03*
%TO.P,J5_Feather1,3,Pin_3*%
%TO.N,D3*%
X165633000Y-64770000D03*
%TO.P,J5_Feather1,4,Pin_4*%
%TO.N,D4*%
X165633000Y-67310000D03*
%TD*%
D12*
%TO.P,J8_Pres1,1,Pin_1*%
%TO.N,3.3*%
X191287000Y-59700000D03*
D13*
%TO.P,J8_Pres1,2,Pin_2*%
%TO.N,GND*%
X191287000Y-62240000D03*
%TO.P,J8_Pres1,3,Pin_3*%
%TO.N,SD0*%
X191287000Y-64780000D03*
%TO.P,J8_Pres1,4,Pin_4*%
%TO.N,SC0*%
X191287000Y-67320000D03*
%TD*%
D15*
%TO.P,C4,1*%
%TO.N,3.3*%
X162560000Y-72998500D03*
%TO.P,C4,2*%
%TO.N,GND*%
X162560000Y-71273500D03*
%TD*%
D17*
%TO.N,3.3*%
X183033500Y-45365500D02*
X179578000Y-45365500D01*
D18*
X189230000Y-78486000D02*
X189230000Y-86868000D01*
X178662500Y-45365500D02*
X179578000Y-45365500D01*
X189230000Y-86868000D02*
X188468000Y-87630000D01*
D17*
X194564000Y-69850000D02*
X188214000Y-69850000D01*
D18*
X178308000Y-45720000D02*
X178662500Y-45365500D01*
X192602528Y-53706014D02*
X192532000Y-53635486D01*
X165608000Y-73660000D02*
X164946500Y-72998500D01*
X188468000Y-87630000D02*
X171450000Y-87630000D01*
D17*
X187706000Y-59690000D02*
X188468000Y-58928000D01*
X187044500Y-71019500D02*
X187044500Y-77724000D01*
X184404000Y-46736000D02*
X183033500Y-45365500D01*
X195326000Y-69088000D02*
X194564000Y-69850000D01*
X194564000Y-59690000D02*
X195326000Y-60452000D01*
X195326000Y-60452000D02*
X195326000Y-69088000D01*
D18*
X177088800Y-47131986D02*
X177912014Y-47131986D01*
D17*
X185445000Y-51841000D02*
X184404000Y-50800000D01*
D18*
X170688000Y-86868000D02*
X170688000Y-85852000D01*
X171450000Y-87630000D02*
X170688000Y-86868000D01*
X188468000Y-77724000D02*
X189230000Y-78486000D01*
X194767200Y-53706014D02*
X192602528Y-53706014D01*
X187044500Y-77724000D02*
X188468000Y-77724000D01*
D17*
X188468000Y-54864000D02*
X189696514Y-53635486D01*
X184404000Y-50800000D02*
X184404000Y-46736000D01*
D18*
X187085986Y-77765486D02*
X187044500Y-77724000D01*
X187085986Y-80213200D02*
X187085986Y-77765486D01*
D17*
X185445000Y-59690000D02*
X187706000Y-59690000D01*
X188214000Y-69850000D02*
X187044500Y-71019500D01*
X185445000Y-59690000D02*
X185445000Y-51841000D01*
X188468000Y-58928000D02*
X188468000Y-54864000D01*
X189696514Y-53635486D02*
X192532000Y-53635486D01*
D18*
X170688000Y-85852000D02*
X165608000Y-80772000D01*
X177912014Y-47131986D02*
X178308000Y-46736000D01*
X165608000Y-80772000D02*
X165608000Y-73660000D01*
X160324800Y-73039986D02*
X162518514Y-73039986D01*
X162518514Y-73039986D02*
X162560000Y-72998500D01*
D17*
X194554000Y-59700000D02*
X194564000Y-59690000D01*
X191287000Y-59700000D02*
X194554000Y-59700000D01*
D18*
X178308000Y-46736000D02*
X178308000Y-45720000D01*
X164946500Y-72998500D02*
X162560000Y-72998500D01*
%TO.N,Net-(J1_EZO_DO1-Pin_5)*%
X156235000Y-68580000D02*
X156235000Y-71756500D01*
X156235000Y-71756500D02*
X156210000Y-71781500D01*
X158191200Y-71740014D02*
X156251486Y-71740014D01*
X156251486Y-71740014D02*
X156210000Y-71781500D01*
%TO.N,Net-(J2_EZO_Ph1-Pin_5)*%
X182935000Y-85090000D02*
X182910000Y-85065000D01*
X185786014Y-85048514D02*
X185827500Y-85090000D01*
X185827500Y-85090000D02*
X182935000Y-85090000D01*
X185786014Y-82346800D02*
X185786014Y-85048514D01*
%TO.N,Net-(J3_EZO_ORP1-Pin_5)*%
X199348514Y-55005986D02*
X199390000Y-54964500D01*
X199390000Y-58365000D02*
X199365000Y-58390000D01*
X199390000Y-54964500D02*
X199390000Y-58365000D01*
X196900800Y-55005986D02*
X199348514Y-55005986D01*
%TO.N,Net-(J4_EZO_CO1-Pin_5)*%
X172669200Y-41955800D02*
X172690000Y-41935000D01*
X174955200Y-45832014D02*
X172710686Y-45832014D01*
X172710686Y-45832014D02*
X172669200Y-45873500D01*
X172669200Y-45873500D02*
X172669200Y-41955800D01*
%TO.N,D3*%
X187085986Y-81571286D02*
X187085986Y-82346800D01*
X167894000Y-81280000D02*
X186794700Y-81280000D01*
X166878000Y-64770000D02*
X167640000Y-65532000D01*
X166878000Y-72898000D02*
X166878000Y-80264000D01*
X186794700Y-81280000D02*
X187085986Y-81571286D01*
X166878000Y-80264000D02*
X167894000Y-81280000D01*
X165633000Y-64770000D02*
X166878000Y-64770000D01*
X167640000Y-72136000D02*
X166878000Y-72898000D01*
X167640000Y-65532000D02*
X167640000Y-72136000D01*
%TO.N,D4*%
X159116014Y-73039986D02*
X159258000Y-72898000D01*
X158191200Y-73039986D02*
X159116014Y-73039986D01*
X160020000Y-67310000D02*
X165633000Y-67310000D01*
X159258000Y-72898000D02*
X159258000Y-68072000D01*
X159258000Y-68072000D02*
X160020000Y-67310000D01*
%TO.N,D2*%
X165862000Y-56388000D02*
X165862000Y-41148000D01*
X163322000Y-61468000D02*
X163322000Y-57912000D01*
X186690000Y-51308000D02*
X195326000Y-51308000D01*
X165100000Y-57150000D02*
X165862000Y-56388000D01*
X163322000Y-61468000D02*
X164084000Y-62230000D01*
X195834000Y-53340000D02*
X196200014Y-53706014D01*
X163322000Y-57912000D02*
X164084000Y-57150000D01*
X184404000Y-39116000D02*
X185674000Y-40386000D01*
X164084000Y-57150000D02*
X165100000Y-57150000D01*
X167894000Y-39116000D02*
X184404000Y-39116000D01*
X164084000Y-62230000D02*
X165633000Y-62230000D01*
X196200014Y-53706014D02*
X196900800Y-53706014D01*
X185674000Y-40386000D02*
X185674000Y-50292000D01*
X165862000Y-41148000D02*
X167894000Y-39116000D01*
X195326000Y-51308000D02*
X195834000Y-51816000D01*
X195834000Y-51816000D02*
X195834000Y-53340000D01*
X185674000Y-50292000D02*
X186690000Y-51308000D01*
%TO.N,D1*%
X167640000Y-59690000D02*
X168656000Y-58674000D01*
X174955200Y-50850800D02*
X174955200Y-47131986D01*
X168656000Y-57150000D02*
X174955200Y-50850800D01*
X168656000Y-58674000D02*
X168656000Y-57150000D01*
X165633000Y-59690000D02*
X167640000Y-59690000D01*
%TO.N,SC0*%
X185445000Y-67310000D02*
X191277000Y-67310000D01*
X191277000Y-67310000D02*
X191287000Y-67320000D01*
%TO.N,SD0*%
X185445000Y-64770000D02*
X191277000Y-64770000D01*
X191277000Y-64770000D02*
X191287000Y-64780000D01*
%TD*%
%TA.AperFunction,Conductor*%
%TO.N,GND*%
G36*
X190515677Y-38119685D02*
G01*
X190536319Y-38136319D01*
X192495681Y-40095681D01*
X192529166Y-40157004D01*
X192532000Y-40183362D01*
X192532000Y-46995065D01*
X192539500Y-47032771D01*
X192539500Y-47055892D01*
X192539501Y-47055894D01*
X192573608Y-47183187D01*
X192606554Y-47240250D01*
X192639500Y-47297314D01*
X192639501Y-47297315D01*
X192639502Y-47297316D01*
X193905159Y-48562972D01*
X193905169Y-48562983D01*
X193909499Y-48567313D01*
X193909500Y-48567314D01*
X194002686Y-48660500D01*
X194116814Y-48726392D01*
X194244107Y-48760500D01*
X194244108Y-48760500D01*
X194267229Y-48760500D01*
X194304935Y-48768000D01*
X194310000Y-48768000D01*
X201116638Y-48768000D01*
X201183677Y-48787685D01*
X201204319Y-48804319D01*
X203163681Y-50763681D01*
X203197166Y-50825004D01*
X203200000Y-50851362D01*
X203200000Y-76148638D01*
X203180315Y-76215677D01*
X203163681Y-76236319D01*
X201204319Y-78195681D01*
X201142996Y-78229166D01*
X201116638Y-78232000D01*
X194304935Y-78232000D01*
X194267229Y-78239500D01*
X194244107Y-78239500D01*
X194116812Y-78273608D01*
X194002686Y-78339500D01*
X194002683Y-78339502D01*
X193909498Y-78432688D01*
X192715245Y-79626940D01*
X192715244Y-79626940D01*
X192715245Y-79626941D01*
X192639500Y-79702686D01*
X192573608Y-79816812D01*
X192539500Y-79944108D01*
X192539500Y-79967228D01*
X192532000Y-80004932D01*
X192532000Y-86816638D01*
X192512315Y-86883677D01*
X192495681Y-86904319D01*
X190536319Y-88863681D01*
X190474996Y-88897166D01*
X190448638Y-88900000D01*
X165151362Y-88900000D01*
X165084323Y-88880315D01*
X165063681Y-88863681D01*
X163104319Y-86904319D01*
X163070834Y-86842996D01*
X163068000Y-86816638D01*
X163068000Y-80004932D01*
X163060500Y-79967228D01*
X163060500Y-79944110D01*
X163060500Y-79944108D01*
X163026392Y-79816814D01*
X162960500Y-79702686D01*
X162867314Y-79609500D01*
X162867313Y-79609499D01*
X162862983Y-79605169D01*
X162862972Y-79605159D01*
X161597316Y-78339502D01*
X161597315Y-78339501D01*
X161597314Y-78339500D01*
X161540250Y-78306554D01*
X161483187Y-78273608D01*
X161401610Y-78251750D01*
X161355892Y-78239500D01*
X161355891Y-78239500D01*
X161332771Y-78239500D01*
X161295065Y-78232000D01*
X161290000Y-78232000D01*
X154483362Y-78232000D01*
X154416323Y-78212315D01*
X154395681Y-78195681D01*
X152436319Y-76236319D01*
X152402834Y-76174996D01*
X152400000Y-76148638D01*
X152400000Y-73848571D01*
X155435000Y-73848571D01*
X155445373Y-73934958D01*
X155499576Y-74072407D01*
X155499579Y-74072413D01*
X155588856Y-74190143D01*
X155706586Y-74279420D01*
X155706592Y-74279423D01*
X155844041Y-74333626D01*
X155930428Y-74344000D01*
X155960000Y-74344000D01*
X156460000Y-74344000D01*
X156489572Y-74344000D01*
X156575958Y-74333626D01*
X156713407Y-74279423D01*
X156713413Y-74279420D01*
X156831143Y-74190143D01*
X156920420Y-74072413D01*
X156920423Y-74072407D01*
X156974626Y-73934958D01*
X156985000Y-73848571D01*
X156985000Y-73756500D01*
X156460000Y-73756500D01*
X156460000Y-74344000D01*
X155960000Y-74344000D01*
X155960000Y-73756500D01*
X155435000Y-73756500D01*
X155435000Y-73848571D01*
X152400000Y-73848571D01*
X152400000Y-68579999D01*
X155125768Y-68579999D01*
X155125768Y-68580000D01*
X155144654Y-68783816D01*
X155144654Y-68783818D01*
X155144655Y-68783821D01*
X155175733Y-68893049D01*
X155200673Y-68980704D01*
X155291912Y-69163935D01*
X155415269Y-69327287D01*
X155566537Y-69465185D01*
X155566539Y-69465187D01*
X155740569Y-69572942D01*
X155740581Y-69572948D01*
X155774292Y-69586007D01*
X155829694Y-69628579D01*
X155853286Y-69694345D01*
X155853500Y-69701634D01*
X155853500Y-70914682D01*
X155833815Y-70981721D01*
X155781011Y-71027476D01*
X155772835Y-71030863D01*
X155734287Y-71045241D01*
X155734280Y-71045244D01*
X155621026Y-71130025D01*
X155536244Y-71243281D01*
X155536241Y-71243288D01*
X155486800Y-71375839D01*
X155486800Y-71375841D01*
X155480500Y-71434426D01*
X155480500Y-72128553D01*
X155480501Y-72128562D01*
X155486800Y-72187159D01*
X155536239Y-72319709D01*
X155536241Y-72319713D01*
X155536242Y-72319715D01*
X155621026Y-72432974D01*
X155657514Y-72460288D01*
X155735721Y-72518833D01*
X155777593Y-72574766D01*
X155782577Y-72644458D01*
X155749093Y-72705781D01*
X155713730Y-72728976D01*
X155713981Y-72729422D01*
X155707475Y-72733079D01*
X155706908Y-72733452D01*
X155706591Y-72733577D01*
X155706586Y-72733579D01*
X155588856Y-72822856D01*
X155499579Y-72940586D01*
X155499576Y-72940592D01*
X155445373Y-73078041D01*
X155435000Y-73164428D01*
X155435000Y-73256500D01*
X156985000Y-73256500D01*
X156985000Y-73164428D01*
X156974626Y-73078041D01*
X156920423Y-72940592D01*
X156920420Y-72940586D01*
X156831143Y-72822856D01*
X156713413Y-72733579D01*
X156713411Y-72733578D01*
X156713096Y-72733454D01*
X156712850Y-72733263D01*
X156706019Y-72729422D01*
X156706595Y-72728396D01*
X156657953Y-72690547D01*
X156634761Y-72624639D01*
X156650883Y-72556655D01*
X156684278Y-72518832D01*
X156685710Y-72517759D01*
X156685715Y-72517758D01*
X156798974Y-72432974D01*
X156883758Y-72319715D01*
X156905596Y-72261166D01*
X156927598Y-72202179D01*
X156969470Y-72146246D01*
X157034934Y-72121830D01*
X157043779Y-72121514D01*
X157373500Y-72121514D01*
X157440539Y-72141199D01*
X157486294Y-72194003D01*
X157488237Y-72202937D01*
X157497500Y-72212200D01*
X158245000Y-72212200D01*
X158312039Y-72231885D01*
X158357794Y-72284689D01*
X158369000Y-72336200D01*
X158369000Y-72443800D01*
X158349315Y-72510839D01*
X158296511Y-72556594D01*
X158245000Y-72567800D01*
X157497501Y-72567800D01*
X157497501Y-72612585D01*
X157497502Y-72612608D01*
X157500408Y-72637669D01*
X157500410Y-72637675D01*
X157541295Y-72730275D01*
X157550365Y-72799553D01*
X157549478Y-72804548D01*
X157543000Y-72837118D01*
X157543000Y-73242849D01*
X157557766Y-73317087D01*
X157614015Y-73401270D01*
X157636538Y-73416319D01*
X157698199Y-73457520D01*
X157698202Y-73457520D01*
X157698203Y-73457521D01*
X157714010Y-73460665D01*
X157772433Y-73472286D01*
X158609966Y-73472285D01*
X158684201Y-73457520D01*
X158706853Y-73442383D01*
X158773531Y-73421506D01*
X158775744Y-73421486D01*
X159166236Y-73421486D01*
X159166239Y-73421486D01*
X159263268Y-73395487D01*
X159350261Y-73345262D01*
X159421290Y-73274233D01*
X159421290Y-73274232D01*
X159474803Y-73220717D01*
X159474807Y-73220715D01*
X159475335Y-73220187D01*
X159536630Y-73186651D01*
X159539585Y-73186859D01*
X159562485Y-73184398D01*
X159562487Y-73184398D01*
X159562487Y-73188478D01*
X159606326Y-73191577D01*
X159662294Y-73233402D01*
X159684707Y-73283605D01*
X159691366Y-73317087D01*
X159747615Y-73401270D01*
X159770138Y-73416319D01*
X159831799Y-73457520D01*
X159831802Y-73457520D01*
X159831803Y-73457521D01*
X159847610Y-73460665D01*
X159906033Y-73472286D01*
X160743566Y-73472285D01*
X160817801Y-73457520D01*
X160840453Y-73442383D01*
X160907131Y-73421506D01*
X160909344Y-73421486D01*
X161757169Y-73421486D01*
X161824208Y-73441171D01*
X161869963Y-73493975D01*
X161873350Y-73502151D01*
X161877301Y-73512745D01*
X161886243Y-73536717D01*
X161940935Y-73609777D01*
X161971026Y-73649974D01*
X162084285Y-73734758D01*
X162216843Y-73784200D01*
X162275443Y-73790500D01*
X162844556Y-73790499D01*
X162903157Y-73784200D01*
X163035715Y-73734758D01*
X163148974Y-73649974D01*
X163233758Y-73536715D01*
X163257789Y-73472286D01*
X163262124Y-73460665D01*
X163303996Y-73404732D01*
X163369460Y-73380316D01*
X163378305Y-73380000D01*
X164737115Y-73380000D01*
X164804154Y-73399685D01*
X164824796Y-73416319D01*
X165190181Y-73781703D01*
X165223666Y-73843026D01*
X165226500Y-73869384D01*
X165226500Y-80822225D01*
X165243624Y-80886132D01*
X165252499Y-80919254D01*
X165302723Y-81006245D01*
X165302725Y-81006248D01*
X170270181Y-85973704D01*
X170303666Y-86035027D01*
X170306500Y-86061385D01*
X170306500Y-86918225D01*
X170325999Y-86990996D01*
X170332499Y-87015255D01*
X170332500Y-87015256D01*
X170356085Y-87056106D01*
X170356086Y-87056109D01*
X170382719Y-87102240D01*
X170382723Y-87102245D01*
X170382724Y-87102247D01*
X171215753Y-87935276D01*
X171302747Y-87985502D01*
X171399775Y-88011501D01*
X171399778Y-88011501D01*
X171507821Y-88011501D01*
X171507837Y-88011500D01*
X188518222Y-88011500D01*
X188518225Y-88011500D01*
X188615254Y-87985501D01*
X188702247Y-87935276D01*
X188773276Y-87864247D01*
X189535276Y-87102247D01*
X189585502Y-87015253D01*
X189611501Y-86918225D01*
X189611501Y-86817775D01*
X189611501Y-86810180D01*
X189611500Y-86810162D01*
X189611500Y-78546227D01*
X189611501Y-78546214D01*
X189611501Y-78435777D01*
X189611501Y-78435775D01*
X189585502Y-78338747D01*
X189535276Y-78251753D01*
X189245451Y-77961928D01*
X188702251Y-77418727D01*
X188702250Y-77418726D01*
X188702247Y-77418724D01*
X188687110Y-77409985D01*
X188651182Y-77389242D01*
X188615256Y-77368500D01*
X188615255Y-77368499D01*
X188576224Y-77358041D01*
X188518225Y-77342500D01*
X188518222Y-77342500D01*
X187901993Y-77342500D01*
X187834954Y-77322815D01*
X187789199Y-77270011D01*
X187785812Y-77261835D01*
X187780757Y-77248283D01*
X187780756Y-77248282D01*
X187695975Y-77135027D01*
X187602689Y-77065194D01*
X187560818Y-77009260D01*
X187553000Y-76965927D01*
X187553000Y-71281489D01*
X187572685Y-71214450D01*
X187589319Y-71193808D01*
X188388308Y-70394819D01*
X188449631Y-70361334D01*
X188475989Y-70358500D01*
X194630943Y-70358500D01*
X194630945Y-70358500D01*
X194760274Y-70323847D01*
X194876227Y-70256901D01*
X195732901Y-69400226D01*
X195799847Y-69284274D01*
X195834500Y-69154945D01*
X195834500Y-69021054D01*
X195834500Y-67674928D01*
X198260500Y-67674928D01*
X198260500Y-69425063D01*
X198275266Y-69499301D01*
X198331515Y-69583484D01*
X198365234Y-69606014D01*
X198415699Y-69639734D01*
X198415702Y-69639734D01*
X198415703Y-69639735D01*
X198440666Y-69644700D01*
X198489933Y-69654500D01*
X200240066Y-69654499D01*
X200314301Y-69639734D01*
X200398484Y-69583484D01*
X200454734Y-69499301D01*
X200469500Y-69425067D01*
X200469499Y-67674934D01*
X200454734Y-67600699D01*
X200436068Y-67572765D01*
X200398484Y-67516515D01*
X200337100Y-67475500D01*
X200314301Y-67460266D01*
X200314299Y-67460265D01*
X200314296Y-67460264D01*
X200240069Y-67445500D01*
X198489936Y-67445500D01*
X198415698Y-67460266D01*
X198331515Y-67516515D01*
X198275266Y-67600699D01*
X198275264Y-67600703D01*
X198260500Y-67674928D01*
X195834500Y-67674928D01*
X195834500Y-66009999D01*
X198255768Y-66009999D01*
X198255768Y-66010000D01*
X198274654Y-66213816D01*
X198274654Y-66213818D01*
X198274655Y-66213821D01*
X198330672Y-66410701D01*
X198330673Y-66410704D01*
X198421912Y-66593935D01*
X198545269Y-66757287D01*
X198696537Y-66895185D01*
X198696539Y-66895187D01*
X198870569Y-67002942D01*
X198870575Y-67002945D01*
X198911010Y-67018609D01*
X199061444Y-67076888D01*
X199262653Y-67114500D01*
X199262656Y-67114500D01*
X199467344Y-67114500D01*
X199467347Y-67114500D01*
X199668556Y-67076888D01*
X199859427Y-67002944D01*
X200033462Y-66895186D01*
X200184732Y-66757285D01*
X200308088Y-66593935D01*
X200399328Y-66410701D01*
X200455345Y-66213821D01*
X200474232Y-66010000D01*
X200455345Y-65806179D01*
X200399328Y-65609299D01*
X200308088Y-65426065D01*
X200248904Y-65347693D01*
X200184730Y-65262712D01*
X200033462Y-65124814D01*
X200033460Y-65124812D01*
X199859430Y-65017057D01*
X199859424Y-65017054D01*
X199708993Y-64958777D01*
X199668556Y-64943112D01*
X199467347Y-64905500D01*
X199262653Y-64905500D01*
X199061444Y-64943112D01*
X199061441Y-64943112D01*
X199061441Y-64943113D01*
X198870575Y-65017054D01*
X198870569Y-65017057D01*
X198696539Y-65124812D01*
X198696537Y-65124814D01*
X198545269Y-65262712D01*
X198421912Y-65426064D01*
X198330673Y-65609295D01*
X198274654Y-65806183D01*
X198255768Y-66009999D01*
X195834500Y-66009999D01*
X195834500Y-63219999D01*
X198240487Y-63219999D01*
X198240488Y-63220000D01*
X198931988Y-63220000D01*
X198899075Y-63277007D01*
X198865000Y-63404174D01*
X198865000Y-63535826D01*
X198899075Y-63662993D01*
X198931988Y-63720000D01*
X198240488Y-63720000D01*
X198288062Y-63887205D01*
X198288067Y-63887218D01*
X198383061Y-64077991D01*
X198511500Y-64248071D01*
X198669000Y-64391651D01*
X198669002Y-64391653D01*
X198850201Y-64503846D01*
X198850207Y-64503849D01*
X199048941Y-64580838D01*
X199115000Y-64593186D01*
X199115000Y-63903012D01*
X199172007Y-63935925D01*
X199299174Y-63970000D01*
X199430826Y-63970000D01*
X199557993Y-63935925D01*
X199615000Y-63903012D01*
X199615000Y-64593185D01*
X199681058Y-64580838D01*
X199879792Y-64503849D01*
X199879798Y-64503846D01*
X200060997Y-64391653D01*
X200060999Y-64391651D01*
X200218499Y-64248071D01*
X200346938Y-64077991D01*
X200441932Y-63887218D01*
X200441937Y-63887205D01*
X200489512Y-63720000D01*
X199798012Y-63720000D01*
X199830925Y-63662993D01*
X199865000Y-63535826D01*
X199865000Y-63404174D01*
X199830925Y-63277007D01*
X199798012Y-63220000D01*
X200489512Y-63220000D01*
X200489512Y-63219999D01*
X200441937Y-63052794D01*
X200441932Y-63052781D01*
X200346938Y-62862008D01*
X200218499Y-62691928D01*
X200060999Y-62548348D01*
X200060997Y-62548346D01*
X199879798Y-62436153D01*
X199879789Y-62436149D01*
X199681063Y-62359163D01*
X199681058Y-62359162D01*
X199615000Y-62346813D01*
X199615000Y-63036988D01*
X199557993Y-63004075D01*
X199430826Y-62970000D01*
X199299174Y-62970000D01*
X199172007Y-63004075D01*
X199115000Y-63036988D01*
X199115000Y-62346813D01*
X199048941Y-62359162D01*
X199048936Y-62359163D01*
X198850210Y-62436149D01*
X198850201Y-62436153D01*
X198669002Y-62548346D01*
X198669000Y-62548348D01*
X198511500Y-62691928D01*
X198383061Y-62862008D01*
X198288067Y-63052781D01*
X198288062Y-63052794D01*
X198240487Y-63219999D01*
X195834500Y-63219999D01*
X195834500Y-60929999D01*
X198255768Y-60929999D01*
X198255768Y-60930000D01*
X198274654Y-61133816D01*
X198274654Y-61133818D01*
X198274655Y-61133821D01*
X198324312Y-61308348D01*
X198330673Y-61330704D01*
X198421912Y-61513935D01*
X198545267Y-61677284D01*
X198545268Y-61677286D01*
X198696537Y-61815185D01*
X198696539Y-61815187D01*
X198870569Y-61922942D01*
X198870575Y-61922945D01*
X198870699Y-61922993D01*
X199061444Y-61996888D01*
X199262653Y-62034500D01*
X199262656Y-62034500D01*
X199467344Y-62034500D01*
X199467347Y-62034500D01*
X199668556Y-61996888D01*
X199859427Y-61922944D01*
X200033462Y-61815186D01*
X200184732Y-61677285D01*
X200308088Y-61513935D01*
X200399328Y-61330701D01*
X200455345Y-61133821D01*
X200474232Y-60930000D01*
X200455345Y-60726179D01*
X200399328Y-60529299D01*
X200308088Y-60346065D01*
X200184732Y-60182715D01*
X200184730Y-60182712D01*
X200033462Y-60044814D01*
X200033460Y-60044812D01*
X199859430Y-59937057D01*
X199859424Y-59937054D01*
X199708993Y-59878777D01*
X199668556Y-59863112D01*
X199467347Y-59825500D01*
X199262653Y-59825500D01*
X199061444Y-59863112D01*
X199061441Y-59863112D01*
X199061441Y-59863113D01*
X198870575Y-59937054D01*
X198870569Y-59937057D01*
X198696539Y-60044812D01*
X198696537Y-60044814D01*
X198545269Y-60182712D01*
X198421912Y-60346064D01*
X198330673Y-60529295D01*
X198274654Y-60726183D01*
X198255768Y-60929999D01*
X195834500Y-60929999D01*
X195834500Y-60385055D01*
X195799847Y-60255726D01*
X195732901Y-60139774D01*
X195638226Y-60045099D01*
X194876227Y-59283099D01*
X194801973Y-59240228D01*
X194760275Y-59216153D01*
X194668266Y-59191500D01*
X194630945Y-59181500D01*
X194497055Y-59181500D01*
X194475501Y-59187275D01*
X194443410Y-59191500D01*
X192515499Y-59191500D01*
X192448460Y-59171815D01*
X192402705Y-59119011D01*
X192391499Y-59067500D01*
X192391499Y-58824936D01*
X192391499Y-58824934D01*
X192376734Y-58750699D01*
X192354465Y-58717372D01*
X192320484Y-58666515D01*
X192270019Y-58632796D01*
X192236301Y-58610266D01*
X192236299Y-58610265D01*
X192236296Y-58610264D01*
X192162069Y-58595500D01*
X190411936Y-58595500D01*
X190337698Y-58610266D01*
X190253515Y-58666515D01*
X190197266Y-58750699D01*
X190197264Y-58750703D01*
X190182500Y-58824928D01*
X190182500Y-60575063D01*
X190197266Y-60649301D01*
X190253515Y-60733484D01*
X190287234Y-60756014D01*
X190337699Y-60789734D01*
X190337702Y-60789734D01*
X190337703Y-60789735D01*
X190361654Y-60794499D01*
X190411933Y-60804500D01*
X192162066Y-60804499D01*
X192236301Y-60789734D01*
X192320484Y-60733484D01*
X192376734Y-60649301D01*
X192391500Y-60575067D01*
X192391500Y-60332500D01*
X192411185Y-60265461D01*
X192463989Y-60219706D01*
X192515500Y-60208500D01*
X194312010Y-60208500D01*
X194379049Y-60228185D01*
X194399691Y-60244819D01*
X194781181Y-60626308D01*
X194814666Y-60687631D01*
X194817500Y-60713989D01*
X194817500Y-68826010D01*
X194797815Y-68893049D01*
X194781181Y-68913691D01*
X194389691Y-69305181D01*
X194328368Y-69338666D01*
X194302010Y-69341500D01*
X188147055Y-69341500D01*
X188017725Y-69376153D01*
X187901774Y-69443099D01*
X187901771Y-69443101D01*
X186637601Y-70707270D01*
X186637599Y-70707273D01*
X186570653Y-70823224D01*
X186536000Y-70952555D01*
X186536000Y-76965927D01*
X186516315Y-77032966D01*
X186486311Y-77065194D01*
X186393026Y-77135026D01*
X186307166Y-77249722D01*
X186251232Y-77291593D01*
X186181541Y-77296577D01*
X186120218Y-77263092D01*
X186097024Y-77227729D01*
X186096578Y-77227981D01*
X186092905Y-77221449D01*
X186092542Y-77220895D01*
X186092420Y-77220586D01*
X186003143Y-77102856D01*
X185885413Y-77013579D01*
X185885407Y-77013576D01*
X185747958Y-76959373D01*
X185661572Y-76949000D01*
X185569500Y-76949000D01*
X185569500Y-78499000D01*
X185661572Y-78499000D01*
X185747958Y-78488626D01*
X185885407Y-78434423D01*
X185885413Y-78434420D01*
X186003143Y-78345143D01*
X186092418Y-78227415D01*
X186092540Y-78227108D01*
X186092728Y-78226865D01*
X186096578Y-78220019D01*
X186097605Y-78220596D01*
X186135441Y-78171961D01*
X186201347Y-78148761D01*
X186269333Y-78164876D01*
X186307166Y-78198278D01*
X186347197Y-78251753D01*
X186393026Y-78312974D01*
X186506285Y-78397758D01*
X186623821Y-78441597D01*
X186679753Y-78483468D01*
X186704170Y-78548932D01*
X186704486Y-78557778D01*
X186704486Y-79395500D01*
X186684801Y-79462539D01*
X186631997Y-79508294D01*
X186623062Y-79510237D01*
X186613800Y-79519500D01*
X186613800Y-80267000D01*
X186594115Y-80334039D01*
X186541311Y-80379794D01*
X186489800Y-80391000D01*
X186382200Y-80391000D01*
X186315161Y-80371315D01*
X186269406Y-80318511D01*
X186258200Y-80267000D01*
X186258200Y-79519500D01*
X186213403Y-79519500D01*
X186188330Y-79522408D01*
X186188324Y-79522410D01*
X186095725Y-79563295D01*
X186026447Y-79572365D01*
X186021452Y-79571478D01*
X185988881Y-79565000D01*
X185583150Y-79565000D01*
X185508912Y-79579766D01*
X185424729Y-79636015D01*
X185368480Y-79720199D01*
X185368478Y-79720203D01*
X185353714Y-79794428D01*
X185353714Y-80631963D01*
X185368480Y-80706201D01*
X185373154Y-80717484D01*
X185371957Y-80717979D01*
X185388963Y-80772285D01*
X185370479Y-80839665D01*
X185318501Y-80886356D01*
X185264983Y-80898500D01*
X168103385Y-80898500D01*
X168036346Y-80878815D01*
X168015704Y-80862181D01*
X167295819Y-80142296D01*
X167262334Y-80080973D01*
X167259500Y-80054615D01*
X167259500Y-78489999D01*
X167556487Y-78489999D01*
X167556488Y-78490000D01*
X168247988Y-78490000D01*
X168215075Y-78547007D01*
X168181000Y-78674174D01*
X168181000Y-78805826D01*
X168215075Y-78932993D01*
X168247988Y-78990000D01*
X167556488Y-78990000D01*
X167604062Y-79157205D01*
X167604067Y-79157218D01*
X167699061Y-79347991D01*
X167827500Y-79518071D01*
X167985000Y-79661651D01*
X167985002Y-79661653D01*
X168166201Y-79773846D01*
X168166207Y-79773849D01*
X168364941Y-79850838D01*
X168431000Y-79863186D01*
X168431000Y-79173012D01*
X168488007Y-79205925D01*
X168615174Y-79240000D01*
X168746826Y-79240000D01*
X168873993Y-79205925D01*
X168931000Y-79173012D01*
X168931000Y-79863185D01*
X168997058Y-79850838D01*
X169195792Y-79773849D01*
X169195798Y-79773846D01*
X169376997Y-79661653D01*
X169376999Y-79661651D01*
X169534499Y-79518071D01*
X169662938Y-79347991D01*
X169757932Y-79157218D01*
X169757937Y-79157205D01*
X169805512Y-78990000D01*
X169114012Y-78990000D01*
X169146925Y-78932993D01*
X169181000Y-78805826D01*
X169181000Y-78674174D01*
X169146925Y-78547007D01*
X169114012Y-78490000D01*
X169805512Y-78490000D01*
X169805512Y-78489999D01*
X169757937Y-78322794D01*
X169757932Y-78322781D01*
X169662938Y-78132008D01*
X169565946Y-78003571D01*
X184482000Y-78003571D01*
X184492373Y-78089958D01*
X184546576Y-78227407D01*
X184546579Y-78227413D01*
X184635856Y-78345143D01*
X184753586Y-78434420D01*
X184753592Y-78434423D01*
X184891041Y-78488626D01*
X184977428Y-78499000D01*
X185069500Y-78499000D01*
X185069500Y-77974000D01*
X184482000Y-77974000D01*
X184482000Y-78003571D01*
X169565946Y-78003571D01*
X169534499Y-77961928D01*
X169376999Y-77818348D01*
X169376997Y-77818346D01*
X169195798Y-77706153D01*
X169195789Y-77706149D01*
X168997063Y-77629163D01*
X168997058Y-77629162D01*
X168931000Y-77616813D01*
X168931000Y-78306988D01*
X168873993Y-78274075D01*
X168746826Y-78240000D01*
X168615174Y-78240000D01*
X168488007Y-78274075D01*
X168431000Y-78306988D01*
X168431000Y-77616813D01*
X168364941Y-77629162D01*
X168364936Y-77629163D01*
X168166210Y-77706149D01*
X168166201Y-77706153D01*
X167985002Y-77818346D01*
X167985000Y-77818348D01*
X167827500Y-77961928D01*
X167699061Y-78132008D01*
X167604067Y-78322781D01*
X167604062Y-78322794D01*
X167556487Y-78489999D01*
X167259500Y-78489999D01*
X167259500Y-77444428D01*
X184482000Y-77444428D01*
X184482000Y-77474000D01*
X185069500Y-77474000D01*
X185069500Y-76949000D01*
X184977428Y-76949000D01*
X184891041Y-76959373D01*
X184753592Y-77013576D01*
X184753586Y-77013579D01*
X184635856Y-77102856D01*
X184546579Y-77220586D01*
X184546576Y-77220592D01*
X184492373Y-77358041D01*
X184482000Y-77444428D01*
X167259500Y-77444428D01*
X167259500Y-75324928D01*
X167576500Y-75324928D01*
X167576500Y-77075063D01*
X167591266Y-77149301D01*
X167647515Y-77233484D01*
X167681234Y-77256014D01*
X167731699Y-77289734D01*
X167731702Y-77289734D01*
X167731703Y-77289735D01*
X167756666Y-77294700D01*
X167805933Y-77304500D01*
X169556066Y-77304499D01*
X169630301Y-77289734D01*
X169714484Y-77233484D01*
X169770734Y-77149301D01*
X169785500Y-77075067D01*
X169785499Y-75324934D01*
X169770734Y-75250699D01*
X169752068Y-75222765D01*
X169714484Y-75166515D01*
X169664019Y-75132796D01*
X169630301Y-75110266D01*
X169630299Y-75110265D01*
X169630296Y-75110264D01*
X169556069Y-75095500D01*
X167805936Y-75095500D01*
X167731698Y-75110266D01*
X167647515Y-75166515D01*
X167591266Y-75250699D01*
X167591264Y-75250703D01*
X167576500Y-75324928D01*
X167259500Y-75324928D01*
X167259500Y-73107385D01*
X167279185Y-73040346D01*
X167295819Y-73019704D01*
X167609742Y-72705781D01*
X167945276Y-72370247D01*
X167995502Y-72283253D01*
X168021501Y-72186225D01*
X168021501Y-72085775D01*
X168021501Y-72078180D01*
X168021500Y-72078162D01*
X168021500Y-67309999D01*
X170365768Y-67309999D01*
X170365768Y-67310000D01*
X170384654Y-67513816D01*
X170384654Y-67513818D01*
X170384655Y-67513821D01*
X170440672Y-67710701D01*
X170440673Y-67710704D01*
X170531912Y-67893935D01*
X170655269Y-68057287D01*
X170806537Y-68195185D01*
X170806539Y-68195187D01*
X170980569Y-68302942D01*
X170980575Y-68302945D01*
X171006381Y-68312942D01*
X171171444Y-68376888D01*
X171372653Y-68414500D01*
X171372656Y-68414500D01*
X171577344Y-68414500D01*
X171577347Y-68414500D01*
X171778556Y-68376888D01*
X171969427Y-68302944D01*
X172143462Y-68195186D01*
X172294732Y-68057285D01*
X172418088Y-67893935D01*
X172509328Y-67710701D01*
X172565345Y-67513821D01*
X172584232Y-67310000D01*
X172584232Y-67309999D01*
X184335768Y-67309999D01*
X184335768Y-67310000D01*
X184354654Y-67513816D01*
X184354654Y-67513818D01*
X184354655Y-67513821D01*
X184410672Y-67710701D01*
X184410673Y-67710704D01*
X184501912Y-67893935D01*
X184625269Y-68057287D01*
X184776537Y-68195185D01*
X184776539Y-68195187D01*
X184950569Y-68302942D01*
X184950575Y-68302945D01*
X184976381Y-68312942D01*
X185141444Y-68376888D01*
X185342653Y-68414500D01*
X185342656Y-68414500D01*
X185547344Y-68414500D01*
X185547347Y-68414500D01*
X185748556Y-68376888D01*
X185939427Y-68302944D01*
X186113462Y-68195186D01*
X186264732Y-68057285D01*
X186388088Y-67893935D01*
X186451432Y-67766724D01*
X186454667Y-67760228D01*
X186502170Y-67708991D01*
X186565667Y-67691500D01*
X190161354Y-67691500D01*
X190228393Y-67711185D01*
X190272354Y-67760228D01*
X190343912Y-67903935D01*
X190467269Y-68067287D01*
X190618537Y-68205185D01*
X190618539Y-68205187D01*
X190792569Y-68312942D01*
X190792575Y-68312945D01*
X190833010Y-68328609D01*
X190983444Y-68386888D01*
X191184653Y-68424500D01*
X191184656Y-68424500D01*
X191389344Y-68424500D01*
X191389347Y-68424500D01*
X191590556Y-68386888D01*
X191781427Y-68312944D01*
X191955462Y-68205186D01*
X192106732Y-68067285D01*
X192230088Y-67903935D01*
X192321328Y-67720701D01*
X192377345Y-67523821D01*
X192396232Y-67320000D01*
X192377345Y-67116179D01*
X192321328Y-66919299D01*
X192230088Y-66736065D01*
X192170904Y-66657693D01*
X192106730Y-66572712D01*
X191955462Y-66434814D01*
X191955460Y-66434812D01*
X191781430Y-66327057D01*
X191781424Y-66327054D01*
X191630993Y-66268777D01*
X191590556Y-66253112D01*
X191389347Y-66215500D01*
X191184653Y-66215500D01*
X190983444Y-66253112D01*
X190983441Y-66253112D01*
X190983441Y-66253113D01*
X190792575Y-66327054D01*
X190792569Y-66327057D01*
X190618539Y-66434812D01*
X190618537Y-66434814D01*
X190467269Y-66572712D01*
X190343912Y-66736064D01*
X190282313Y-66859772D01*
X190234810Y-66911009D01*
X190171313Y-66928500D01*
X186565667Y-66928500D01*
X186498628Y-66908815D01*
X186454667Y-66859772D01*
X186393067Y-66736064D01*
X186388088Y-66726065D01*
X186272284Y-66572715D01*
X186264730Y-66562712D01*
X186113462Y-66424814D01*
X186113460Y-66424812D01*
X185939430Y-66317057D01*
X185939424Y-66317054D01*
X185750373Y-66243816D01*
X185748556Y-66243112D01*
X185547347Y-66205500D01*
X185342653Y-66205500D01*
X185141444Y-66243112D01*
X185141441Y-66243112D01*
X185141441Y-66243113D01*
X184950575Y-66317054D01*
X184950569Y-66317057D01*
X184776539Y-66424812D01*
X184776537Y-66424814D01*
X184625269Y-66562712D01*
X184501912Y-66726064D01*
X184410673Y-66909295D01*
X184354654Y-67106183D01*
X184335768Y-67309999D01*
X172584232Y-67309999D01*
X172565345Y-67106179D01*
X172509328Y-66909299D01*
X172418088Y-66726065D01*
X172302284Y-66572715D01*
X172294730Y-66562712D01*
X172143462Y-66424814D01*
X172143460Y-66424812D01*
X171969430Y-66317057D01*
X171969424Y-66317054D01*
X171780373Y-66243816D01*
X171778556Y-66243112D01*
X171577347Y-66205500D01*
X171372653Y-66205500D01*
X171171444Y-66243112D01*
X171171441Y-66243112D01*
X171171441Y-66243113D01*
X170980575Y-66317054D01*
X170980569Y-66317057D01*
X170806539Y-66424812D01*
X170806537Y-66424814D01*
X170655269Y-66562712D01*
X170531912Y-66726064D01*
X170440673Y-66909295D01*
X170384654Y-67106183D01*
X170365768Y-67309999D01*
X168021500Y-67309999D01*
X168021500Y-65592227D01*
X168021501Y-65592214D01*
X168021501Y-65481777D01*
X168021501Y-65481775D01*
X167995502Y-65384747D01*
X167945276Y-65297753D01*
X167417522Y-64769999D01*
X170365768Y-64769999D01*
X170365768Y-64770000D01*
X170384654Y-64973816D01*
X170384654Y-64973818D01*
X170384655Y-64973821D01*
X170440672Y-65170701D01*
X170440673Y-65170704D01*
X170531912Y-65353935D01*
X170655269Y-65517287D01*
X170806537Y-65655185D01*
X170806539Y-65655187D01*
X170980569Y-65762942D01*
X170980575Y-65762945D01*
X171006381Y-65772942D01*
X171171444Y-65836888D01*
X171372653Y-65874500D01*
X171372656Y-65874500D01*
X171577344Y-65874500D01*
X171577347Y-65874500D01*
X171778556Y-65836888D01*
X171969427Y-65762944D01*
X172143462Y-65655186D01*
X172294732Y-65517285D01*
X172418088Y-65353935D01*
X172509328Y-65170701D01*
X172565345Y-64973821D01*
X172584232Y-64770000D01*
X172584232Y-64769999D01*
X184335768Y-64769999D01*
X184335768Y-64770000D01*
X184354654Y-64973816D01*
X184354654Y-64973818D01*
X184354655Y-64973821D01*
X184410672Y-65170701D01*
X184410673Y-65170704D01*
X184501912Y-65353935D01*
X184625269Y-65517287D01*
X184776537Y-65655185D01*
X184776539Y-65655187D01*
X184950569Y-65762942D01*
X184950575Y-65762945D01*
X184976381Y-65772942D01*
X185141444Y-65836888D01*
X185342653Y-65874500D01*
X185342656Y-65874500D01*
X185547344Y-65874500D01*
X185547347Y-65874500D01*
X185748556Y-65836888D01*
X185939427Y-65762944D01*
X186113462Y-65655186D01*
X186264732Y-65517285D01*
X186388088Y-65353935D01*
X186451907Y-65225770D01*
X186454667Y-65220228D01*
X186502170Y-65168991D01*
X186565667Y-65151500D01*
X190161354Y-65151500D01*
X190228393Y-65171185D01*
X190272354Y-65220228D01*
X190343912Y-65363935D01*
X190467269Y-65527287D01*
X190618537Y-65665185D01*
X190618539Y-65665187D01*
X190792569Y-65772942D01*
X190792575Y-65772945D01*
X190833010Y-65788609D01*
X190983444Y-65846888D01*
X191184653Y-65884500D01*
X191184656Y-65884500D01*
X191389344Y-65884500D01*
X191389347Y-65884500D01*
X191590556Y-65846888D01*
X191781427Y-65772944D01*
X191955462Y-65665186D01*
X192106732Y-65527285D01*
X192230088Y-65363935D01*
X192321328Y-65180701D01*
X192377345Y-64983821D01*
X192396232Y-64780000D01*
X192377345Y-64576179D01*
X192321328Y-64379299D01*
X192230088Y-64196065D01*
X192106732Y-64032715D01*
X192106730Y-64032712D01*
X191955462Y-63894814D01*
X191955460Y-63894812D01*
X191781430Y-63787057D01*
X191781424Y-63787054D01*
X191608336Y-63720000D01*
X191590556Y-63713112D01*
X191389347Y-63675500D01*
X191184653Y-63675500D01*
X190983444Y-63713112D01*
X190983441Y-63713112D01*
X190983441Y-63713113D01*
X190792575Y-63787054D01*
X190792569Y-63787057D01*
X190618539Y-63894812D01*
X190618537Y-63894814D01*
X190467269Y-64032712D01*
X190343912Y-64196064D01*
X190282313Y-64319772D01*
X190234810Y-64371009D01*
X190171313Y-64388500D01*
X186565667Y-64388500D01*
X186498628Y-64368815D01*
X186454667Y-64319772D01*
X186393067Y-64196064D01*
X186388088Y-64186065D01*
X186328904Y-64107693D01*
X186264730Y-64022712D01*
X186113462Y-63884814D01*
X186113460Y-63884812D01*
X185939430Y-63777057D01*
X185939424Y-63777054D01*
X185774369Y-63713112D01*
X185748556Y-63703112D01*
X185547347Y-63665500D01*
X185342653Y-63665500D01*
X185141444Y-63703112D01*
X185141441Y-63703112D01*
X185141441Y-63703113D01*
X184950575Y-63777054D01*
X184950569Y-63777057D01*
X184776539Y-63884812D01*
X184776537Y-63884814D01*
X184625269Y-64022712D01*
X184501912Y-64186064D01*
X184410673Y-64369295D01*
X184354654Y-64566183D01*
X184335768Y-64769999D01*
X172584232Y-64769999D01*
X172565345Y-64566179D01*
X172509328Y-64369299D01*
X172418088Y-64186065D01*
X172358904Y-64107693D01*
X172294730Y-64022712D01*
X172143462Y-63884814D01*
X172143460Y-63884812D01*
X171969430Y-63777057D01*
X171969424Y-63777054D01*
X171804369Y-63713112D01*
X171778556Y-63703112D01*
X171577347Y-63665500D01*
X171372653Y-63665500D01*
X171171444Y-63703112D01*
X171171441Y-63703112D01*
X171171441Y-63703113D01*
X170980575Y-63777054D01*
X170980569Y-63777057D01*
X170806539Y-63884812D01*
X170806537Y-63884814D01*
X170655269Y-64022712D01*
X170531912Y-64186064D01*
X170440673Y-64369295D01*
X170384654Y-64566183D01*
X170365768Y-64769999D01*
X167417522Y-64769999D01*
X167112247Y-64464724D01*
X167025254Y-64414499D01*
X167025255Y-64414499D01*
X167000996Y-64407999D01*
X166928225Y-64388500D01*
X166928222Y-64388500D01*
X166753667Y-64388500D01*
X166686628Y-64368815D01*
X166642667Y-64319772D01*
X166581067Y-64196064D01*
X166576088Y-64186065D01*
X166516904Y-64107693D01*
X166452730Y-64022712D01*
X166301462Y-63884814D01*
X166301460Y-63884812D01*
X166127430Y-63777057D01*
X166127424Y-63777054D01*
X165962369Y-63713112D01*
X165936556Y-63703112D01*
X165735347Y-63665500D01*
X165530653Y-63665500D01*
X165329444Y-63703112D01*
X165329441Y-63703112D01*
X165329441Y-63703113D01*
X165138575Y-63777054D01*
X165138569Y-63777057D01*
X164964539Y-63884812D01*
X164964537Y-63884814D01*
X164813269Y-64022712D01*
X164689912Y-64186064D01*
X164598673Y-64369295D01*
X164542654Y-64566183D01*
X164523768Y-64769999D01*
X164523768Y-64770000D01*
X164542654Y-64973816D01*
X164542654Y-64973818D01*
X164542655Y-64973821D01*
X164598672Y-65170701D01*
X164598673Y-65170704D01*
X164689912Y-65353935D01*
X164813269Y-65517287D01*
X164964537Y-65655185D01*
X164964539Y-65655187D01*
X165138569Y-65762942D01*
X165138575Y-65762945D01*
X165164381Y-65772942D01*
X165329444Y-65836888D01*
X165530653Y-65874500D01*
X165530656Y-65874500D01*
X165735344Y-65874500D01*
X165735347Y-65874500D01*
X165936556Y-65836888D01*
X166127427Y-65762944D01*
X166301462Y-65655186D01*
X166452732Y-65517285D01*
X166576088Y-65353935D01*
X166614394Y-65277005D01*
X166661895Y-65225770D01*
X166729557Y-65208348D01*
X166795898Y-65230273D01*
X166813074Y-65244597D01*
X167222181Y-65653704D01*
X167255666Y-65715027D01*
X167258500Y-65741385D01*
X167258500Y-71926615D01*
X167238815Y-71993654D01*
X167222181Y-72014296D01*
X166572725Y-72663751D01*
X166572725Y-72663752D01*
X166572724Y-72663753D01*
X166551496Y-72700520D01*
X166522499Y-72750745D01*
X166522499Y-72750746D01*
X166496500Y-72847775D01*
X166496500Y-80314225D01*
X166511797Y-80371315D01*
X166522499Y-80411255D01*
X166522500Y-80411256D01*
X166560106Y-80476392D01*
X166572724Y-80498247D01*
X167588724Y-81514247D01*
X167659753Y-81585276D01*
X167746746Y-81635501D01*
X167843775Y-81661500D01*
X167944225Y-81661500D01*
X185264983Y-81661500D01*
X185332022Y-81681185D01*
X185377777Y-81733989D01*
X185387721Y-81803147D01*
X185372704Y-81842333D01*
X185373153Y-81842519D01*
X185368478Y-81853803D01*
X185353714Y-81928028D01*
X185353714Y-82765563D01*
X185368480Y-82839801D01*
X185383616Y-82862453D01*
X185404494Y-82929131D01*
X185404514Y-82931344D01*
X185404514Y-84287168D01*
X185384829Y-84354207D01*
X185332025Y-84399962D01*
X185323851Y-84403348D01*
X185289285Y-84416241D01*
X185289282Y-84416243D01*
X185176026Y-84501025D01*
X185176025Y-84501026D01*
X185091243Y-84614282D01*
X185091242Y-84614283D01*
X185086188Y-84627835D01*
X185044316Y-84683768D01*
X184978851Y-84708184D01*
X184970007Y-84708500D01*
X184043115Y-84708500D01*
X183976076Y-84688815D01*
X183932115Y-84639772D01*
X183863027Y-84501026D01*
X183853088Y-84481065D01*
X183791842Y-84399962D01*
X183729730Y-84317712D01*
X183578462Y-84179814D01*
X183578460Y-84179812D01*
X183404430Y-84072057D01*
X183404424Y-84072054D01*
X183253993Y-84013777D01*
X183213556Y-83998112D01*
X183012347Y-83960500D01*
X182807653Y-83960500D01*
X182606444Y-83998112D01*
X182606441Y-83998112D01*
X182606441Y-83998113D01*
X182415575Y-84072054D01*
X182415569Y-84072057D01*
X182241539Y-84179812D01*
X182241537Y-84179814D01*
X182090269Y-84317712D01*
X181966912Y-84481064D01*
X181875673Y-84664295D01*
X181819654Y-84861183D01*
X181800768Y-85064999D01*
X181800768Y-85065000D01*
X181819654Y-85268816D01*
X181819654Y-85268818D01*
X181819655Y-85268821D01*
X181872900Y-85455958D01*
X181875673Y-85465704D01*
X181966912Y-85648935D01*
X182090269Y-85812287D01*
X182241537Y-85950185D01*
X182241539Y-85950187D01*
X182415569Y-86057942D01*
X182415575Y-86057945D01*
X182424455Y-86061385D01*
X182606444Y-86131888D01*
X182807653Y-86169500D01*
X182807656Y-86169500D01*
X183012344Y-86169500D01*
X183012347Y-86169500D01*
X183213556Y-86131888D01*
X183404427Y-86057944D01*
X183578462Y-85950186D01*
X183728728Y-85813200D01*
X183729730Y-85812287D01*
X183729732Y-85812285D01*
X183853088Y-85648935D01*
X183907217Y-85540228D01*
X183954719Y-85488992D01*
X184018217Y-85471500D01*
X184970007Y-85471500D01*
X185037046Y-85491185D01*
X185082801Y-85543989D01*
X185086188Y-85552165D01*
X185091242Y-85565716D01*
X185091243Y-85565717D01*
X185153539Y-85648935D01*
X185176026Y-85678974D01*
X185289285Y-85763758D01*
X185421843Y-85813200D01*
X185480443Y-85819500D01*
X186174556Y-85819499D01*
X186233157Y-85813200D01*
X186365715Y-85763758D01*
X186478974Y-85678974D01*
X186563758Y-85565715D01*
X186563759Y-85565710D01*
X186564832Y-85564278D01*
X186620766Y-85522407D01*
X186690457Y-85517422D01*
X186751781Y-85550906D01*
X186774976Y-85586269D01*
X186775422Y-85586019D01*
X186779083Y-85592530D01*
X186779454Y-85593096D01*
X186779578Y-85593411D01*
X186779579Y-85593413D01*
X186868856Y-85711143D01*
X186986586Y-85800420D01*
X186986592Y-85800423D01*
X187124041Y-85854626D01*
X187210428Y-85865000D01*
X187302500Y-85865000D01*
X187802500Y-85865000D01*
X187894572Y-85865000D01*
X187980958Y-85854626D01*
X188118407Y-85800423D01*
X188118413Y-85800420D01*
X188236143Y-85711143D01*
X188325420Y-85593413D01*
X188325423Y-85593407D01*
X188379626Y-85455958D01*
X188390000Y-85369571D01*
X188390000Y-85340000D01*
X187802500Y-85340000D01*
X187802500Y-85865000D01*
X187302500Y-85865000D01*
X187302500Y-84840000D01*
X187802500Y-84840000D01*
X188390000Y-84840000D01*
X188390000Y-84810428D01*
X188379626Y-84724041D01*
X188325423Y-84586592D01*
X188325420Y-84586586D01*
X188236143Y-84468856D01*
X188118413Y-84379579D01*
X188118407Y-84379576D01*
X187980958Y-84325373D01*
X187894572Y-84315000D01*
X187802500Y-84315000D01*
X187802500Y-84840000D01*
X187302500Y-84840000D01*
X187302500Y-84315000D01*
X187210428Y-84315000D01*
X187124041Y-84325373D01*
X186986592Y-84379576D01*
X186986586Y-84379579D01*
X186868856Y-84468856D01*
X186779579Y-84586586D01*
X186779577Y-84586591D01*
X186779452Y-84586908D01*
X186779260Y-84587154D01*
X186775422Y-84593981D01*
X186774396Y-84593404D01*
X186736543Y-84642049D01*
X186670634Y-84665239D01*
X186602650Y-84649114D01*
X186564833Y-84615721D01*
X186543027Y-84586592D01*
X186478974Y-84501026D01*
X186365715Y-84416242D01*
X186365713Y-84416241D01*
X186365711Y-84416240D01*
X186248179Y-84372402D01*
X186192246Y-84330530D01*
X186167830Y-84265066D01*
X186167514Y-84256221D01*
X186167514Y-83164498D01*
X186187199Y-83097459D01*
X186240003Y-83051704D01*
X186248938Y-83049760D01*
X186258200Y-83040498D01*
X186258200Y-82293000D01*
X186277885Y-82225961D01*
X186330689Y-82180206D01*
X186382200Y-82169000D01*
X186489800Y-82169000D01*
X186556839Y-82188685D01*
X186602594Y-82241489D01*
X186613800Y-82293000D01*
X186613800Y-83040499D01*
X186658586Y-83040499D01*
X186658608Y-83040497D01*
X186683669Y-83037591D01*
X186683675Y-83037589D01*
X186776272Y-82996704D01*
X186845550Y-82987632D01*
X186850502Y-82988512D01*
X186883119Y-82995000D01*
X187288852Y-82994999D01*
X187363087Y-82980234D01*
X187447270Y-82923984D01*
X187503520Y-82839801D01*
X187518286Y-82765567D01*
X187518285Y-81928034D01*
X187503520Y-81853799D01*
X187488382Y-81831144D01*
X187467506Y-81764468D01*
X187467486Y-81762255D01*
X187467486Y-81631513D01*
X187467487Y-81631500D01*
X187467487Y-81521063D01*
X187467487Y-81521061D01*
X187441488Y-81424033D01*
X187391262Y-81337039D01*
X187127303Y-81073080D01*
X187093818Y-81011757D01*
X187098802Y-80942065D01*
X187140674Y-80886132D01*
X187206138Y-80861715D01*
X187214978Y-80861399D01*
X187288852Y-80861399D01*
X187363087Y-80846634D01*
X187447270Y-80790384D01*
X187503520Y-80706201D01*
X187518286Y-80631967D01*
X187518285Y-79794434D01*
X187503520Y-79720199D01*
X187488382Y-79697544D01*
X187467506Y-79630868D01*
X187467486Y-79628655D01*
X187467486Y-78526831D01*
X187487171Y-78459792D01*
X187539975Y-78414037D01*
X187548153Y-78410649D01*
X187582713Y-78397759D01*
X187582713Y-78397758D01*
X187582715Y-78397758D01*
X187695974Y-78312974D01*
X187780758Y-78199715D01*
X187785812Y-78186165D01*
X187827684Y-78130232D01*
X187893149Y-78105816D01*
X187901993Y-78105500D01*
X188258615Y-78105500D01*
X188325654Y-78125185D01*
X188346296Y-78141819D01*
X188812181Y-78607704D01*
X188845666Y-78669027D01*
X188848500Y-78695385D01*
X188848500Y-86658615D01*
X188828815Y-86725654D01*
X188812181Y-86746296D01*
X188346296Y-87212181D01*
X188284973Y-87245666D01*
X188258615Y-87248500D01*
X171659385Y-87248500D01*
X171592346Y-87228815D01*
X171571704Y-87212181D01*
X171105819Y-86746296D01*
X171072334Y-86684973D01*
X171069500Y-86658615D01*
X171069500Y-85801776D01*
X171069500Y-85801775D01*
X171062163Y-85774394D01*
X171059313Y-85763758D01*
X171043503Y-85704750D01*
X171043502Y-85704748D01*
X171043502Y-85704747D01*
X170993276Y-85617753D01*
X169565451Y-84189928D01*
X171645500Y-84189928D01*
X171645500Y-85940063D01*
X171660266Y-86014301D01*
X171716515Y-86098484D01*
X171750234Y-86121014D01*
X171800699Y-86154734D01*
X171800702Y-86154734D01*
X171800703Y-86154735D01*
X171825666Y-86159700D01*
X171874933Y-86169500D01*
X173625066Y-86169499D01*
X173699301Y-86154734D01*
X173783484Y-86098484D01*
X173839734Y-86014301D01*
X173854500Y-85940067D01*
X173854499Y-85064999D01*
X174180768Y-85064999D01*
X174180768Y-85065000D01*
X174199654Y-85268816D01*
X174199654Y-85268818D01*
X174199655Y-85268821D01*
X174252900Y-85455958D01*
X174255673Y-85465704D01*
X174346912Y-85648935D01*
X174470269Y-85812287D01*
X174621537Y-85950185D01*
X174621539Y-85950187D01*
X174795569Y-86057942D01*
X174795575Y-86057945D01*
X174804455Y-86061385D01*
X174986444Y-86131888D01*
X175187653Y-86169500D01*
X175187656Y-86169500D01*
X175392344Y-86169500D01*
X175392347Y-86169500D01*
X175593556Y-86131888D01*
X175784427Y-86057944D01*
X175958462Y-85950186D01*
X176108728Y-85813200D01*
X176109730Y-85812287D01*
X176109732Y-85812285D01*
X176233088Y-85648935D01*
X176324328Y-85465701D01*
X176380345Y-85268821D01*
X176399232Y-85065000D01*
X176380345Y-84861179D01*
X176367206Y-84814999D01*
X176705487Y-84814999D01*
X176705488Y-84815000D01*
X177396988Y-84815000D01*
X177364075Y-84872007D01*
X177330000Y-84999174D01*
X177330000Y-85130826D01*
X177364075Y-85257993D01*
X177396988Y-85315000D01*
X176705488Y-85315000D01*
X176753062Y-85482205D01*
X176753067Y-85482218D01*
X176848061Y-85672991D01*
X176976500Y-85843071D01*
X177134000Y-85986651D01*
X177134002Y-85986653D01*
X177315201Y-86098846D01*
X177315207Y-86098849D01*
X177513941Y-86175838D01*
X177580000Y-86188186D01*
X177580000Y-85498012D01*
X177637007Y-85530925D01*
X177764174Y-85565000D01*
X177895826Y-85565000D01*
X178022993Y-85530925D01*
X178080000Y-85498012D01*
X178080000Y-86188185D01*
X178146058Y-86175838D01*
X178344792Y-86098849D01*
X178344798Y-86098846D01*
X178525997Y-85986653D01*
X178525999Y-85986651D01*
X178683499Y-85843071D01*
X178811938Y-85672991D01*
X178906932Y-85482218D01*
X178906937Y-85482205D01*
X178954512Y-85315000D01*
X178263012Y-85315000D01*
X178295925Y-85257993D01*
X178330000Y-85130826D01*
X178330000Y-85064999D01*
X179260768Y-85064999D01*
X179260768Y-85065000D01*
X179279654Y-85268816D01*
X179279654Y-85268818D01*
X179279655Y-85268821D01*
X179332900Y-85455958D01*
X179335673Y-85465704D01*
X179426912Y-85648935D01*
X179550269Y-85812287D01*
X179701537Y-85950185D01*
X179701539Y-85950187D01*
X179875569Y-86057942D01*
X179875575Y-86057945D01*
X179884455Y-86061385D01*
X180066444Y-86131888D01*
X180267653Y-86169500D01*
X180267656Y-86169500D01*
X180472344Y-86169500D01*
X180472347Y-86169500D01*
X180673556Y-86131888D01*
X180864427Y-86057944D01*
X181038462Y-85950186D01*
X181188728Y-85813200D01*
X181189730Y-85812287D01*
X181189732Y-85812285D01*
X181313088Y-85648935D01*
X181404328Y-85465701D01*
X181460345Y-85268821D01*
X181479232Y-85065000D01*
X181460345Y-84861179D01*
X181404328Y-84664299D01*
X181313088Y-84481065D01*
X181251842Y-84399962D01*
X181189730Y-84317712D01*
X181038462Y-84179814D01*
X181038460Y-84179812D01*
X180864430Y-84072057D01*
X180864424Y-84072054D01*
X180713993Y-84013777D01*
X180673556Y-83998112D01*
X180472347Y-83960500D01*
X180267653Y-83960500D01*
X180066444Y-83998112D01*
X180066441Y-83998112D01*
X180066441Y-83998113D01*
X179875575Y-84072054D01*
X179875569Y-84072057D01*
X179701539Y-84179812D01*
X179701537Y-84179814D01*
X179550269Y-84317712D01*
X179426912Y-84481064D01*
X179335673Y-84664295D01*
X179279654Y-84861183D01*
X179260768Y-85064999D01*
X178330000Y-85064999D01*
X178330000Y-84999174D01*
X178295925Y-84872007D01*
X178263012Y-84815000D01*
X178954512Y-84815000D01*
X178954512Y-84814999D01*
X178906937Y-84647794D01*
X178906932Y-84647781D01*
X178811938Y-84457008D01*
X178683499Y-84286928D01*
X178525999Y-84143348D01*
X178525997Y-84143346D01*
X178344798Y-84031153D01*
X178344789Y-84031149D01*
X178146063Y-83954163D01*
X178146058Y-83954162D01*
X178080000Y-83941813D01*
X178080000Y-84631988D01*
X178022993Y-84599075D01*
X177895826Y-84565000D01*
X177764174Y-84565000D01*
X177637007Y-84599075D01*
X177580000Y-84631988D01*
X177580000Y-83941813D01*
X177513941Y-83954162D01*
X177513936Y-83954163D01*
X177315210Y-84031149D01*
X177315201Y-84031153D01*
X177134002Y-84143346D01*
X177134000Y-84143348D01*
X176976500Y-84286928D01*
X176848061Y-84457008D01*
X176753067Y-84647781D01*
X176753062Y-84647794D01*
X176705487Y-84814999D01*
X176367206Y-84814999D01*
X176324328Y-84664299D01*
X176233088Y-84481065D01*
X176171842Y-84399962D01*
X176109730Y-84317712D01*
X175958462Y-84179814D01*
X175958460Y-84179812D01*
X175784430Y-84072057D01*
X175784424Y-84072054D01*
X175633993Y-84013777D01*
X175593556Y-83998112D01*
X175392347Y-83960500D01*
X175187653Y-83960500D01*
X174986444Y-83998112D01*
X174986441Y-83998112D01*
X174986441Y-83998113D01*
X174795575Y-84072054D01*
X174795569Y-84072057D01*
X174621539Y-84179812D01*
X174621537Y-84179814D01*
X174470269Y-84317712D01*
X174346912Y-84481064D01*
X174255673Y-84664295D01*
X174199654Y-84861183D01*
X174180768Y-85064999D01*
X173854499Y-85064999D01*
X173854499Y-84189934D01*
X173839734Y-84115699D01*
X173810571Y-84072054D01*
X173783484Y-84031515D01*
X173733019Y-83997796D01*
X173699301Y-83975266D01*
X173699299Y-83975265D01*
X173699296Y-83975264D01*
X173625069Y-83960500D01*
X171874936Y-83960500D01*
X171800698Y-83975266D01*
X171716515Y-84031515D01*
X171660266Y-84115699D01*
X171660264Y-84115703D01*
X171645500Y-84189928D01*
X169565451Y-84189928D01*
X166025819Y-80650296D01*
X165992334Y-80588973D01*
X165989500Y-80562615D01*
X165989500Y-73609777D01*
X165989500Y-73609775D01*
X165963501Y-73512746D01*
X165913276Y-73425753D01*
X165842247Y-73354724D01*
X165837916Y-73350393D01*
X165837905Y-73350383D01*
X165180748Y-72693225D01*
X165180740Y-72693219D01*
X165129702Y-72663753D01*
X165129699Y-72663752D01*
X165129697Y-72663751D01*
X165093756Y-72643000D01*
X165093755Y-72642999D01*
X165059251Y-72633754D01*
X164996725Y-72617000D01*
X164996722Y-72617000D01*
X163378305Y-72617000D01*
X163311266Y-72597315D01*
X163265511Y-72544511D01*
X163262124Y-72536335D01*
X163233759Y-72460288D01*
X163233758Y-72460285D01*
X163148974Y-72347026D01*
X163112491Y-72319715D01*
X163034278Y-72261166D01*
X162992406Y-72205233D01*
X162987422Y-72135541D01*
X163020907Y-72074218D01*
X163056270Y-72051024D01*
X163056019Y-72050578D01*
X163062550Y-72046905D01*
X163063108Y-72046540D01*
X163063415Y-72046418D01*
X163181143Y-71957143D01*
X163270420Y-71839413D01*
X163270423Y-71839407D01*
X163324626Y-71701958D01*
X163335000Y-71615571D01*
X163335000Y-71523500D01*
X161785000Y-71523500D01*
X161785000Y-71615571D01*
X161795373Y-71701958D01*
X161849576Y-71839407D01*
X161849579Y-71839413D01*
X161938856Y-71957143D01*
X162056586Y-72046420D01*
X162056895Y-72046542D01*
X162057135Y-72046729D01*
X162063981Y-72050578D01*
X162063403Y-72051605D01*
X162112041Y-72089446D01*
X162135238Y-72155352D01*
X162119120Y-72223337D01*
X162085722Y-72261166D01*
X161971024Y-72347027D01*
X161886244Y-72460281D01*
X161886240Y-72460288D01*
X161842402Y-72577821D01*
X161800530Y-72633754D01*
X161735066Y-72658170D01*
X161726221Y-72658486D01*
X161142500Y-72658486D01*
X161075461Y-72638801D01*
X161029706Y-72585997D01*
X161027762Y-72577062D01*
X161018500Y-72567800D01*
X160271000Y-72567800D01*
X160203961Y-72548115D01*
X160158206Y-72495311D01*
X160147000Y-72443800D01*
X160147000Y-72336200D01*
X160166685Y-72269161D01*
X160219489Y-72223406D01*
X160271000Y-72212200D01*
X161018499Y-72212200D01*
X161018499Y-72167414D01*
X161018497Y-72167391D01*
X161015591Y-72142330D01*
X161015590Y-72142326D01*
X160974704Y-72049725D01*
X160965633Y-71980446D01*
X160966522Y-71975448D01*
X160970163Y-71957143D01*
X160973000Y-71942881D01*
X160972999Y-71537148D01*
X160958234Y-71462913D01*
X160939199Y-71434426D01*
X160901984Y-71378729D01*
X160846595Y-71341720D01*
X160817801Y-71322480D01*
X160817799Y-71322479D01*
X160817796Y-71322478D01*
X160743569Y-71307714D01*
X159906036Y-71307714D01*
X159831798Y-71322480D01*
X159820516Y-71327154D01*
X159820020Y-71325958D01*
X159765706Y-71342962D01*
X159698327Y-71324474D01*
X159651640Y-71272492D01*
X159639500Y-71218982D01*
X159639500Y-70931428D01*
X161785000Y-70931428D01*
X161785000Y-71023500D01*
X162310000Y-71023500D01*
X162810000Y-71023500D01*
X163335000Y-71023500D01*
X163335000Y-70931428D01*
X163324626Y-70845041D01*
X163270423Y-70707592D01*
X163270420Y-70707586D01*
X163181143Y-70589856D01*
X163063413Y-70500579D01*
X163063407Y-70500576D01*
X162925958Y-70446373D01*
X162839572Y-70436000D01*
X162810000Y-70436000D01*
X162810000Y-71023500D01*
X162310000Y-71023500D01*
X162310000Y-70436000D01*
X162280428Y-70436000D01*
X162194041Y-70446373D01*
X162056592Y-70500576D01*
X162056586Y-70500579D01*
X161938856Y-70589856D01*
X161849579Y-70707586D01*
X161849576Y-70707592D01*
X161795373Y-70845041D01*
X161785000Y-70931428D01*
X159639500Y-70931428D01*
X159639500Y-68281385D01*
X159659185Y-68214346D01*
X159675819Y-68193704D01*
X160141704Y-67727819D01*
X160203027Y-67694334D01*
X160229385Y-67691500D01*
X164512333Y-67691500D01*
X164579372Y-67711185D01*
X164623333Y-67760228D01*
X164689912Y-67893935D01*
X164813269Y-68057287D01*
X164964537Y-68195185D01*
X164964539Y-68195187D01*
X165138569Y-68302942D01*
X165138575Y-68302945D01*
X165164381Y-68312942D01*
X165329444Y-68376888D01*
X165530653Y-68414500D01*
X165530656Y-68414500D01*
X165735344Y-68414500D01*
X165735347Y-68414500D01*
X165936556Y-68376888D01*
X166127427Y-68302944D01*
X166301462Y-68195186D01*
X166452732Y-68057285D01*
X166576088Y-67893935D01*
X166667328Y-67710701D01*
X166723345Y-67513821D01*
X166742232Y-67310000D01*
X166723345Y-67106179D01*
X166667328Y-66909299D01*
X166576088Y-66726065D01*
X166460284Y-66572715D01*
X166452730Y-66562712D01*
X166301462Y-66424814D01*
X166301460Y-66424812D01*
X166127430Y-66317057D01*
X166127424Y-66317054D01*
X165938373Y-66243816D01*
X165936556Y-66243112D01*
X165735347Y-66205500D01*
X165530653Y-66205500D01*
X165329444Y-66243112D01*
X165329441Y-66243112D01*
X165329441Y-66243113D01*
X165138575Y-66317054D01*
X165138569Y-66317057D01*
X164964539Y-66424812D01*
X164964537Y-66424814D01*
X164813269Y-66562712D01*
X164689912Y-66726064D01*
X164623333Y-66859772D01*
X164575830Y-66911009D01*
X164512333Y-66928500D01*
X160077837Y-66928500D01*
X160077821Y-66928499D01*
X160070225Y-66928499D01*
X159969775Y-66928499D01*
X159872747Y-66954498D01*
X159872745Y-66954498D01*
X159872745Y-66954499D01*
X159785753Y-67004724D01*
X159785750Y-67004726D01*
X158952725Y-67837751D01*
X158952723Y-67837754D01*
X158902499Y-67924745D01*
X158902499Y-67924746D01*
X158876500Y-68021775D01*
X158876500Y-68021777D01*
X158876500Y-71218982D01*
X158856815Y-71286021D01*
X158804011Y-71331776D01*
X158734853Y-71341720D01*
X158695666Y-71326705D01*
X158695481Y-71327153D01*
X158684196Y-71322478D01*
X158609969Y-71307714D01*
X157772436Y-71307714D01*
X157698198Y-71322480D01*
X157675547Y-71337616D01*
X157608869Y-71358494D01*
X157606656Y-71358514D01*
X157012831Y-71358514D01*
X156945792Y-71338829D01*
X156900037Y-71286025D01*
X156896650Y-71277849D01*
X156894652Y-71272492D01*
X156883758Y-71243285D01*
X156798974Y-71130026D01*
X156798973Y-71130025D01*
X156685719Y-71045244D01*
X156681074Y-71042708D01*
X156631668Y-70993303D01*
X156616500Y-70933875D01*
X156616500Y-69701634D01*
X156636185Y-69634595D01*
X156688989Y-69588840D01*
X156695708Y-69586007D01*
X156729418Y-69572948D01*
X156729422Y-69572945D01*
X156729427Y-69572944D01*
X156903462Y-69465186D01*
X157054732Y-69327285D01*
X157178088Y-69163935D01*
X157269328Y-68980701D01*
X157325345Y-68783821D01*
X157344232Y-68580000D01*
X157325345Y-68376179D01*
X157269328Y-68179299D01*
X157178088Y-67996065D01*
X157100963Y-67893935D01*
X157054730Y-67832712D01*
X156903462Y-67694814D01*
X156903460Y-67694812D01*
X156729430Y-67587057D01*
X156729424Y-67587054D01*
X156566186Y-67523816D01*
X156538556Y-67513112D01*
X156337347Y-67475500D01*
X156132653Y-67475500D01*
X155931444Y-67513112D01*
X155931441Y-67513112D01*
X155931441Y-67513113D01*
X155740575Y-67587054D01*
X155740569Y-67587057D01*
X155566539Y-67694812D01*
X155566537Y-67694814D01*
X155415269Y-67832712D01*
X155291912Y-67996064D01*
X155200673Y-68179295D01*
X155144654Y-68376183D01*
X155125768Y-68579999D01*
X152400000Y-68579999D01*
X152400000Y-66039999D01*
X155125768Y-66039999D01*
X155125768Y-66040000D01*
X155144654Y-66243816D01*
X155144654Y-66243818D01*
X155144655Y-66243821D01*
X155198997Y-66434814D01*
X155200673Y-66440704D01*
X155291912Y-66623935D01*
X155415269Y-66787287D01*
X155566537Y-66925185D01*
X155566539Y-66925187D01*
X155740569Y-67032942D01*
X155740575Y-67032945D01*
X155781010Y-67048609D01*
X155931444Y-67106888D01*
X156132653Y-67144500D01*
X156132656Y-67144500D01*
X156337344Y-67144500D01*
X156337347Y-67144500D01*
X156538556Y-67106888D01*
X156729427Y-67032944D01*
X156903462Y-66925186D01*
X157054732Y-66787285D01*
X157178088Y-66623935D01*
X157269328Y-66440701D01*
X157325345Y-66243821D01*
X157344232Y-66040000D01*
X157325345Y-65836179D01*
X157269328Y-65639299D01*
X157178088Y-65456065D01*
X157054732Y-65292715D01*
X157054730Y-65292712D01*
X156903462Y-65154814D01*
X156903460Y-65154812D01*
X156729430Y-65047057D01*
X156729424Y-65047054D01*
X156540373Y-64973816D01*
X156538556Y-64973112D01*
X156337347Y-64935500D01*
X156132653Y-64935500D01*
X155931444Y-64973112D01*
X155931441Y-64973112D01*
X155931441Y-64973113D01*
X155740575Y-65047054D01*
X155740569Y-65047057D01*
X155566539Y-65154812D01*
X155566537Y-65154814D01*
X155415269Y-65292712D01*
X155291912Y-65456064D01*
X155200673Y-65639295D01*
X155144654Y-65836183D01*
X155125768Y-66039999D01*
X152400000Y-66039999D01*
X152400000Y-63249999D01*
X155110487Y-63249999D01*
X155110488Y-63250000D01*
X155801988Y-63250000D01*
X155769075Y-63307007D01*
X155735000Y-63434174D01*
X155735000Y-63565826D01*
X155769075Y-63692993D01*
X155801988Y-63750000D01*
X155110488Y-63750000D01*
X155158062Y-63917205D01*
X155158067Y-63917218D01*
X155253061Y-64107991D01*
X155381500Y-64278071D01*
X155539000Y-64421651D01*
X155539002Y-64421653D01*
X155720201Y-64533846D01*
X155720207Y-64533849D01*
X155918941Y-64610838D01*
X155985000Y-64623186D01*
X155985000Y-63933012D01*
X156042007Y-63965925D01*
X156169174Y-64000000D01*
X156300826Y-64000000D01*
X156427993Y-63965925D01*
X156485000Y-63933012D01*
X156485000Y-64623185D01*
X156551058Y-64610838D01*
X156749792Y-64533849D01*
X156749798Y-64533846D01*
X156930997Y-64421653D01*
X156930999Y-64421651D01*
X157088499Y-64278071D01*
X157216938Y-64107991D01*
X157311932Y-63917218D01*
X157311937Y-63917205D01*
X157359512Y-63750000D01*
X156668012Y-63750000D01*
X156700925Y-63692993D01*
X156735000Y-63565826D01*
X156735000Y-63434174D01*
X156700925Y-63307007D01*
X156668012Y-63250000D01*
X157359512Y-63250000D01*
X157359512Y-63249999D01*
X157311937Y-63082794D01*
X157311932Y-63082781D01*
X157216938Y-62892008D01*
X157088499Y-62721928D01*
X156930999Y-62578348D01*
X156930997Y-62578346D01*
X156749798Y-62466153D01*
X156749789Y-62466149D01*
X156551063Y-62389163D01*
X156551058Y-62389162D01*
X156485000Y-62376813D01*
X156485000Y-63066988D01*
X156427993Y-63034075D01*
X156300826Y-63000000D01*
X156169174Y-63000000D01*
X156042007Y-63034075D01*
X155985000Y-63066988D01*
X155985000Y-62376813D01*
X155918941Y-62389162D01*
X155918936Y-62389163D01*
X155720210Y-62466149D01*
X155720201Y-62466153D01*
X155539002Y-62578346D01*
X155539000Y-62578348D01*
X155381500Y-62721928D01*
X155253061Y-62892008D01*
X155158067Y-63082781D01*
X155158062Y-63082794D01*
X155110487Y-63249999D01*
X152400000Y-63249999D01*
X152400000Y-60959999D01*
X155125768Y-60959999D01*
X155125768Y-60960000D01*
X155144654Y-61163816D01*
X155144654Y-61163818D01*
X155144655Y-61163821D01*
X155200672Y-61360701D01*
X155200673Y-61360704D01*
X155291912Y-61543935D01*
X155415269Y-61707287D01*
X155566537Y-61845185D01*
X155566539Y-61845187D01*
X155740569Y-61952942D01*
X155740575Y-61952945D01*
X155781010Y-61968609D01*
X155931444Y-62026888D01*
X156132653Y-62064500D01*
X156132656Y-62064500D01*
X156337344Y-62064500D01*
X156337347Y-62064500D01*
X156538556Y-62026888D01*
X156729427Y-61952944D01*
X156903462Y-61845186D01*
X157054732Y-61707285D01*
X157178088Y-61543935D01*
X157269328Y-61360701D01*
X157325345Y-61163821D01*
X157344232Y-60960000D01*
X157325345Y-60756179D01*
X157269328Y-60559299D01*
X157178088Y-60376065D01*
X157078976Y-60244819D01*
X157054730Y-60212712D01*
X156903462Y-60074814D01*
X156903460Y-60074812D01*
X156729430Y-59967057D01*
X156729424Y-59967054D01*
X156578993Y-59908777D01*
X156538556Y-59893112D01*
X156337347Y-59855500D01*
X156132653Y-59855500D01*
X155931444Y-59893112D01*
X155931441Y-59893112D01*
X155931441Y-59893113D01*
X155740575Y-59967054D01*
X155740569Y-59967057D01*
X155566539Y-60074812D01*
X155566537Y-60074814D01*
X155415269Y-60212712D01*
X155291912Y-60376064D01*
X155200673Y-60559295D01*
X155199030Y-60565071D01*
X155153958Y-60723484D01*
X155144654Y-60756183D01*
X155125768Y-60959999D01*
X152400000Y-60959999D01*
X152400000Y-57544928D01*
X155130500Y-57544928D01*
X155130500Y-59295063D01*
X155145266Y-59369301D01*
X155201515Y-59453484D01*
X155206607Y-59456886D01*
X155285699Y-59509734D01*
X155285702Y-59509734D01*
X155285703Y-59509735D01*
X155310666Y-59514700D01*
X155359933Y-59524500D01*
X157110066Y-59524499D01*
X157184301Y-59509734D01*
X157268484Y-59453484D01*
X157324734Y-59369301D01*
X157339500Y-59295067D01*
X157339499Y-57861775D01*
X162940500Y-57861775D01*
X162940500Y-61518225D01*
X162966499Y-61615254D01*
X163002312Y-61677285D01*
X163016724Y-61702247D01*
X163849753Y-62535276D01*
X163936747Y-62585502D01*
X164033775Y-62611501D01*
X164033778Y-62611501D01*
X164141821Y-62611501D01*
X164141837Y-62611500D01*
X164512333Y-62611500D01*
X164579372Y-62631185D01*
X164623333Y-62680228D01*
X164689912Y-62813935D01*
X164813269Y-62977287D01*
X164964537Y-63115185D01*
X164964539Y-63115187D01*
X165138569Y-63222942D01*
X165138575Y-63222945D01*
X165179010Y-63238609D01*
X165329444Y-63296888D01*
X165530653Y-63334500D01*
X165530656Y-63334500D01*
X165735344Y-63334500D01*
X165735347Y-63334500D01*
X165936556Y-63296888D01*
X166127427Y-63222944D01*
X166301462Y-63115186D01*
X166452732Y-62977285D01*
X166576088Y-62813935D01*
X166667328Y-62630701D01*
X166723345Y-62433821D01*
X166742232Y-62230000D01*
X166723345Y-62026179D01*
X166710206Y-61979999D01*
X170350487Y-61979999D01*
X170350488Y-61980000D01*
X171041988Y-61980000D01*
X171009075Y-62037007D01*
X170975000Y-62164174D01*
X170975000Y-62295826D01*
X171009075Y-62422993D01*
X171041988Y-62480000D01*
X170350488Y-62480000D01*
X170398062Y-62647205D01*
X170398067Y-62647218D01*
X170493061Y-62837991D01*
X170621500Y-63008071D01*
X170779000Y-63151651D01*
X170779002Y-63151653D01*
X170960201Y-63263846D01*
X170960207Y-63263849D01*
X171158941Y-63340838D01*
X171225000Y-63353186D01*
X171225000Y-62663012D01*
X171282007Y-62695925D01*
X171409174Y-62730000D01*
X171540826Y-62730000D01*
X171667993Y-62695925D01*
X171725000Y-62663012D01*
X171725000Y-63353185D01*
X171791058Y-63340838D01*
X171989792Y-63263849D01*
X171989798Y-63263846D01*
X172170997Y-63151653D01*
X172170999Y-63151651D01*
X172328499Y-63008071D01*
X172456938Y-62837991D01*
X172551932Y-62647218D01*
X172551937Y-62647205D01*
X172599512Y-62480000D01*
X171908012Y-62480000D01*
X171940925Y-62422993D01*
X171975000Y-62295826D01*
X171975000Y-62164174D01*
X171940925Y-62037007D01*
X171908012Y-61980000D01*
X172599512Y-61980000D01*
X172599512Y-61979999D01*
X184320487Y-61979999D01*
X184320488Y-61980000D01*
X185011988Y-61980000D01*
X184979075Y-62037007D01*
X184945000Y-62164174D01*
X184945000Y-62295826D01*
X184979075Y-62422993D01*
X185011988Y-62480000D01*
X184320488Y-62480000D01*
X184368062Y-62647205D01*
X184368067Y-62647218D01*
X184463061Y-62837991D01*
X184591500Y-63008071D01*
X184749000Y-63151651D01*
X184749002Y-63151653D01*
X184930201Y-63263846D01*
X184930207Y-63263849D01*
X185128941Y-63340838D01*
X185195000Y-63353186D01*
X185195000Y-62663012D01*
X185252007Y-62695925D01*
X185379174Y-62730000D01*
X185510826Y-62730000D01*
X185637993Y-62695925D01*
X185695000Y-62663012D01*
X185695000Y-63353185D01*
X185761058Y-63340838D01*
X185959792Y-63263849D01*
X185959798Y-63263846D01*
X186140997Y-63151653D01*
X186140999Y-63151651D01*
X186298499Y-63008071D01*
X186426938Y-62837991D01*
X186521932Y-62647218D01*
X186521937Y-62647205D01*
X186569512Y-62480000D01*
X185878012Y-62480000D01*
X185910925Y-62422993D01*
X185945000Y-62295826D01*
X185945000Y-62164174D01*
X185910925Y-62037007D01*
X185883785Y-61989999D01*
X190162487Y-61989999D01*
X190162488Y-61990000D01*
X190853988Y-61990000D01*
X190821075Y-62047007D01*
X190787000Y-62174174D01*
X190787000Y-62305826D01*
X190821075Y-62432993D01*
X190853988Y-62490000D01*
X190162488Y-62490000D01*
X190210062Y-62657205D01*
X190210067Y-62657218D01*
X190305061Y-62847991D01*
X190433500Y-63018071D01*
X190591000Y-63161651D01*
X190591002Y-63161653D01*
X190772201Y-63273846D01*
X190772207Y-63273849D01*
X190970941Y-63350838D01*
X191037000Y-63363186D01*
X191037000Y-62673012D01*
X191094007Y-62705925D01*
X191221174Y-62740000D01*
X191352826Y-62740000D01*
X191479993Y-62705925D01*
X191537000Y-62673012D01*
X191537000Y-63363186D01*
X191603058Y-63350838D01*
X191801792Y-63273849D01*
X191801798Y-63273846D01*
X191982997Y-63161653D01*
X191982999Y-63161651D01*
X192140499Y-63018071D01*
X192268938Y-62847991D01*
X192363932Y-62657218D01*
X192363937Y-62657205D01*
X192411512Y-62490000D01*
X191720012Y-62490000D01*
X191752925Y-62432993D01*
X191787000Y-62305826D01*
X191787000Y-62174174D01*
X191752925Y-62047007D01*
X191720012Y-61990000D01*
X192411512Y-61990000D01*
X192411512Y-61989999D01*
X192363937Y-61822794D01*
X192363932Y-61822781D01*
X192268938Y-61632008D01*
X192140499Y-61461928D01*
X191982999Y-61318348D01*
X191982997Y-61318346D01*
X191801798Y-61206153D01*
X191801789Y-61206149D01*
X191603063Y-61129163D01*
X191603058Y-61129162D01*
X191537000Y-61116813D01*
X191537000Y-61806988D01*
X191479993Y-61774075D01*
X191352826Y-61740000D01*
X191221174Y-61740000D01*
X191094007Y-61774075D01*
X191037000Y-61806988D01*
X191037000Y-61116813D01*
X190970941Y-61129162D01*
X190970936Y-61129163D01*
X190772210Y-61206149D01*
X190772201Y-61206153D01*
X190591002Y-61318346D01*
X190591000Y-61318348D01*
X190433500Y-61461928D01*
X190305061Y-61632008D01*
X190210067Y-61822781D01*
X190210062Y-61822794D01*
X190162487Y-61989999D01*
X185883785Y-61989999D01*
X185878012Y-61980000D01*
X186569512Y-61980000D01*
X186569512Y-61979999D01*
X186521937Y-61812794D01*
X186521932Y-61812781D01*
X186426938Y-61622008D01*
X186298499Y-61451928D01*
X186140999Y-61308348D01*
X186140997Y-61308346D01*
X185959798Y-61196153D01*
X185959789Y-61196149D01*
X185761063Y-61119163D01*
X185761058Y-61119162D01*
X185695000Y-61106813D01*
X185695000Y-61796988D01*
X185637993Y-61764075D01*
X185510826Y-61730000D01*
X185379174Y-61730000D01*
X185252007Y-61764075D01*
X185195000Y-61796988D01*
X185195000Y-61106813D01*
X185128941Y-61119162D01*
X185128936Y-61119163D01*
X184930210Y-61196149D01*
X184930201Y-61196153D01*
X184749002Y-61308346D01*
X184749000Y-61308348D01*
X184591500Y-61451928D01*
X184463061Y-61622008D01*
X184368067Y-61812781D01*
X184368062Y-61812794D01*
X184320487Y-61979999D01*
X172599512Y-61979999D01*
X172551937Y-61812794D01*
X172551932Y-61812781D01*
X172456938Y-61622008D01*
X172328499Y-61451928D01*
X172170999Y-61308348D01*
X172170997Y-61308346D01*
X171989798Y-61196153D01*
X171989789Y-61196149D01*
X171791063Y-61119163D01*
X171791058Y-61119162D01*
X171725000Y-61106813D01*
X171725000Y-61796988D01*
X171667993Y-61764075D01*
X171540826Y-61730000D01*
X171409174Y-61730000D01*
X171282007Y-61764075D01*
X171225000Y-61796988D01*
X171225000Y-61106813D01*
X171158941Y-61119162D01*
X171158936Y-61119163D01*
X170960210Y-61196149D01*
X170960201Y-61196153D01*
X170779002Y-61308346D01*
X170779000Y-61308348D01*
X170621500Y-61451928D01*
X170493061Y-61622008D01*
X170398067Y-61812781D01*
X170398062Y-61812794D01*
X170350487Y-61979999D01*
X166710206Y-61979999D01*
X166667328Y-61829299D01*
X166576088Y-61646065D01*
X166452732Y-61482715D01*
X166452730Y-61482712D01*
X166301462Y-61344814D01*
X166301460Y-61344812D01*
X166127430Y-61237057D01*
X166127424Y-61237054D01*
X165938373Y-61163816D01*
X165936556Y-61163112D01*
X165735347Y-61125500D01*
X165530653Y-61125500D01*
X165329444Y-61163112D01*
X165329441Y-61163112D01*
X165329441Y-61163113D01*
X165138575Y-61237054D01*
X165138569Y-61237057D01*
X164964539Y-61344812D01*
X164964537Y-61344814D01*
X164813269Y-61482712D01*
X164689912Y-61646064D01*
X164623333Y-61779772D01*
X164575830Y-61831009D01*
X164512333Y-61848500D01*
X164293385Y-61848500D01*
X164226346Y-61828815D01*
X164205704Y-61812181D01*
X163739819Y-61346296D01*
X163706334Y-61284973D01*
X163703500Y-61258615D01*
X163703500Y-58814928D01*
X164528500Y-58814928D01*
X164528500Y-60565063D01*
X164543266Y-60639301D01*
X164599515Y-60723484D01*
X164633234Y-60746014D01*
X164683699Y-60779734D01*
X164683702Y-60779734D01*
X164683703Y-60779735D01*
X164708666Y-60784700D01*
X164757933Y-60794500D01*
X166508066Y-60794499D01*
X166582301Y-60779734D01*
X166666484Y-60723484D01*
X166722734Y-60639301D01*
X166737500Y-60565067D01*
X166737500Y-60195500D01*
X166757185Y-60128461D01*
X166809989Y-60082706D01*
X166861500Y-60071500D01*
X167690222Y-60071500D01*
X167690225Y-60071500D01*
X167787254Y-60045501D01*
X167874247Y-59995276D01*
X167945276Y-59924247D01*
X168961276Y-58908247D01*
X169011501Y-58821254D01*
X169013196Y-58814928D01*
X170370500Y-58814928D01*
X170370500Y-60565063D01*
X170385266Y-60639301D01*
X170441515Y-60723484D01*
X170475234Y-60746014D01*
X170525699Y-60779734D01*
X170525702Y-60779734D01*
X170525703Y-60779735D01*
X170550666Y-60784700D01*
X170599933Y-60794500D01*
X172350066Y-60794499D01*
X172424301Y-60779734D01*
X172508484Y-60723484D01*
X172564734Y-60639301D01*
X172579500Y-60565067D01*
X172579499Y-58814934D01*
X172564734Y-58740699D01*
X172515166Y-58666516D01*
X172508484Y-58656515D01*
X172458019Y-58622796D01*
X172424301Y-58600266D01*
X172424299Y-58600265D01*
X172424296Y-58600264D01*
X172350069Y-58585500D01*
X170599936Y-58585500D01*
X170525698Y-58600266D01*
X170441515Y-58656515D01*
X170385266Y-58740699D01*
X170385264Y-58740703D01*
X170370500Y-58814928D01*
X169013196Y-58814928D01*
X169037500Y-58724225D01*
X169037500Y-57359385D01*
X169057185Y-57292346D01*
X169073819Y-57271704D01*
X172166723Y-54178800D01*
X175260476Y-51085047D01*
X175310701Y-50998054D01*
X175336700Y-50901025D01*
X175336700Y-47673462D01*
X175356385Y-47606423D01*
X175409189Y-47560668D01*
X175436510Y-47551845D01*
X175448201Y-47549520D01*
X175532384Y-47493270D01*
X175588634Y-47409087D01*
X175603400Y-47334853D01*
X175603399Y-46929120D01*
X175596921Y-46896548D01*
X175603148Y-46826959D01*
X175605104Y-46822274D01*
X175645988Y-46729679D01*
X175645989Y-46729675D01*
X175648899Y-46704594D01*
X175648900Y-46704591D01*
X175648900Y-46659800D01*
X174261501Y-46659800D01*
X174261501Y-46704585D01*
X174261502Y-46704608D01*
X174264408Y-46729669D01*
X174264410Y-46729675D01*
X174305295Y-46822275D01*
X174314365Y-46891553D01*
X174313478Y-46896548D01*
X174307000Y-46929118D01*
X174307000Y-47334849D01*
X174321766Y-47409087D01*
X174378015Y-47493270D01*
X174408271Y-47513486D01*
X174462199Y-47549520D01*
X174473889Y-47551845D01*
X174535801Y-47584229D01*
X174570376Y-47644944D01*
X174573700Y-47673463D01*
X174573700Y-50641415D01*
X174554015Y-50708454D01*
X174537381Y-50729096D01*
X168350725Y-56915751D01*
X168350723Y-56915754D01*
X168300499Y-57002745D01*
X168300499Y-57002746D01*
X168274500Y-57099775D01*
X168274500Y-57099777D01*
X168274500Y-58464615D01*
X168254815Y-58531654D01*
X168238181Y-58552296D01*
X167518296Y-59272181D01*
X167456973Y-59305666D01*
X167430615Y-59308500D01*
X166861499Y-59308500D01*
X166794460Y-59288815D01*
X166748705Y-59236011D01*
X166737499Y-59184500D01*
X166737499Y-58814936D01*
X166737499Y-58814934D01*
X166722734Y-58740699D01*
X166673166Y-58666516D01*
X166666484Y-58656515D01*
X166616019Y-58622796D01*
X166582301Y-58600266D01*
X166582299Y-58600265D01*
X166582296Y-58600264D01*
X166508069Y-58585500D01*
X164757936Y-58585500D01*
X164683698Y-58600266D01*
X164599515Y-58656515D01*
X164543266Y-58740699D01*
X164543264Y-58740703D01*
X164528500Y-58814928D01*
X163703500Y-58814928D01*
X163703500Y-58121385D01*
X163723185Y-58054346D01*
X163739819Y-58033704D01*
X164205704Y-57567819D01*
X164267027Y-57534334D01*
X164293385Y-57531500D01*
X165150222Y-57531500D01*
X165150225Y-57531500D01*
X165247254Y-57505501D01*
X165334247Y-57455276D01*
X165405276Y-57384247D01*
X166167276Y-56622247D01*
X166217502Y-56535253D01*
X166243501Y-56438225D01*
X166243501Y-56337775D01*
X166243501Y-56330180D01*
X166243500Y-56330162D01*
X166243500Y-47940571D01*
X171894200Y-47940571D01*
X171904573Y-48026958D01*
X171958776Y-48164407D01*
X171958779Y-48164413D01*
X172048056Y-48282143D01*
X172165786Y-48371420D01*
X172165792Y-48371423D01*
X172303241Y-48425626D01*
X172389628Y-48436000D01*
X172419200Y-48436000D01*
X172919200Y-48436000D01*
X172948772Y-48436000D01*
X173035158Y-48425626D01*
X173172607Y-48371423D01*
X173172613Y-48371420D01*
X173290343Y-48282143D01*
X173379620Y-48164413D01*
X173379623Y-48164407D01*
X173433826Y-48026958D01*
X173444200Y-47940571D01*
X173444200Y-47848500D01*
X172919200Y-47848500D01*
X172919200Y-48436000D01*
X172419200Y-48436000D01*
X172419200Y-47848500D01*
X171894200Y-47848500D01*
X171894200Y-47940571D01*
X166243500Y-47940571D01*
X166243500Y-41934999D01*
X171580768Y-41934999D01*
X171580768Y-41935000D01*
X171599654Y-42138816D01*
X171655673Y-42335704D01*
X171746912Y-42518935D01*
X171870269Y-42682287D01*
X172021537Y-42820185D01*
X172021539Y-42820187D01*
X172195569Y-42927942D01*
X172195571Y-42927943D01*
X172195573Y-42927944D01*
X172195576Y-42927945D01*
X172195578Y-42927946D01*
X172208490Y-42932948D01*
X172263893Y-42975519D01*
X172287485Y-43041285D01*
X172287700Y-43048576D01*
X172287700Y-45016007D01*
X172268015Y-45083046D01*
X172215211Y-45128801D01*
X172207035Y-45132188D01*
X172193483Y-45137242D01*
X172193482Y-45137243D01*
X172080226Y-45222025D01*
X171995444Y-45335281D01*
X171995441Y-45335288D01*
X171946000Y-45467839D01*
X171946000Y-45467841D01*
X171939700Y-45526426D01*
X171939700Y-46220553D01*
X171939701Y-46220562D01*
X171946000Y-46279159D01*
X171995439Y-46411709D01*
X171995441Y-46411713D01*
X171995442Y-46411715D01*
X172080226Y-46524974D01*
X172184242Y-46602839D01*
X172194921Y-46610833D01*
X172236793Y-46666766D01*
X172241777Y-46736458D01*
X172208293Y-46797781D01*
X172172930Y-46820976D01*
X172173181Y-46821422D01*
X172166675Y-46825079D01*
X172166108Y-46825452D01*
X172165791Y-46825577D01*
X172165786Y-46825579D01*
X172048056Y-46914856D01*
X171958779Y-47032586D01*
X171958776Y-47032592D01*
X171904573Y-47170041D01*
X171894200Y-47256428D01*
X171894200Y-47348500D01*
X173444200Y-47348500D01*
X173444200Y-47256428D01*
X173433826Y-47170041D01*
X173379623Y-47032592D01*
X173379620Y-47032586D01*
X173290343Y-46914856D01*
X173172613Y-46825579D01*
X173172611Y-46825578D01*
X173172296Y-46825454D01*
X173172050Y-46825263D01*
X173165219Y-46821422D01*
X173165795Y-46820396D01*
X173117153Y-46782547D01*
X173093961Y-46716639D01*
X173110083Y-46648655D01*
X173143478Y-46610832D01*
X173144910Y-46609759D01*
X173144915Y-46609758D01*
X173258174Y-46524974D01*
X173342958Y-46411715D01*
X173357769Y-46372003D01*
X173386798Y-46294179D01*
X173428670Y-46238246D01*
X173494134Y-46213830D01*
X173502979Y-46213514D01*
X174137500Y-46213514D01*
X174204539Y-46233199D01*
X174250294Y-46286003D01*
X174252237Y-46294937D01*
X174261500Y-46304200D01*
X175648899Y-46304200D01*
X175648899Y-46259414D01*
X175648897Y-46259391D01*
X175645991Y-46234330D01*
X175645990Y-46234326D01*
X175605104Y-46141725D01*
X175596033Y-46072446D01*
X175596922Y-46067448D01*
X175603400Y-46034881D01*
X175603399Y-45629148D01*
X175588634Y-45554913D01*
X175569599Y-45526426D01*
X175532384Y-45470729D01*
X175481919Y-45437010D01*
X175448201Y-45414480D01*
X175448199Y-45414479D01*
X175448196Y-45414478D01*
X175373969Y-45399714D01*
X174536436Y-45399714D01*
X174462198Y-45414480D01*
X174439547Y-45429616D01*
X174372869Y-45450494D01*
X174370656Y-45450514D01*
X173472031Y-45450514D01*
X173404992Y-45430829D01*
X173359237Y-45378025D01*
X173355850Y-45369849D01*
X173355117Y-45367886D01*
X173342958Y-45335285D01*
X173258174Y-45222026D01*
X173258173Y-45222025D01*
X173144917Y-45137243D01*
X173144916Y-45137242D01*
X173131365Y-45132188D01*
X173075432Y-45090316D01*
X173051016Y-45024851D01*
X173050700Y-45016007D01*
X173050700Y-43064692D01*
X173070385Y-42997653D01*
X173123189Y-42951898D01*
X173129907Y-42949065D01*
X173184427Y-42927944D01*
X173358462Y-42820186D01*
X173509732Y-42682285D01*
X173633088Y-42518935D01*
X173724328Y-42335701D01*
X173780345Y-42138821D01*
X173799232Y-41935000D01*
X173799232Y-41934999D01*
X174120768Y-41934999D01*
X174120768Y-41935000D01*
X174139654Y-42138816D01*
X174195673Y-42335704D01*
X174286912Y-42518935D01*
X174410269Y-42682287D01*
X174561537Y-42820185D01*
X174561539Y-42820187D01*
X174735569Y-42927942D01*
X174735575Y-42927945D01*
X174776010Y-42943609D01*
X174926444Y-43001888D01*
X175127653Y-43039500D01*
X175127656Y-43039500D01*
X175332344Y-43039500D01*
X175332347Y-43039500D01*
X175533556Y-43001888D01*
X175724427Y-42927944D01*
X175898462Y-42820186D01*
X176049732Y-42682285D01*
X176173088Y-42518935D01*
X176264328Y-42335701D01*
X176320345Y-42138821D01*
X176339232Y-41935000D01*
X176320345Y-41731179D01*
X176307206Y-41684999D01*
X176645487Y-41684999D01*
X176645488Y-41685000D01*
X177336988Y-41685000D01*
X177304075Y-41742007D01*
X177270000Y-41869174D01*
X177270000Y-42000826D01*
X177304075Y-42127993D01*
X177336988Y-42185000D01*
X176645488Y-42185000D01*
X176693062Y-42352205D01*
X176693067Y-42352218D01*
X176788061Y-42542991D01*
X176916500Y-42713071D01*
X177074000Y-42856651D01*
X177074002Y-42856653D01*
X177255201Y-42968846D01*
X177255207Y-42968849D01*
X177453941Y-43045838D01*
X177520000Y-43058186D01*
X177520000Y-42368012D01*
X177577007Y-42400925D01*
X177704174Y-42435000D01*
X177835826Y-42435000D01*
X177962993Y-42400925D01*
X178020000Y-42368012D01*
X178020000Y-43058185D01*
X178086058Y-43045838D01*
X178284792Y-42968849D01*
X178284798Y-42968846D01*
X178465997Y-42856653D01*
X178465999Y-42856651D01*
X178623499Y-42713071D01*
X178751938Y-42542991D01*
X178846932Y-42352218D01*
X178846937Y-42352205D01*
X178894512Y-42185000D01*
X178203012Y-42185000D01*
X178235925Y-42127993D01*
X178270000Y-42000826D01*
X178270000Y-41934999D01*
X179200768Y-41934999D01*
X179200768Y-41935000D01*
X179219654Y-42138816D01*
X179275673Y-42335704D01*
X179366912Y-42518935D01*
X179490269Y-42682287D01*
X179641537Y-42820185D01*
X179641539Y-42820187D01*
X179815569Y-42927942D01*
X179815575Y-42927945D01*
X179856010Y-42943609D01*
X180006444Y-43001888D01*
X180207653Y-43039500D01*
X180207656Y-43039500D01*
X180412344Y-43039500D01*
X180412347Y-43039500D01*
X180613556Y-43001888D01*
X180804427Y-42927944D01*
X180978462Y-42820186D01*
X181129732Y-42682285D01*
X181253088Y-42518935D01*
X181344328Y-42335701D01*
X181400345Y-42138821D01*
X181419232Y-41935000D01*
X181400345Y-41731179D01*
X181344328Y-41534299D01*
X181253088Y-41351065D01*
X181129732Y-41187715D01*
X181129730Y-41187712D01*
X180989557Y-41059928D01*
X181745500Y-41059928D01*
X181745500Y-42810063D01*
X181760266Y-42884301D01*
X181816515Y-42968484D01*
X181850234Y-42991014D01*
X181900699Y-43024734D01*
X181900702Y-43024734D01*
X181900703Y-43024735D01*
X181925666Y-43029700D01*
X181974933Y-43039500D01*
X183725066Y-43039499D01*
X183799301Y-43024734D01*
X183883484Y-42968484D01*
X183939734Y-42884301D01*
X183954500Y-42810067D01*
X183954499Y-41059934D01*
X183939734Y-40985699D01*
X183910571Y-40942054D01*
X183883484Y-40901515D01*
X183833019Y-40867796D01*
X183799301Y-40845266D01*
X183799299Y-40845265D01*
X183799296Y-40845264D01*
X183725069Y-40830500D01*
X181974936Y-40830500D01*
X181900698Y-40845266D01*
X181816515Y-40901515D01*
X181760266Y-40985699D01*
X181760264Y-40985703D01*
X181745500Y-41059928D01*
X180989557Y-41059928D01*
X180978462Y-41049814D01*
X180978460Y-41049812D01*
X180804430Y-40942057D01*
X180804424Y-40942054D01*
X180653993Y-40883777D01*
X180613556Y-40868112D01*
X180412347Y-40830500D01*
X180207653Y-40830500D01*
X180006444Y-40868112D01*
X180006441Y-40868112D01*
X180006441Y-40868113D01*
X179815575Y-40942054D01*
X179815569Y-40942057D01*
X179641539Y-41049812D01*
X179641537Y-41049814D01*
X179490269Y-41187712D01*
X179366912Y-41351064D01*
X179275673Y-41534295D01*
X179219654Y-41731183D01*
X179200768Y-41934999D01*
X178270000Y-41934999D01*
X178270000Y-41869174D01*
X178235925Y-41742007D01*
X178203012Y-41685000D01*
X178894512Y-41685000D01*
X178894512Y-41684999D01*
X178846937Y-41517794D01*
X178846932Y-41517781D01*
X178751938Y-41327008D01*
X178623499Y-41156928D01*
X178465999Y-41013348D01*
X178465997Y-41013346D01*
X178284798Y-40901153D01*
X178284789Y-40901149D01*
X178086063Y-40824163D01*
X178086058Y-40824162D01*
X178020000Y-40811813D01*
X178020000Y-41501988D01*
X177962993Y-41469075D01*
X177835826Y-41435000D01*
X177704174Y-41435000D01*
X177577007Y-41469075D01*
X177520000Y-41501988D01*
X177520000Y-40811813D01*
X177453941Y-40824162D01*
X177453936Y-40824163D01*
X177255210Y-40901149D01*
X177255201Y-40901153D01*
X177074002Y-41013346D01*
X177074000Y-41013348D01*
X176916500Y-41156928D01*
X176788061Y-41327008D01*
X176693067Y-41517781D01*
X176693062Y-41517794D01*
X176645487Y-41684999D01*
X176307206Y-41684999D01*
X176264328Y-41534299D01*
X176173088Y-41351065D01*
X176049732Y-41187715D01*
X176049730Y-41187712D01*
X175898462Y-41049814D01*
X175898460Y-41049812D01*
X175724430Y-40942057D01*
X175724424Y-40942054D01*
X175573993Y-40883777D01*
X175533556Y-40868112D01*
X175332347Y-40830500D01*
X175127653Y-40830500D01*
X174926444Y-40868112D01*
X174926441Y-40868112D01*
X174926441Y-40868113D01*
X174735575Y-40942054D01*
X174735569Y-40942057D01*
X174561539Y-41049812D01*
X174561537Y-41049814D01*
X174410269Y-41187712D01*
X174286912Y-41351064D01*
X174195673Y-41534295D01*
X174139654Y-41731183D01*
X174120768Y-41934999D01*
X173799232Y-41934999D01*
X173780345Y-41731179D01*
X173724328Y-41534299D01*
X173633088Y-41351065D01*
X173509732Y-41187715D01*
X173509730Y-41187712D01*
X173358462Y-41049814D01*
X173358460Y-41049812D01*
X173184430Y-40942057D01*
X173184424Y-40942054D01*
X173033993Y-40883777D01*
X172993556Y-40868112D01*
X172792347Y-40830500D01*
X172587653Y-40830500D01*
X172386444Y-40868112D01*
X172386441Y-40868112D01*
X172386441Y-40868113D01*
X172195575Y-40942054D01*
X172195569Y-40942057D01*
X172021539Y-41049812D01*
X172021537Y-41049814D01*
X171870269Y-41187712D01*
X171746912Y-41351064D01*
X171655673Y-41534295D01*
X171599654Y-41731183D01*
X171580768Y-41934999D01*
X166243500Y-41934999D01*
X166243500Y-41357385D01*
X166263185Y-41290346D01*
X166279819Y-41269704D01*
X168015704Y-39533819D01*
X168077027Y-39500334D01*
X168103385Y-39497500D01*
X184194615Y-39497500D01*
X184261654Y-39517185D01*
X184282296Y-39533819D01*
X185256181Y-40507704D01*
X185289666Y-40569027D01*
X185292500Y-40595385D01*
X185292500Y-50342225D01*
X185318499Y-50439254D01*
X185368724Y-50526247D01*
X186384724Y-51542247D01*
X186455753Y-51613276D01*
X186542746Y-51663501D01*
X186639775Y-51689500D01*
X186740225Y-51689500D01*
X195116615Y-51689500D01*
X195183654Y-51709185D01*
X195204296Y-51725819D01*
X195416181Y-51937703D01*
X195449666Y-51999026D01*
X195452500Y-52025384D01*
X195452500Y-53184982D01*
X195432815Y-53252021D01*
X195380011Y-53297776D01*
X195310853Y-53307720D01*
X195271666Y-53292705D01*
X195271481Y-53293153D01*
X195260196Y-53288478D01*
X195185969Y-53273714D01*
X194348436Y-53273714D01*
X194274198Y-53288480D01*
X194251547Y-53303616D01*
X194184869Y-53324494D01*
X194182656Y-53324514D01*
X193375688Y-53324514D01*
X193308649Y-53304829D01*
X193262894Y-53252025D01*
X193256244Y-53232627D01*
X193205760Y-53097276D01*
X193205759Y-53097275D01*
X193205758Y-53097271D01*
X193120974Y-52984012D01*
X193007715Y-52899228D01*
X192955035Y-52879579D01*
X192875159Y-52849786D01*
X192816565Y-52843486D01*
X192247446Y-52843486D01*
X192247437Y-52843487D01*
X192188840Y-52849786D01*
X192056290Y-52899225D01*
X192056281Y-52899230D01*
X191943026Y-52984012D01*
X191873195Y-53077296D01*
X191817262Y-53119168D01*
X191773928Y-53126986D01*
X189629569Y-53126986D01*
X189500238Y-53161639D01*
X189384287Y-53228585D01*
X189384284Y-53228587D01*
X188061101Y-54551770D01*
X188061096Y-54551776D01*
X188023184Y-54617443D01*
X187994154Y-54667723D01*
X187994153Y-54667726D01*
X187959500Y-54797055D01*
X187959500Y-58666010D01*
X187939815Y-58733049D01*
X187923181Y-58753691D01*
X187531691Y-59145181D01*
X187470368Y-59178666D01*
X187444010Y-59181500D01*
X186673499Y-59181500D01*
X186606460Y-59161815D01*
X186560705Y-59109011D01*
X186549499Y-59057500D01*
X186549499Y-58814936D01*
X186549499Y-58814934D01*
X186534734Y-58740699D01*
X186485166Y-58666516D01*
X186478484Y-58656515D01*
X186428019Y-58622796D01*
X186394301Y-58600266D01*
X186394299Y-58600265D01*
X186394296Y-58600264D01*
X186320071Y-58585500D01*
X186320067Y-58585500D01*
X186077500Y-58585500D01*
X186010461Y-58565815D01*
X185964706Y-58513011D01*
X185953500Y-58461500D01*
X185953500Y-51774057D01*
X185953500Y-51774055D01*
X185918847Y-51644726D01*
X185859680Y-51542247D01*
X185859680Y-51542246D01*
X185851903Y-51528776D01*
X185851899Y-51528771D01*
X184948819Y-50625691D01*
X184915334Y-50564368D01*
X184912500Y-50538010D01*
X184912500Y-46669057D01*
X184912500Y-46669055D01*
X184877847Y-46539726D01*
X184810901Y-46423774D01*
X184716226Y-46329099D01*
X183345727Y-44958599D01*
X183250008Y-44903335D01*
X183229775Y-44891653D01*
X183165109Y-44874326D01*
X183100445Y-44857000D01*
X183100444Y-44857000D01*
X180336072Y-44857000D01*
X180269033Y-44837315D01*
X180236805Y-44807310D01*
X180166974Y-44714026D01*
X180053715Y-44629242D01*
X180001035Y-44609593D01*
X179921159Y-44579800D01*
X179862565Y-44573500D01*
X179293446Y-44573500D01*
X179293437Y-44573501D01*
X179234840Y-44579800D01*
X179102290Y-44629239D01*
X179102281Y-44629244D01*
X178989026Y-44714026D01*
X178904244Y-44827281D01*
X178904240Y-44827288D01*
X178875876Y-44903335D01*
X178834004Y-44959268D01*
X178768540Y-44983684D01*
X178759695Y-44984000D01*
X178720337Y-44984000D01*
X178720321Y-44983999D01*
X178712725Y-44983999D01*
X178612275Y-44983999D01*
X178515247Y-45009998D01*
X178515245Y-45009998D01*
X178515245Y-45009999D01*
X178428253Y-45060224D01*
X178428250Y-45060226D01*
X178002725Y-45485751D01*
X178002721Y-45485756D01*
X177948448Y-45579761D01*
X177897881Y-45627977D01*
X177829274Y-45641200D01*
X177764409Y-45615232D01*
X177726499Y-45565212D01*
X177722235Y-45554918D01*
X177722234Y-45554913D01*
X177694204Y-45512964D01*
X177665984Y-45470729D01*
X177615519Y-45437010D01*
X177581801Y-45414480D01*
X177581799Y-45414479D01*
X177581796Y-45414478D01*
X177507569Y-45399714D01*
X176670036Y-45399714D01*
X176595798Y-45414480D01*
X176511615Y-45470729D01*
X176455366Y-45554913D01*
X176455364Y-45554917D01*
X176440600Y-45629143D01*
X176440600Y-46034879D01*
X176447079Y-46067450D01*
X176440850Y-46137042D01*
X176438896Y-46141724D01*
X176398010Y-46234322D01*
X176398010Y-46234324D01*
X176395100Y-46259405D01*
X176395100Y-46304200D01*
X177142600Y-46304200D01*
X177209639Y-46323885D01*
X177255394Y-46376689D01*
X177266600Y-46428200D01*
X177266600Y-46535800D01*
X177246915Y-46602839D01*
X177194111Y-46648594D01*
X177142600Y-46659800D01*
X176395101Y-46659800D01*
X176395101Y-46704585D01*
X176395102Y-46704608D01*
X176398008Y-46729669D01*
X176398010Y-46729675D01*
X176438895Y-46822275D01*
X176447965Y-46891553D01*
X176447078Y-46896548D01*
X176440600Y-46929118D01*
X176440600Y-47334849D01*
X176455366Y-47409087D01*
X176511615Y-47493270D01*
X176541871Y-47513486D01*
X176595799Y-47549520D01*
X176595802Y-47549520D01*
X176595803Y-47549521D01*
X176620766Y-47554486D01*
X176670033Y-47564286D01*
X177507566Y-47564285D01*
X177581801Y-47549520D01*
X177604453Y-47534383D01*
X177671131Y-47513506D01*
X177673344Y-47513486D01*
X177962236Y-47513486D01*
X177962239Y-47513486D01*
X178059268Y-47487487D01*
X178146261Y-47437262D01*
X178150952Y-47432571D01*
X178803000Y-47432571D01*
X178813373Y-47518958D01*
X178867576Y-47656407D01*
X178867579Y-47656413D01*
X178956856Y-47774143D01*
X179074586Y-47863420D01*
X179074592Y-47863423D01*
X179212041Y-47917626D01*
X179298428Y-47928000D01*
X179328000Y-47928000D01*
X179828000Y-47928000D01*
X179857572Y-47928000D01*
X179943958Y-47917626D01*
X180081407Y-47863423D01*
X180081413Y-47863420D01*
X180199143Y-47774143D01*
X180288420Y-47656413D01*
X180288423Y-47656407D01*
X180342626Y-47518958D01*
X180353000Y-47432571D01*
X180353000Y-47340500D01*
X179828000Y-47340500D01*
X179828000Y-47928000D01*
X179328000Y-47928000D01*
X179328000Y-47340500D01*
X178803000Y-47340500D01*
X178803000Y-47432571D01*
X178150952Y-47432571D01*
X178217290Y-47366233D01*
X178613276Y-46970247D01*
X178652390Y-46902500D01*
X178702957Y-46854284D01*
X178759777Y-46840500D01*
X180353000Y-46840500D01*
X180353000Y-46748428D01*
X180342626Y-46662041D01*
X180288423Y-46524592D01*
X180288420Y-46524586D01*
X180199143Y-46406856D01*
X180081413Y-46317579D01*
X180081411Y-46317578D01*
X180081096Y-46317454D01*
X180080850Y-46317263D01*
X180074019Y-46313422D01*
X180074595Y-46312396D01*
X180025953Y-46274547D01*
X180002761Y-46208639D01*
X180018883Y-46140655D01*
X180052278Y-46102832D01*
X180053710Y-46101759D01*
X180053715Y-46101758D01*
X180166974Y-46016974D01*
X180236805Y-45923689D01*
X180292738Y-45881818D01*
X180336072Y-45874000D01*
X182771510Y-45874000D01*
X182838549Y-45893685D01*
X182859191Y-45910319D01*
X183859181Y-46910308D01*
X183892666Y-46971631D01*
X183895500Y-46997989D01*
X183895500Y-50866944D01*
X183930153Y-50996275D01*
X183933878Y-51002726D01*
X183997099Y-51112227D01*
X183997101Y-51112229D01*
X184900181Y-52015309D01*
X184933666Y-52076632D01*
X184936500Y-52102990D01*
X184936500Y-58461500D01*
X184916815Y-58528539D01*
X184864011Y-58574294D01*
X184812500Y-58585500D01*
X184569936Y-58585500D01*
X184495698Y-58600266D01*
X184411515Y-58656515D01*
X184355266Y-58740699D01*
X184355264Y-58740703D01*
X184340500Y-58814928D01*
X184340500Y-60565063D01*
X184355266Y-60639301D01*
X184411515Y-60723484D01*
X184445234Y-60746014D01*
X184495699Y-60779734D01*
X184495702Y-60779734D01*
X184495703Y-60779735D01*
X184520666Y-60784700D01*
X184569933Y-60794500D01*
X186320066Y-60794499D01*
X186394301Y-60779734D01*
X186478484Y-60723484D01*
X186534734Y-60639301D01*
X186549500Y-60565067D01*
X186549500Y-60322500D01*
X186569185Y-60255461D01*
X186621989Y-60209706D01*
X186673500Y-60198500D01*
X187772943Y-60198500D01*
X187772945Y-60198500D01*
X187902274Y-60163847D01*
X188018227Y-60096901D01*
X188874901Y-59240226D01*
X188941847Y-59124274D01*
X188976500Y-58994945D01*
X188976500Y-58861054D01*
X188976500Y-55702557D01*
X191757000Y-55702557D01*
X191767373Y-55788944D01*
X191821576Y-55926393D01*
X191821579Y-55926399D01*
X191910856Y-56044129D01*
X192028586Y-56133406D01*
X192028592Y-56133409D01*
X192166041Y-56187612D01*
X192252428Y-56197986D01*
X192282000Y-56197986D01*
X192782000Y-56197986D01*
X192811572Y-56197986D01*
X192897958Y-56187612D01*
X193035407Y-56133409D01*
X193035413Y-56133406D01*
X193153143Y-56044129D01*
X193242420Y-55926399D01*
X193242423Y-55926393D01*
X193296626Y-55788944D01*
X193307000Y-55702557D01*
X193307000Y-55610486D01*
X192782000Y-55610486D01*
X192782000Y-56197986D01*
X192282000Y-56197986D01*
X192282000Y-55610486D01*
X191757000Y-55610486D01*
X191757000Y-55702557D01*
X188976500Y-55702557D01*
X188976500Y-55125990D01*
X188996185Y-55058951D01*
X189012819Y-55038309D01*
X189870823Y-54180305D01*
X189932146Y-54146820D01*
X189958504Y-54143986D01*
X191773928Y-54143986D01*
X191840967Y-54163671D01*
X191873194Y-54193675D01*
X191943026Y-54286960D01*
X192054186Y-54370173D01*
X192057721Y-54372819D01*
X192099593Y-54428752D01*
X192104577Y-54498444D01*
X192071093Y-54559767D01*
X192035730Y-54582962D01*
X192035981Y-54583408D01*
X192029475Y-54587065D01*
X192028908Y-54587438D01*
X192028591Y-54587563D01*
X192028586Y-54587565D01*
X191910856Y-54676842D01*
X191821579Y-54794572D01*
X191821576Y-54794578D01*
X191767373Y-54932027D01*
X191757000Y-55018414D01*
X191757000Y-55110486D01*
X193307000Y-55110486D01*
X193307000Y-55018414D01*
X193296626Y-54932027D01*
X193242423Y-54794578D01*
X193242420Y-54794572D01*
X193153143Y-54676842D01*
X193035413Y-54587565D01*
X193035411Y-54587564D01*
X193035096Y-54587440D01*
X193034850Y-54587249D01*
X193028019Y-54583408D01*
X193028595Y-54582382D01*
X193023715Y-54578585D01*
X194073501Y-54578585D01*
X194073502Y-54578608D01*
X194076408Y-54603669D01*
X194076410Y-54603675D01*
X194117295Y-54696275D01*
X194126365Y-54765553D01*
X194125478Y-54770548D01*
X194119000Y-54803118D01*
X194119000Y-55208849D01*
X194133766Y-55283087D01*
X194190015Y-55367270D01*
X194220271Y-55387486D01*
X194274199Y-55423520D01*
X194274202Y-55423520D01*
X194274203Y-55423521D01*
X194299166Y-55428486D01*
X194348433Y-55438286D01*
X195185966Y-55438285D01*
X195260201Y-55423520D01*
X195344384Y-55367270D01*
X195400634Y-55283087D01*
X195415400Y-55208853D01*
X195415399Y-54803120D01*
X195408921Y-54770548D01*
X195415148Y-54700959D01*
X195417104Y-54696274D01*
X195457988Y-54603679D01*
X195457989Y-54603675D01*
X195460899Y-54578594D01*
X195460900Y-54578591D01*
X195460900Y-54533800D01*
X196207101Y-54533800D01*
X196207101Y-54578585D01*
X196207102Y-54578608D01*
X196210008Y-54603669D01*
X196210010Y-54603675D01*
X196250895Y-54696275D01*
X196259965Y-54765553D01*
X196259078Y-54770548D01*
X196252600Y-54803118D01*
X196252600Y-55208849D01*
X196267366Y-55283087D01*
X196323615Y-55367270D01*
X196353871Y-55387486D01*
X196407799Y-55423520D01*
X196407802Y-55423520D01*
X196407803Y-55423521D01*
X196432766Y-55428486D01*
X196482033Y-55438286D01*
X197319566Y-55438285D01*
X197393801Y-55423520D01*
X197416453Y-55408383D01*
X197483131Y-55387506D01*
X197485344Y-55387486D01*
X198587169Y-55387486D01*
X198654208Y-55407171D01*
X198699963Y-55459975D01*
X198703350Y-55468151D01*
X198716242Y-55502715D01*
X198801026Y-55615974D01*
X198914285Y-55700758D01*
X198927831Y-55705810D01*
X198983765Y-55747680D01*
X199008184Y-55813144D01*
X199008500Y-55821993D01*
X199008500Y-57258680D01*
X198988815Y-57325719D01*
X198936011Y-57371474D01*
X198929296Y-57374306D01*
X198870569Y-57397057D01*
X198696536Y-57504815D01*
X198545269Y-57642712D01*
X198421912Y-57806064D01*
X198330673Y-57989295D01*
X198274654Y-58186183D01*
X198255768Y-58389999D01*
X198255768Y-58390000D01*
X198274654Y-58593816D01*
X198274654Y-58593818D01*
X198274655Y-58593821D01*
X198319292Y-58750703D01*
X198330673Y-58790704D01*
X198421912Y-58973935D01*
X198545269Y-59137287D01*
X198696537Y-59275185D01*
X198696539Y-59275187D01*
X198870569Y-59382942D01*
X198870575Y-59382945D01*
X198911010Y-59398609D01*
X199061444Y-59456888D01*
X199262653Y-59494500D01*
X199262656Y-59494500D01*
X199467344Y-59494500D01*
X199467347Y-59494500D01*
X199668556Y-59456888D01*
X199859427Y-59382944D01*
X200033462Y-59275186D01*
X200184732Y-59137285D01*
X200308088Y-58973935D01*
X200399328Y-58790701D01*
X200455345Y-58593821D01*
X200474232Y-58390000D01*
X200455345Y-58186179D01*
X200399328Y-57989299D01*
X200308088Y-57806065D01*
X200211192Y-57677754D01*
X200184730Y-57642712D01*
X200034216Y-57505501D01*
X200033462Y-57504814D01*
X199967186Y-57463777D01*
X199859428Y-57397056D01*
X199859426Y-57397055D01*
X199850703Y-57393676D01*
X199795303Y-57351102D01*
X199771714Y-57285335D01*
X199771500Y-57278051D01*
X199771500Y-55821993D01*
X199791185Y-55754954D01*
X199843989Y-55709199D01*
X199852160Y-55705813D01*
X199865715Y-55700758D01*
X199978974Y-55615974D01*
X200063758Y-55502715D01*
X200113200Y-55370157D01*
X200116685Y-55337734D01*
X200119499Y-55311573D01*
X200119499Y-55311566D01*
X200119500Y-55311557D01*
X200119499Y-54617444D01*
X200113200Y-54558843D01*
X200063758Y-54426285D01*
X199978974Y-54313026D01*
X199944154Y-54286960D01*
X199864278Y-54227166D01*
X199822406Y-54171233D01*
X199817422Y-54101541D01*
X199850907Y-54040218D01*
X199886270Y-54017024D01*
X199886019Y-54016578D01*
X199892550Y-54012905D01*
X199893108Y-54012540D01*
X199893415Y-54012418D01*
X200011143Y-53923143D01*
X200100420Y-53805413D01*
X200100423Y-53805407D01*
X200154626Y-53667958D01*
X200165000Y-53581571D01*
X200165000Y-53489500D01*
X198615000Y-53489500D01*
X198615000Y-53581571D01*
X198625373Y-53667958D01*
X198679576Y-53805407D01*
X198679579Y-53805413D01*
X198768856Y-53923143D01*
X198886586Y-54012420D01*
X198886895Y-54012542D01*
X198887135Y-54012729D01*
X198893981Y-54016578D01*
X198893403Y-54017605D01*
X198942041Y-54055446D01*
X198965238Y-54121352D01*
X198949120Y-54189337D01*
X198915722Y-54227166D01*
X198801024Y-54313027D01*
X198716244Y-54426281D01*
X198716240Y-54426288D01*
X198672402Y-54543821D01*
X198630530Y-54599754D01*
X198565066Y-54624170D01*
X198556221Y-54624486D01*
X197718500Y-54624486D01*
X197651461Y-54604801D01*
X197605706Y-54551997D01*
X197603762Y-54543062D01*
X197594500Y-54533800D01*
X196207101Y-54533800D01*
X195460900Y-54533800D01*
X194073501Y-54533800D01*
X194073501Y-54578585D01*
X193023715Y-54578585D01*
X192979953Y-54544533D01*
X192956761Y-54478625D01*
X192972883Y-54410641D01*
X193006278Y-54372818D01*
X193007710Y-54371745D01*
X193007715Y-54371744D01*
X193120974Y-54286960D01*
X193205758Y-54173701D01*
X193207816Y-54168182D01*
X193249687Y-54112248D01*
X193315150Y-54087830D01*
X193323999Y-54087514D01*
X193949500Y-54087514D01*
X194016539Y-54107199D01*
X194062294Y-54160003D01*
X194064237Y-54168937D01*
X194073500Y-54178200D01*
X195460899Y-54178200D01*
X195460899Y-54133414D01*
X195460897Y-54133391D01*
X195457991Y-54108330D01*
X195457990Y-54108326D01*
X195417104Y-54015725D01*
X195408033Y-53946446D01*
X195408922Y-53941448D01*
X195412563Y-53923143D01*
X195415400Y-53908881D01*
X195415399Y-53760283D01*
X195435083Y-53693246D01*
X195487887Y-53647491D01*
X195557045Y-53637547D01*
X195620601Y-53666572D01*
X195627080Y-53672604D01*
X195863358Y-53908881D01*
X195894738Y-53940261D01*
X195965767Y-54011290D01*
X196052760Y-54061515D01*
X196115195Y-54078244D01*
X196174853Y-54114607D01*
X196204465Y-54175565D01*
X196207100Y-54178200D01*
X197594499Y-54178200D01*
X197594499Y-54133414D01*
X197594497Y-54133391D01*
X197591591Y-54108330D01*
X197591590Y-54108326D01*
X197550704Y-54015725D01*
X197541633Y-53946446D01*
X197542522Y-53941448D01*
X197546163Y-53923143D01*
X197549000Y-53908881D01*
X197548999Y-53503148D01*
X197534234Y-53428913D01*
X197508383Y-53390225D01*
X197477984Y-53344729D01*
X197422595Y-53307720D01*
X197393801Y-53288480D01*
X197393799Y-53288479D01*
X197393796Y-53288478D01*
X197319569Y-53273714D01*
X196482034Y-53273714D01*
X196482033Y-53273715D01*
X196401239Y-53289784D01*
X196331648Y-53283555D01*
X196289370Y-53255847D01*
X196251819Y-53218296D01*
X196218334Y-53156973D01*
X196215500Y-53130615D01*
X196215500Y-52897428D01*
X198615000Y-52897428D01*
X198615000Y-52989500D01*
X199140000Y-52989500D01*
X199640000Y-52989500D01*
X200165000Y-52989500D01*
X200165000Y-52897428D01*
X200154626Y-52811041D01*
X200100423Y-52673592D01*
X200100420Y-52673586D01*
X200011143Y-52555856D01*
X199893413Y-52466579D01*
X199893407Y-52466576D01*
X199755958Y-52412373D01*
X199669572Y-52402000D01*
X199640000Y-52402000D01*
X199640000Y-52989500D01*
X199140000Y-52989500D01*
X199140000Y-52402000D01*
X199110428Y-52402000D01*
X199024041Y-52412373D01*
X198886592Y-52466576D01*
X198886586Y-52466579D01*
X198768856Y-52555856D01*
X198679579Y-52673586D01*
X198679576Y-52673592D01*
X198625373Y-52811041D01*
X198615000Y-52897428D01*
X196215500Y-52897428D01*
X196215500Y-51765777D01*
X196215500Y-51765775D01*
X196189501Y-51668746D01*
X196139276Y-51581753D01*
X196068247Y-51510724D01*
X196063916Y-51506393D01*
X196063905Y-51506383D01*
X195560249Y-51002726D01*
X195560247Y-51002724D01*
X195552158Y-50998054D01*
X195473256Y-50952500D01*
X195473255Y-50952499D01*
X195448996Y-50945999D01*
X195376225Y-50926500D01*
X195376222Y-50926500D01*
X186899385Y-50926500D01*
X186832346Y-50906815D01*
X186811704Y-50890181D01*
X186091819Y-50170296D01*
X186058334Y-50108973D01*
X186055500Y-50082615D01*
X186055500Y-40335777D01*
X186055500Y-40335775D01*
X186029501Y-40238746D01*
X185979276Y-40151753D01*
X185908247Y-40080724D01*
X184638247Y-38810724D01*
X184551254Y-38760499D01*
X184551255Y-38760499D01*
X184526996Y-38753999D01*
X184454225Y-38734500D01*
X167843775Y-38734500D01*
X167771003Y-38753999D01*
X167746745Y-38760499D01*
X167659754Y-38810723D01*
X167659751Y-38810725D01*
X165556725Y-40913751D01*
X165556723Y-40913754D01*
X165506499Y-41000745D01*
X165506499Y-41000746D01*
X165480500Y-41097775D01*
X165480500Y-41097777D01*
X165480500Y-56178615D01*
X165460815Y-56245654D01*
X165444181Y-56266296D01*
X164978296Y-56732181D01*
X164916973Y-56765666D01*
X164890615Y-56768500D01*
X164141837Y-56768500D01*
X164141821Y-56768499D01*
X164134225Y-56768499D01*
X164033775Y-56768499D01*
X163936747Y-56794498D01*
X163936745Y-56794498D01*
X163936745Y-56794499D01*
X163849753Y-56844724D01*
X163849750Y-56844726D01*
X163016725Y-57677751D01*
X163016723Y-57677754D01*
X162966499Y-57764745D01*
X162966499Y-57764746D01*
X162940500Y-57861775D01*
X157339499Y-57861775D01*
X157339499Y-57544934D01*
X157324734Y-57470699D01*
X157306068Y-57442765D01*
X157268484Y-57386515D01*
X157204289Y-57343622D01*
X157184301Y-57330266D01*
X157184299Y-57330265D01*
X157184296Y-57330264D01*
X157110069Y-57315500D01*
X155359936Y-57315500D01*
X155285698Y-57330266D01*
X155201515Y-57386515D01*
X155145266Y-57470699D01*
X155145264Y-57470703D01*
X155130500Y-57544928D01*
X152400000Y-57544928D01*
X152400000Y-50851362D01*
X152419685Y-50784323D01*
X152436319Y-50763681D01*
X154395681Y-48804319D01*
X154457004Y-48770834D01*
X154483362Y-48768000D01*
X161295065Y-48768000D01*
X161332771Y-48760500D01*
X161355890Y-48760500D01*
X161355892Y-48760500D01*
X161483186Y-48726392D01*
X161597314Y-48660500D01*
X162857104Y-47400707D01*
X162857109Y-47400704D01*
X162867312Y-47390500D01*
X162867314Y-47390500D01*
X162960500Y-47297314D01*
X163026392Y-47183186D01*
X163050959Y-47091501D01*
X163060500Y-47055893D01*
X163060500Y-47032771D01*
X163068000Y-46995065D01*
X163068000Y-40183362D01*
X163087685Y-40116323D01*
X163104319Y-40095681D01*
X165063681Y-38136319D01*
X165125004Y-38102834D01*
X165151362Y-38100000D01*
X190448638Y-38100000D01*
X190515677Y-38119685D01*
G37*
%TD.AperFunction*%
%TD*%
M02*
