M48
; DRILL file {KiCad 8.0.2} date 2024-06-10T10:52:23+0200
; FORMAT={-:-/ absolute / inch / decimal}
; #@! TF.CreationDate,2024-06-10T10:52:23+02:00
; #@! TF.GenerationSoftware,Kicad,Pcbnew,8.0.2
; #@! TF.FileFunction,Plated,1,2,PTH
FMAT,2
INCH
; #@! TA.AperFunction,Plated,PTH,ComponentDrill
T1C0.0394
%
G90
G05
T1
X4.34Y-2.7998
X4.34Y-2.8998
X4.34Y-2.9998
X4.34Y-3.0998
X4.34Y-3.1998
X4.72Y-2.8996
X4.72Y-2.9996
X4.72Y-3.0996
X4.72Y-3.1996
X4.84Y-2.3
X4.84Y-3.7
X4.91Y-2.9
X4.91Y-3.0
X4.91Y-3.1
X4.91Y-3.2
X4.94Y-2.3
X4.94Y-3.7
X5.04Y-2.3
X5.04Y-3.7
X5.08Y-2.9
X5.08Y-3.0
X5.08Y-3.1
X5.08Y-3.2
X5.14Y-2.3
X5.14Y-3.7
X5.24Y-2.3
X5.24Y-2.9004
X5.24Y-3.0004
X5.24Y-3.1004
X5.24Y-3.2004
X5.24Y-3.7
X5.39Y-2.9
X5.39Y-3.0
X5.39Y-3.1
X5.39Y-3.2
X5.74Y-2.8
X5.74Y-2.9
X5.74Y-3.0
X5.74Y-3.1
X5.74Y-3.2
M30
