%TF.GenerationSoftware,KiCad,Pcbnew,8.0.2*%
%TF.CreationDate,2024-06-10T10:52:32+02:00*%
%TF.ProjectId,Bag plane,42616720-706c-4616-9e65-2e6b69636164,rev?*%
%TF.SameCoordinates,Original*%
%TF.FileFunction,Copper,L1,Top*%
%TF.FilePolarity,Positive*%
%FSLAX46Y46*%
G04 Gerber Fmt 4.6, Leading zero omitted, Abs format (unit mm)*
G04 Created by KiCad (PCBNEW 8.0.2) date 2024-06-10 10:52:32*
%MOMM*%
%LPD*%
G01*
G04 APERTURE LIST*
G04 Aperture macros list*
%AMRoundRect*
0 Rectangle with rounded corners*
0 $1 Rounding radius*
0 $2 $3 $4 $5 $6 $7 $8 $9 X,Y pos of 4 corners*
0 Add a 4 corners polygon primitive as box body*
4,1,4,$2,$3,$4,$5,$6,$7,$8,$9,$2,$3,0*
0 Add four circle primitives for the rounded corners*
1,1,$1+$1,$2,$3*
1,1,$1+$1,$4,$5*
1,1,$1+$1,$6,$7*
1,1,$1+$1,$8,$9*
0 Add four rect primitives between the rounded corners*
20,1,$1+$1,$2,$3,$4,$5,0*
20,1,$1+$1,$4,$5,$6,$7,0*
20,1,$1+$1,$6,$7,$8,$9,0*
20,1,$1+$1,$8,$9,$2,$3,0*%
G04 Aperture macros list end*
%TA.AperFunction,ComponentPad*%
%ADD10R,1.700000X1.700000*%
%TD*%
%TA.AperFunction,ComponentPad*%
%ADD11O,1.700000X1.700000*%
%TD*%
%TA.AperFunction,SMDPad,CuDef*%
%ADD12RoundRect,0.200000X0.275000X-0.200000X0.275000X0.200000X-0.275000X0.200000X-0.275000X-0.200000X0*%
%TD*%
%TA.AperFunction,Conductor*%
%ADD13C,0.254000*%
%TD*%
G04 APERTURE END LIST*
D10*
%TO.P,J7,1,Pin_1*%
%TO.N,/VCC J7*%
X145796000Y-71120000D03*
D11*
%TO.P,J7,2,Pin_2*%
%TO.N,unconnected-(J7-Pin_2-Pad2)*%
X145796000Y-73660000D03*
%TO.P,J7,3,Pin_3*%
%TO.N,GND*%
X145796000Y-76200000D03*
%TO.P,J7,4,Pin_4*%
%TO.N,/SDA*%
X145796000Y-78740000D03*
%TO.P,J7,5,Pin_5*%
%TO.N,/SCL*%
X145796000Y-81280000D03*
%TD*%
D12*
%TO.P,R2,1*%
%TO.N,/SDA*%
X139700000Y-75323200D03*
%TO.P,R2,2*%
%TO.N,/VCC*%
X139700000Y-73673200D03*
%TD*%
D10*
%TO.P,J2,1,Pin_1*%
%TO.N,/VCC J2*%
X110236000Y-81275000D03*
D11*
%TO.P,J2,2,Pin_2*%
%TO.N,unconnected-(J2-Pin_2-Pad2)*%
X110236000Y-78735000D03*
%TO.P,J2,3,Pin_3*%
%TO.N,GND*%
X110236000Y-76195000D03*
%TO.P,J2,4,Pin_4*%
%TO.N,/SDA*%
X110236000Y-73655000D03*
%TO.P,J2,5,Pin_5*%
%TO.N,/SCL*%
X110236000Y-71115000D03*
%TD*%
D10*
%TO.P,J4,1,Pin_1*%
%TO.N,/VCC*%
X129032000Y-73660000D03*
D11*
%TO.P,J4,2,Pin_2*%
%TO.N,GND*%
X129032000Y-76200000D03*
%TO.P,J4,3,Pin_3*%
%TO.N,/SDA*%
X129032000Y-78740000D03*
%TO.P,J4,4,Pin_4*%
%TO.N,/SCL*%
X129032000Y-81280000D03*
%TD*%
D10*
%TO.P,J5,1,Pin_1*%
%TO.N,/VCC*%
X133096000Y-73670000D03*
D11*
%TO.P,J5,2,Pin_2*%
%TO.N,GND*%
X133096000Y-76210000D03*
%TO.P,J5,3,Pin_3*%
%TO.N,/SDA*%
X133096000Y-78750000D03*
%TO.P,J5,4,Pin_4*%
%TO.N,/SCL*%
X133096000Y-81290000D03*
%TD*%
D10*
%TO.P,J6,1,Pin_1*%
%TO.N,/VCC*%
X136906000Y-73660000D03*
D11*
%TO.P,J6,2,Pin_2*%
%TO.N,GND*%
X136906000Y-76200000D03*
%TO.P,J6,3,Pin_3*%
%TO.N,/SDA*%
X136906000Y-78740000D03*
%TO.P,J6,4,Pin_4*%
%TO.N,/SCL*%
X136906000Y-81280000D03*
%TD*%
D10*
%TO.P,J9,1,Pin_1*%
%TO.N,4*%
X119888000Y-81270000D03*
D11*
%TO.P,J9,2,Pin_2*%
%TO.N,3*%
X119888000Y-78730000D03*
%TO.P,J9,3,Pin_3*%
%TO.N,2*%
X119888000Y-76190000D03*
%TO.P,J9,4,Pin_4*%
%TO.N,1*%
X119888000Y-73650000D03*
%TD*%
D10*
%TO.P,J1,1,Pin_1*%
%TO.N,/VCC J1*%
X122936000Y-58420000D03*
D11*
%TO.P,J1,2,Pin_2*%
%TO.N,unconnected-(J1-Pin_2-Pad2)*%
X125476000Y-58420000D03*
%TO.P,J1,3,Pin_3*%
%TO.N,GND*%
X128016000Y-58420000D03*
%TO.P,J1,4,Pin_4*%
%TO.N,/SDA*%
X130556000Y-58420000D03*
%TO.P,J1,5,Pin_5*%
%TO.N,/SCL*%
X133096000Y-58420000D03*
%TD*%
D10*
%TO.P,J3,1,Pin_1*%
%TO.N,/VCC*%
X124714000Y-73660000D03*
D11*
%TO.P,J3,2,Pin_2*%
%TO.N,GND*%
X124714000Y-76200000D03*
%TO.P,J3,3,Pin_3*%
%TO.N,/SDA*%
X124714000Y-78740000D03*
%TO.P,J3,4,Pin_4*%
%TO.N,/SCL*%
X124714000Y-81280000D03*
%TD*%
D10*
%TO.P,J8,1,Pin_1*%
%TO.N,/VCC J8*%
X133096000Y-93980000D03*
D11*
%TO.P,J8,2,Pin_2*%
%TO.N,unconnected-(J8-Pin_2-Pad2)*%
X130556000Y-93980000D03*
%TO.P,J8,3,Pin_3*%
%TO.N,GND*%
X128016000Y-93980000D03*
%TO.P,J8,4,Pin_4*%
%TO.N,/SDA*%
X125476000Y-93980000D03*
%TO.P,J8,5,Pin_5*%
%TO.N,/SCL*%
X122936000Y-93980000D03*
%TD*%
D12*
%TO.P,R1,1*%
%TO.N,/SCL*%
X141351000Y-75323200D03*
%TO.P,R1,2*%
%TO.N,/VCC*%
X141351000Y-73673200D03*
%TD*%
D13*
%TO.N,/VCC*%
X136919200Y-73673200D02*
X136906000Y-73660000D01*
X141351000Y-73673200D02*
X139700000Y-73673200D01*
X139700000Y-73673200D02*
X136919200Y-73673200D01*
%TO.N,/SDA*%
X123571000Y-78740000D02*
X124714000Y-78740000D01*
X131582000Y-78750000D02*
X133096000Y-78750000D01*
X126873000Y-79375000D02*
X126238000Y-78740000D01*
X130556000Y-58420000D02*
X130556000Y-71247000D01*
X109220000Y-69342000D02*
X121793000Y-69342000D01*
X121793000Y-69342000D02*
X123063000Y-70612000D01*
X123063000Y-78232000D02*
X123571000Y-78740000D01*
X125476000Y-88646000D02*
X126873000Y-87249000D01*
X131064000Y-78232000D02*
X131582000Y-78750000D01*
X139700000Y-77978000D02*
X139700000Y-75323200D01*
X126873000Y-87249000D02*
X126873000Y-79375000D01*
X130556000Y-71247000D02*
X131064000Y-71755000D01*
X131064000Y-71755000D02*
X131064000Y-78232000D01*
X108458000Y-73152000D02*
X108458000Y-70104000D01*
X138938000Y-78740000D02*
X139700000Y-77978000D01*
X125476000Y-93980000D02*
X125476000Y-88646000D01*
X123063000Y-70612000D02*
X123063000Y-78232000D01*
X110236000Y-73655000D02*
X108961000Y-73655000D01*
X126238000Y-78740000D02*
X124714000Y-78740000D01*
X108961000Y-73655000D02*
X108458000Y-73152000D01*
X108458000Y-70104000D02*
X109220000Y-69342000D01*
X136906000Y-78740000D02*
X138938000Y-78740000D01*
%TO.N,/SCL*%
X122301000Y-81280000D02*
X124714000Y-81280000D01*
X133096000Y-70358000D02*
X135001000Y-72263000D01*
X135001000Y-80772000D02*
X134483000Y-81290000D01*
X135001000Y-72263000D02*
X135001000Y-80772000D01*
X124714000Y-84836000D02*
X124714000Y-81280000D01*
X138557000Y-81280000D02*
X141351000Y-78486000D01*
X121539000Y-80518000D02*
X122301000Y-81280000D01*
X136906000Y-81280000D02*
X138557000Y-81280000D01*
X110236000Y-71115000D02*
X120391000Y-71115000D01*
X122936000Y-93980000D02*
X122936000Y-86614000D01*
X121539000Y-72263000D02*
X121539000Y-80518000D01*
X141351000Y-78486000D02*
X141351000Y-75323200D01*
X122936000Y-86614000D02*
X124714000Y-84836000D01*
X133096000Y-58420000D02*
X133096000Y-70358000D01*
X120391000Y-71115000D02*
X121539000Y-72263000D01*
X134483000Y-81290000D02*
X133096000Y-81290000D01*
%TD*%
%TA.AperFunction,Conductor*%
%TO.N,GND*%
G36*
X133695049Y-56408185D02*
G01*
X133715691Y-56424819D01*
X135345181Y-58054309D01*
X135378666Y-58115632D01*
X135381500Y-58141990D01*
X135381500Y-65122944D01*
X135416153Y-65252275D01*
X135449626Y-65310250D01*
X135483099Y-65368227D01*
X137577773Y-67462901D01*
X137693726Y-67529847D01*
X137823055Y-67564500D01*
X147598010Y-67564500D01*
X147665049Y-67584185D01*
X147685691Y-67600819D01*
X149315181Y-69230309D01*
X149348666Y-69291632D01*
X149351500Y-69317990D01*
X149351500Y-84098010D01*
X149331815Y-84165049D01*
X149315181Y-84185691D01*
X147685691Y-85815181D01*
X147624368Y-85848666D01*
X147598010Y-85851500D01*
X137823055Y-85851500D01*
X137693724Y-85886153D01*
X137577773Y-85953099D01*
X137577770Y-85953101D01*
X135483101Y-88047770D01*
X135483099Y-88047773D01*
X135416153Y-88163724D01*
X135381500Y-88293055D01*
X135381500Y-94258010D01*
X135361815Y-94325049D01*
X135345181Y-94345691D01*
X133715691Y-95975181D01*
X133654368Y-96008666D01*
X133628010Y-96011500D01*
X121133990Y-96011500D01*
X121066951Y-95991815D01*
X121046309Y-95975181D01*
X119416819Y-94345691D01*
X119383334Y-94284368D01*
X119380500Y-94258010D01*
X119380500Y-88293057D01*
X119380500Y-88293055D01*
X119345847Y-88163726D01*
X119278901Y-88047773D01*
X117184227Y-85953099D01*
X117126250Y-85919626D01*
X117068275Y-85886153D01*
X117003609Y-85868826D01*
X116938945Y-85851500D01*
X116938944Y-85851500D01*
X107417990Y-85851500D01*
X107350951Y-85831815D01*
X107330309Y-85815181D01*
X105700819Y-84185691D01*
X105667334Y-84124368D01*
X105664500Y-84098010D01*
X105664500Y-80383206D01*
X109106100Y-80383206D01*
X109106100Y-82166793D01*
X109108815Y-82190194D01*
X109151085Y-82285923D01*
X109225076Y-82359914D01*
X109225077Y-82359914D01*
X109225079Y-82359916D01*
X109320807Y-82402185D01*
X109344210Y-82404900D01*
X109344212Y-82404900D01*
X111127788Y-82404900D01*
X111127790Y-82404900D01*
X111151193Y-82402185D01*
X111246921Y-82359916D01*
X111320916Y-82285921D01*
X111363185Y-82190193D01*
X111365900Y-82166790D01*
X111365900Y-80383210D01*
X111363185Y-80359807D01*
X111320916Y-80264079D01*
X111320914Y-80264077D01*
X111320914Y-80264076D01*
X111246923Y-80190085D01*
X111235599Y-80185085D01*
X111226885Y-80181237D01*
X111151194Y-80147815D01*
X111127793Y-80145100D01*
X111127790Y-80145100D01*
X109344210Y-80145100D01*
X109344206Y-80145100D01*
X109320805Y-80147815D01*
X109225076Y-80190085D01*
X109151085Y-80264076D01*
X109108815Y-80359805D01*
X109106100Y-80383206D01*
X105664500Y-80383206D01*
X105664500Y-78734999D01*
X109101259Y-78734999D01*
X109101259Y-78735000D01*
X109120579Y-78943507D01*
X109177885Y-79144913D01*
X109177890Y-79144926D01*
X109228184Y-79245928D01*
X109271224Y-79332364D01*
X109393640Y-79494470D01*
X109397418Y-79499472D01*
X109397421Y-79499475D01*
X109552165Y-79640542D01*
X109552167Y-79640544D01*
X109730198Y-79750776D01*
X109730199Y-79750776D01*
X109730202Y-79750778D01*
X109925463Y-79826423D01*
X110131299Y-79864900D01*
X110131301Y-79864900D01*
X110340699Y-79864900D01*
X110340701Y-79864900D01*
X110546537Y-79826423D01*
X110741798Y-79750778D01*
X110919834Y-79640543D01*
X111074584Y-79499470D01*
X111200776Y-79332364D01*
X111294114Y-79144916D01*
X111351420Y-78943508D01*
X111370741Y-78735000D01*
X111351420Y-78526492D01*
X111294114Y-78325084D01*
X111291625Y-78320086D01*
X111221089Y-78178430D01*
X111200776Y-78137636D01*
X111074584Y-77970530D01*
X111074581Y-77970527D01*
X111074578Y-77970524D01*
X110919834Y-77829457D01*
X110919832Y-77829455D01*
X110741801Y-77719223D01*
X110741795Y-77719221D01*
X110728894Y-77714223D01*
X110546537Y-77643577D01*
X110340701Y-77605100D01*
X110131299Y-77605100D01*
X109925463Y-77643577D01*
X109912557Y-77648577D01*
X109730204Y-77719221D01*
X109730198Y-77719223D01*
X109552167Y-77829455D01*
X109552165Y-77829457D01*
X109397421Y-77970524D01*
X109397418Y-77970527D01*
X109271224Y-78137635D01*
X109177890Y-78325073D01*
X109177885Y-78325086D01*
X109120579Y-78526492D01*
X109101259Y-78734999D01*
X105664500Y-78734999D01*
X105664500Y-73205567D01*
X108051099Y-73205567D01*
X108061685Y-73245073D01*
X108078830Y-73309058D01*
X108132399Y-73401843D01*
X108635399Y-73904842D01*
X108711158Y-73980601D01*
X108803943Y-74034170D01*
X108907431Y-74061900D01*
X109099607Y-74061900D01*
X109166646Y-74081585D01*
X109210607Y-74130629D01*
X109271222Y-74252362D01*
X109306237Y-74298729D01*
X109393640Y-74414470D01*
X109397418Y-74419472D01*
X109397421Y-74419475D01*
X109552165Y-74560542D01*
X109552167Y-74560544D01*
X109730198Y-74670776D01*
X109730199Y-74670776D01*
X109730202Y-74670778D01*
X109925463Y-74746423D01*
X110131299Y-74784900D01*
X110131301Y-74784900D01*
X110340699Y-74784900D01*
X110340701Y-74784900D01*
X110546537Y-74746423D01*
X110741798Y-74670778D01*
X110919834Y-74560543D01*
X111074584Y-74419470D01*
X111200776Y-74252364D01*
X111294114Y-74064916D01*
X111351420Y-73863508D01*
X111370741Y-73655000D01*
X111351420Y-73446492D01*
X111294114Y-73245084D01*
X111292002Y-73240843D01*
X111236993Y-73130370D01*
X111200776Y-73057636D01*
X111074584Y-72890530D01*
X111074581Y-72890527D01*
X111074578Y-72890524D01*
X110919834Y-72749457D01*
X110919832Y-72749455D01*
X110741801Y-72639223D01*
X110741795Y-72639221D01*
X110728894Y-72634223D01*
X110546537Y-72563577D01*
X110340701Y-72525100D01*
X110131299Y-72525100D01*
X109925463Y-72563577D01*
X109801981Y-72611414D01*
X109730204Y-72639221D01*
X109730198Y-72639223D01*
X109552167Y-72749455D01*
X109552165Y-72749457D01*
X109397421Y-72890524D01*
X109397418Y-72890527D01*
X109271225Y-73057633D01*
X109237631Y-73125099D01*
X109190127Y-73176335D01*
X109122464Y-73193756D01*
X109056124Y-73171830D01*
X109038957Y-73157513D01*
X108901216Y-73019773D01*
X108867734Y-72958452D01*
X108864900Y-72932094D01*
X108864900Y-71246359D01*
X108884585Y-71179320D01*
X108937389Y-71133565D01*
X109006547Y-71123621D01*
X109070103Y-71152646D01*
X109107877Y-71211424D01*
X109112371Y-71234918D01*
X109120579Y-71323507D01*
X109177885Y-71524913D01*
X109177890Y-71524926D01*
X109271224Y-71712364D01*
X109397418Y-71879472D01*
X109397421Y-71879475D01*
X109552165Y-72020542D01*
X109552167Y-72020544D01*
X109730198Y-72130776D01*
X109730199Y-72130776D01*
X109730202Y-72130778D01*
X109925463Y-72206423D01*
X110131299Y-72244900D01*
X110131301Y-72244900D01*
X110340699Y-72244900D01*
X110340701Y-72244900D01*
X110546537Y-72206423D01*
X110741798Y-72130778D01*
X110919834Y-72020543D01*
X111074584Y-71879470D01*
X111200776Y-71712364D01*
X111257751Y-71597943D01*
X111261393Y-71590629D01*
X111308896Y-71539391D01*
X111372393Y-71521900D01*
X120171094Y-71521900D01*
X120238133Y-71541585D01*
X120258775Y-71558219D01*
X121095781Y-72395225D01*
X121129266Y-72456548D01*
X121132100Y-72482906D01*
X121132100Y-73086378D01*
X121112415Y-73153417D01*
X121059611Y-73199172D01*
X120990453Y-73209116D01*
X120926897Y-73180091D01*
X120897100Y-73141650D01*
X120875579Y-73098430D01*
X120852776Y-73052636D01*
X120726584Y-72885530D01*
X120726581Y-72885527D01*
X120726578Y-72885524D01*
X120571834Y-72744457D01*
X120571832Y-72744455D01*
X120393801Y-72634223D01*
X120393795Y-72634221D01*
X120383070Y-72630066D01*
X120198537Y-72558577D01*
X119992701Y-72520100D01*
X119783299Y-72520100D01*
X119577463Y-72558577D01*
X119479364Y-72596581D01*
X119382204Y-72634221D01*
X119382198Y-72634223D01*
X119204167Y-72744455D01*
X119204165Y-72744457D01*
X119049421Y-72885524D01*
X119049418Y-72885527D01*
X118923224Y-73052635D01*
X118829890Y-73240073D01*
X118829885Y-73240086D01*
X118772579Y-73441492D01*
X118753259Y-73649999D01*
X118753259Y-73650000D01*
X118772579Y-73858507D01*
X118829885Y-74059913D01*
X118829890Y-74059926D01*
X118923223Y-74247362D01*
X118923224Y-74247364D01*
X118998431Y-74346955D01*
X119049418Y-74414472D01*
X119049421Y-74414475D01*
X119060391Y-74424475D01*
X119200052Y-74551793D01*
X119204165Y-74555542D01*
X119204167Y-74555544D01*
X119382198Y-74665776D01*
X119382199Y-74665776D01*
X119382202Y-74665778D01*
X119577463Y-74741423D01*
X119783299Y-74779900D01*
X119783301Y-74779900D01*
X119992699Y-74779900D01*
X119992701Y-74779900D01*
X120198537Y-74741423D01*
X120393798Y-74665778D01*
X120571834Y-74555543D01*
X120726584Y-74414470D01*
X120852776Y-74247364D01*
X120852777Y-74247362D01*
X120897100Y-74158350D01*
X120944603Y-74107112D01*
X121012265Y-74089691D01*
X121078606Y-74111616D01*
X121122561Y-74165928D01*
X121132100Y-74213621D01*
X121132100Y-75626378D01*
X121112415Y-75693417D01*
X121059611Y-75739172D01*
X120990453Y-75749116D01*
X120926897Y-75720091D01*
X120897100Y-75681650D01*
X120880486Y-75648286D01*
X120852776Y-75592636D01*
X120726584Y-75425530D01*
X120726581Y-75425527D01*
X120726578Y-75425524D01*
X120571834Y-75284457D01*
X120571832Y-75284455D01*
X120393801Y-75174223D01*
X120393795Y-75174221D01*
X120198537Y-75098577D01*
X119992701Y-75060100D01*
X119783299Y-75060100D01*
X119577463Y-75098577D01*
X119453981Y-75146414D01*
X119382204Y-75174221D01*
X119382198Y-75174223D01*
X119204167Y-75284455D01*
X119204165Y-75284457D01*
X119049421Y-75425524D01*
X119049418Y-75425527D01*
X118923224Y-75592635D01*
X118829890Y-75780073D01*
X118829885Y-75780086D01*
X118772579Y-75981492D01*
X118753259Y-76189999D01*
X118753259Y-76190000D01*
X118772579Y-76398507D01*
X118829885Y-76599913D01*
X118829890Y-76599926D01*
X118923224Y-76787364D01*
X119049418Y-76954472D01*
X119049421Y-76954475D01*
X119204165Y-77095542D01*
X119204167Y-77095544D01*
X119382198Y-77205776D01*
X119382199Y-77205776D01*
X119382202Y-77205778D01*
X119577463Y-77281423D01*
X119783299Y-77319900D01*
X119783301Y-77319900D01*
X119992699Y-77319900D01*
X119992701Y-77319900D01*
X120198537Y-77281423D01*
X120393798Y-77205778D01*
X120571834Y-77095543D01*
X120726584Y-76954470D01*
X120852776Y-76787364D01*
X120869578Y-76753621D01*
X120897100Y-76698350D01*
X120944603Y-76647112D01*
X121012265Y-76629691D01*
X121078606Y-76651616D01*
X121122561Y-76705928D01*
X121132100Y-76753621D01*
X121132100Y-78166378D01*
X121112415Y-78233417D01*
X121059611Y-78279172D01*
X120990453Y-78289116D01*
X120926897Y-78260091D01*
X120897100Y-78221650D01*
X120875579Y-78178430D01*
X120852776Y-78132636D01*
X120726584Y-77965530D01*
X120726581Y-77965527D01*
X120726578Y-77965524D01*
X120571834Y-77824457D01*
X120571832Y-77824455D01*
X120393801Y-77714223D01*
X120393795Y-77714221D01*
X120198537Y-77638577D01*
X119992701Y-77600100D01*
X119783299Y-77600100D01*
X119577463Y-77638577D01*
X119453981Y-77686414D01*
X119382204Y-77714221D01*
X119382198Y-77714223D01*
X119204167Y-77824455D01*
X119204165Y-77824457D01*
X119049421Y-77965524D01*
X119049418Y-77965527D01*
X118923224Y-78132635D01*
X118829890Y-78320073D01*
X118829885Y-78320086D01*
X118772579Y-78521492D01*
X118753259Y-78729999D01*
X118753259Y-78730000D01*
X118772579Y-78938507D01*
X118829885Y-79139913D01*
X118829890Y-79139926D01*
X118923224Y-79327364D01*
X119049418Y-79494472D01*
X119049421Y-79494475D01*
X119204165Y-79635542D01*
X119204167Y-79635544D01*
X119382198Y-79745776D01*
X119382199Y-79745776D01*
X119382202Y-79745778D01*
X119577463Y-79821423D01*
X119783299Y-79859900D01*
X119783301Y-79859900D01*
X119992699Y-79859900D01*
X119992701Y-79859900D01*
X120198537Y-79821423D01*
X120393798Y-79745778D01*
X120571834Y-79635543D01*
X120726584Y-79494470D01*
X120852776Y-79327364D01*
X120869578Y-79293621D01*
X120897100Y-79238350D01*
X120944603Y-79187112D01*
X121012265Y-79169691D01*
X121078606Y-79191616D01*
X121122561Y-79245928D01*
X121132100Y-79293621D01*
X121132100Y-80118900D01*
X121112415Y-80185939D01*
X121059611Y-80231694D01*
X120990453Y-80241638D01*
X120926897Y-80212613D01*
X120920419Y-80206581D01*
X120898923Y-80185085D01*
X120803194Y-80142815D01*
X120779793Y-80140100D01*
X120779790Y-80140100D01*
X118996210Y-80140100D01*
X118996206Y-80140100D01*
X118972805Y-80142815D01*
X118877076Y-80185085D01*
X118803085Y-80259076D01*
X118760815Y-80354805D01*
X118758100Y-80378206D01*
X118758100Y-82161793D01*
X118760815Y-82185194D01*
X118803085Y-82280923D01*
X118877076Y-82354914D01*
X118877077Y-82354914D01*
X118877079Y-82354916D01*
X118972807Y-82397185D01*
X118996210Y-82399900D01*
X118996212Y-82399900D01*
X120779788Y-82399900D01*
X120779790Y-82399900D01*
X120803193Y-82397185D01*
X120898921Y-82354916D01*
X120972916Y-82280921D01*
X121015185Y-82185193D01*
X121017900Y-82161790D01*
X121017900Y-80871706D01*
X121037585Y-80804667D01*
X121090389Y-80758912D01*
X121159547Y-80748968D01*
X121223103Y-80777993D01*
X121229581Y-80784025D01*
X122051157Y-81605601D01*
X122143943Y-81659170D01*
X122247430Y-81686900D01*
X122247431Y-81686900D01*
X123577607Y-81686900D01*
X123644646Y-81706585D01*
X123688607Y-81755629D01*
X123749222Y-81877362D01*
X123875418Y-82044472D01*
X123875421Y-82044475D01*
X124030165Y-82185542D01*
X124030167Y-82185544D01*
X124046318Y-82195544D01*
X124208202Y-82295778D01*
X124208207Y-82295779D01*
X124208209Y-82295781D01*
X124227892Y-82303406D01*
X124283295Y-82345978D01*
X124306886Y-82411744D01*
X124307100Y-82419033D01*
X124307100Y-84616094D01*
X124287415Y-84683133D01*
X124270781Y-84703775D01*
X122610400Y-86364155D01*
X122610396Y-86364160D01*
X122556829Y-86456941D01*
X122556830Y-86456941D01*
X122556830Y-86456942D01*
X122529100Y-86560431D01*
X122529100Y-92840966D01*
X122509415Y-92908005D01*
X122456611Y-92953760D01*
X122449899Y-92956591D01*
X122430198Y-92964223D01*
X122252167Y-93074455D01*
X122252165Y-93074457D01*
X122097421Y-93215524D01*
X122097418Y-93215527D01*
X121971224Y-93382635D01*
X121877890Y-93570073D01*
X121877885Y-93570086D01*
X121820579Y-93771492D01*
X121801259Y-93979999D01*
X121801259Y-93980000D01*
X121820579Y-94188507D01*
X121877885Y-94389913D01*
X121877890Y-94389926D01*
X121909325Y-94453055D01*
X121971224Y-94577364D01*
X122076123Y-94716274D01*
X122097418Y-94744472D01*
X122097421Y-94744475D01*
X122252165Y-94885542D01*
X122252167Y-94885544D01*
X122430198Y-94995776D01*
X122430199Y-94995776D01*
X122430202Y-94995778D01*
X122625463Y-95071423D01*
X122831299Y-95109900D01*
X122831301Y-95109900D01*
X123040699Y-95109900D01*
X123040701Y-95109900D01*
X123246537Y-95071423D01*
X123441798Y-94995778D01*
X123619834Y-94885543D01*
X123774584Y-94744470D01*
X123900776Y-94577364D01*
X123994114Y-94389916D01*
X124051420Y-94188508D01*
X124070741Y-93980000D01*
X124051420Y-93771492D01*
X123994114Y-93570084D01*
X123900776Y-93382636D01*
X123774584Y-93215530D01*
X123774581Y-93215527D01*
X123774578Y-93215524D01*
X123619834Y-93074457D01*
X123619832Y-93074455D01*
X123441801Y-92964223D01*
X123422101Y-92956591D01*
X123366701Y-92914016D01*
X123343114Y-92848248D01*
X123342900Y-92840966D01*
X123342900Y-86833906D01*
X123362585Y-86766867D01*
X123379219Y-86746225D01*
X124172345Y-85953099D01*
X125039601Y-85085843D01*
X125093170Y-84993057D01*
X125120900Y-84889570D01*
X125120900Y-84782430D01*
X125120900Y-82419033D01*
X125140585Y-82351994D01*
X125193389Y-82306239D01*
X125200108Y-82303406D01*
X125219790Y-82295781D01*
X125219789Y-82295781D01*
X125219798Y-82295778D01*
X125397834Y-82185543D01*
X125552584Y-82044470D01*
X125678776Y-81877364D01*
X125772114Y-81689916D01*
X125829420Y-81488508D01*
X125848741Y-81280000D01*
X125829420Y-81071492D01*
X125772114Y-80870084D01*
X125768793Y-80863415D01*
X125696599Y-80718430D01*
X125678776Y-80682636D01*
X125552584Y-80515530D01*
X125552581Y-80515527D01*
X125552578Y-80515524D01*
X125397834Y-80374457D01*
X125397832Y-80374455D01*
X125219801Y-80264223D01*
X125219795Y-80264221D01*
X125024537Y-80188577D01*
X124818701Y-80150100D01*
X124609299Y-80150100D01*
X124403463Y-80188577D01*
X124292166Y-80231694D01*
X124208204Y-80264221D01*
X124208198Y-80264223D01*
X124030167Y-80374455D01*
X124030165Y-80374457D01*
X123875421Y-80515524D01*
X123875418Y-80515527D01*
X123749222Y-80682637D01*
X123688607Y-80804371D01*
X123641104Y-80855609D01*
X123577607Y-80873100D01*
X122520906Y-80873100D01*
X122453867Y-80853415D01*
X122433225Y-80836781D01*
X121982219Y-80385775D01*
X121948734Y-80324452D01*
X121945900Y-80298094D01*
X121945900Y-72209433D01*
X121945899Y-72209429D01*
X121945093Y-72206422D01*
X121925734Y-72134169D01*
X121924864Y-72130923D01*
X121918171Y-72105945D01*
X121918168Y-72105938D01*
X121864603Y-72013160D01*
X121864599Y-72013155D01*
X120640844Y-70789400D01*
X120640843Y-70789399D01*
X120548058Y-70735830D01*
X120548059Y-70735830D01*
X120522186Y-70728897D01*
X120444570Y-70708100D01*
X120444569Y-70708100D01*
X120444567Y-70708100D01*
X111372393Y-70708100D01*
X111305354Y-70688415D01*
X111261393Y-70639371D01*
X111200777Y-70517637D01*
X111120679Y-70411570D01*
X111074584Y-70350530D01*
X111074581Y-70350527D01*
X111074578Y-70350524D01*
X110919834Y-70209457D01*
X110919832Y-70209455D01*
X110741801Y-70099223D01*
X110741795Y-70099221D01*
X110546537Y-70023577D01*
X110392529Y-69994788D01*
X110330250Y-69963121D01*
X110294977Y-69902809D01*
X110297911Y-69833000D01*
X110338120Y-69775860D01*
X110402838Y-69749529D01*
X110415316Y-69748900D01*
X121573094Y-69748900D01*
X121640133Y-69768585D01*
X121660775Y-69785219D01*
X122619781Y-70744225D01*
X122653266Y-70805548D01*
X122656100Y-70831906D01*
X122656100Y-78285567D01*
X122656099Y-78285567D01*
X122668025Y-78330073D01*
X122683830Y-78389058D01*
X122737399Y-78481843D01*
X123245399Y-78989842D01*
X123321158Y-79065601D01*
X123413943Y-79119170D01*
X123517431Y-79146900D01*
X123577607Y-79146900D01*
X123644646Y-79166585D01*
X123688607Y-79215629D01*
X123749222Y-79337362D01*
X123812320Y-79420917D01*
X123871640Y-79499470D01*
X123875418Y-79504472D01*
X123875421Y-79504475D01*
X124030165Y-79645542D01*
X124030167Y-79645544D01*
X124208198Y-79755776D01*
X124208199Y-79755776D01*
X124208202Y-79755778D01*
X124403463Y-79831423D01*
X124609299Y-79869900D01*
X124609301Y-79869900D01*
X124818699Y-79869900D01*
X124818701Y-79869900D01*
X125024537Y-79831423D01*
X125219798Y-79755778D01*
X125397834Y-79645543D01*
X125552584Y-79504470D01*
X125678776Y-79337364D01*
X125728079Y-79238350D01*
X125739393Y-79215629D01*
X125786896Y-79164391D01*
X125850393Y-79146900D01*
X126018094Y-79146900D01*
X126085133Y-79166585D01*
X126105775Y-79183219D01*
X126429781Y-79507224D01*
X126463266Y-79568547D01*
X126466100Y-79594905D01*
X126466100Y-87029094D01*
X126446415Y-87096133D01*
X126429781Y-87116775D01*
X125150400Y-88396155D01*
X125150396Y-88396160D01*
X125096829Y-88488941D01*
X125096830Y-88488941D01*
X125096830Y-88488942D01*
X125069100Y-88592431D01*
X125069100Y-92840966D01*
X125049415Y-92908005D01*
X124996611Y-92953760D01*
X124989899Y-92956591D01*
X124970198Y-92964223D01*
X124792167Y-93074455D01*
X124792165Y-93074457D01*
X124637421Y-93215524D01*
X124637418Y-93215527D01*
X124511224Y-93382635D01*
X124417890Y-93570073D01*
X124417885Y-93570086D01*
X124360579Y-93771492D01*
X124341259Y-93979999D01*
X124341259Y-93980000D01*
X124360579Y-94188507D01*
X124417885Y-94389913D01*
X124417890Y-94389926D01*
X124449325Y-94453055D01*
X124511224Y-94577364D01*
X124616123Y-94716274D01*
X124637418Y-94744472D01*
X124637421Y-94744475D01*
X124792165Y-94885542D01*
X124792167Y-94885544D01*
X124970198Y-94995776D01*
X124970199Y-94995776D01*
X124970202Y-94995778D01*
X125165463Y-95071423D01*
X125371299Y-95109900D01*
X125371301Y-95109900D01*
X125580699Y-95109900D01*
X125580701Y-95109900D01*
X125786537Y-95071423D01*
X125981798Y-94995778D01*
X126159834Y-94885543D01*
X126314584Y-94744470D01*
X126440776Y-94577364D01*
X126534114Y-94389916D01*
X126591420Y-94188508D01*
X126610741Y-93980000D01*
X126610741Y-93979999D01*
X129421259Y-93979999D01*
X129421259Y-93980000D01*
X129440579Y-94188507D01*
X129497885Y-94389913D01*
X129497890Y-94389926D01*
X129529325Y-94453055D01*
X129591224Y-94577364D01*
X129696123Y-94716274D01*
X129717418Y-94744472D01*
X129717421Y-94744475D01*
X129872165Y-94885542D01*
X129872167Y-94885544D01*
X130050198Y-94995776D01*
X130050199Y-94995776D01*
X130050202Y-94995778D01*
X130245463Y-95071423D01*
X130451299Y-95109900D01*
X130451301Y-95109900D01*
X130660699Y-95109900D01*
X130660701Y-95109900D01*
X130866537Y-95071423D01*
X131061798Y-94995778D01*
X131239834Y-94885543D01*
X131394584Y-94744470D01*
X131520776Y-94577364D01*
X131614114Y-94389916D01*
X131671420Y-94188508D01*
X131690741Y-93980000D01*
X131671420Y-93771492D01*
X131614114Y-93570084D01*
X131520776Y-93382636D01*
X131394584Y-93215530D01*
X131394581Y-93215527D01*
X131394578Y-93215524D01*
X131254916Y-93088206D01*
X131966100Y-93088206D01*
X131966100Y-94871793D01*
X131968815Y-94895194D01*
X132011085Y-94990923D01*
X132085076Y-95064914D01*
X132085077Y-95064914D01*
X132085079Y-95064916D01*
X132180807Y-95107185D01*
X132204210Y-95109900D01*
X132204212Y-95109900D01*
X133987788Y-95109900D01*
X133987790Y-95109900D01*
X134011193Y-95107185D01*
X134106921Y-95064916D01*
X134180916Y-94990921D01*
X134223185Y-94895193D01*
X134225900Y-94871790D01*
X134225900Y-93088210D01*
X134223185Y-93064807D01*
X134180916Y-92969079D01*
X134180914Y-92969077D01*
X134180914Y-92969076D01*
X134106923Y-92895085D01*
X134011194Y-92852815D01*
X133987793Y-92850100D01*
X133987790Y-92850100D01*
X132204210Y-92850100D01*
X132204206Y-92850100D01*
X132180805Y-92852815D01*
X132085076Y-92895085D01*
X132011085Y-92969076D01*
X131968815Y-93064805D01*
X131966100Y-93088206D01*
X131254916Y-93088206D01*
X131239834Y-93074457D01*
X131239832Y-93074455D01*
X131061801Y-92964223D01*
X131061795Y-92964221D01*
X131042100Y-92956591D01*
X130866537Y-92888577D01*
X130660701Y-92850100D01*
X130451299Y-92850100D01*
X130245463Y-92888577D01*
X130195314Y-92908005D01*
X130050204Y-92964221D01*
X130050198Y-92964223D01*
X129872167Y-93074455D01*
X129872165Y-93074457D01*
X129717421Y-93215524D01*
X129717418Y-93215527D01*
X129591224Y-93382635D01*
X129497890Y-93570073D01*
X129497885Y-93570086D01*
X129440579Y-93771492D01*
X129421259Y-93979999D01*
X126610741Y-93979999D01*
X126591420Y-93771492D01*
X126534114Y-93570084D01*
X126440776Y-93382636D01*
X126314584Y-93215530D01*
X126314581Y-93215527D01*
X126314578Y-93215524D01*
X126159834Y-93074457D01*
X126159832Y-93074455D01*
X125981801Y-92964223D01*
X125962101Y-92956591D01*
X125906701Y-92914016D01*
X125883114Y-92848248D01*
X125882900Y-92840966D01*
X125882900Y-88865906D01*
X125902585Y-88798867D01*
X125919219Y-88778225D01*
X126533720Y-88163724D01*
X127198601Y-87498843D01*
X127252170Y-87406058D01*
X127252171Y-87406055D01*
X127259600Y-87378330D01*
X127259600Y-87378328D01*
X127279900Y-87302569D01*
X127279900Y-81279999D01*
X127897259Y-81279999D01*
X127897259Y-81280000D01*
X127916579Y-81488507D01*
X127973885Y-81689913D01*
X127973890Y-81689926D01*
X128067224Y-81877364D01*
X128193418Y-82044472D01*
X128193421Y-82044475D01*
X128348165Y-82185542D01*
X128348167Y-82185544D01*
X128526198Y-82295776D01*
X128526199Y-82295776D01*
X128526202Y-82295778D01*
X128721463Y-82371423D01*
X128927299Y-82409900D01*
X128927301Y-82409900D01*
X129136699Y-82409900D01*
X129136701Y-82409900D01*
X129342537Y-82371423D01*
X129537798Y-82295778D01*
X129715834Y-82185543D01*
X129870584Y-82044470D01*
X129996776Y-81877364D01*
X130090114Y-81689916D01*
X130147420Y-81488508D01*
X130166741Y-81280000D01*
X130147420Y-81071492D01*
X130090114Y-80870084D01*
X130086793Y-80863415D01*
X130014599Y-80718430D01*
X129996776Y-80682636D01*
X129870584Y-80515530D01*
X129870581Y-80515527D01*
X129870578Y-80515524D01*
X129715834Y-80374457D01*
X129715832Y-80374455D01*
X129537801Y-80264223D01*
X129537795Y-80264221D01*
X129342537Y-80188577D01*
X129136701Y-80150100D01*
X128927299Y-80150100D01*
X128721463Y-80188577D01*
X128610166Y-80231694D01*
X128526204Y-80264221D01*
X128526198Y-80264223D01*
X128348167Y-80374455D01*
X128348165Y-80374457D01*
X128193421Y-80515524D01*
X128193418Y-80515527D01*
X128067224Y-80682635D01*
X127973890Y-80870073D01*
X127973885Y-80870086D01*
X127916579Y-81071492D01*
X127897259Y-81279999D01*
X127279900Y-81279999D01*
X127279900Y-79321431D01*
X127252170Y-79217943D01*
X127198601Y-79125158D01*
X127122842Y-79049399D01*
X126813442Y-78739999D01*
X127897259Y-78739999D01*
X127897259Y-78740000D01*
X127916579Y-78948507D01*
X127973885Y-79149913D01*
X127973890Y-79149926D01*
X128059290Y-79321431D01*
X128067224Y-79337364D01*
X128189640Y-79499470D01*
X128193418Y-79504472D01*
X128193421Y-79504475D01*
X128348165Y-79645542D01*
X128348167Y-79645544D01*
X128526198Y-79755776D01*
X128526199Y-79755776D01*
X128526202Y-79755778D01*
X128721463Y-79831423D01*
X128927299Y-79869900D01*
X128927301Y-79869900D01*
X129136699Y-79869900D01*
X129136701Y-79869900D01*
X129342537Y-79831423D01*
X129537798Y-79755778D01*
X129715834Y-79645543D01*
X129870584Y-79504470D01*
X129996776Y-79337364D01*
X130090114Y-79149916D01*
X130147420Y-78948508D01*
X130166741Y-78740000D01*
X130147420Y-78531492D01*
X130090114Y-78330084D01*
X130087625Y-78325086D01*
X130039204Y-78227843D01*
X129996776Y-78142636D01*
X129870584Y-77975530D01*
X129870581Y-77975527D01*
X129870578Y-77975524D01*
X129715834Y-77834457D01*
X129715832Y-77834455D01*
X129537801Y-77724223D01*
X129537795Y-77724221D01*
X129524894Y-77719223D01*
X129342537Y-77648577D01*
X129136701Y-77610100D01*
X128927299Y-77610100D01*
X128721463Y-77648577D01*
X128597981Y-77696414D01*
X128526204Y-77724221D01*
X128526198Y-77724223D01*
X128348167Y-77834455D01*
X128348165Y-77834457D01*
X128193421Y-77975524D01*
X128193418Y-77975527D01*
X128067224Y-78142635D01*
X127973890Y-78330073D01*
X127973885Y-78330086D01*
X127916579Y-78531492D01*
X127897259Y-78739999D01*
X126813442Y-78739999D01*
X126487843Y-78414399D01*
X126395058Y-78360830D01*
X126395059Y-78360830D01*
X126368729Y-78353775D01*
X126291570Y-78333100D01*
X126291569Y-78333100D01*
X126291567Y-78333100D01*
X125850393Y-78333100D01*
X125783354Y-78313415D01*
X125739393Y-78264371D01*
X125678777Y-78142637D01*
X125600100Y-78038452D01*
X125552584Y-77975530D01*
X125552581Y-77975527D01*
X125552578Y-77975524D01*
X125397834Y-77834457D01*
X125397832Y-77834455D01*
X125219801Y-77724223D01*
X125219795Y-77724221D01*
X125206894Y-77719223D01*
X125024537Y-77648577D01*
X124818701Y-77610100D01*
X124609299Y-77610100D01*
X124403463Y-77648577D01*
X124279981Y-77696414D01*
X124208204Y-77724221D01*
X124208198Y-77724223D01*
X124030167Y-77834455D01*
X124030165Y-77834457D01*
X123875421Y-77975524D01*
X123875419Y-77975527D01*
X123875416Y-77975530D01*
X123847804Y-78012094D01*
X123748984Y-78142952D01*
X123692875Y-78184588D01*
X123623163Y-78189279D01*
X123562349Y-78155905D01*
X123506218Y-78099774D01*
X123472734Y-78038451D01*
X123469900Y-78012094D01*
X123469900Y-74811100D01*
X123489585Y-74744061D01*
X123542389Y-74698306D01*
X123611547Y-74688362D01*
X123675103Y-74717387D01*
X123681581Y-74723419D01*
X123703076Y-74744914D01*
X123703077Y-74744914D01*
X123703079Y-74744916D01*
X123798807Y-74787185D01*
X123822210Y-74789900D01*
X123822212Y-74789900D01*
X125605788Y-74789900D01*
X125605790Y-74789900D01*
X125629193Y-74787185D01*
X125724921Y-74744916D01*
X125798916Y-74670921D01*
X125841185Y-74575193D01*
X125843900Y-74551790D01*
X125843900Y-72768210D01*
X125843900Y-72768206D01*
X127902100Y-72768206D01*
X127902100Y-74551793D01*
X127904815Y-74575194D01*
X127947085Y-74670923D01*
X128021076Y-74744914D01*
X128021077Y-74744914D01*
X128021079Y-74744916D01*
X128116807Y-74787185D01*
X128140210Y-74789900D01*
X128140212Y-74789900D01*
X129923788Y-74789900D01*
X129923790Y-74789900D01*
X129947193Y-74787185D01*
X130042921Y-74744916D01*
X130116916Y-74670921D01*
X130159185Y-74575193D01*
X130161900Y-74551790D01*
X130161900Y-72768210D01*
X130159185Y-72744807D01*
X130116916Y-72649079D01*
X130116914Y-72649077D01*
X130116914Y-72649076D01*
X130042923Y-72575085D01*
X129947194Y-72532815D01*
X129923793Y-72530100D01*
X129923790Y-72530100D01*
X128140210Y-72530100D01*
X128140206Y-72530100D01*
X128116805Y-72532815D01*
X128021076Y-72575085D01*
X127947085Y-72649076D01*
X127904815Y-72744805D01*
X127902100Y-72768206D01*
X125843900Y-72768206D01*
X125841185Y-72744807D01*
X125798916Y-72649079D01*
X125798914Y-72649077D01*
X125798914Y-72649076D01*
X125724923Y-72575085D01*
X125629194Y-72532815D01*
X125605793Y-72530100D01*
X125605790Y-72530100D01*
X123822210Y-72530100D01*
X123822206Y-72530100D01*
X123798805Y-72532815D01*
X123703076Y-72575085D01*
X123681581Y-72596581D01*
X123620258Y-72630066D01*
X123550566Y-72625082D01*
X123494633Y-72583210D01*
X123470216Y-72517746D01*
X123469900Y-72508900D01*
X123469900Y-70558433D01*
X123469900Y-70558431D01*
X123442170Y-70454943D01*
X123442170Y-70454942D01*
X123442170Y-70454941D01*
X123388603Y-70362160D01*
X123388599Y-70362155D01*
X122042844Y-69016400D01*
X122042843Y-69016399D01*
X121950058Y-68962830D01*
X121950059Y-68962830D01*
X121924186Y-68955897D01*
X121846570Y-68935100D01*
X121846569Y-68935100D01*
X109273570Y-68935100D01*
X109166430Y-68935100D01*
X109097438Y-68953586D01*
X109062942Y-68962830D01*
X108970157Y-69016398D01*
X108132400Y-69854155D01*
X108132398Y-69854158D01*
X108078830Y-69946941D01*
X108078830Y-69946942D01*
X108066539Y-69992815D01*
X108055933Y-70032397D01*
X108055932Y-70032399D01*
X108051100Y-70050430D01*
X108051100Y-73205567D01*
X108051099Y-73205567D01*
X105664500Y-73205567D01*
X105664500Y-69317990D01*
X105684185Y-69250951D01*
X105700819Y-69230309D01*
X107330309Y-67600819D01*
X107391632Y-67567334D01*
X107417990Y-67564500D01*
X116938943Y-67564500D01*
X116938945Y-67564500D01*
X117068274Y-67529847D01*
X117184227Y-67462901D01*
X119278901Y-65368227D01*
X119345847Y-65252274D01*
X119380500Y-65122945D01*
X119380500Y-58141990D01*
X119400185Y-58074951D01*
X119416819Y-58054309D01*
X119942922Y-57528206D01*
X121806100Y-57528206D01*
X121806100Y-59311793D01*
X121808815Y-59335194D01*
X121851085Y-59430923D01*
X121925076Y-59504914D01*
X121925077Y-59504914D01*
X121925079Y-59504916D01*
X122020807Y-59547185D01*
X122044210Y-59549900D01*
X122044212Y-59549900D01*
X123827788Y-59549900D01*
X123827790Y-59549900D01*
X123851193Y-59547185D01*
X123946921Y-59504916D01*
X124020916Y-59430921D01*
X124063185Y-59335193D01*
X124065900Y-59311790D01*
X124065900Y-58419999D01*
X124341259Y-58419999D01*
X124341259Y-58420000D01*
X124360579Y-58628507D01*
X124417885Y-58829913D01*
X124417890Y-58829926D01*
X124511224Y-59017364D01*
X124637418Y-59184472D01*
X124637421Y-59184475D01*
X124792165Y-59325542D01*
X124792167Y-59325544D01*
X124970198Y-59435776D01*
X124970199Y-59435776D01*
X124970202Y-59435778D01*
X125165463Y-59511423D01*
X125371299Y-59549900D01*
X125371301Y-59549900D01*
X125580699Y-59549900D01*
X125580701Y-59549900D01*
X125786537Y-59511423D01*
X125981798Y-59435778D01*
X126159834Y-59325543D01*
X126314584Y-59184470D01*
X126440776Y-59017364D01*
X126534114Y-58829916D01*
X126591420Y-58628508D01*
X126610741Y-58420000D01*
X126610741Y-58419999D01*
X129421259Y-58419999D01*
X129421259Y-58420000D01*
X129440579Y-58628507D01*
X129497885Y-58829913D01*
X129497890Y-58829926D01*
X129591224Y-59017364D01*
X129717418Y-59184472D01*
X129717421Y-59184475D01*
X129872165Y-59325542D01*
X129872167Y-59325544D01*
X129973998Y-59388594D01*
X130050202Y-59435778D01*
X130050207Y-59435779D01*
X130050209Y-59435781D01*
X130069892Y-59443406D01*
X130125295Y-59485978D01*
X130148886Y-59551744D01*
X130149100Y-59559033D01*
X130149100Y-71300567D01*
X130149099Y-71300567D01*
X130149100Y-71300570D01*
X130176830Y-71404058D01*
X130230399Y-71496843D01*
X130434989Y-71701433D01*
X130620781Y-71887224D01*
X130654266Y-71948547D01*
X130657100Y-71974905D01*
X130657100Y-78285567D01*
X130657099Y-78285567D01*
X130669025Y-78330073D01*
X130684830Y-78389058D01*
X130738399Y-78481843D01*
X131332158Y-79075601D01*
X131424943Y-79129170D01*
X131528431Y-79156900D01*
X131635570Y-79156900D01*
X131959607Y-79156900D01*
X132026646Y-79176585D01*
X132070607Y-79225629D01*
X132131222Y-79347362D01*
X132131224Y-79347364D01*
X132251944Y-79507224D01*
X132257418Y-79514472D01*
X132257421Y-79514475D01*
X132412165Y-79655542D01*
X132412167Y-79655544D01*
X132590198Y-79765776D01*
X132590199Y-79765776D01*
X132590202Y-79765778D01*
X132785463Y-79841423D01*
X132991299Y-79879900D01*
X132991301Y-79879900D01*
X133200699Y-79879900D01*
X133200701Y-79879900D01*
X133406537Y-79841423D01*
X133601798Y-79765778D01*
X133779834Y-79655543D01*
X133934584Y-79514470D01*
X134060776Y-79347364D01*
X134154114Y-79159916D01*
X134211420Y-78958508D01*
X134230741Y-78750000D01*
X134211420Y-78541492D01*
X134154114Y-78340084D01*
X134150636Y-78333100D01*
X134073620Y-78178430D01*
X134060776Y-78152636D01*
X133934584Y-77985530D01*
X133934581Y-77985527D01*
X133934578Y-77985524D01*
X133779834Y-77844457D01*
X133779832Y-77844455D01*
X133601801Y-77734223D01*
X133601795Y-77734221D01*
X133406537Y-77658577D01*
X133200701Y-77620100D01*
X132991299Y-77620100D01*
X132785463Y-77658577D01*
X132661981Y-77706414D01*
X132590204Y-77734221D01*
X132590198Y-77734223D01*
X132412167Y-77844455D01*
X132412165Y-77844457D01*
X132257421Y-77985524D01*
X132257418Y-77985527D01*
X132131222Y-78152637D01*
X132070607Y-78274371D01*
X132023104Y-78325609D01*
X131959607Y-78343100D01*
X131801905Y-78343100D01*
X131734866Y-78323415D01*
X131714224Y-78306781D01*
X131507219Y-78099775D01*
X131473734Y-78038452D01*
X131470900Y-78012094D01*
X131470900Y-72778206D01*
X131966100Y-72778206D01*
X131966100Y-74561793D01*
X131967655Y-74575193D01*
X131968815Y-74585193D01*
X132006668Y-74670921D01*
X132011085Y-74680923D01*
X132085076Y-74754914D01*
X132085077Y-74754914D01*
X132085079Y-74754916D01*
X132180807Y-74797185D01*
X132204210Y-74799900D01*
X132204212Y-74799900D01*
X133987788Y-74799900D01*
X133987790Y-74799900D01*
X134011193Y-74797185D01*
X134106921Y-74754916D01*
X134180916Y-74680921D01*
X134223185Y-74585193D01*
X134225900Y-74561790D01*
X134225900Y-72778210D01*
X134223185Y-72754807D01*
X134180916Y-72659079D01*
X134180914Y-72659077D01*
X134180914Y-72659076D01*
X134106923Y-72585085D01*
X134011194Y-72542815D01*
X133987793Y-72540100D01*
X133987790Y-72540100D01*
X132204210Y-72540100D01*
X132204206Y-72540100D01*
X132180805Y-72542815D01*
X132085076Y-72585085D01*
X132011085Y-72659076D01*
X131968815Y-72754805D01*
X131966100Y-72778206D01*
X131470900Y-72778206D01*
X131470900Y-71701433D01*
X131470900Y-71701431D01*
X131443170Y-71597943D01*
X131389601Y-71505158D01*
X131313842Y-71429399D01*
X130999219Y-71114775D01*
X130965734Y-71053452D01*
X130962900Y-71027094D01*
X130962900Y-59559033D01*
X130982585Y-59491994D01*
X131035389Y-59446239D01*
X131042108Y-59443406D01*
X131061790Y-59435781D01*
X131061789Y-59435781D01*
X131061798Y-59435778D01*
X131239834Y-59325543D01*
X131394584Y-59184470D01*
X131520776Y-59017364D01*
X131614114Y-58829916D01*
X131671420Y-58628508D01*
X131690741Y-58420000D01*
X131690741Y-58419999D01*
X131961259Y-58419999D01*
X131961259Y-58420000D01*
X131980579Y-58628507D01*
X132037885Y-58829913D01*
X132037890Y-58829926D01*
X132131224Y-59017364D01*
X132257418Y-59184472D01*
X132257421Y-59184475D01*
X132412165Y-59325542D01*
X132412167Y-59325544D01*
X132513998Y-59388594D01*
X132590202Y-59435778D01*
X132590207Y-59435779D01*
X132590209Y-59435781D01*
X132609892Y-59443406D01*
X132665295Y-59485978D01*
X132688886Y-59551744D01*
X132689100Y-59559033D01*
X132689100Y-70411567D01*
X132689099Y-70411567D01*
X132716830Y-70515058D01*
X132770398Y-70607841D01*
X132770400Y-70607844D01*
X134557781Y-72395225D01*
X134591266Y-72456548D01*
X134594100Y-72482906D01*
X134594100Y-80552094D01*
X134574415Y-80619133D01*
X134557781Y-80639775D01*
X134350775Y-80846781D01*
X134289452Y-80880266D01*
X134263094Y-80883100D01*
X134232393Y-80883100D01*
X134165354Y-80863415D01*
X134121393Y-80814371D01*
X134060777Y-80692637D01*
X134005269Y-80619133D01*
X133934584Y-80525530D01*
X133934581Y-80525527D01*
X133934578Y-80525524D01*
X133779834Y-80384457D01*
X133779832Y-80384455D01*
X133601801Y-80274223D01*
X133601795Y-80274221D01*
X133406537Y-80198577D01*
X133200701Y-80160100D01*
X132991299Y-80160100D01*
X132785463Y-80198577D01*
X132661981Y-80246414D01*
X132590204Y-80274221D01*
X132590198Y-80274223D01*
X132412167Y-80384455D01*
X132412165Y-80384457D01*
X132257421Y-80525524D01*
X132257418Y-80525527D01*
X132131224Y-80692635D01*
X132037890Y-80880073D01*
X132037885Y-80880086D01*
X131980579Y-81081492D01*
X131961259Y-81289999D01*
X131961259Y-81290000D01*
X131980579Y-81498507D01*
X132037885Y-81699913D01*
X132037890Y-81699926D01*
X132070607Y-81765629D01*
X132131224Y-81887364D01*
X132249868Y-82044475D01*
X132257418Y-82054472D01*
X132257421Y-82054475D01*
X132412165Y-82195542D01*
X132412167Y-82195544D01*
X132590198Y-82305776D01*
X132590199Y-82305776D01*
X132590202Y-82305778D01*
X132785463Y-82381423D01*
X132991299Y-82419900D01*
X132991301Y-82419900D01*
X133200699Y-82419900D01*
X133200701Y-82419900D01*
X133406537Y-82381423D01*
X133601798Y-82305778D01*
X133779834Y-82195543D01*
X133934584Y-82054470D01*
X134060776Y-81887364D01*
X134121393Y-81765629D01*
X134168896Y-81714391D01*
X134232393Y-81696900D01*
X134536567Y-81696900D01*
X134536570Y-81696900D01*
X134640058Y-81669170D01*
X134732843Y-81615601D01*
X135326601Y-81021842D01*
X135380170Y-80929057D01*
X135407900Y-80825569D01*
X135407900Y-80718430D01*
X135407900Y-78739999D01*
X135771259Y-78739999D01*
X135771259Y-78740000D01*
X135790579Y-78948507D01*
X135847885Y-79149913D01*
X135847890Y-79149926D01*
X135933290Y-79321431D01*
X135941224Y-79337364D01*
X136063640Y-79499470D01*
X136067418Y-79504472D01*
X136067421Y-79504475D01*
X136222165Y-79645542D01*
X136222167Y-79645544D01*
X136400198Y-79755776D01*
X136400199Y-79755776D01*
X136400202Y-79755778D01*
X136595463Y-79831423D01*
X136801299Y-79869900D01*
X136801301Y-79869900D01*
X137010699Y-79869900D01*
X137010701Y-79869900D01*
X137216537Y-79831423D01*
X137411798Y-79755778D01*
X137589834Y-79645543D01*
X137744584Y-79504470D01*
X137870776Y-79337364D01*
X137920079Y-79238350D01*
X137931393Y-79215629D01*
X137978896Y-79164391D01*
X138042393Y-79146900D01*
X138991567Y-79146900D01*
X138991570Y-79146900D01*
X139095058Y-79119170D01*
X139187843Y-79065601D01*
X140025601Y-78227843D01*
X140079170Y-78135057D01*
X140106900Y-78031570D01*
X140106900Y-77924430D01*
X140106900Y-76072292D01*
X140126585Y-76005253D01*
X140179389Y-75959498D01*
X140187558Y-75956113D01*
X140207357Y-75948729D01*
X140317830Y-75866030D01*
X140400529Y-75755557D01*
X140409319Y-75731989D01*
X140451189Y-75676057D01*
X140516653Y-75651640D01*
X140584926Y-75666492D01*
X140634332Y-75715897D01*
X140641678Y-75731982D01*
X140650471Y-75755557D01*
X140733170Y-75866030D01*
X140843643Y-75948729D01*
X140863432Y-75956109D01*
X140919365Y-75997979D01*
X140943784Y-76063443D01*
X140944100Y-76072292D01*
X140944100Y-78266094D01*
X140924415Y-78333133D01*
X140907781Y-78353775D01*
X138424775Y-80836781D01*
X138363452Y-80870266D01*
X138337094Y-80873100D01*
X138042393Y-80873100D01*
X137975354Y-80853415D01*
X137931393Y-80804371D01*
X137870777Y-80682637D01*
X137786903Y-80571570D01*
X137744584Y-80515530D01*
X137744581Y-80515527D01*
X137744578Y-80515524D01*
X137589834Y-80374457D01*
X137589832Y-80374455D01*
X137411801Y-80264223D01*
X137411795Y-80264221D01*
X137216537Y-80188577D01*
X137010701Y-80150100D01*
X136801299Y-80150100D01*
X136595463Y-80188577D01*
X136484166Y-80231694D01*
X136400204Y-80264221D01*
X136400198Y-80264223D01*
X136222167Y-80374455D01*
X136222165Y-80374457D01*
X136067421Y-80515524D01*
X136067418Y-80515527D01*
X135941224Y-80682635D01*
X135847890Y-80870073D01*
X135847885Y-80870086D01*
X135790579Y-81071492D01*
X135771259Y-81279999D01*
X135771259Y-81280000D01*
X135790579Y-81488507D01*
X135847885Y-81689913D01*
X135847890Y-81689926D01*
X135941224Y-81877364D01*
X136067418Y-82044472D01*
X136067421Y-82044475D01*
X136222165Y-82185542D01*
X136222167Y-82185544D01*
X136400198Y-82295776D01*
X136400199Y-82295776D01*
X136400202Y-82295778D01*
X136595463Y-82371423D01*
X136801299Y-82409900D01*
X136801301Y-82409900D01*
X137010699Y-82409900D01*
X137010701Y-82409900D01*
X137216537Y-82371423D01*
X137411798Y-82295778D01*
X137589834Y-82185543D01*
X137744584Y-82044470D01*
X137870776Y-81877364D01*
X137870777Y-81877362D01*
X137931393Y-81755629D01*
X137978896Y-81704391D01*
X138042393Y-81686900D01*
X138610567Y-81686900D01*
X138610570Y-81686900D01*
X138714058Y-81659170D01*
X138806843Y-81605601D01*
X139132445Y-81279999D01*
X144661259Y-81279999D01*
X144661259Y-81280000D01*
X144680579Y-81488507D01*
X144737885Y-81689913D01*
X144737890Y-81689926D01*
X144831224Y-81877364D01*
X144957418Y-82044472D01*
X144957421Y-82044475D01*
X145112165Y-82185542D01*
X145112167Y-82185544D01*
X145290198Y-82295776D01*
X145290199Y-82295776D01*
X145290202Y-82295778D01*
X145485463Y-82371423D01*
X145691299Y-82409900D01*
X145691301Y-82409900D01*
X145900699Y-82409900D01*
X145900701Y-82409900D01*
X146106537Y-82371423D01*
X146301798Y-82295778D01*
X146479834Y-82185543D01*
X146634584Y-82044470D01*
X146760776Y-81877364D01*
X146854114Y-81689916D01*
X146911420Y-81488508D01*
X146930741Y-81280000D01*
X146911420Y-81071492D01*
X146854114Y-80870084D01*
X146850793Y-80863415D01*
X146778599Y-80718430D01*
X146760776Y-80682636D01*
X146634584Y-80515530D01*
X146634581Y-80515527D01*
X146634578Y-80515524D01*
X146479834Y-80374457D01*
X146479832Y-80374455D01*
X146301801Y-80264223D01*
X146301795Y-80264221D01*
X146106537Y-80188577D01*
X145900701Y-80150100D01*
X145691299Y-80150100D01*
X145485463Y-80188577D01*
X145374166Y-80231694D01*
X145290204Y-80264221D01*
X145290198Y-80264223D01*
X145112167Y-80374455D01*
X145112165Y-80374457D01*
X144957421Y-80515524D01*
X144957418Y-80515527D01*
X144831224Y-80682635D01*
X144737890Y-80870073D01*
X144737885Y-80870086D01*
X144680579Y-81071492D01*
X144661259Y-81279999D01*
X139132445Y-81279999D01*
X141672445Y-78739999D01*
X144661259Y-78739999D01*
X144661259Y-78740000D01*
X144680579Y-78948507D01*
X144737885Y-79149913D01*
X144737890Y-79149926D01*
X144823290Y-79321431D01*
X144831224Y-79337364D01*
X144953640Y-79499470D01*
X144957418Y-79504472D01*
X144957421Y-79504475D01*
X145112165Y-79645542D01*
X145112167Y-79645544D01*
X145290198Y-79755776D01*
X145290199Y-79755776D01*
X145290202Y-79755778D01*
X145485463Y-79831423D01*
X145691299Y-79869900D01*
X145691301Y-79869900D01*
X145900699Y-79869900D01*
X145900701Y-79869900D01*
X146106537Y-79831423D01*
X146301798Y-79755778D01*
X146479834Y-79645543D01*
X146634584Y-79504470D01*
X146760776Y-79337364D01*
X146854114Y-79149916D01*
X146911420Y-78948508D01*
X146930741Y-78740000D01*
X146911420Y-78531492D01*
X146854114Y-78330084D01*
X146851625Y-78325086D01*
X146803204Y-78227843D01*
X146760776Y-78142636D01*
X146634584Y-77975530D01*
X146634581Y-77975527D01*
X146634578Y-77975524D01*
X146479834Y-77834457D01*
X146479832Y-77834455D01*
X146301801Y-77724223D01*
X146301795Y-77724221D01*
X146288894Y-77719223D01*
X146106537Y-77648577D01*
X145900701Y-77610100D01*
X145691299Y-77610100D01*
X145485463Y-77648577D01*
X145361981Y-77696414D01*
X145290204Y-77724221D01*
X145290198Y-77724223D01*
X145112167Y-77834455D01*
X145112165Y-77834457D01*
X144957421Y-77975524D01*
X144957418Y-77975527D01*
X144831224Y-78142635D01*
X144737890Y-78330073D01*
X144737885Y-78330086D01*
X144680579Y-78531492D01*
X144661259Y-78739999D01*
X141672445Y-78739999D01*
X141676601Y-78735843D01*
X141730170Y-78643057D01*
X141757900Y-78539569D01*
X141757900Y-78432430D01*
X141757900Y-76072292D01*
X141777585Y-76005253D01*
X141830389Y-75959498D01*
X141838558Y-75956113D01*
X141858357Y-75948729D01*
X141968830Y-75866030D01*
X142051529Y-75755557D01*
X142099755Y-75626259D01*
X142103370Y-75592635D01*
X142105899Y-75569118D01*
X142105900Y-75569101D01*
X142105900Y-75077298D01*
X142105899Y-75077281D01*
X142099755Y-75020144D01*
X142099755Y-75020141D01*
X142051529Y-74890843D01*
X141968830Y-74780370D01*
X141884695Y-74717387D01*
X141858359Y-74697672D01*
X141858357Y-74697671D01*
X141729059Y-74649445D01*
X141729055Y-74649444D01*
X141671918Y-74643300D01*
X141671902Y-74643300D01*
X141030098Y-74643300D01*
X141030081Y-74643300D01*
X140972944Y-74649444D01*
X140843640Y-74697672D01*
X140733170Y-74780370D01*
X140650470Y-74890843D01*
X140641681Y-74914409D01*
X140599810Y-74970343D01*
X140534345Y-74994759D01*
X140466072Y-74979907D01*
X140416667Y-74930501D01*
X140409319Y-74914409D01*
X140400529Y-74890843D01*
X140400527Y-74890840D01*
X140317830Y-74780370D01*
X140233695Y-74717387D01*
X140207359Y-74697672D01*
X140207357Y-74697671D01*
X140078059Y-74649445D01*
X140078055Y-74649444D01*
X140020918Y-74643300D01*
X140020902Y-74643300D01*
X139379098Y-74643300D01*
X139379081Y-74643300D01*
X139321944Y-74649444D01*
X139192640Y-74697672D01*
X139082170Y-74780370D01*
X138999472Y-74890840D01*
X138951244Y-75020144D01*
X138945100Y-75077281D01*
X138945100Y-75569118D01*
X138951244Y-75626255D01*
X138951244Y-75626257D01*
X138951245Y-75626259D01*
X138993360Y-75739172D01*
X138999472Y-75755559D01*
X139017833Y-75780086D01*
X139082170Y-75866030D01*
X139192643Y-75948729D01*
X139212432Y-75956109D01*
X139268365Y-75997979D01*
X139292784Y-76063443D01*
X139293100Y-76072292D01*
X139293100Y-77758094D01*
X139273415Y-77825133D01*
X139256781Y-77845775D01*
X138805775Y-78296781D01*
X138744452Y-78330266D01*
X138718094Y-78333100D01*
X138042393Y-78333100D01*
X137975354Y-78313415D01*
X137931393Y-78264371D01*
X137870777Y-78142637D01*
X137792100Y-78038452D01*
X137744584Y-77975530D01*
X137744581Y-77975527D01*
X137744578Y-77975524D01*
X137589834Y-77834457D01*
X137589832Y-77834455D01*
X137411801Y-77724223D01*
X137411795Y-77724221D01*
X137398894Y-77719223D01*
X137216537Y-77648577D01*
X137010701Y-77610100D01*
X136801299Y-77610100D01*
X136595463Y-77648577D01*
X136471981Y-77696414D01*
X136400204Y-77724221D01*
X136400198Y-77724223D01*
X136222167Y-77834455D01*
X136222165Y-77834457D01*
X136067421Y-77975524D01*
X136067418Y-77975527D01*
X135941224Y-78142635D01*
X135847890Y-78330073D01*
X135847885Y-78330086D01*
X135790579Y-78531492D01*
X135771259Y-78739999D01*
X135407900Y-78739999D01*
X135407900Y-72768206D01*
X135776100Y-72768206D01*
X135776100Y-74551793D01*
X135778815Y-74575194D01*
X135821085Y-74670923D01*
X135895076Y-74744914D01*
X135895077Y-74744914D01*
X135895079Y-74744916D01*
X135990807Y-74787185D01*
X136014210Y-74789900D01*
X136014212Y-74789900D01*
X137797788Y-74789900D01*
X137797790Y-74789900D01*
X137821193Y-74787185D01*
X137916921Y-74744916D01*
X137990916Y-74670921D01*
X138033185Y-74575193D01*
X138035900Y-74551790D01*
X138035900Y-74204100D01*
X138055585Y-74137061D01*
X138108389Y-74091306D01*
X138159900Y-74080100D01*
X138918344Y-74080100D01*
X138985383Y-74099785D01*
X139017610Y-74129788D01*
X139082170Y-74216030D01*
X139192643Y-74298729D01*
X139321941Y-74346955D01*
X139337965Y-74348677D01*
X139379081Y-74353099D01*
X139379098Y-74353100D01*
X140020902Y-74353100D01*
X140020918Y-74353099D01*
X140056692Y-74349252D01*
X140078059Y-74346955D01*
X140207357Y-74298729D01*
X140317830Y-74216030D01*
X140382389Y-74129788D01*
X140438323Y-74087918D01*
X140481656Y-74080100D01*
X140569344Y-74080100D01*
X140636383Y-74099785D01*
X140668610Y-74129788D01*
X140733170Y-74216030D01*
X140843643Y-74298729D01*
X140972941Y-74346955D01*
X140988965Y-74348677D01*
X141030081Y-74353099D01*
X141030098Y-74353100D01*
X141671902Y-74353100D01*
X141671918Y-74353099D01*
X141707692Y-74349252D01*
X141729059Y-74346955D01*
X141858357Y-74298729D01*
X141968830Y-74216030D01*
X142051529Y-74105557D01*
X142099755Y-73976259D01*
X142102052Y-73954892D01*
X142105899Y-73919118D01*
X142105900Y-73919101D01*
X142105900Y-73659999D01*
X144661259Y-73659999D01*
X144661259Y-73660000D01*
X144680579Y-73868507D01*
X144737885Y-74069913D01*
X144737890Y-74069926D01*
X144810642Y-74216030D01*
X144831224Y-74257364D01*
X144957416Y-74424470D01*
X145108052Y-74561793D01*
X145112165Y-74565542D01*
X145112167Y-74565544D01*
X145290198Y-74675776D01*
X145290199Y-74675776D01*
X145290202Y-74675778D01*
X145485463Y-74751423D01*
X145691299Y-74789900D01*
X145691301Y-74789900D01*
X145900699Y-74789900D01*
X145900701Y-74789900D01*
X146106537Y-74751423D01*
X146301798Y-74675778D01*
X146479834Y-74565543D01*
X146634584Y-74424470D01*
X146760776Y-74257364D01*
X146854114Y-74069916D01*
X146911420Y-73868508D01*
X146930741Y-73660000D01*
X146911420Y-73451492D01*
X146854114Y-73250084D01*
X146853126Y-73248100D01*
X146800120Y-73141650D01*
X146760776Y-73062636D01*
X146634584Y-72895530D01*
X146634581Y-72895527D01*
X146634578Y-72895524D01*
X146479834Y-72754457D01*
X146479832Y-72754455D01*
X146301801Y-72644223D01*
X146301795Y-72644221D01*
X146288894Y-72639223D01*
X146106537Y-72568577D01*
X145900701Y-72530100D01*
X145691299Y-72530100D01*
X145485463Y-72568577D01*
X145413177Y-72596581D01*
X145290204Y-72644221D01*
X145290198Y-72644223D01*
X145112167Y-72754455D01*
X145112165Y-72754457D01*
X144957421Y-72895524D01*
X144957418Y-72895527D01*
X144831224Y-73062635D01*
X144737890Y-73250073D01*
X144737885Y-73250086D01*
X144680579Y-73451492D01*
X144661259Y-73659999D01*
X142105900Y-73659999D01*
X142105900Y-73427298D01*
X142105899Y-73427281D01*
X142099755Y-73370144D01*
X142099755Y-73370141D01*
X142051529Y-73240843D01*
X142050962Y-73240086D01*
X142016280Y-73193756D01*
X141968830Y-73130370D01*
X141871669Y-73057636D01*
X141858359Y-73047672D01*
X141858357Y-73047671D01*
X141729059Y-72999445D01*
X141729055Y-72999444D01*
X141671918Y-72993300D01*
X141671902Y-72993300D01*
X141030098Y-72993300D01*
X141030081Y-72993300D01*
X140972944Y-72999444D01*
X140843640Y-73047672D01*
X140740211Y-73125099D01*
X140733170Y-73130370D01*
X140702134Y-73171830D01*
X140668611Y-73216611D01*
X140612677Y-73258482D01*
X140569344Y-73266300D01*
X140481656Y-73266300D01*
X140414617Y-73246615D01*
X140382389Y-73216611D01*
X140374124Y-73205570D01*
X140317830Y-73130370D01*
X140220669Y-73057636D01*
X140207359Y-73047672D01*
X140207357Y-73047671D01*
X140078059Y-72999445D01*
X140078055Y-72999444D01*
X140020918Y-72993300D01*
X140020902Y-72993300D01*
X139379098Y-72993300D01*
X139379081Y-72993300D01*
X139321944Y-72999444D01*
X139192640Y-73047672D01*
X139089211Y-73125099D01*
X139082170Y-73130370D01*
X139051134Y-73171830D01*
X139017611Y-73216611D01*
X138961677Y-73258482D01*
X138918344Y-73266300D01*
X138159900Y-73266300D01*
X138092861Y-73246615D01*
X138047106Y-73193811D01*
X138035900Y-73142300D01*
X138035900Y-72768212D01*
X138035900Y-72768210D01*
X138033185Y-72744807D01*
X137990916Y-72649079D01*
X137990914Y-72649077D01*
X137990914Y-72649076D01*
X137916923Y-72575085D01*
X137821194Y-72532815D01*
X137797793Y-72530100D01*
X137797790Y-72530100D01*
X136014210Y-72530100D01*
X136014206Y-72530100D01*
X135990805Y-72532815D01*
X135895076Y-72575085D01*
X135821085Y-72649076D01*
X135778815Y-72744805D01*
X135776100Y-72768206D01*
X135407900Y-72768206D01*
X135407900Y-72209431D01*
X135380170Y-72105943D01*
X135330865Y-72020543D01*
X135326601Y-72013157D01*
X135326600Y-72013156D01*
X135326599Y-72013154D01*
X133541651Y-70228206D01*
X144666100Y-70228206D01*
X144666100Y-72011793D01*
X144668815Y-72035194D01*
X144711085Y-72130923D01*
X144785076Y-72204914D01*
X144785077Y-72204914D01*
X144785079Y-72204916D01*
X144880807Y-72247185D01*
X144904210Y-72249900D01*
X144904212Y-72249900D01*
X146687788Y-72249900D01*
X146687790Y-72249900D01*
X146711193Y-72247185D01*
X146806921Y-72204916D01*
X146880916Y-72130921D01*
X146923185Y-72035193D01*
X146925900Y-72011790D01*
X146925900Y-70228210D01*
X146923185Y-70204807D01*
X146880916Y-70109079D01*
X146880914Y-70109077D01*
X146880914Y-70109076D01*
X146806923Y-70035085D01*
X146800835Y-70032397D01*
X146780861Y-70023577D01*
X146711194Y-69992815D01*
X146687793Y-69990100D01*
X146687790Y-69990100D01*
X144904210Y-69990100D01*
X144904206Y-69990100D01*
X144880805Y-69992815D01*
X144785076Y-70035085D01*
X144711085Y-70109076D01*
X144668815Y-70204805D01*
X144666100Y-70228206D01*
X133541651Y-70228206D01*
X133539219Y-70225774D01*
X133505734Y-70164451D01*
X133502900Y-70138093D01*
X133502900Y-59559033D01*
X133522585Y-59491994D01*
X133575389Y-59446239D01*
X133582108Y-59443406D01*
X133601790Y-59435781D01*
X133601789Y-59435781D01*
X133601798Y-59435778D01*
X133779834Y-59325543D01*
X133934584Y-59184470D01*
X134060776Y-59017364D01*
X134154114Y-58829916D01*
X134211420Y-58628508D01*
X134230741Y-58420000D01*
X134211420Y-58211492D01*
X134154114Y-58010084D01*
X134060776Y-57822636D01*
X133934584Y-57655530D01*
X133934581Y-57655527D01*
X133934578Y-57655524D01*
X133779834Y-57514457D01*
X133779832Y-57514455D01*
X133601801Y-57404223D01*
X133601795Y-57404221D01*
X133406537Y-57328577D01*
X133200701Y-57290100D01*
X132991299Y-57290100D01*
X132785463Y-57328577D01*
X132661981Y-57376414D01*
X132590204Y-57404221D01*
X132590198Y-57404223D01*
X132412167Y-57514455D01*
X132412165Y-57514457D01*
X132257421Y-57655524D01*
X132257418Y-57655527D01*
X132131224Y-57822635D01*
X132037890Y-58010073D01*
X132037885Y-58010086D01*
X131980579Y-58211492D01*
X131961259Y-58419999D01*
X131690741Y-58419999D01*
X131671420Y-58211492D01*
X131614114Y-58010084D01*
X131520776Y-57822636D01*
X131394584Y-57655530D01*
X131394581Y-57655527D01*
X131394578Y-57655524D01*
X131239834Y-57514457D01*
X131239832Y-57514455D01*
X131061801Y-57404223D01*
X131061795Y-57404221D01*
X130866537Y-57328577D01*
X130660701Y-57290100D01*
X130451299Y-57290100D01*
X130245463Y-57328577D01*
X130121981Y-57376414D01*
X130050204Y-57404221D01*
X130050198Y-57404223D01*
X129872167Y-57514455D01*
X129872165Y-57514457D01*
X129717421Y-57655524D01*
X129717418Y-57655527D01*
X129591224Y-57822635D01*
X129497890Y-58010073D01*
X129497885Y-58010086D01*
X129440579Y-58211492D01*
X129421259Y-58419999D01*
X126610741Y-58419999D01*
X126591420Y-58211492D01*
X126534114Y-58010084D01*
X126440776Y-57822636D01*
X126314584Y-57655530D01*
X126314581Y-57655527D01*
X126314578Y-57655524D01*
X126159834Y-57514457D01*
X126159832Y-57514455D01*
X125981801Y-57404223D01*
X125981795Y-57404221D01*
X125786537Y-57328577D01*
X125580701Y-57290100D01*
X125371299Y-57290100D01*
X125165463Y-57328577D01*
X125041981Y-57376414D01*
X124970204Y-57404221D01*
X124970198Y-57404223D01*
X124792167Y-57514455D01*
X124792165Y-57514457D01*
X124637421Y-57655524D01*
X124637418Y-57655527D01*
X124511224Y-57822635D01*
X124417890Y-58010073D01*
X124417885Y-58010086D01*
X124360579Y-58211492D01*
X124341259Y-58419999D01*
X124065900Y-58419999D01*
X124065900Y-57528210D01*
X124063185Y-57504807D01*
X124020916Y-57409079D01*
X124020914Y-57409077D01*
X124020914Y-57409076D01*
X123946923Y-57335085D01*
X123851194Y-57292815D01*
X123827793Y-57290100D01*
X123827790Y-57290100D01*
X122044210Y-57290100D01*
X122044206Y-57290100D01*
X122020805Y-57292815D01*
X121925076Y-57335085D01*
X121851085Y-57409076D01*
X121808815Y-57504805D01*
X121806100Y-57528206D01*
X119942922Y-57528206D01*
X121046309Y-56424819D01*
X121107632Y-56391334D01*
X121133990Y-56388500D01*
X133628010Y-56388500D01*
X133695049Y-56408185D01*
G37*
%TD.AperFunction*%
%TD*%
M02*
