%TF.GenerationSoftware,KiCad,Pcbnew,8.0.2*%
%TF.CreationDate,2024-06-10T10:52:32+02:00*%
%TF.ProjectId,Bag plane,42616720-706c-4616-9e65-2e6b69636164,rev?*%
%TF.SameCoordinates,Original*%
%TF.FileFunction,Copper,L2,Bot*%
%TF.FilePolarity,Positive*%
%FSLAX46Y46*%
G04 Gerber Fmt 4.6, Leading zero omitted, Abs format (unit mm)*
G04 Created by KiCad (PCBNEW 8.0.2) date 2024-06-10 10:52:32*
%MOMM*%
%LPD*%
G01*
G04 APERTURE LIST*
G04 Aperture macros list*
%AMRoundRect*
0 Rectangle with rounded corners*
0 $1 Rounding radius*
0 $2 $3 $4 $5 $6 $7 $8 $9 X,Y pos of 4 corners*
0 Add a 4 corners polygon primitive as box body*
4,1,4,$2,$3,$4,$5,$6,$7,$8,$9,$2,$3,0*
0 Add four circle primitives for the rounded corners*
1,1,$1+$1,$2,$3*
1,1,$1+$1,$4,$5*
1,1,$1+$1,$6,$7*
1,1,$1+$1,$8,$9*
0 Add four rect primitives between the rounded corners*
20,1,$1+$1,$2,$3,$4,$5,0*
20,1,$1+$1,$4,$5,$6,$7,0*
20,1,$1+$1,$6,$7,$8,$9,0*
20,1,$1+$1,$8,$9,$2,$3,0*%
G04 Aperture macros list end*
%TA.AperFunction,ComponentPad*%
%ADD10R,1.700000X1.700000*%
%TD*%
%TA.AperFunction,ComponentPad*%
%ADD11O,1.700000X1.700000*%
%TD*%
%TA.AperFunction,SMDPad,CuDef*%
%ADD12RoundRect,0.100000X0.100000X-0.225000X0.100000X0.225000X-0.100000X0.225000X-0.100000X-0.225000X0*%
%TD*%
%TA.AperFunction,SMDPad,CuDef*%
%ADD13RoundRect,0.225000X0.225000X0.250000X-0.225000X0.250000X-0.225000X-0.250000X0.225000X-0.250000X0*%
%TD*%
%TA.AperFunction,SMDPad,CuDef*%
%ADD14RoundRect,0.100000X-0.225000X-0.100000X0.225000X-0.100000X0.225000X0.100000X-0.225000X0.100000X0*%
%TD*%
%TA.AperFunction,SMDPad,CuDef*%
%ADD15RoundRect,0.225000X-0.250000X0.225000X-0.250000X-0.225000X0.250000X-0.225000X0.250000X0.225000X0*%
%TD*%
%TA.AperFunction,SMDPad,CuDef*%
%ADD16RoundRect,0.225000X-0.225000X-0.250000X0.225000X-0.250000X0.225000X0.250000X-0.225000X0.250000X0*%
%TD*%
%TA.AperFunction,SMDPad,CuDef*%
%ADD17RoundRect,0.225000X0.250000X-0.225000X0.250000X0.225000X-0.250000X0.225000X-0.250000X-0.225000X0*%
%TD*%
%TA.AperFunction,Conductor*%
%ADD18C,0.254000*%
%TD*%
G04 APERTURE END LIST*
D10*
%TO.P,J7,1,Pin_1*%
%TO.N,/VCC J7*%
X145796000Y-71120000D03*
D11*
%TO.P,J7,2,Pin_2*%
%TO.N,unconnected-(J7-Pin_2-Pad2)*%
X145796000Y-73660000D03*
%TO.P,J7,3,Pin_3*%
%TO.N,GND*%
X145796000Y-76200000D03*
%TO.P,J7,4,Pin_4*%
%TO.N,/SDA*%
X145796000Y-78740000D03*
%TO.P,J7,5,Pin_5*%
%TO.N,/SCL*%
X145796000Y-81280000D03*
%TD*%
D10*
%TO.P,J2,1,Pin_1*%
%TO.N,/VCC J2*%
X110236000Y-81275000D03*
D11*
%TO.P,J2,2,Pin_2*%
%TO.N,unconnected-(J2-Pin_2-Pad2)*%
X110236000Y-78735000D03*
%TO.P,J2,3,Pin_3*%
%TO.N,GND*%
X110236000Y-76195000D03*
%TO.P,J2,4,Pin_4*%
%TO.N,/SDA*%
X110236000Y-73655000D03*
%TO.P,J2,5,Pin_5*%
%TO.N,/SCL*%
X110236000Y-71115000D03*
%TD*%
D10*
%TO.P,J4,1,Pin_1*%
%TO.N,/VCC*%
X129032000Y-73660000D03*
D11*
%TO.P,J4,2,Pin_2*%
%TO.N,GND*%
X129032000Y-76200000D03*
%TO.P,J4,3,Pin_3*%
%TO.N,/SDA*%
X129032000Y-78740000D03*
%TO.P,J4,4,Pin_4*%
%TO.N,/SCL*%
X129032000Y-81280000D03*
%TD*%
D10*
%TO.P,J5,1,Pin_1*%
%TO.N,/VCC*%
X133096000Y-73670000D03*
D11*
%TO.P,J5,2,Pin_2*%
%TO.N,GND*%
X133096000Y-76210000D03*
%TO.P,J5,3,Pin_3*%
%TO.N,/SDA*%
X133096000Y-78750000D03*
%TO.P,J5,4,Pin_4*%
%TO.N,/SCL*%
X133096000Y-81290000D03*
%TD*%
D10*
%TO.P,J6,1,Pin_1*%
%TO.N,/VCC*%
X136906000Y-73660000D03*
D11*
%TO.P,J6,2,Pin_2*%
%TO.N,GND*%
X136906000Y-76200000D03*
%TO.P,J6,3,Pin_3*%
%TO.N,/SDA*%
X136906000Y-78740000D03*
%TO.P,J6,4,Pin_4*%
%TO.N,/SCL*%
X136906000Y-81280000D03*
%TD*%
D10*
%TO.P,J9,1,Pin_1*%
%TO.N,4*%
X119888000Y-81270000D03*
D11*
%TO.P,J9,2,Pin_2*%
%TO.N,3*%
X119888000Y-78730000D03*
%TO.P,J9,3,Pin_3*%
%TO.N,2*%
X119888000Y-76190000D03*
%TO.P,J9,4,Pin_4*%
%TO.N,1*%
X119888000Y-73650000D03*
%TD*%
D10*
%TO.P,J1,1,Pin_1*%
%TO.N,/VCC J1*%
X122936000Y-58420000D03*
D11*
%TO.P,J1,2,Pin_2*%
%TO.N,unconnected-(J1-Pin_2-Pad2)*%
X125476000Y-58420000D03*
%TO.P,J1,3,Pin_3*%
%TO.N,GND*%
X128016000Y-58420000D03*
%TO.P,J1,4,Pin_4*%
%TO.N,/SDA*%
X130556000Y-58420000D03*
%TO.P,J1,5,Pin_5*%
%TO.N,/SCL*%
X133096000Y-58420000D03*
%TD*%
D10*
%TO.P,J3,1,Pin_1*%
%TO.N,/VCC*%
X124714000Y-73660000D03*
D11*
%TO.P,J3,2,Pin_2*%
%TO.N,GND*%
X124714000Y-76200000D03*
%TO.P,J3,3,Pin_3*%
%TO.N,/SDA*%
X124714000Y-78740000D03*
%TO.P,J3,4,Pin_4*%
%TO.N,/SCL*%
X124714000Y-81280000D03*
%TD*%
D10*
%TO.P,J8,1,Pin_1*%
%TO.N,/VCC J8*%
X133096000Y-93980000D03*
D11*
%TO.P,J8,2,Pin_2*%
%TO.N,unconnected-(J8-Pin_2-Pad2)*%
X130556000Y-93980000D03*
%TO.P,J8,3,Pin_3*%
%TO.N,GND*%
X128016000Y-93980000D03*
%TO.P,J8,4,Pin_4*%
%TO.N,/SDA*%
X125476000Y-93980000D03*
%TO.P,J8,5,Pin_5*%
%TO.N,/SCL*%
X122936000Y-93980000D03*
%TD*%
D12*
%TO.P,U4,1,OUT*%
%TO.N,/VCC J2*%
X116220000Y-79436000D03*
%TO.P,U4,2,GND*%
%TO.N,GND*%
X115570000Y-79436000D03*
%TO.P,U4,3,EN*%
%TO.N,2*%
X114920000Y-79436000D03*
%TO.P,U4,4,IN*%
%TO.N,/VCC*%
X114920000Y-77536000D03*
%TO.P,U4,5,GND*%
%TO.N,GND*%
X115570000Y-77536000D03*
%TO.P,U4,6,N/C*%
%TO.N,unconnected-(U4-N{slash}C-Pad6)*%
X116220000Y-77536000D03*
%TD*%
D13*
%TO.P,C2,1*%
%TO.N,/VCC J2*%
X116599000Y-81407000D03*
%TO.P,C2,2*%
%TO.N,GND*%
X115049000Y-81407000D03*
%TD*%
D12*
%TO.P,U2,1,OUT*%
%TO.N,/VCC J7*%
X142748000Y-75372000D03*
%TO.P,U2,2,GND*%
%TO.N,GND*%
X142098000Y-75372000D03*
%TO.P,U2,3,EN*%
%TO.N,3*%
X141448000Y-75372000D03*
%TO.P,U2,4,IN*%
%TO.N,/VCC*%
X141448000Y-73472000D03*
%TO.P,U2,5,GND*%
%TO.N,GND*%
X142098000Y-73472000D03*
%TO.P,U2,6,N/C*%
%TO.N,unconnected-(U2-N{slash}C-Pad6)*%
X142748000Y-73472000D03*
%TD*%
D14*
%TO.P,U1,1,OUT*%
%TO.N,/VCC J8*%
X129418000Y-90820000D03*
%TO.P,U1,2,GND*%
%TO.N,GND*%
X129418000Y-90170000D03*
%TO.P,U1,3,EN*%
%TO.N,4*%
X129418000Y-89520000D03*
%TO.P,U1,4,IN*%
%TO.N,/VCC*%
X131318000Y-89520000D03*
%TO.P,U1,5,GND*%
%TO.N,GND*%
X131318000Y-90170000D03*
%TO.P,U1,6,N/C*%
%TO.N,unconnected-(U1-N{slash}C-Pad6)*%
X131318000Y-90820000D03*
%TD*%
D13*
%TO.P,C7,1*%
%TO.N,GND*%
X116091000Y-75184000D03*
%TO.P,C7,2*%
%TO.N,/VCC*%
X114541000Y-75184000D03*
%TD*%
D15*
%TO.P,C5,1*%
%TO.N,/VCC*%
X129540000Y-61963000D03*
%TO.P,C5,2*%
%TO.N,GND*%
X129540000Y-63513000D03*
%TD*%
D14*
%TO.P,U3,1,OUT*%
%TO.N,/VCC J1*%
X125288000Y-63134000D03*
%TO.P,U3,2,GND*%
%TO.N,GND*%
X125288000Y-62484000D03*
%TO.P,U3,3,EN*%
%TO.N,1*%
X125288000Y-61834000D03*
%TO.P,U3,4,IN*%
%TO.N,/VCC*%
X127188000Y-61834000D03*
%TO.P,U3,5,GND*%
%TO.N,GND*%
X127188000Y-62484000D03*
%TO.P,U3,6,N/C*%
%TO.N,unconnected-(U3-N{slash}C-Pad6)*%
X127188000Y-63134000D03*
%TD*%
D16*
%TO.P,C4,1*%
%TO.N,GND*%
X141719000Y-77470000D03*
%TO.P,C4,2*%
%TO.N,/VCC J7*%
X143269000Y-77470000D03*
%TD*%
D15*
%TO.P,C3,1*%
%TO.N,GND*%
X127320000Y-89636000D03*
%TO.P,C3,2*%
%TO.N,/VCC J8*%
X127320000Y-91186000D03*
%TD*%
D17*
%TO.P,C1,1*%
%TO.N,/VCC J1*%
X123190000Y-63259000D03*
%TO.P,C1,2*%
%TO.N,GND*%
X123190000Y-61709000D03*
%TD*%
D15*
%TO.P,C6,1*%
%TO.N,/VCC*%
X133416000Y-89141000D03*
%TO.P,C6,2*%
%TO.N,GND*%
X133416000Y-90691000D03*
%TD*%
D13*
%TO.P,C8,1*%
%TO.N,GND*%
X142761000Y-71120000D03*
%TO.P,C8,2*%
%TO.N,/VCC*%
X141211000Y-71120000D03*
%TD*%
D18*
%TO.N,/VCC*%
X134112000Y-85598000D02*
X147574000Y-85598000D01*
X138176000Y-73660000D02*
X139065000Y-72771000D01*
X147574000Y-85598000D02*
X149098000Y-84074000D01*
X114920000Y-76566000D02*
X114920000Y-77536000D01*
X136906000Y-73660000D02*
X138176000Y-73660000D01*
X129032000Y-73660000D02*
X133086000Y-73660000D01*
X139065000Y-71882000D02*
X139827000Y-71120000D01*
X132667000Y-89141000D02*
X132288000Y-89520000D01*
X124714000Y-71882000D02*
X123444000Y-70612000D01*
X124714000Y-73660000D02*
X129032000Y-73660000D01*
X114541000Y-72149000D02*
X114541000Y-75184000D01*
X114541000Y-75184000D02*
X114541000Y-76187000D01*
X128382000Y-61834000D02*
X127188000Y-61834000D01*
X139827000Y-71120000D02*
X141211000Y-71120000D01*
X116078000Y-70612000D02*
X114541000Y-72149000D01*
X128511000Y-61963000D02*
X128382000Y-61834000D01*
X141211000Y-71120000D02*
X141211000Y-72504000D01*
X133086000Y-73660000D02*
X133096000Y-73670000D01*
X141211000Y-72504000D02*
X141448000Y-72741000D01*
X133416000Y-89141000D02*
X133416000Y-86294000D01*
X114541000Y-76187000D02*
X114920000Y-76566000D01*
X139065000Y-72771000D02*
X139065000Y-71882000D01*
X133096000Y-73670000D02*
X133340000Y-73670000D01*
X132288000Y-89520000D02*
X131318000Y-89520000D01*
X141211000Y-68847000D02*
X141211000Y-71120000D01*
X133416000Y-89141000D02*
X132667000Y-89141000D01*
X124714000Y-73660000D02*
X124714000Y-71882000D01*
X131051000Y-61963000D02*
X133096000Y-64008000D01*
X141448000Y-72741000D02*
X141448000Y-73472000D01*
X123444000Y-70612000D02*
X116078000Y-70612000D01*
X129540000Y-61963000D02*
X128511000Y-61963000D01*
X142240000Y-67818000D02*
X141211000Y-68847000D01*
X133340000Y-73670000D02*
X133350000Y-73660000D01*
X133096000Y-64008000D02*
X133096000Y-73670000D01*
X149098000Y-84074000D02*
X149098000Y-69088000D01*
X149098000Y-69088000D02*
X147828000Y-67818000D01*
X133350000Y-73660000D02*
X136906000Y-73660000D01*
X147828000Y-67818000D02*
X142240000Y-67818000D01*
X129540000Y-61963000D02*
X131051000Y-61963000D01*
X133416000Y-86294000D02*
X134112000Y-85598000D01*
%TO.N,/SDA*%
X124714000Y-78740000D02*
X129032000Y-78740000D01*
X129032000Y-78740000D02*
X133086000Y-78740000D01*
X133086000Y-78740000D02*
X133096000Y-78750000D01*
X136896000Y-78750000D02*
X136906000Y-78740000D01*
X145796000Y-78740000D02*
X136906000Y-78740000D01*
X133096000Y-78750000D02*
X136896000Y-78750000D01*
%TO.N,/SCL*%
X136896000Y-81290000D02*
X136906000Y-81280000D01*
X136906000Y-81280000D02*
X145796000Y-81280000D01*
X124714000Y-81280000D02*
X129032000Y-81280000D01*
X133086000Y-81280000D02*
X133096000Y-81290000D01*
X129032000Y-81280000D02*
X133086000Y-81280000D01*
X133096000Y-81290000D02*
X136896000Y-81290000D01*
%TO.N,3*%
X147701000Y-83312000D02*
X146812000Y-84201000D01*
X141448000Y-75372000D02*
X141448000Y-74722000D01*
X143637000Y-69977000D02*
X144526000Y-69088000D01*
X122174000Y-79375000D02*
X121529000Y-78730000D01*
X144526000Y-69088000D02*
X146939000Y-69088000D01*
X141680000Y-74490000D02*
X143440000Y-74490000D01*
X143637000Y-74293000D02*
X143637000Y-69977000D01*
X123317000Y-84201000D02*
X122174000Y-83058000D01*
X121529000Y-78730000D02*
X119888000Y-78730000D01*
X122174000Y-83058000D02*
X122174000Y-79375000D01*
X141448000Y-74722000D02*
X141680000Y-74490000D01*
X146812000Y-84201000D02*
X123317000Y-84201000D01*
X146939000Y-69088000D02*
X147701000Y-69850000D01*
X143440000Y-74490000D02*
X143637000Y-74293000D01*
X147701000Y-69850000D02*
X147701000Y-83312000D01*
%TO.N,2*%
X117221000Y-73406000D02*
X118618000Y-72009000D01*
X121666000Y-76200000D02*
X121656000Y-76190000D01*
X122174000Y-73279000D02*
X122174000Y-75692000D01*
X118618000Y-72009000D02*
X120904000Y-72009000D01*
X115189000Y-78486000D02*
X116840000Y-78486000D01*
X116840000Y-78486000D02*
X117221000Y-78105000D01*
X121656000Y-76190000D02*
X119888000Y-76190000D01*
X114920000Y-79436000D02*
X114920000Y-78755000D01*
X114920000Y-78755000D02*
X115189000Y-78486000D01*
X117221000Y-78105000D02*
X117221000Y-73406000D01*
X120904000Y-72009000D02*
X122174000Y-73279000D01*
X122174000Y-75692000D02*
X121666000Y-76200000D01*
%TO.N,1*%
X117856000Y-74041000D02*
X118247000Y-73650000D01*
X116332000Y-83439000D02*
X117856000Y-81915000D01*
X109220000Y-83439000D02*
X116332000Y-83439000D01*
X125288000Y-61834000D02*
X125842000Y-61834000D01*
X117856000Y-81915000D02*
X117856000Y-74041000D01*
X109093000Y-69215000D02*
X108331000Y-69977000D01*
X118247000Y-73650000D02*
X119888000Y-73650000D01*
X125222000Y-69215000D02*
X109093000Y-69215000D01*
X108331000Y-69977000D02*
X108331000Y-82550000D01*
X126238000Y-62230000D02*
X126238000Y-68199000D01*
X108331000Y-82550000D02*
X109220000Y-83439000D01*
X126238000Y-68199000D02*
X125222000Y-69215000D01*
X125842000Y-61834000D02*
X126238000Y-62230000D01*
%TO.N,4*%
X129418000Y-87254000D02*
X128778000Y-86614000D01*
X120650000Y-86614000D02*
X119888000Y-85852000D01*
X119888000Y-85852000D02*
X119888000Y-81270000D01*
X129418000Y-89520000D02*
X129418000Y-87254000D01*
X128778000Y-86614000D02*
X120650000Y-86614000D01*
%TO.N,/VCC J1*%
X125288000Y-63134000D02*
X124445000Y-63134000D01*
X124445000Y-63134000D02*
X124320000Y-63259000D01*
X124320000Y-63259000D02*
X123190000Y-63259000D01*
X123190000Y-63259000D02*
X122314000Y-63259000D01*
X121920000Y-62865000D02*
X121920000Y-60706000D01*
X121920000Y-60706000D02*
X122936000Y-59690000D01*
X122314000Y-63259000D02*
X121920000Y-62865000D01*
X122936000Y-59690000D02*
X122936000Y-58420000D01*
%TO.N,/VCC J2*%
X116599000Y-82156000D02*
X116078000Y-82677000D01*
X116220000Y-79436000D02*
X116220000Y-80025000D01*
X113919000Y-82677000D02*
X112517000Y-81275000D01*
X112517000Y-81275000D02*
X110236000Y-81275000D01*
X116599000Y-80404000D02*
X116599000Y-81407000D01*
X116078000Y-82677000D02*
X113919000Y-82677000D01*
X116220000Y-80025000D02*
X116599000Y-80404000D01*
X116599000Y-81407000D02*
X116599000Y-82156000D01*
%TO.N,/VCC J8*%
X128082000Y-91186000D02*
X128448000Y-90820000D01*
X132588000Y-91694000D02*
X133096000Y-92202000D01*
X133096000Y-92202000D02*
X133096000Y-93980000D01*
X129418000Y-90820000D02*
X129936000Y-90820000D01*
X129936000Y-90820000D02*
X130810000Y-91694000D01*
X127320000Y-91186000D02*
X128082000Y-91186000D01*
X130810000Y-91694000D02*
X132588000Y-91694000D01*
X128448000Y-90820000D02*
X129418000Y-90820000D01*
%TO.N,/VCC J7*%
X144272000Y-71501000D02*
X144653000Y-71120000D01*
X142748000Y-76327000D02*
X142748000Y-75372000D01*
X143269000Y-76848000D02*
X142748000Y-76327000D01*
X143269000Y-77470000D02*
X143269000Y-76848000D01*
X142748000Y-75372000D02*
X143830000Y-75372000D01*
X144653000Y-71120000D02*
X145796000Y-71120000D01*
X143830000Y-75372000D02*
X144272000Y-74930000D01*
X144272000Y-74930000D02*
X144272000Y-71501000D01*
%TD*%
%TA.AperFunction,Conductor*%
%TO.N,GND*%
G36*
X133695049Y-56408185D02*
G01*
X133715691Y-56424819D01*
X135345181Y-58054309D01*
X135378666Y-58115632D01*
X135381500Y-58141990D01*
X135381500Y-65122944D01*
X135416153Y-65252275D01*
X135449626Y-65310250D01*
X135483099Y-65368227D01*
X137577773Y-67462901D01*
X137577776Y-67462902D01*
X137577779Y-67462905D01*
X137628863Y-67492398D01*
X137628864Y-67492399D01*
X137628865Y-67492399D01*
X137693726Y-67529847D01*
X137823055Y-67564500D01*
X141618694Y-67564500D01*
X141685733Y-67584185D01*
X141731488Y-67636989D01*
X141741432Y-67706147D01*
X141712407Y-67769703D01*
X141706375Y-67776181D01*
X140885400Y-68597155D01*
X140885396Y-68597160D01*
X140831829Y-68689941D01*
X140831830Y-68689941D01*
X140831830Y-68689942D01*
X140804100Y-68793431D01*
X140804100Y-70314569D01*
X140784415Y-70381608D01*
X140747724Y-70415769D01*
X140748638Y-70416989D01*
X140625308Y-70509311D01*
X140538305Y-70625536D01*
X140538301Y-70625542D01*
X140535731Y-70632435D01*
X140493859Y-70688368D01*
X140428395Y-70712784D01*
X140419550Y-70713100D01*
X139880570Y-70713100D01*
X139773430Y-70713100D01*
X139704438Y-70731586D01*
X139669942Y-70740830D01*
X139577157Y-70794398D01*
X138739398Y-71632157D01*
X138685828Y-71724945D01*
X138681233Y-71742098D01*
X138681233Y-71742100D01*
X138659226Y-71824231D01*
X138658100Y-71828432D01*
X138658100Y-72551094D01*
X138638415Y-72618133D01*
X138621781Y-72638775D01*
X138247581Y-73012975D01*
X138186258Y-73046460D01*
X138116566Y-73041476D01*
X138060633Y-72999604D01*
X138036216Y-72934140D01*
X138035900Y-72925294D01*
X138035900Y-72768212D01*
X138035900Y-72768210D01*
X138033185Y-72744807D01*
X137990916Y-72649079D01*
X137990914Y-72649077D01*
X137990914Y-72649076D01*
X137916923Y-72575085D01*
X137821194Y-72532815D01*
X137797793Y-72530100D01*
X137797790Y-72530100D01*
X136014210Y-72530100D01*
X136014206Y-72530100D01*
X135990805Y-72532815D01*
X135895076Y-72575085D01*
X135821085Y-72649076D01*
X135778815Y-72744805D01*
X135776100Y-72768206D01*
X135776100Y-73129100D01*
X135756415Y-73196139D01*
X135703611Y-73241894D01*
X135652100Y-73253100D01*
X134349900Y-73253100D01*
X134282861Y-73233415D01*
X134237106Y-73180611D01*
X134225900Y-73129100D01*
X134225900Y-72778212D01*
X134225900Y-72778210D01*
X134223185Y-72754807D01*
X134180916Y-72659079D01*
X134180914Y-72659077D01*
X134180914Y-72659076D01*
X134106923Y-72585085D01*
X134104334Y-72583942D01*
X134069537Y-72568577D01*
X134011194Y-72542815D01*
X133987793Y-72540100D01*
X133987790Y-72540100D01*
X133626900Y-72540100D01*
X133559861Y-72520415D01*
X133514106Y-72467611D01*
X133502900Y-72416100D01*
X133502900Y-63954430D01*
X133496808Y-63931697D01*
X133496807Y-63931695D01*
X133496807Y-63931694D01*
X133475170Y-63850943D01*
X133421601Y-63758157D01*
X131300843Y-61637399D01*
X131208058Y-61583830D01*
X131208059Y-61583830D01*
X131182186Y-61576897D01*
X131104570Y-61556100D01*
X131104569Y-61556100D01*
X131104567Y-61556100D01*
X130345430Y-61556100D01*
X130278391Y-61536415D01*
X130244231Y-61499724D01*
X130243011Y-61500638D01*
X130150690Y-61377309D01*
X130073351Y-61319415D01*
X130034461Y-61290303D01*
X130034458Y-61290301D01*
X130034455Y-61290300D01*
X129898434Y-61239566D01*
X129898429Y-61239565D01*
X129838310Y-61233100D01*
X129838294Y-61233100D01*
X129241706Y-61233100D01*
X129241689Y-61233100D01*
X129181570Y-61239565D01*
X129181565Y-61239566D01*
X129045544Y-61290300D01*
X129045536Y-61290305D01*
X128929309Y-61377309D01*
X128836989Y-61500638D01*
X128835445Y-61499482D01*
X128794000Y-61540931D01*
X128734570Y-61556100D01*
X128730906Y-61556100D01*
X128663867Y-61536415D01*
X128643225Y-61519781D01*
X128631844Y-61508400D01*
X128631843Y-61508399D01*
X128539058Y-61454830D01*
X128539059Y-61454830D01*
X128513186Y-61447897D01*
X128435570Y-61427100D01*
X128435569Y-61427100D01*
X128435567Y-61427100D01*
X127678901Y-61427100D01*
X127624440Y-61414500D01*
X127522897Y-61364858D01*
X127449055Y-61354100D01*
X127449054Y-61354100D01*
X126926946Y-61354100D01*
X126926945Y-61354100D01*
X126853102Y-61364858D01*
X126739195Y-61420544D01*
X126649544Y-61510195D01*
X126621806Y-61566935D01*
X126574678Y-61618517D01*
X126509753Y-61636472D01*
X126269361Y-61635206D01*
X126202426Y-61615169D01*
X126182333Y-61598889D01*
X126091844Y-61508400D01*
X126091843Y-61508399D01*
X125999058Y-61454830D01*
X125999059Y-61454830D01*
X125973186Y-61447897D01*
X125895570Y-61427100D01*
X125895569Y-61427100D01*
X125895567Y-61427100D01*
X125778901Y-61427100D01*
X125724440Y-61414500D01*
X125622897Y-61364858D01*
X125549055Y-61354100D01*
X125549054Y-61354100D01*
X125026946Y-61354100D01*
X125026945Y-61354100D01*
X124953102Y-61364858D01*
X124839195Y-61420544D01*
X124749544Y-61510195D01*
X124693858Y-61624102D01*
X124683100Y-61697945D01*
X124683100Y-61970054D01*
X124693858Y-62043897D01*
X124749544Y-62157804D01*
X124839195Y-62247455D01*
X124953102Y-62303141D01*
X125026945Y-62313900D01*
X125026946Y-62313900D01*
X125156000Y-62313900D01*
X125223039Y-62333585D01*
X125268794Y-62386389D01*
X125280000Y-62437900D01*
X125280000Y-62530100D01*
X125260315Y-62597139D01*
X125207511Y-62642894D01*
X125156000Y-62654100D01*
X125026945Y-62654100D01*
X124953102Y-62664858D01*
X124851560Y-62714500D01*
X124797099Y-62727100D01*
X124498570Y-62727100D01*
X124391431Y-62727100D01*
X124313815Y-62747897D01*
X124287942Y-62754830D01*
X124195157Y-62808398D01*
X124195155Y-62808400D01*
X124187775Y-62815781D01*
X124126452Y-62849266D01*
X124100094Y-62852100D01*
X123995430Y-62852100D01*
X123928391Y-62832415D01*
X123894231Y-62795724D01*
X123893011Y-62796638D01*
X123800690Y-62673309D01*
X123698936Y-62597139D01*
X123684461Y-62586303D01*
X123684458Y-62586301D01*
X123684455Y-62586300D01*
X123548434Y-62535566D01*
X123548429Y-62535565D01*
X123488310Y-62529100D01*
X123488294Y-62529100D01*
X122891706Y-62529100D01*
X122891689Y-62529100D01*
X122831570Y-62535565D01*
X122831565Y-62535566D01*
X122695544Y-62586300D01*
X122695536Y-62586305D01*
X122579310Y-62673308D01*
X122550167Y-62712240D01*
X122494233Y-62754111D01*
X122424542Y-62759095D01*
X122363219Y-62725610D01*
X122329734Y-62664287D01*
X122326900Y-62637929D01*
X122326900Y-60925906D01*
X122346585Y-60858867D01*
X122363219Y-60838225D01*
X122745289Y-60456155D01*
X123261601Y-59939843D01*
X123315170Y-59847058D01*
X123342900Y-59743570D01*
X123342900Y-59673900D01*
X123362585Y-59606861D01*
X123415389Y-59561106D01*
X123466900Y-59549900D01*
X123827788Y-59549900D01*
X123827790Y-59549900D01*
X123851193Y-59547185D01*
X123946921Y-59504916D01*
X124020916Y-59430921D01*
X124063185Y-59335193D01*
X124065900Y-59311790D01*
X124065900Y-58419999D01*
X124341259Y-58419999D01*
X124341259Y-58420000D01*
X124360579Y-58628507D01*
X124417885Y-58829913D01*
X124417890Y-58829926D01*
X124511224Y-59017364D01*
X124637418Y-59184472D01*
X124637421Y-59184475D01*
X124792165Y-59325542D01*
X124792167Y-59325544D01*
X124970198Y-59435776D01*
X124970199Y-59435776D01*
X124970202Y-59435778D01*
X125165463Y-59511423D01*
X125371299Y-59549900D01*
X125371301Y-59549900D01*
X125580699Y-59549900D01*
X125580701Y-59549900D01*
X125786537Y-59511423D01*
X125981798Y-59435778D01*
X126159834Y-59325543D01*
X126314584Y-59184470D01*
X126440776Y-59017364D01*
X126534114Y-58829916D01*
X126591420Y-58628508D01*
X126610741Y-58420000D01*
X126610741Y-58419999D01*
X129421259Y-58419999D01*
X129421259Y-58420000D01*
X129440579Y-58628507D01*
X129497885Y-58829913D01*
X129497890Y-58829926D01*
X129591224Y-59017364D01*
X129717418Y-59184472D01*
X129717421Y-59184475D01*
X129872165Y-59325542D01*
X129872167Y-59325544D01*
X130050198Y-59435776D01*
X130050199Y-59435776D01*
X130050202Y-59435778D01*
X130245463Y-59511423D01*
X130451299Y-59549900D01*
X130451301Y-59549900D01*
X130660699Y-59549900D01*
X130660701Y-59549900D01*
X130866537Y-59511423D01*
X131061798Y-59435778D01*
X131239834Y-59325543D01*
X131394584Y-59184470D01*
X131520776Y-59017364D01*
X131614114Y-58829916D01*
X131671420Y-58628508D01*
X131690741Y-58420000D01*
X131690741Y-58419999D01*
X131961259Y-58419999D01*
X131961259Y-58420000D01*
X131980579Y-58628507D01*
X132037885Y-58829913D01*
X132037890Y-58829926D01*
X132131224Y-59017364D01*
X132257418Y-59184472D01*
X132257421Y-59184475D01*
X132412165Y-59325542D01*
X132412167Y-59325544D01*
X132590198Y-59435776D01*
X132590199Y-59435776D01*
X132590202Y-59435778D01*
X132785463Y-59511423D01*
X132991299Y-59549900D01*
X132991301Y-59549900D01*
X133200699Y-59549900D01*
X133200701Y-59549900D01*
X133406537Y-59511423D01*
X133601798Y-59435778D01*
X133779834Y-59325543D01*
X133934584Y-59184470D01*
X134060776Y-59017364D01*
X134154114Y-58829916D01*
X134211420Y-58628508D01*
X134230741Y-58420000D01*
X134211420Y-58211492D01*
X134154114Y-58010084D01*
X134060776Y-57822636D01*
X133934584Y-57655530D01*
X133934581Y-57655527D01*
X133934578Y-57655524D01*
X133779834Y-57514457D01*
X133779832Y-57514455D01*
X133601801Y-57404223D01*
X133601795Y-57404221D01*
X133406537Y-57328577D01*
X133200701Y-57290100D01*
X132991299Y-57290100D01*
X132785463Y-57328577D01*
X132661981Y-57376414D01*
X132590204Y-57404221D01*
X132590198Y-57404223D01*
X132412167Y-57514455D01*
X132412165Y-57514457D01*
X132257421Y-57655524D01*
X132257418Y-57655527D01*
X132131224Y-57822635D01*
X132037890Y-58010073D01*
X132037885Y-58010086D01*
X131980579Y-58211492D01*
X131961259Y-58419999D01*
X131690741Y-58419999D01*
X131671420Y-58211492D01*
X131614114Y-58010084D01*
X131520776Y-57822636D01*
X131394584Y-57655530D01*
X131394581Y-57655527D01*
X131394578Y-57655524D01*
X131239834Y-57514457D01*
X131239832Y-57514455D01*
X131061801Y-57404223D01*
X131061795Y-57404221D01*
X130866537Y-57328577D01*
X130660701Y-57290100D01*
X130451299Y-57290100D01*
X130245463Y-57328577D01*
X130121981Y-57376414D01*
X130050204Y-57404221D01*
X130050198Y-57404223D01*
X129872167Y-57514455D01*
X129872165Y-57514457D01*
X129717421Y-57655524D01*
X129717418Y-57655527D01*
X129591224Y-57822635D01*
X129497890Y-58010073D01*
X129497885Y-58010086D01*
X129440579Y-58211492D01*
X129421259Y-58419999D01*
X126610741Y-58419999D01*
X126591420Y-58211492D01*
X126534114Y-58010084D01*
X126440776Y-57822636D01*
X126314584Y-57655530D01*
X126314581Y-57655527D01*
X126314578Y-57655524D01*
X126159834Y-57514457D01*
X126159832Y-57514455D01*
X125981801Y-57404223D01*
X125981795Y-57404221D01*
X125786537Y-57328577D01*
X125580701Y-57290100D01*
X125371299Y-57290100D01*
X125165463Y-57328577D01*
X125041981Y-57376414D01*
X124970204Y-57404221D01*
X124970198Y-57404223D01*
X124792167Y-57514455D01*
X124792165Y-57514457D01*
X124637421Y-57655524D01*
X124637418Y-57655527D01*
X124511224Y-57822635D01*
X124417890Y-58010073D01*
X124417885Y-58010086D01*
X124360579Y-58211492D01*
X124341259Y-58419999D01*
X124065900Y-58419999D01*
X124065900Y-57528210D01*
X124063185Y-57504807D01*
X124020916Y-57409079D01*
X124020914Y-57409077D01*
X124020914Y-57409076D01*
X123946923Y-57335085D01*
X123851194Y-57292815D01*
X123827793Y-57290100D01*
X123827790Y-57290100D01*
X122044210Y-57290100D01*
X122044206Y-57290100D01*
X122020805Y-57292815D01*
X121925076Y-57335085D01*
X121851085Y-57409076D01*
X121808815Y-57504805D01*
X121806100Y-57528206D01*
X121806100Y-59311793D01*
X121808815Y-59335194D01*
X121851085Y-59430923D01*
X121925076Y-59504914D01*
X121925077Y-59504914D01*
X121925079Y-59504916D01*
X122020807Y-59547185D01*
X122044210Y-59549900D01*
X122201294Y-59549900D01*
X122268333Y-59569585D01*
X122314088Y-59622389D01*
X122324032Y-59691547D01*
X122295007Y-59755103D01*
X122288975Y-59761581D01*
X121594400Y-60456155D01*
X121594396Y-60456160D01*
X121540829Y-60548941D01*
X121540830Y-60548941D01*
X121540830Y-60548942D01*
X121513100Y-60652431D01*
X121513100Y-62918567D01*
X121513099Y-62918567D01*
X121513100Y-62918570D01*
X121540830Y-63022058D01*
X121594399Y-63114843D01*
X122064157Y-63584601D01*
X122156942Y-63638170D01*
X122260430Y-63665900D01*
X122260431Y-63665900D01*
X122384570Y-63665900D01*
X122451609Y-63685585D01*
X122485768Y-63722275D01*
X122486989Y-63721362D01*
X122579309Y-63844690D01*
X122637203Y-63888027D01*
X122695539Y-63931697D01*
X122695543Y-63931698D01*
X122695544Y-63931699D01*
X122831565Y-63982433D01*
X122831568Y-63982433D01*
X122831572Y-63982435D01*
X122860833Y-63985580D01*
X122891689Y-63988899D01*
X122891706Y-63988900D01*
X123488294Y-63988900D01*
X123488310Y-63988899D01*
X123515157Y-63986011D01*
X123548428Y-63982435D01*
X123548432Y-63982433D01*
X123548434Y-63982433D01*
X123623512Y-63954430D01*
X123684461Y-63931697D01*
X123800690Y-63844690D01*
X123887697Y-63728461D01*
X123887697Y-63728460D01*
X123893011Y-63721362D01*
X123894554Y-63722517D01*
X123936000Y-63681069D01*
X123995430Y-63665900D01*
X124373567Y-63665900D01*
X124373570Y-63665900D01*
X124477058Y-63638170D01*
X124569843Y-63584601D01*
X124577225Y-63577219D01*
X124638548Y-63543734D01*
X124664906Y-63540900D01*
X124797099Y-63540900D01*
X124851560Y-63553500D01*
X124953102Y-63603141D01*
X125026945Y-63613900D01*
X125026946Y-63613900D01*
X125549055Y-63613900D01*
X125567515Y-63611210D01*
X125622898Y-63603141D01*
X125652640Y-63588600D01*
X125721511Y-63576841D01*
X125785808Y-63604183D01*
X125825116Y-63661947D01*
X125831100Y-63700001D01*
X125831100Y-67979094D01*
X125811415Y-68046133D01*
X125794781Y-68066775D01*
X125089775Y-68771781D01*
X125028452Y-68805266D01*
X125002094Y-68808100D01*
X109146570Y-68808100D01*
X109039430Y-68808100D01*
X108970438Y-68826586D01*
X108935942Y-68835830D01*
X108843157Y-68889398D01*
X108005400Y-69727155D01*
X108005396Y-69727160D01*
X107951829Y-69819941D01*
X107951830Y-69819941D01*
X107951830Y-69819942D01*
X107924100Y-69923431D01*
X107924100Y-82603567D01*
X107924099Y-82603567D01*
X107924100Y-82603570D01*
X107951830Y-82707058D01*
X108005399Y-82799843D01*
X108970157Y-83764601D01*
X109062942Y-83818170D01*
X109166430Y-83845900D01*
X109166431Y-83845900D01*
X109166433Y-83845900D01*
X116385567Y-83845900D01*
X116385570Y-83845900D01*
X116489058Y-83818170D01*
X116581843Y-83764601D01*
X118181600Y-82164843D01*
X118183300Y-82161900D01*
X118235170Y-82072057D01*
X118262900Y-81968569D01*
X118262900Y-74260905D01*
X118282585Y-74193866D01*
X118299219Y-74173224D01*
X118379224Y-74093219D01*
X118440547Y-74059734D01*
X118466905Y-74056900D01*
X118751607Y-74056900D01*
X118818646Y-74076585D01*
X118862607Y-74125629D01*
X118923222Y-74247362D01*
X118957833Y-74293194D01*
X119024046Y-74380875D01*
X119049418Y-74414472D01*
X119049421Y-74414475D01*
X119112699Y-74472160D01*
X119200052Y-74551793D01*
X119204165Y-74555542D01*
X119204167Y-74555544D01*
X119382198Y-74665776D01*
X119382199Y-74665776D01*
X119382202Y-74665778D01*
X119577463Y-74741423D01*
X119783299Y-74779900D01*
X119783301Y-74779900D01*
X119992699Y-74779900D01*
X119992701Y-74779900D01*
X120198537Y-74741423D01*
X120393798Y-74665778D01*
X120571834Y-74555543D01*
X120726584Y-74414470D01*
X120852776Y-74247364D01*
X120946114Y-74059916D01*
X121003420Y-73858508D01*
X121022741Y-73650000D01*
X121003420Y-73441492D01*
X120946114Y-73240084D01*
X120942793Y-73233415D01*
X120894835Y-73137102D01*
X120852776Y-73052636D01*
X120726584Y-72885530D01*
X120726581Y-72885527D01*
X120726578Y-72885524D01*
X120571834Y-72744457D01*
X120571832Y-72744455D01*
X120411734Y-72645327D01*
X120365098Y-72593299D01*
X120353994Y-72524317D01*
X120381947Y-72460283D01*
X120440082Y-72421527D01*
X120477011Y-72415900D01*
X120684094Y-72415900D01*
X120751133Y-72435585D01*
X120771775Y-72452219D01*
X121730781Y-73411225D01*
X121764266Y-73472548D01*
X121767100Y-73498906D01*
X121767100Y-75472094D01*
X121747415Y-75539133D01*
X121730781Y-75559775D01*
X121543775Y-75746781D01*
X121482452Y-75780266D01*
X121456094Y-75783100D01*
X121024393Y-75783100D01*
X120957354Y-75763415D01*
X120913393Y-75714371D01*
X120852777Y-75592637D01*
X120761747Y-75472094D01*
X120726584Y-75425530D01*
X120726581Y-75425527D01*
X120726578Y-75425524D01*
X120571834Y-75284457D01*
X120571832Y-75284455D01*
X120393801Y-75174223D01*
X120393795Y-75174221D01*
X120393785Y-75174217D01*
X120198537Y-75098577D01*
X119992701Y-75060100D01*
X119783299Y-75060100D01*
X119577463Y-75098577D01*
X119453981Y-75146414D01*
X119382204Y-75174221D01*
X119382198Y-75174223D01*
X119204167Y-75284455D01*
X119204165Y-75284457D01*
X119049421Y-75425524D01*
X119049418Y-75425527D01*
X118923224Y-75592635D01*
X118829890Y-75780073D01*
X118829885Y-75780086D01*
X118772579Y-75981492D01*
X118753259Y-76189999D01*
X118753259Y-76190000D01*
X118772579Y-76398507D01*
X118829885Y-76599913D01*
X118829890Y-76599926D01*
X118922498Y-76785906D01*
X118923224Y-76787364D01*
X118970585Y-76850081D01*
X119049418Y-76954472D01*
X119049421Y-76954475D01*
X119178374Y-77072030D01*
X119199419Y-77091216D01*
X119204165Y-77095542D01*
X119204167Y-77095544D01*
X119382198Y-77205776D01*
X119382199Y-77205776D01*
X119382202Y-77205778D01*
X119577463Y-77281423D01*
X119783299Y-77319900D01*
X119783301Y-77319900D01*
X119992699Y-77319900D01*
X119992701Y-77319900D01*
X120198537Y-77281423D01*
X120393798Y-77205778D01*
X120571834Y-77095543D01*
X120726584Y-76954470D01*
X120852776Y-76787364D01*
X120853502Y-76785906D01*
X120913393Y-76665629D01*
X120960896Y-76614391D01*
X121024393Y-76596900D01*
X121558785Y-76596900D01*
X121590877Y-76601124D01*
X121612430Y-76606900D01*
X121612432Y-76606900D01*
X121719567Y-76606900D01*
X121719570Y-76606900D01*
X121823058Y-76579170D01*
X121915843Y-76525601D01*
X122499600Y-75941843D01*
X122500574Y-75940157D01*
X122553170Y-75849057D01*
X122580900Y-75745569D01*
X122580900Y-73225431D01*
X122553170Y-73121943D01*
X122553170Y-73121942D01*
X122553170Y-73121941D01*
X122499603Y-73029160D01*
X122499599Y-73029155D01*
X121153844Y-71683400D01*
X121153843Y-71683399D01*
X121061058Y-71629830D01*
X121061059Y-71629830D01*
X121035186Y-71622897D01*
X120957570Y-71602100D01*
X120957569Y-71602100D01*
X118564431Y-71602100D01*
X118564430Y-71602100D01*
X118508235Y-71617157D01*
X118508235Y-71617158D01*
X118460942Y-71629830D01*
X118460940Y-71629830D01*
X118460940Y-71629831D01*
X118368158Y-71683398D01*
X118368155Y-71683400D01*
X116895400Y-73156155D01*
X116895398Y-73156158D01*
X116841830Y-73248941D01*
X116841830Y-73248942D01*
X116821612Y-73324399D01*
X116818933Y-73334397D01*
X116818932Y-73334399D01*
X116814100Y-73352430D01*
X116814100Y-76968478D01*
X116794415Y-77035517D01*
X116741611Y-77081272D01*
X116672453Y-77091216D01*
X116608897Y-77062191D01*
X116602419Y-77056159D01*
X116543804Y-76997544D01*
X116429897Y-76941858D01*
X116356055Y-76931100D01*
X116356054Y-76931100D01*
X116083946Y-76931100D01*
X116083945Y-76931100D01*
X116010102Y-76941858D01*
X115896195Y-76997544D01*
X115806544Y-77087195D01*
X115750858Y-77201102D01*
X115740100Y-77274945D01*
X115740100Y-77416000D01*
X115720415Y-77483039D01*
X115667611Y-77528794D01*
X115616100Y-77540000D01*
X115523900Y-77540000D01*
X115456861Y-77520315D01*
X115411106Y-77467511D01*
X115399900Y-77416000D01*
X115399900Y-77274945D01*
X115389141Y-77201103D01*
X115374761Y-77171689D01*
X115339499Y-77099558D01*
X115326900Y-77045098D01*
X115326900Y-76512431D01*
X115326899Y-76512427D01*
X115325293Y-76506436D01*
X115319298Y-76484058D01*
X115299170Y-76408942D01*
X115245601Y-76316157D01*
X114997661Y-76068217D01*
X114964176Y-76006894D01*
X114969160Y-75937202D01*
X115011031Y-75881270D01*
X115126690Y-75794690D01*
X115213697Y-75678461D01*
X115264435Y-75542428D01*
X115268011Y-75509157D01*
X115270899Y-75482310D01*
X115270900Y-75482293D01*
X115270900Y-74885706D01*
X115270899Y-74885689D01*
X115267580Y-74854833D01*
X115264435Y-74825572D01*
X115264433Y-74825568D01*
X115264433Y-74825565D01*
X115213699Y-74689544D01*
X115213698Y-74689543D01*
X115213697Y-74689539D01*
X115135586Y-74585194D01*
X115126691Y-74573311D01*
X115116315Y-74565544D01*
X115010461Y-74486303D01*
X115010460Y-74486302D01*
X115003362Y-74480989D01*
X115004517Y-74479445D01*
X114963066Y-74437992D01*
X114947900Y-74378569D01*
X114947900Y-72368906D01*
X114967585Y-72301867D01*
X114984219Y-72281225D01*
X116210225Y-71055219D01*
X116271548Y-71021734D01*
X116297906Y-71018900D01*
X123224094Y-71018900D01*
X123291133Y-71038585D01*
X123311775Y-71055219D01*
X124270781Y-72014225D01*
X124304266Y-72075548D01*
X124307100Y-72101906D01*
X124307100Y-72406100D01*
X124287415Y-72473139D01*
X124234611Y-72518894D01*
X124183100Y-72530100D01*
X123822206Y-72530100D01*
X123798805Y-72532815D01*
X123703076Y-72575085D01*
X123629085Y-72649076D01*
X123586815Y-72744805D01*
X123584100Y-72768206D01*
X123584100Y-74551793D01*
X123586815Y-74575194D01*
X123629085Y-74670923D01*
X123703076Y-74744914D01*
X123703077Y-74744914D01*
X123703079Y-74744916D01*
X123798807Y-74787185D01*
X123822210Y-74789900D01*
X123822212Y-74789900D01*
X125605788Y-74789900D01*
X125605790Y-74789900D01*
X125629193Y-74787185D01*
X125724921Y-74744916D01*
X125798916Y-74670921D01*
X125841185Y-74575193D01*
X125843900Y-74551790D01*
X125843900Y-74190900D01*
X125863585Y-74123861D01*
X125916389Y-74078106D01*
X125967900Y-74066900D01*
X127778100Y-74066900D01*
X127845139Y-74086585D01*
X127890894Y-74139389D01*
X127902100Y-74190900D01*
X127902100Y-74551793D01*
X127904815Y-74575194D01*
X127947085Y-74670923D01*
X128021076Y-74744914D01*
X128021077Y-74744914D01*
X128021079Y-74744916D01*
X128116807Y-74787185D01*
X128140210Y-74789900D01*
X128140212Y-74789900D01*
X129923788Y-74789900D01*
X129923790Y-74789900D01*
X129947193Y-74787185D01*
X130042921Y-74744916D01*
X130116916Y-74670921D01*
X130159185Y-74575193D01*
X130161900Y-74551790D01*
X130161900Y-74190900D01*
X130181585Y-74123861D01*
X130234389Y-74078106D01*
X130285900Y-74066900D01*
X131842100Y-74066900D01*
X131909139Y-74086585D01*
X131954894Y-74139389D01*
X131966100Y-74190900D01*
X131966100Y-74561793D01*
X131967655Y-74575193D01*
X131968815Y-74585193D01*
X132006668Y-74670921D01*
X132011085Y-74680923D01*
X132085076Y-74754914D01*
X132085077Y-74754914D01*
X132085079Y-74754916D01*
X132180807Y-74797185D01*
X132204210Y-74799900D01*
X132204212Y-74799900D01*
X133987788Y-74799900D01*
X133987790Y-74799900D01*
X134011193Y-74797185D01*
X134106921Y-74754916D01*
X134180916Y-74680921D01*
X134223185Y-74585193D01*
X134225900Y-74561790D01*
X134225900Y-74190900D01*
X134245585Y-74123861D01*
X134298389Y-74078106D01*
X134349900Y-74066900D01*
X135652100Y-74066900D01*
X135719139Y-74086585D01*
X135764894Y-74139389D01*
X135776100Y-74190900D01*
X135776100Y-74551793D01*
X135778815Y-74575194D01*
X135821085Y-74670923D01*
X135895076Y-74744914D01*
X135895077Y-74744914D01*
X135895079Y-74744916D01*
X135990807Y-74787185D01*
X136014210Y-74789900D01*
X136014212Y-74789900D01*
X137797788Y-74789900D01*
X137797790Y-74789900D01*
X137821193Y-74787185D01*
X137916921Y-74744916D01*
X137990916Y-74670921D01*
X138033185Y-74575193D01*
X138035900Y-74551790D01*
X138035900Y-74190900D01*
X138055585Y-74123861D01*
X138108389Y-74078106D01*
X138159900Y-74066900D01*
X138229567Y-74066900D01*
X138229570Y-74066900D01*
X138333058Y-74039170D01*
X138425843Y-73985601D01*
X139390601Y-73020843D01*
X139444170Y-72928058D01*
X139471900Y-72824570D01*
X139471900Y-72717430D01*
X139471900Y-72101906D01*
X139491585Y-72034867D01*
X139508219Y-72014225D01*
X139959225Y-71563219D01*
X140020548Y-71529734D01*
X140046906Y-71526900D01*
X140419550Y-71526900D01*
X140486589Y-71546585D01*
X140532344Y-71599389D01*
X140535731Y-71607565D01*
X140538301Y-71614457D01*
X140538302Y-71614458D01*
X140538303Y-71614461D01*
X140540322Y-71617158D01*
X140625309Y-71730690D01*
X140748638Y-71823011D01*
X140747482Y-71824554D01*
X140788931Y-71866000D01*
X140804100Y-71925430D01*
X140804100Y-72557567D01*
X140804099Y-72557567D01*
X140807049Y-72568577D01*
X140831830Y-72661058D01*
X140847057Y-72687433D01*
X140885398Y-72753841D01*
X140885400Y-72753844D01*
X141004781Y-72873225D01*
X141038266Y-72934548D01*
X141041100Y-72960906D01*
X141041100Y-72981098D01*
X141028501Y-73035558D01*
X140978858Y-73137103D01*
X140968100Y-73210945D01*
X140968100Y-73733054D01*
X140978858Y-73806897D01*
X141034544Y-73920804D01*
X141124195Y-74010455D01*
X141124194Y-74010455D01*
X141142943Y-74019620D01*
X141180461Y-74037962D01*
X141232042Y-74085087D01*
X141250000Y-74149361D01*
X141250000Y-74293194D01*
X141230315Y-74360233D01*
X141213681Y-74380875D01*
X141122400Y-74472155D01*
X141122396Y-74472160D01*
X141068829Y-74564941D01*
X141068830Y-74564941D01*
X141068830Y-74564942D01*
X141041100Y-74668431D01*
X141041100Y-74881098D01*
X141028501Y-74935558D01*
X140978858Y-75037103D01*
X140968100Y-75110945D01*
X140968100Y-75633054D01*
X140978858Y-75706897D01*
X141034544Y-75820804D01*
X141124195Y-75910455D01*
X141238102Y-75966141D01*
X141311945Y-75976900D01*
X141311946Y-75976900D01*
X141584055Y-75976900D01*
X141620976Y-75971520D01*
X141657898Y-75966141D01*
X141771803Y-75910456D01*
X141861456Y-75820803D01*
X141917141Y-75706898D01*
X141927900Y-75633054D01*
X141927900Y-75494000D01*
X141947585Y-75426961D01*
X142000389Y-75381206D01*
X142051900Y-75370000D01*
X142144100Y-75370000D01*
X142211139Y-75389685D01*
X142256894Y-75442489D01*
X142268100Y-75494000D01*
X142268100Y-75633054D01*
X142278858Y-75706897D01*
X142328500Y-75808440D01*
X142341100Y-75862901D01*
X142341100Y-76380567D01*
X142341099Y-76380567D01*
X142368830Y-76484058D01*
X142422398Y-76576841D01*
X142422400Y-76576844D01*
X142616562Y-76771006D01*
X142650047Y-76832329D01*
X142645063Y-76902021D01*
X142628150Y-76932995D01*
X142596304Y-76975536D01*
X142596300Y-76975544D01*
X142545566Y-77111565D01*
X142545565Y-77111570D01*
X142539100Y-77171689D01*
X142539100Y-77768310D01*
X142545565Y-77828429D01*
X142545566Y-77828434D01*
X142596300Y-77964455D01*
X142596301Y-77964458D01*
X142596303Y-77964461D01*
X142612073Y-77985527D01*
X142683308Y-78080688D01*
X142683309Y-78080688D01*
X142683310Y-78080690D01*
X142703888Y-78096094D01*
X142722240Y-78109832D01*
X142764111Y-78165765D01*
X142769096Y-78235457D01*
X142735612Y-78296780D01*
X142674289Y-78330266D01*
X142647930Y-78333100D01*
X138042393Y-78333100D01*
X137975354Y-78313415D01*
X137931393Y-78264371D01*
X137870777Y-78142637D01*
X137819288Y-78074455D01*
X137744584Y-77975530D01*
X137744581Y-77975527D01*
X137744578Y-77975524D01*
X137589834Y-77834457D01*
X137589832Y-77834455D01*
X137411801Y-77724223D01*
X137411795Y-77724221D01*
X137398894Y-77719223D01*
X137216537Y-77648577D01*
X137010701Y-77610100D01*
X136801299Y-77610100D01*
X136595463Y-77648577D01*
X136471981Y-77696414D01*
X136400204Y-77724221D01*
X136400198Y-77724223D01*
X136222167Y-77834455D01*
X136222165Y-77834457D01*
X136067421Y-77975524D01*
X136067418Y-77975527D01*
X135941224Y-78142635D01*
X135875627Y-78274372D01*
X135828124Y-78325609D01*
X135764627Y-78343100D01*
X134232393Y-78343100D01*
X134165354Y-78323415D01*
X134121393Y-78274371D01*
X134060777Y-78152637D01*
X134006445Y-78080690D01*
X133934584Y-77985530D01*
X133934581Y-77985527D01*
X133934578Y-77985524D01*
X133779834Y-77844457D01*
X133779832Y-77844455D01*
X133601801Y-77734223D01*
X133601795Y-77734221D01*
X133406537Y-77658577D01*
X133200701Y-77620100D01*
X132991299Y-77620100D01*
X132785463Y-77658577D01*
X132661981Y-77706414D01*
X132590204Y-77734221D01*
X132590198Y-77734223D01*
X132412167Y-77844455D01*
X132412165Y-77844457D01*
X132257421Y-77985524D01*
X132257418Y-77985527D01*
X132131225Y-78152633D01*
X132114758Y-78185702D01*
X132075585Y-78264373D01*
X132028085Y-78315608D01*
X131964587Y-78333100D01*
X130168393Y-78333100D01*
X130101354Y-78313415D01*
X130057393Y-78264371D01*
X129996777Y-78142637D01*
X129945288Y-78074455D01*
X129870584Y-77975530D01*
X129870581Y-77975527D01*
X129870578Y-77975524D01*
X129715834Y-77834457D01*
X129715832Y-77834455D01*
X129537801Y-77724223D01*
X129537795Y-77724221D01*
X129524894Y-77719223D01*
X129342537Y-77648577D01*
X129136701Y-77610100D01*
X128927299Y-77610100D01*
X128721463Y-77648577D01*
X128597981Y-77696414D01*
X128526204Y-77724221D01*
X128526198Y-77724223D01*
X128348167Y-77834455D01*
X128348165Y-77834457D01*
X128193421Y-77975524D01*
X128193418Y-77975527D01*
X128067222Y-78142637D01*
X128006607Y-78264371D01*
X127959104Y-78315609D01*
X127895607Y-78333100D01*
X125850393Y-78333100D01*
X125783354Y-78313415D01*
X125739393Y-78264371D01*
X125678777Y-78142637D01*
X125627288Y-78074455D01*
X125552584Y-77975530D01*
X125552581Y-77975527D01*
X125552578Y-77975524D01*
X125397834Y-77834457D01*
X125397832Y-77834455D01*
X125219801Y-77724223D01*
X125219795Y-77724221D01*
X125206894Y-77719223D01*
X125024537Y-77648577D01*
X124818701Y-77610100D01*
X124609299Y-77610100D01*
X124403463Y-77648577D01*
X124279981Y-77696414D01*
X124208204Y-77724221D01*
X124208198Y-77724223D01*
X124030167Y-77834455D01*
X124030165Y-77834457D01*
X123875421Y-77975524D01*
X123875418Y-77975527D01*
X123749224Y-78142635D01*
X123655890Y-78330073D01*
X123655885Y-78330086D01*
X123598579Y-78531492D01*
X123579259Y-78739999D01*
X123579259Y-78740000D01*
X123598579Y-78948507D01*
X123655885Y-79149913D01*
X123655890Y-79149926D01*
X123741290Y-79321431D01*
X123749224Y-79337364D01*
X123871640Y-79499470D01*
X123875418Y-79504472D01*
X123875421Y-79504475D01*
X124030165Y-79645542D01*
X124030167Y-79645544D01*
X124208198Y-79755776D01*
X124208199Y-79755776D01*
X124208202Y-79755778D01*
X124403463Y-79831423D01*
X124609299Y-79869900D01*
X124609301Y-79869900D01*
X124818699Y-79869900D01*
X124818701Y-79869900D01*
X125024537Y-79831423D01*
X125219798Y-79755778D01*
X125397834Y-79645543D01*
X125552584Y-79504470D01*
X125678776Y-79337364D01*
X125686710Y-79321431D01*
X125739393Y-79215629D01*
X125786896Y-79164391D01*
X125850393Y-79146900D01*
X127895607Y-79146900D01*
X127962646Y-79166585D01*
X128006607Y-79215629D01*
X128067222Y-79337362D01*
X128130320Y-79420917D01*
X128189640Y-79499470D01*
X128193418Y-79504472D01*
X128193421Y-79504475D01*
X128348165Y-79645542D01*
X128348167Y-79645544D01*
X128526198Y-79755776D01*
X128526199Y-79755776D01*
X128526202Y-79755778D01*
X128721463Y-79831423D01*
X128927299Y-79869900D01*
X128927301Y-79869900D01*
X129136699Y-79869900D01*
X129136701Y-79869900D01*
X129342537Y-79831423D01*
X129537798Y-79755778D01*
X129715834Y-79645543D01*
X129870584Y-79504470D01*
X129996776Y-79337364D01*
X130004710Y-79321431D01*
X130057393Y-79215629D01*
X130104896Y-79164391D01*
X130168393Y-79146900D01*
X131954627Y-79146900D01*
X132021666Y-79166585D01*
X132065627Y-79215628D01*
X132066780Y-79217943D01*
X132131224Y-79347364D01*
X132249868Y-79504475D01*
X132257418Y-79514472D01*
X132257421Y-79514475D01*
X132412165Y-79655542D01*
X132412167Y-79655544D01*
X132590198Y-79765776D01*
X132590199Y-79765776D01*
X132590202Y-79765778D01*
X132785463Y-79841423D01*
X132991299Y-79879900D01*
X132991301Y-79879900D01*
X133200699Y-79879900D01*
X133200701Y-79879900D01*
X133406537Y-79841423D01*
X133601798Y-79765778D01*
X133779834Y-79655543D01*
X133934584Y-79514470D01*
X134060776Y-79347364D01*
X134121393Y-79225629D01*
X134168896Y-79174391D01*
X134232393Y-79156900D01*
X135774587Y-79156900D01*
X135841626Y-79176585D01*
X135885585Y-79225626D01*
X135936244Y-79327362D01*
X135941225Y-79337366D01*
X136005624Y-79422644D01*
X136063640Y-79499470D01*
X136067418Y-79504472D01*
X136067421Y-79504475D01*
X136222165Y-79645542D01*
X136222167Y-79645544D01*
X136400198Y-79755776D01*
X136400199Y-79755776D01*
X136400202Y-79755778D01*
X136595463Y-79831423D01*
X136801299Y-79869900D01*
X136801301Y-79869900D01*
X137010699Y-79869900D01*
X137010701Y-79869900D01*
X137216537Y-79831423D01*
X137411798Y-79755778D01*
X137589834Y-79645543D01*
X137744584Y-79504470D01*
X137870776Y-79337364D01*
X137878710Y-79321431D01*
X137931393Y-79215629D01*
X137978896Y-79164391D01*
X138042393Y-79146900D01*
X144659607Y-79146900D01*
X144726646Y-79166585D01*
X144770607Y-79215629D01*
X144831222Y-79337362D01*
X144894320Y-79420917D01*
X144953640Y-79499470D01*
X144957418Y-79504472D01*
X144957421Y-79504475D01*
X145112165Y-79645542D01*
X145112167Y-79645544D01*
X145290198Y-79755776D01*
X145290199Y-79755776D01*
X145290202Y-79755778D01*
X145485463Y-79831423D01*
X145691299Y-79869900D01*
X145691301Y-79869900D01*
X145900699Y-79869900D01*
X145900701Y-79869900D01*
X146106537Y-79831423D01*
X146301798Y-79755778D01*
X146479834Y-79645543D01*
X146634584Y-79504470D01*
X146760776Y-79337364D01*
X146854114Y-79149916D01*
X146911420Y-78948508D01*
X146930741Y-78740000D01*
X146911420Y-78531492D01*
X146854114Y-78330084D01*
X146851625Y-78325086D01*
X146773255Y-78167697D01*
X146760776Y-78142636D01*
X146634584Y-77975530D01*
X146634581Y-77975527D01*
X146634578Y-77975524D01*
X146479834Y-77834457D01*
X146479832Y-77834455D01*
X146301801Y-77724223D01*
X146301795Y-77724221D01*
X146288894Y-77719223D01*
X146106537Y-77648577D01*
X145900701Y-77610100D01*
X145691299Y-77610100D01*
X145485463Y-77648577D01*
X145361981Y-77696414D01*
X145290204Y-77724221D01*
X145290198Y-77724223D01*
X145112167Y-77834455D01*
X145112165Y-77834457D01*
X144957421Y-77975524D01*
X144957418Y-77975527D01*
X144831222Y-78142637D01*
X144770607Y-78264371D01*
X144723104Y-78315609D01*
X144659607Y-78333100D01*
X143890070Y-78333100D01*
X143823031Y-78313415D01*
X143777276Y-78260611D01*
X143767332Y-78191453D01*
X143796357Y-78127897D01*
X143815760Y-78109832D01*
X143854690Y-78080690D01*
X143941697Y-77964461D01*
X143967066Y-77896444D01*
X143992433Y-77828434D01*
X143992433Y-77828432D01*
X143992435Y-77828428D01*
X143996011Y-77795157D01*
X143998899Y-77768310D01*
X143998900Y-77768293D01*
X143998900Y-77171706D01*
X143998899Y-77171689D01*
X143995580Y-77140833D01*
X143992435Y-77111572D01*
X143992433Y-77111568D01*
X143992433Y-77111565D01*
X143941699Y-76975544D01*
X143941698Y-76975543D01*
X143941697Y-76975539D01*
X143886663Y-76902021D01*
X143854690Y-76859309D01*
X143738460Y-76772302D01*
X143722260Y-76766260D01*
X143666327Y-76724389D01*
X143656813Y-76704802D01*
X143656333Y-76705080D01*
X143594603Y-76598160D01*
X143594599Y-76598155D01*
X143191219Y-76194775D01*
X143157734Y-76133452D01*
X143154900Y-76107094D01*
X143154900Y-75902900D01*
X143174585Y-75835861D01*
X143227389Y-75790106D01*
X143278900Y-75778900D01*
X143883567Y-75778900D01*
X143883570Y-75778900D01*
X143987058Y-75751170D01*
X144079843Y-75697601D01*
X144597600Y-75179843D01*
X144600483Y-75174850D01*
X144600849Y-75174217D01*
X144651167Y-75087063D01*
X144651169Y-75087058D01*
X144651170Y-75087057D01*
X144678900Y-74983569D01*
X144678900Y-74425620D01*
X144698585Y-74358581D01*
X144751389Y-74312826D01*
X144820547Y-74302882D01*
X144884103Y-74331907D01*
X144901851Y-74350890D01*
X144953642Y-74419472D01*
X144957418Y-74424472D01*
X144957421Y-74424475D01*
X145086374Y-74542030D01*
X145108052Y-74561793D01*
X145112165Y-74565542D01*
X145112167Y-74565544D01*
X145290198Y-74675776D01*
X145290199Y-74675776D01*
X145290202Y-74675778D01*
X145485463Y-74751423D01*
X145691299Y-74789900D01*
X145691301Y-74789900D01*
X145900699Y-74789900D01*
X145900701Y-74789900D01*
X146106537Y-74751423D01*
X146301798Y-74675778D01*
X146479834Y-74565543D01*
X146634584Y-74424470D01*
X146760776Y-74257364D01*
X146854114Y-74069916D01*
X146911420Y-73868508D01*
X146930741Y-73660000D01*
X146911420Y-73451492D01*
X146854114Y-73250084D01*
X146853545Y-73248942D01*
X146790306Y-73121941D01*
X146760776Y-73062636D01*
X146634584Y-72895530D01*
X146634581Y-72895527D01*
X146634578Y-72895524D01*
X146479834Y-72754457D01*
X146479832Y-72754455D01*
X146301801Y-72644223D01*
X146301795Y-72644221D01*
X146288894Y-72639223D01*
X146106537Y-72568577D01*
X145900701Y-72530100D01*
X145691299Y-72530100D01*
X145485463Y-72568577D01*
X145421649Y-72593299D01*
X145290204Y-72644221D01*
X145290198Y-72644223D01*
X145112167Y-72754455D01*
X145112165Y-72754457D01*
X144957421Y-72895524D01*
X144957419Y-72895527D01*
X144957416Y-72895530D01*
X144932852Y-72928058D01*
X144901854Y-72969106D01*
X144845744Y-73010742D01*
X144776032Y-73015433D01*
X144714851Y-72981691D01*
X144681624Y-72920227D01*
X144678900Y-72894379D01*
X144678900Y-72348335D01*
X144698585Y-72281296D01*
X144751389Y-72235541D01*
X144820547Y-72225597D01*
X144852989Y-72234902D01*
X144880805Y-72247184D01*
X144880807Y-72247185D01*
X144904210Y-72249900D01*
X144904212Y-72249900D01*
X146687788Y-72249900D01*
X146687790Y-72249900D01*
X146711193Y-72247185D01*
X146806921Y-72204916D01*
X146880916Y-72130921D01*
X146923185Y-72035193D01*
X146925900Y-72011790D01*
X146925900Y-70228210D01*
X146923185Y-70204807D01*
X146880916Y-70109079D01*
X146880914Y-70109077D01*
X146880914Y-70109076D01*
X146806923Y-70035085D01*
X146711194Y-69992815D01*
X146687793Y-69990100D01*
X146687790Y-69990100D01*
X144904210Y-69990100D01*
X144904206Y-69990100D01*
X144880805Y-69992815D01*
X144785076Y-70035085D01*
X144711085Y-70109076D01*
X144668815Y-70204805D01*
X144666100Y-70228206D01*
X144666100Y-70600088D01*
X144646415Y-70667127D01*
X144593611Y-70712882D01*
X144574201Y-70719860D01*
X144518767Y-70734713D01*
X144495942Y-70740830D01*
X144403159Y-70794398D01*
X144403156Y-70794400D01*
X144403157Y-70794400D01*
X144291065Y-70906492D01*
X144255581Y-70941976D01*
X144194258Y-70975460D01*
X144124566Y-70970476D01*
X144068633Y-70928604D01*
X144044216Y-70863140D01*
X144043900Y-70854294D01*
X144043900Y-70196906D01*
X144063585Y-70129867D01*
X144080219Y-70109225D01*
X144658225Y-69531219D01*
X144719548Y-69497734D01*
X144745906Y-69494900D01*
X146719094Y-69494900D01*
X146786133Y-69514585D01*
X146806775Y-69531219D01*
X147257781Y-69982225D01*
X147291266Y-70043548D01*
X147294100Y-70069906D01*
X147294100Y-83092094D01*
X147274415Y-83159133D01*
X147257781Y-83179775D01*
X146679775Y-83757781D01*
X146618452Y-83791266D01*
X146592094Y-83794100D01*
X123536906Y-83794100D01*
X123469867Y-83774415D01*
X123449225Y-83757781D01*
X122617219Y-82925775D01*
X122583734Y-82864452D01*
X122580900Y-82838094D01*
X122580900Y-81279999D01*
X123579259Y-81279999D01*
X123579259Y-81280000D01*
X123598579Y-81488507D01*
X123655885Y-81689913D01*
X123655890Y-81689926D01*
X123713639Y-81805900D01*
X123749224Y-81877364D01*
X123818098Y-81968569D01*
X123875418Y-82044472D01*
X123875421Y-82044475D01*
X124030165Y-82185542D01*
X124030167Y-82185544D01*
X124208198Y-82295776D01*
X124208199Y-82295776D01*
X124208202Y-82295778D01*
X124403463Y-82371423D01*
X124609299Y-82409900D01*
X124609301Y-82409900D01*
X124818699Y-82409900D01*
X124818701Y-82409900D01*
X125024537Y-82371423D01*
X125219798Y-82295778D01*
X125397834Y-82185543D01*
X125552584Y-82044470D01*
X125678776Y-81877364D01*
X125714361Y-81805900D01*
X125739393Y-81755629D01*
X125786896Y-81704391D01*
X125850393Y-81686900D01*
X127895607Y-81686900D01*
X127962646Y-81706585D01*
X128006607Y-81755629D01*
X128067222Y-81877362D01*
X128130320Y-81960917D01*
X128136098Y-81968569D01*
X128193418Y-82044472D01*
X128193421Y-82044475D01*
X128348165Y-82185542D01*
X128348167Y-82185544D01*
X128526198Y-82295776D01*
X128526199Y-82295776D01*
X128526202Y-82295778D01*
X128721463Y-82371423D01*
X128927299Y-82409900D01*
X128927301Y-82409900D01*
X129136699Y-82409900D01*
X129136701Y-82409900D01*
X129342537Y-82371423D01*
X129537798Y-82295778D01*
X129715834Y-82185543D01*
X129870584Y-82044470D01*
X129996776Y-81877364D01*
X130032361Y-81805900D01*
X130057393Y-81755629D01*
X130104896Y-81704391D01*
X130168393Y-81686900D01*
X131954627Y-81686900D01*
X132021666Y-81706585D01*
X132065627Y-81755628D01*
X132070510Y-81765434D01*
X132131224Y-81887364D01*
X132249868Y-82044475D01*
X132257418Y-82054472D01*
X132257421Y-82054475D01*
X132412165Y-82195542D01*
X132412167Y-82195544D01*
X132590198Y-82305776D01*
X132590199Y-82305776D01*
X132590202Y-82305778D01*
X132785463Y-82381423D01*
X132991299Y-82419900D01*
X132991301Y-82419900D01*
X133200699Y-82419900D01*
X133200701Y-82419900D01*
X133406537Y-82381423D01*
X133601798Y-82305778D01*
X133779834Y-82195543D01*
X133934584Y-82054470D01*
X134060776Y-81887364D01*
X134121393Y-81765629D01*
X134168896Y-81714391D01*
X134232393Y-81696900D01*
X135774587Y-81696900D01*
X135841626Y-81716585D01*
X135885585Y-81765626D01*
X135941223Y-81877362D01*
X135941225Y-81877366D01*
X136005624Y-81962644D01*
X136010098Y-81968569D01*
X136067418Y-82044472D01*
X136067421Y-82044475D01*
X136222165Y-82185542D01*
X136222167Y-82185544D01*
X136400198Y-82295776D01*
X136400199Y-82295776D01*
X136400202Y-82295778D01*
X136595463Y-82371423D01*
X136801299Y-82409900D01*
X136801301Y-82409900D01*
X137010699Y-82409900D01*
X137010701Y-82409900D01*
X137216537Y-82371423D01*
X137411798Y-82295778D01*
X137589834Y-82185543D01*
X137744584Y-82044470D01*
X137870776Y-81877364D01*
X137906361Y-81805900D01*
X137931393Y-81755629D01*
X137978896Y-81704391D01*
X138042393Y-81686900D01*
X144659607Y-81686900D01*
X144726646Y-81706585D01*
X144770607Y-81755629D01*
X144831222Y-81877362D01*
X144894320Y-81960917D01*
X144900098Y-81968569D01*
X144957418Y-82044472D01*
X144957421Y-82044475D01*
X145112165Y-82185542D01*
X145112167Y-82185544D01*
X145290198Y-82295776D01*
X145290199Y-82295776D01*
X145290202Y-82295778D01*
X145485463Y-82371423D01*
X145691299Y-82409900D01*
X145691301Y-82409900D01*
X145900699Y-82409900D01*
X145900701Y-82409900D01*
X146106537Y-82371423D01*
X146301798Y-82295778D01*
X146479834Y-82185543D01*
X146634584Y-82044470D01*
X146760776Y-81877364D01*
X146854114Y-81689916D01*
X146911420Y-81488508D01*
X146930741Y-81280000D01*
X146911420Y-81071492D01*
X146854114Y-80870084D01*
X146853126Y-80868100D01*
X146774267Y-80709730D01*
X146760776Y-80682636D01*
X146634584Y-80515530D01*
X146634581Y-80515527D01*
X146634578Y-80515524D01*
X146479834Y-80374457D01*
X146479832Y-80374455D01*
X146301801Y-80264223D01*
X146301795Y-80264221D01*
X146106537Y-80188577D01*
X145900701Y-80150100D01*
X145691299Y-80150100D01*
X145485463Y-80188577D01*
X145361981Y-80236414D01*
X145290204Y-80264221D01*
X145290198Y-80264223D01*
X145112167Y-80374455D01*
X145112165Y-80374457D01*
X144957421Y-80515524D01*
X144957418Y-80515527D01*
X144831222Y-80682637D01*
X144770607Y-80804371D01*
X144723104Y-80855609D01*
X144659607Y-80873100D01*
X138042393Y-80873100D01*
X137975354Y-80853415D01*
X137931393Y-80804371D01*
X137870777Y-80682637D01*
X137796369Y-80584105D01*
X137744584Y-80515530D01*
X137744581Y-80515527D01*
X137744578Y-80515524D01*
X137589834Y-80374457D01*
X137589832Y-80374455D01*
X137411801Y-80264223D01*
X137411795Y-80264221D01*
X137216537Y-80188577D01*
X137010701Y-80150100D01*
X136801299Y-80150100D01*
X136595463Y-80188577D01*
X136471981Y-80236414D01*
X136400204Y-80264221D01*
X136400198Y-80264223D01*
X136222167Y-80374455D01*
X136222165Y-80374457D01*
X136067421Y-80515524D01*
X136067418Y-80515527D01*
X135941224Y-80682635D01*
X135875627Y-80814372D01*
X135828124Y-80865609D01*
X135764627Y-80883100D01*
X134232393Y-80883100D01*
X134165354Y-80863415D01*
X134121393Y-80814371D01*
X134060777Y-80692637D01*
X134029228Y-80650859D01*
X133934584Y-80525530D01*
X133934581Y-80525527D01*
X133934578Y-80525524D01*
X133779834Y-80384457D01*
X133779832Y-80384455D01*
X133601801Y-80274223D01*
X133601795Y-80274221D01*
X133406537Y-80198577D01*
X133200701Y-80160100D01*
X132991299Y-80160100D01*
X132785463Y-80198577D01*
X132661981Y-80246414D01*
X132590204Y-80274221D01*
X132590198Y-80274223D01*
X132412167Y-80384455D01*
X132412165Y-80384457D01*
X132257421Y-80525524D01*
X132257418Y-80525527D01*
X132131225Y-80692633D01*
X132125571Y-80703989D01*
X132075585Y-80804373D01*
X132028085Y-80855608D01*
X131964587Y-80873100D01*
X130168393Y-80873100D01*
X130101354Y-80853415D01*
X130057393Y-80804371D01*
X129996777Y-80682637D01*
X129922369Y-80584105D01*
X129870584Y-80515530D01*
X129870581Y-80515527D01*
X129870578Y-80515524D01*
X129715834Y-80374457D01*
X129715832Y-80374455D01*
X129537801Y-80264223D01*
X129537795Y-80264221D01*
X129342537Y-80188577D01*
X129136701Y-80150100D01*
X128927299Y-80150100D01*
X128721463Y-80188577D01*
X128597981Y-80236414D01*
X128526204Y-80264221D01*
X128526198Y-80264223D01*
X128348167Y-80374455D01*
X128348165Y-80374457D01*
X128193421Y-80515524D01*
X128193418Y-80515527D01*
X128067222Y-80682637D01*
X128006607Y-80804371D01*
X127959104Y-80855609D01*
X127895607Y-80873100D01*
X125850393Y-80873100D01*
X125783354Y-80853415D01*
X125739393Y-80804371D01*
X125678777Y-80682637D01*
X125604369Y-80584105D01*
X125552584Y-80515530D01*
X125552581Y-80515527D01*
X125552578Y-80515524D01*
X125397834Y-80374457D01*
X125397832Y-80374455D01*
X125219801Y-80264223D01*
X125219795Y-80264221D01*
X125024537Y-80188577D01*
X124818701Y-80150100D01*
X124609299Y-80150100D01*
X124403463Y-80188577D01*
X124279981Y-80236414D01*
X124208204Y-80264221D01*
X124208198Y-80264223D01*
X124030167Y-80374455D01*
X124030165Y-80374457D01*
X123875421Y-80515524D01*
X123875418Y-80515527D01*
X123749224Y-80682635D01*
X123655890Y-80870073D01*
X123655885Y-80870086D01*
X123598579Y-81071492D01*
X123579259Y-81279999D01*
X122580900Y-81279999D01*
X122580900Y-79321433D01*
X122580900Y-79321431D01*
X122553170Y-79217943D01*
X122520814Y-79161900D01*
X122499601Y-79125157D01*
X121778843Y-78404399D01*
X121686058Y-78350830D01*
X121686059Y-78350830D01*
X121645954Y-78340084D01*
X121582570Y-78323100D01*
X121582569Y-78323100D01*
X121582567Y-78323100D01*
X121024393Y-78323100D01*
X120957354Y-78303415D01*
X120913393Y-78254371D01*
X120852777Y-78132637D01*
X120741687Y-77985530D01*
X120726584Y-77965530D01*
X120726581Y-77965527D01*
X120726578Y-77965524D01*
X120571834Y-77824457D01*
X120571832Y-77824455D01*
X120393801Y-77714223D01*
X120393795Y-77714221D01*
X120198537Y-77638577D01*
X119992701Y-77600100D01*
X119783299Y-77600100D01*
X119577463Y-77638577D01*
X119453981Y-77686414D01*
X119382204Y-77714221D01*
X119382198Y-77714223D01*
X119204167Y-77824455D01*
X119204165Y-77824457D01*
X119049421Y-77965524D01*
X119049418Y-77965527D01*
X118923224Y-78132635D01*
X118829890Y-78320073D01*
X118829885Y-78320086D01*
X118772579Y-78521492D01*
X118753259Y-78729999D01*
X118753259Y-78730000D01*
X118772579Y-78938507D01*
X118829885Y-79139913D01*
X118829890Y-79139926D01*
X118920270Y-79321431D01*
X118923224Y-79327364D01*
X119019870Y-79455345D01*
X119049418Y-79494472D01*
X119049421Y-79494475D01*
X119204165Y-79635542D01*
X119204167Y-79635544D01*
X119382198Y-79745776D01*
X119382199Y-79745776D01*
X119382202Y-79745778D01*
X119577463Y-79821423D01*
X119783299Y-79859900D01*
X119783301Y-79859900D01*
X119992699Y-79859900D01*
X119992701Y-79859900D01*
X120198537Y-79821423D01*
X120393798Y-79745778D01*
X120571834Y-79635543D01*
X120726584Y-79494470D01*
X120852776Y-79327364D01*
X120907262Y-79217942D01*
X120913393Y-79205629D01*
X120960896Y-79154391D01*
X121024393Y-79136900D01*
X121309094Y-79136900D01*
X121376133Y-79156585D01*
X121396775Y-79173219D01*
X121730781Y-79507225D01*
X121764266Y-79568548D01*
X121767100Y-79594906D01*
X121767100Y-83111567D01*
X121767099Y-83111567D01*
X121767100Y-83111570D01*
X121794830Y-83215058D01*
X121848399Y-83307843D01*
X123067157Y-84526601D01*
X123159942Y-84580170D01*
X123263430Y-84607900D01*
X123263431Y-84607900D01*
X123263433Y-84607900D01*
X146865567Y-84607900D01*
X146865570Y-84607900D01*
X146969058Y-84580170D01*
X147061843Y-84526601D01*
X148026601Y-83561843D01*
X148080170Y-83469058D01*
X148107900Y-83365570D01*
X148107900Y-83258430D01*
X148107900Y-69796431D01*
X148080170Y-69692943D01*
X148039154Y-69621900D01*
X148026601Y-69600157D01*
X147188843Y-68762399D01*
X147096058Y-68708830D01*
X147096059Y-68708830D01*
X147070186Y-68701897D01*
X146992570Y-68681100D01*
X146992569Y-68681100D01*
X144579570Y-68681100D01*
X144472430Y-68681100D01*
X144394814Y-68701897D01*
X144368941Y-68708830D01*
X144276158Y-68762398D01*
X144276155Y-68762400D01*
X143311400Y-69727155D01*
X143311396Y-69727160D01*
X143257829Y-69819941D01*
X143257830Y-69819941D01*
X143257830Y-69819942D01*
X143230100Y-69923431D01*
X143230100Y-72812286D01*
X143210415Y-72879325D01*
X143157611Y-72925080D01*
X143088453Y-72935024D01*
X143051640Y-72923686D01*
X142957900Y-72877859D01*
X142957897Y-72877858D01*
X142884055Y-72867100D01*
X142884054Y-72867100D01*
X142611946Y-72867100D01*
X142611945Y-72867100D01*
X142538102Y-72877858D01*
X142424195Y-72933544D01*
X142334544Y-73023195D01*
X142278858Y-73137102D01*
X142268100Y-73210945D01*
X142268100Y-73356000D01*
X142248415Y-73423039D01*
X142195611Y-73468794D01*
X142144100Y-73480000D01*
X142051900Y-73480000D01*
X141984861Y-73460315D01*
X141939106Y-73407511D01*
X141927900Y-73356000D01*
X141927900Y-73210945D01*
X141917141Y-73137103D01*
X141909729Y-73121942D01*
X141867499Y-73035558D01*
X141854900Y-72981098D01*
X141854900Y-72687433D01*
X141854900Y-72687431D01*
X141827170Y-72583943D01*
X141773601Y-72491158D01*
X141697842Y-72415399D01*
X141697840Y-72415396D01*
X141654218Y-72371773D01*
X141620733Y-72310450D01*
X141617900Y-72284093D01*
X141617900Y-71925430D01*
X141637585Y-71858391D01*
X141674275Y-71824231D01*
X141673362Y-71823011D01*
X141796690Y-71730690D01*
X141800993Y-71724942D01*
X141883697Y-71614461D01*
X141934435Y-71478428D01*
X141938011Y-71445157D01*
X141940899Y-71418310D01*
X141940900Y-71418293D01*
X141940900Y-70821706D01*
X141940899Y-70821689D01*
X141937580Y-70790833D01*
X141934435Y-70761572D01*
X141934433Y-70761568D01*
X141934433Y-70761565D01*
X141883699Y-70625544D01*
X141883698Y-70625542D01*
X141883697Y-70625539D01*
X141796690Y-70509310D01*
X141680461Y-70422303D01*
X141680460Y-70422302D01*
X141673362Y-70416989D01*
X141674517Y-70415445D01*
X141633066Y-70373992D01*
X141617900Y-70314569D01*
X141617900Y-69066906D01*
X141637585Y-68999867D01*
X141654219Y-68979225D01*
X142372225Y-68261219D01*
X142433548Y-68227734D01*
X142459906Y-68224900D01*
X147608094Y-68224900D01*
X147675133Y-68244585D01*
X147695775Y-68261219D01*
X148654781Y-69220225D01*
X148688266Y-69281548D01*
X148691100Y-69307906D01*
X148691100Y-83854094D01*
X148671415Y-83921133D01*
X148654781Y-83941775D01*
X147441775Y-85154781D01*
X147380452Y-85188266D01*
X147354094Y-85191100D01*
X134165570Y-85191100D01*
X134058431Y-85191100D01*
X133980815Y-85211897D01*
X133954942Y-85218830D01*
X133862159Y-85272398D01*
X133862156Y-85272400D01*
X133090400Y-86044155D01*
X133090398Y-86044158D01*
X133036830Y-86136941D01*
X133036830Y-86136942D01*
X133018032Y-86207100D01*
X133011584Y-86231163D01*
X133011583Y-86231167D01*
X133009100Y-86240432D01*
X133009100Y-88349549D01*
X132989415Y-88416588D01*
X132936611Y-88462343D01*
X132928442Y-88465728D01*
X132921541Y-88468302D01*
X132921536Y-88468305D01*
X132805309Y-88555309D01*
X132712989Y-88678638D01*
X132711445Y-88677482D01*
X132670000Y-88718931D01*
X132621270Y-88731368D01*
X132621490Y-88733039D01*
X132613432Y-88734099D01*
X132509941Y-88761830D01*
X132417158Y-88815398D01*
X132417155Y-88815400D01*
X132155775Y-89076781D01*
X132094452Y-89110266D01*
X132068094Y-89113100D01*
X131808901Y-89113100D01*
X131754440Y-89100500D01*
X131652897Y-89050858D01*
X131579055Y-89040100D01*
X131579054Y-89040100D01*
X131056946Y-89040100D01*
X131056945Y-89040100D01*
X130983102Y-89050858D01*
X130869195Y-89106544D01*
X130779545Y-89196194D01*
X130756176Y-89243995D01*
X130709047Y-89295577D01*
X130645425Y-89313531D01*
X130093285Y-89316422D01*
X130026144Y-89297089D01*
X129981235Y-89246884D01*
X129979823Y-89243995D01*
X129956456Y-89196197D01*
X129956454Y-89196195D01*
X129956454Y-89196194D01*
X129861219Y-89100959D01*
X129827734Y-89039636D01*
X129824900Y-89013278D01*
X129824900Y-87200433D01*
X129824900Y-87200431D01*
X129797170Y-87096943D01*
X129753267Y-87020900D01*
X129751677Y-87018146D01*
X129743601Y-87004156D01*
X129743599Y-87004154D01*
X129027844Y-86288400D01*
X129027843Y-86288399D01*
X128935058Y-86234830D01*
X128935059Y-86234830D01*
X128909186Y-86227897D01*
X128831570Y-86207100D01*
X128831569Y-86207100D01*
X128831567Y-86207100D01*
X120869906Y-86207100D01*
X120802867Y-86187415D01*
X120782225Y-86170781D01*
X120331219Y-85719775D01*
X120297734Y-85658452D01*
X120294900Y-85632094D01*
X120294900Y-82523900D01*
X120314585Y-82456861D01*
X120367389Y-82411106D01*
X120418900Y-82399900D01*
X120779788Y-82399900D01*
X120779790Y-82399900D01*
X120803193Y-82397185D01*
X120898921Y-82354916D01*
X120972916Y-82280921D01*
X121015185Y-82185193D01*
X121017900Y-82161790D01*
X121017900Y-80378210D01*
X121015185Y-80354807D01*
X120972916Y-80259079D01*
X120972914Y-80259077D01*
X120972914Y-80259076D01*
X120898923Y-80185085D01*
X120803194Y-80142815D01*
X120779793Y-80140100D01*
X120779790Y-80140100D01*
X118996210Y-80140100D01*
X118996206Y-80140100D01*
X118972805Y-80142815D01*
X118877076Y-80185085D01*
X118803085Y-80259076D01*
X118760815Y-80354805D01*
X118758100Y-80378206D01*
X118758100Y-82161793D01*
X118760815Y-82185194D01*
X118803085Y-82280923D01*
X118877076Y-82354914D01*
X118877077Y-82354914D01*
X118877079Y-82354916D01*
X118972807Y-82397185D01*
X118996210Y-82399900D01*
X119357100Y-82399900D01*
X119424139Y-82419585D01*
X119469894Y-82472389D01*
X119481100Y-82523900D01*
X119481100Y-85905567D01*
X119481099Y-85905567D01*
X119493836Y-85953101D01*
X119508830Y-86009058D01*
X119562399Y-86101843D01*
X120400157Y-86939601D01*
X120492943Y-86993170D01*
X120596430Y-87020900D01*
X120596431Y-87020900D01*
X128558094Y-87020900D01*
X128625133Y-87040585D01*
X128645775Y-87057219D01*
X128974781Y-87386225D01*
X129008266Y-87447548D01*
X129011100Y-87473906D01*
X129011100Y-89013278D01*
X128991415Y-89080317D01*
X128974781Y-89100959D01*
X128879544Y-89196195D01*
X128823858Y-89310102D01*
X128813100Y-89383945D01*
X128813100Y-89656054D01*
X128823858Y-89729897D01*
X128879544Y-89843804D01*
X128969195Y-89933455D01*
X129083102Y-89989141D01*
X129156945Y-89999900D01*
X129156946Y-89999900D01*
X129290672Y-89999900D01*
X129357711Y-90019585D01*
X129403466Y-90072389D01*
X129414670Y-90123179D01*
X129415206Y-90215379D01*
X129395911Y-90282532D01*
X129343374Y-90328593D01*
X129291208Y-90340100D01*
X129156945Y-90340100D01*
X129083102Y-90350858D01*
X128981560Y-90400500D01*
X128927099Y-90413100D01*
X128501570Y-90413100D01*
X128394430Y-90413100D01*
X128316814Y-90433897D01*
X128290941Y-90440830D01*
X128198159Y-90494397D01*
X128099058Y-90593498D01*
X128037735Y-90626982D01*
X127968043Y-90621998D01*
X127937067Y-90605084D01*
X127930690Y-90600310D01*
X127814461Y-90513303D01*
X127814458Y-90513302D01*
X127814455Y-90513300D01*
X127678434Y-90462566D01*
X127678429Y-90462565D01*
X127618310Y-90456100D01*
X127618294Y-90456100D01*
X127021706Y-90456100D01*
X127021689Y-90456100D01*
X126961570Y-90462565D01*
X126961565Y-90462566D01*
X126825544Y-90513300D01*
X126825536Y-90513305D01*
X126709309Y-90600309D01*
X126622305Y-90716536D01*
X126622300Y-90716544D01*
X126571566Y-90852565D01*
X126571565Y-90852570D01*
X126565100Y-90912689D01*
X126565100Y-91459310D01*
X126571565Y-91519429D01*
X126571566Y-91519434D01*
X126622300Y-91655455D01*
X126622301Y-91655458D01*
X126622303Y-91655461D01*
X126651415Y-91694351D01*
X126709309Y-91771690D01*
X126767203Y-91815027D01*
X126825539Y-91858697D01*
X126825543Y-91858698D01*
X126825544Y-91858699D01*
X126961565Y-91909433D01*
X126961568Y-91909433D01*
X126961572Y-91909435D01*
X126990833Y-91912580D01*
X127021689Y-91915899D01*
X127021706Y-91915900D01*
X127618294Y-91915900D01*
X127618310Y-91915899D01*
X127645157Y-91913011D01*
X127678428Y-91909435D01*
X127678432Y-91909433D01*
X127678434Y-91909433D01*
X127767000Y-91876399D01*
X127814461Y-91858697D01*
X127930690Y-91771690D01*
X128017697Y-91655461D01*
X128017697Y-91655460D01*
X128023011Y-91648362D01*
X128024554Y-91649517D01*
X128066000Y-91608069D01*
X128125430Y-91592900D01*
X128135567Y-91592900D01*
X128135570Y-91592900D01*
X128239058Y-91565170D01*
X128331843Y-91511601D01*
X128580225Y-91263219D01*
X128641548Y-91229734D01*
X128667906Y-91226900D01*
X128927099Y-91226900D01*
X128981560Y-91239500D01*
X129083102Y-91289141D01*
X129156945Y-91299900D01*
X129156946Y-91299900D01*
X129679053Y-91299900D01*
X129679054Y-91299900D01*
X129752898Y-91289141D01*
X129752900Y-91289139D01*
X129758363Y-91288344D01*
X129827540Y-91298156D01*
X129863923Y-91323367D01*
X130560157Y-92019601D01*
X130652943Y-92073170D01*
X130756431Y-92100900D01*
X132368094Y-92100900D01*
X132435133Y-92120585D01*
X132455775Y-92137219D01*
X132652781Y-92334224D01*
X132686266Y-92395547D01*
X132689100Y-92421905D01*
X132689100Y-92726100D01*
X132669415Y-92793139D01*
X132616611Y-92838894D01*
X132565100Y-92850100D01*
X132204206Y-92850100D01*
X132180805Y-92852815D01*
X132085076Y-92895085D01*
X132011085Y-92969076D01*
X131968815Y-93064805D01*
X131966100Y-93088206D01*
X131966100Y-94871793D01*
X131968815Y-94895194D01*
X132011085Y-94990923D01*
X132085076Y-95064914D01*
X132085077Y-95064914D01*
X132085079Y-95064916D01*
X132180807Y-95107185D01*
X132204210Y-95109900D01*
X132204212Y-95109900D01*
X133987788Y-95109900D01*
X133987790Y-95109900D01*
X134011193Y-95107185D01*
X134106921Y-95064916D01*
X134180916Y-94990921D01*
X134223185Y-94895193D01*
X134225900Y-94871790D01*
X134225900Y-93088210D01*
X134223185Y-93064807D01*
X134180916Y-92969079D01*
X134180914Y-92969077D01*
X134180914Y-92969076D01*
X134106923Y-92895085D01*
X134011194Y-92852815D01*
X133987793Y-92850100D01*
X133987790Y-92850100D01*
X133626900Y-92850100D01*
X133559861Y-92830415D01*
X133514106Y-92777611D01*
X133502900Y-92726100D01*
X133502900Y-92148433D01*
X133502900Y-92148431D01*
X133475170Y-92044943D01*
X133421601Y-91952158D01*
X133345842Y-91876399D01*
X132837843Y-91368399D01*
X132745058Y-91314830D01*
X132745059Y-91314830D01*
X132719186Y-91307897D01*
X132641570Y-91287100D01*
X132641569Y-91287100D01*
X132641567Y-91287100D01*
X131985047Y-91287100D01*
X131918008Y-91267415D01*
X131872253Y-91214611D01*
X131862309Y-91145453D01*
X131873647Y-91108639D01*
X131912141Y-91029897D01*
X131922900Y-90956054D01*
X131922900Y-90683945D01*
X131912141Y-90610102D01*
X131856455Y-90496195D01*
X131766804Y-90406544D01*
X131652897Y-90350858D01*
X131579055Y-90340100D01*
X131579054Y-90340100D01*
X131444000Y-90340100D01*
X131376961Y-90320415D01*
X131331206Y-90267611D01*
X131320000Y-90216100D01*
X131320000Y-90123900D01*
X131339685Y-90056861D01*
X131392489Y-90011106D01*
X131444000Y-89999900D01*
X131579055Y-89999900D01*
X131615976Y-89994520D01*
X131652898Y-89989141D01*
X131754440Y-89939500D01*
X131808901Y-89926900D01*
X132341567Y-89926900D01*
X132341570Y-89926900D01*
X132445058Y-89899170D01*
X132537843Y-89845601D01*
X132644377Y-89739066D01*
X132705697Y-89705582D01*
X132775389Y-89710566D01*
X132806363Y-89727478D01*
X132921539Y-89813697D01*
X132921543Y-89813698D01*
X132921544Y-89813699D01*
X133057565Y-89864433D01*
X133057568Y-89864433D01*
X133057572Y-89864435D01*
X133086833Y-89867580D01*
X133117689Y-89870899D01*
X133117706Y-89870900D01*
X133714294Y-89870900D01*
X133714310Y-89870899D01*
X133741157Y-89868011D01*
X133774428Y-89864435D01*
X133774432Y-89864433D01*
X133774434Y-89864433D01*
X133842444Y-89839066D01*
X133910461Y-89813697D01*
X134026690Y-89726690D01*
X134113697Y-89610461D01*
X134164435Y-89474428D01*
X134168011Y-89441157D01*
X134170899Y-89414310D01*
X134170900Y-89414293D01*
X134170900Y-88867706D01*
X134170899Y-88867689D01*
X134167580Y-88836833D01*
X134164435Y-88807572D01*
X134164433Y-88807568D01*
X134164433Y-88807565D01*
X134113699Y-88671544D01*
X134113698Y-88671543D01*
X134113697Y-88671539D01*
X134038157Y-88570628D01*
X134026690Y-88555309D01*
X133949351Y-88497415D01*
X133910461Y-88468303D01*
X133908399Y-88467534D01*
X133903558Y-88465728D01*
X133847628Y-88423853D01*
X133823215Y-88358386D01*
X133822900Y-88349549D01*
X133822900Y-86513905D01*
X133842585Y-86446866D01*
X133859219Y-86426224D01*
X134244224Y-86041219D01*
X134305547Y-86007734D01*
X134331905Y-86004900D01*
X137226610Y-86004900D01*
X137293649Y-86024585D01*
X137339404Y-86077389D01*
X137349348Y-86146547D01*
X137320323Y-86210103D01*
X137314291Y-86216581D01*
X135483101Y-88047770D01*
X135483099Y-88047773D01*
X135416153Y-88163724D01*
X135381500Y-88293055D01*
X135381500Y-94258010D01*
X135361815Y-94325049D01*
X135345181Y-94345691D01*
X133715691Y-95975181D01*
X133654368Y-96008666D01*
X133628010Y-96011500D01*
X121133990Y-96011500D01*
X121066951Y-95991815D01*
X121046309Y-95975181D01*
X119416819Y-94345691D01*
X119383334Y-94284368D01*
X119380500Y-94258010D01*
X119380500Y-93979999D01*
X121801259Y-93979999D01*
X121801259Y-93980000D01*
X121820579Y-94188507D01*
X121877885Y-94389913D01*
X121877890Y-94389926D01*
X121909325Y-94453055D01*
X121971224Y-94577364D01*
X122076123Y-94716274D01*
X122097418Y-94744472D01*
X122097421Y-94744475D01*
X122252165Y-94885542D01*
X122252167Y-94885544D01*
X122430198Y-94995776D01*
X122430199Y-94995776D01*
X122430202Y-94995778D01*
X122625463Y-95071423D01*
X122831299Y-95109900D01*
X122831301Y-95109900D01*
X123040699Y-95109900D01*
X123040701Y-95109900D01*
X123246537Y-95071423D01*
X123441798Y-94995778D01*
X123619834Y-94885543D01*
X123774584Y-94744470D01*
X123900776Y-94577364D01*
X123994114Y-94389916D01*
X124051420Y-94188508D01*
X124070741Y-93980000D01*
X124070741Y-93979999D01*
X124341259Y-93979999D01*
X124341259Y-93980000D01*
X124360579Y-94188507D01*
X124417885Y-94389913D01*
X124417890Y-94389926D01*
X124449325Y-94453055D01*
X124511224Y-94577364D01*
X124616123Y-94716274D01*
X124637418Y-94744472D01*
X124637421Y-94744475D01*
X124792165Y-94885542D01*
X124792167Y-94885544D01*
X124970198Y-94995776D01*
X124970199Y-94995776D01*
X124970202Y-94995778D01*
X125165463Y-95071423D01*
X125371299Y-95109900D01*
X125371301Y-95109900D01*
X125580699Y-95109900D01*
X125580701Y-95109900D01*
X125786537Y-95071423D01*
X125981798Y-94995778D01*
X126159834Y-94885543D01*
X126314584Y-94744470D01*
X126440776Y-94577364D01*
X126534114Y-94389916D01*
X126591420Y-94188508D01*
X126610741Y-93980000D01*
X126610741Y-93979999D01*
X129421259Y-93979999D01*
X129421259Y-93980000D01*
X129440579Y-94188507D01*
X129497885Y-94389913D01*
X129497890Y-94389926D01*
X129529325Y-94453055D01*
X129591224Y-94577364D01*
X129696123Y-94716274D01*
X129717418Y-94744472D01*
X129717421Y-94744475D01*
X129872165Y-94885542D01*
X129872167Y-94885544D01*
X130050198Y-94995776D01*
X130050199Y-94995776D01*
X130050202Y-94995778D01*
X130245463Y-95071423D01*
X130451299Y-95109900D01*
X130451301Y-95109900D01*
X130660699Y-95109900D01*
X130660701Y-95109900D01*
X130866537Y-95071423D01*
X131061798Y-94995778D01*
X131239834Y-94885543D01*
X131394584Y-94744470D01*
X131520776Y-94577364D01*
X131614114Y-94389916D01*
X131671420Y-94188508D01*
X131690741Y-93980000D01*
X131671420Y-93771492D01*
X131614114Y-93570084D01*
X131520776Y-93382636D01*
X131394584Y-93215530D01*
X131394581Y-93215527D01*
X131394578Y-93215524D01*
X131239834Y-93074457D01*
X131239832Y-93074455D01*
X131061801Y-92964223D01*
X131061795Y-92964221D01*
X130866537Y-92888577D01*
X130660701Y-92850100D01*
X130451299Y-92850100D01*
X130245463Y-92888577D01*
X130121981Y-92936414D01*
X130050204Y-92964221D01*
X130050198Y-92964223D01*
X129872167Y-93074455D01*
X129872165Y-93074457D01*
X129717421Y-93215524D01*
X129717418Y-93215527D01*
X129591224Y-93382635D01*
X129497890Y-93570073D01*
X129497885Y-93570086D01*
X129440579Y-93771492D01*
X129421259Y-93979999D01*
X126610741Y-93979999D01*
X126591420Y-93771492D01*
X126534114Y-93570084D01*
X126440776Y-93382636D01*
X126314584Y-93215530D01*
X126314581Y-93215527D01*
X126314578Y-93215524D01*
X126159834Y-93074457D01*
X126159832Y-93074455D01*
X125981801Y-92964223D01*
X125981795Y-92964221D01*
X125786537Y-92888577D01*
X125580701Y-92850100D01*
X125371299Y-92850100D01*
X125165463Y-92888577D01*
X125041981Y-92936414D01*
X124970204Y-92964221D01*
X124970198Y-92964223D01*
X124792167Y-93074455D01*
X124792165Y-93074457D01*
X124637421Y-93215524D01*
X124637418Y-93215527D01*
X124511224Y-93382635D01*
X124417890Y-93570073D01*
X124417885Y-93570086D01*
X124360579Y-93771492D01*
X124341259Y-93979999D01*
X124070741Y-93979999D01*
X124051420Y-93771492D01*
X123994114Y-93570084D01*
X123900776Y-93382636D01*
X123774584Y-93215530D01*
X123774581Y-93215527D01*
X123774578Y-93215524D01*
X123619834Y-93074457D01*
X123619832Y-93074455D01*
X123441801Y-92964223D01*
X123441795Y-92964221D01*
X123246537Y-92888577D01*
X123040701Y-92850100D01*
X122831299Y-92850100D01*
X122625463Y-92888577D01*
X122501981Y-92936414D01*
X122430204Y-92964221D01*
X122430198Y-92964223D01*
X122252167Y-93074455D01*
X122252165Y-93074457D01*
X122097421Y-93215524D01*
X122097418Y-93215527D01*
X121971224Y-93382635D01*
X121877890Y-93570073D01*
X121877885Y-93570086D01*
X121820579Y-93771492D01*
X121801259Y-93979999D01*
X119380500Y-93979999D01*
X119380500Y-88293057D01*
X119380500Y-88293055D01*
X119345847Y-88163726D01*
X119278901Y-88047773D01*
X117184227Y-85953099D01*
X117101900Y-85905567D01*
X117068275Y-85886153D01*
X117003609Y-85868826D01*
X116938945Y-85851500D01*
X116938944Y-85851500D01*
X107417990Y-85851500D01*
X107350951Y-85831815D01*
X107330309Y-85815181D01*
X105700819Y-84185691D01*
X105667334Y-84124368D01*
X105664500Y-84098010D01*
X105664500Y-69317990D01*
X105684185Y-69250951D01*
X105700819Y-69230309D01*
X107330309Y-67600819D01*
X107391632Y-67567334D01*
X107417990Y-67564500D01*
X116938943Y-67564500D01*
X116938945Y-67564500D01*
X117068274Y-67529847D01*
X117184227Y-67462901D01*
X119278901Y-65368227D01*
X119345847Y-65252274D01*
X119380500Y-65122945D01*
X119380500Y-58141990D01*
X119400185Y-58074951D01*
X119416819Y-58054309D01*
X121046309Y-56424819D01*
X121107632Y-56391334D01*
X121133990Y-56388500D01*
X133628010Y-56388500D01*
X133695049Y-56408185D01*
G37*
%TD.AperFunction*%
%TA.AperFunction,Conductor*%
G36*
X128229134Y-62260585D02*
G01*
X128249776Y-62277219D01*
X128261158Y-62288601D01*
X128353943Y-62342170D01*
X128457431Y-62369900D01*
X128734570Y-62369900D01*
X128801609Y-62389585D01*
X128835768Y-62426275D01*
X128836989Y-62425362D01*
X128929309Y-62548690D01*
X128979558Y-62586305D01*
X129045539Y-62635697D01*
X129045543Y-62635698D01*
X129045544Y-62635699D01*
X129181565Y-62686433D01*
X129181568Y-62686433D01*
X129181572Y-62686435D01*
X129210833Y-62689580D01*
X129241689Y-62692899D01*
X129241706Y-62692900D01*
X129838294Y-62692900D01*
X129838310Y-62692899D01*
X129865157Y-62690011D01*
X129898428Y-62686435D01*
X129898432Y-62686433D01*
X129898434Y-62686433D01*
X130015165Y-62642894D01*
X130034461Y-62635697D01*
X130150690Y-62548690D01*
X130237697Y-62432461D01*
X130237697Y-62432460D01*
X130243011Y-62425362D01*
X130244554Y-62426517D01*
X130286000Y-62385069D01*
X130345430Y-62369900D01*
X130831094Y-62369900D01*
X130898133Y-62389585D01*
X130918775Y-62406219D01*
X132652781Y-64140225D01*
X132686266Y-64201548D01*
X132689100Y-64227906D01*
X132689100Y-72416100D01*
X132669415Y-72483139D01*
X132616611Y-72528894D01*
X132565100Y-72540100D01*
X132204206Y-72540100D01*
X132180805Y-72542815D01*
X132085076Y-72585085D01*
X132011085Y-72659076D01*
X131968815Y-72754805D01*
X131966100Y-72778206D01*
X131966100Y-73129100D01*
X131946415Y-73196139D01*
X131893611Y-73241894D01*
X131842100Y-73253100D01*
X130285900Y-73253100D01*
X130218861Y-73233415D01*
X130173106Y-73180611D01*
X130161900Y-73129100D01*
X130161900Y-72768212D01*
X130161900Y-72768210D01*
X130159185Y-72744807D01*
X130116916Y-72649079D01*
X130116914Y-72649077D01*
X130116914Y-72649076D01*
X130042923Y-72575085D01*
X129947194Y-72532815D01*
X129923793Y-72530100D01*
X129923790Y-72530100D01*
X128140210Y-72530100D01*
X128140206Y-72530100D01*
X128116805Y-72532815D01*
X128021076Y-72575085D01*
X127947085Y-72649076D01*
X127904815Y-72744805D01*
X127902100Y-72768206D01*
X127902100Y-73129100D01*
X127882415Y-73196139D01*
X127829611Y-73241894D01*
X127778100Y-73253100D01*
X125967900Y-73253100D01*
X125900861Y-73233415D01*
X125855106Y-73180611D01*
X125843900Y-73129100D01*
X125843900Y-72768212D01*
X125843900Y-72768210D01*
X125841185Y-72744807D01*
X125798916Y-72649079D01*
X125798914Y-72649077D01*
X125798914Y-72649076D01*
X125724923Y-72575085D01*
X125629194Y-72532815D01*
X125605793Y-72530100D01*
X125605790Y-72530100D01*
X125244900Y-72530100D01*
X125177861Y-72510415D01*
X125132106Y-72457611D01*
X125120900Y-72406100D01*
X125120900Y-71828433D01*
X125120900Y-71828432D01*
X125120900Y-71828431D01*
X125094710Y-71730690D01*
X125094710Y-71730689D01*
X125094710Y-71730688D01*
X125093171Y-71724946D01*
X125093170Y-71724942D01*
X125039601Y-71632157D01*
X123693843Y-70286399D01*
X123601058Y-70232830D01*
X123601059Y-70232830D01*
X123573322Y-70225398D01*
X123497570Y-70205100D01*
X123497569Y-70205100D01*
X116024431Y-70205100D01*
X115948673Y-70225398D01*
X115948672Y-70225399D01*
X115931700Y-70229946D01*
X115920937Y-70232831D01*
X115828160Y-70286396D01*
X115828155Y-70286400D01*
X114215400Y-71899155D01*
X114215399Y-71899157D01*
X114161830Y-71991942D01*
X114149206Y-72039057D01*
X114134100Y-72095428D01*
X114134100Y-74378569D01*
X114114415Y-74445608D01*
X114077724Y-74479769D01*
X114078638Y-74480989D01*
X113955308Y-74573311D01*
X113868305Y-74689536D01*
X113868300Y-74689544D01*
X113817566Y-74825565D01*
X113817565Y-74825570D01*
X113811100Y-74885689D01*
X113811100Y-75482310D01*
X113817565Y-75542429D01*
X113817566Y-75542434D01*
X113868300Y-75678455D01*
X113868301Y-75678458D01*
X113868303Y-75678461D01*
X113895185Y-75714371D01*
X113955309Y-75794690D01*
X114078638Y-75887011D01*
X114077482Y-75888554D01*
X114118931Y-75930000D01*
X114134100Y-75989430D01*
X114134100Y-76240567D01*
X114134099Y-76240567D01*
X114134100Y-76240570D01*
X114161830Y-76344058D01*
X114199290Y-76408942D01*
X114215398Y-76436841D01*
X114215400Y-76436844D01*
X114476781Y-76698225D01*
X114510266Y-76759548D01*
X114513100Y-76785906D01*
X114513100Y-77045098D01*
X114500501Y-77099558D01*
X114450858Y-77201103D01*
X114440100Y-77274945D01*
X114440100Y-77797054D01*
X114450858Y-77870897D01*
X114506544Y-77984804D01*
X114596195Y-78074455D01*
X114596196Y-78074455D01*
X114596197Y-78074456D01*
X114640459Y-78096094D01*
X114692042Y-78143221D01*
X114710000Y-78207495D01*
X114710000Y-78338194D01*
X114690315Y-78405233D01*
X114673681Y-78425875D01*
X114594400Y-78505155D01*
X114594398Y-78505158D01*
X114540830Y-78597941D01*
X114517121Y-78686427D01*
X114517120Y-78686431D01*
X114513100Y-78701431D01*
X114513100Y-78945098D01*
X114500501Y-78999558D01*
X114450858Y-79101103D01*
X114440100Y-79174945D01*
X114440100Y-79697054D01*
X114450858Y-79770897D01*
X114506544Y-79884804D01*
X114596195Y-79974455D01*
X114710102Y-80030141D01*
X114783945Y-80040900D01*
X114783946Y-80040900D01*
X115056055Y-80040900D01*
X115092976Y-80035520D01*
X115129898Y-80030141D01*
X115243803Y-79974456D01*
X115333456Y-79884803D01*
X115389141Y-79770898D01*
X115399900Y-79697054D01*
X115399900Y-79558733D01*
X115419585Y-79491694D01*
X115472389Y-79445939D01*
X115524617Y-79434735D01*
X115616823Y-79435271D01*
X115683745Y-79455345D01*
X115729192Y-79508414D01*
X115740100Y-79559269D01*
X115740100Y-79697054D01*
X115750858Y-79770897D01*
X115800500Y-79872440D01*
X115813100Y-79926901D01*
X115813100Y-80078567D01*
X115813099Y-80078567D01*
X115813100Y-80078570D01*
X115840830Y-80182058D01*
X115894040Y-80274222D01*
X115894398Y-80274841D01*
X115894400Y-80274844D01*
X116142338Y-80522782D01*
X116175823Y-80584105D01*
X116170839Y-80653797D01*
X116128967Y-80709730D01*
X116013310Y-80796308D01*
X115926305Y-80912536D01*
X115926300Y-80912544D01*
X115875566Y-81048565D01*
X115875565Y-81048570D01*
X115869100Y-81108689D01*
X115869100Y-81705310D01*
X115875565Y-81765429D01*
X115875566Y-81765434D01*
X115926300Y-81901455D01*
X115926301Y-81901458D01*
X115926303Y-81901461D01*
X115960955Y-81947751D01*
X116012518Y-82016633D01*
X116036934Y-82082097D01*
X116022082Y-82150370D01*
X116000933Y-82178622D01*
X115984284Y-82195271D01*
X115945774Y-82233781D01*
X115884454Y-82267266D01*
X115858094Y-82270100D01*
X114138905Y-82270100D01*
X114071866Y-82250415D01*
X114051224Y-82233781D01*
X112766844Y-80949400D01*
X112766843Y-80949399D01*
X112674058Y-80895830D01*
X112674059Y-80895830D01*
X112648186Y-80888897D01*
X112570570Y-80868100D01*
X112570569Y-80868100D01*
X112570567Y-80868100D01*
X111489900Y-80868100D01*
X111422861Y-80848415D01*
X111377106Y-80795611D01*
X111365900Y-80744100D01*
X111365900Y-80383212D01*
X111365900Y-80383210D01*
X111363185Y-80359807D01*
X111320916Y-80264079D01*
X111320914Y-80264077D01*
X111320914Y-80264076D01*
X111246923Y-80190085D01*
X111235599Y-80185085D01*
X111226885Y-80181237D01*
X111151194Y-80147815D01*
X111127793Y-80145100D01*
X111127790Y-80145100D01*
X109344210Y-80145100D01*
X109344206Y-80145100D01*
X109320805Y-80147815D01*
X109225076Y-80190085D01*
X109151085Y-80264076D01*
X109108815Y-80359805D01*
X109106100Y-80383206D01*
X109106100Y-82166793D01*
X109108815Y-82190194D01*
X109151085Y-82285923D01*
X109225076Y-82359914D01*
X109225077Y-82359914D01*
X109225079Y-82359916D01*
X109320807Y-82402185D01*
X109344210Y-82404900D01*
X109344212Y-82404900D01*
X111127788Y-82404900D01*
X111127790Y-82404900D01*
X111151193Y-82402185D01*
X111246921Y-82359916D01*
X111320916Y-82285921D01*
X111363185Y-82190193D01*
X111365900Y-82166790D01*
X111365900Y-81805900D01*
X111385585Y-81738861D01*
X111438389Y-81693106D01*
X111489900Y-81681900D01*
X112297094Y-81681900D01*
X112364133Y-81701585D01*
X112384775Y-81718219D01*
X112962334Y-82295778D01*
X113486976Y-82820419D01*
X113520461Y-82881742D01*
X113515477Y-82951434D01*
X113473605Y-83007367D01*
X113408141Y-83031784D01*
X113399295Y-83032100D01*
X109439906Y-83032100D01*
X109372867Y-83012415D01*
X109352225Y-82995781D01*
X108774219Y-82417775D01*
X108740734Y-82356452D01*
X108737900Y-82330094D01*
X108737900Y-78734999D01*
X109101259Y-78734999D01*
X109101259Y-78735000D01*
X109120579Y-78943507D01*
X109177885Y-79144913D01*
X109177890Y-79144926D01*
X109214249Y-79217943D01*
X109271224Y-79332364D01*
X109393640Y-79494470D01*
X109397418Y-79499472D01*
X109397421Y-79499475D01*
X109552165Y-79640542D01*
X109552167Y-79640544D01*
X109730198Y-79750776D01*
X109730199Y-79750776D01*
X109730202Y-79750778D01*
X109925463Y-79826423D01*
X110131299Y-79864900D01*
X110131301Y-79864900D01*
X110340699Y-79864900D01*
X110340701Y-79864900D01*
X110546537Y-79826423D01*
X110741798Y-79750778D01*
X110919834Y-79640543D01*
X111074584Y-79499470D01*
X111200776Y-79332364D01*
X111294114Y-79144916D01*
X111351420Y-78943508D01*
X111370741Y-78735000D01*
X111366240Y-78686431D01*
X111351420Y-78526492D01*
X111345349Y-78505155D01*
X111294114Y-78325084D01*
X111293126Y-78323100D01*
X111235562Y-78207495D01*
X111200776Y-78137636D01*
X111074584Y-77970530D01*
X111074581Y-77970527D01*
X111074578Y-77970524D01*
X110919834Y-77829457D01*
X110919832Y-77829455D01*
X110741801Y-77719223D01*
X110741795Y-77719221D01*
X110728894Y-77714223D01*
X110546537Y-77643577D01*
X110340701Y-77605100D01*
X110131299Y-77605100D01*
X109925463Y-77643577D01*
X109912557Y-77648577D01*
X109730204Y-77719221D01*
X109730198Y-77719223D01*
X109552167Y-77829455D01*
X109552165Y-77829457D01*
X109397421Y-77970524D01*
X109397418Y-77970527D01*
X109271224Y-78137635D01*
X109177890Y-78325073D01*
X109177885Y-78325086D01*
X109120579Y-78526492D01*
X109101259Y-78734999D01*
X108737900Y-78734999D01*
X108737900Y-73654999D01*
X109101259Y-73654999D01*
X109101259Y-73655000D01*
X109120579Y-73863507D01*
X109177885Y-74064913D01*
X109177890Y-74064926D01*
X109268733Y-74247362D01*
X109271224Y-74252364D01*
X109393640Y-74414470D01*
X109397418Y-74419472D01*
X109397421Y-74419475D01*
X109552165Y-74560542D01*
X109552167Y-74560544D01*
X109730198Y-74670776D01*
X109730199Y-74670776D01*
X109730202Y-74670778D01*
X109925463Y-74746423D01*
X110131299Y-74784900D01*
X110131301Y-74784900D01*
X110340699Y-74784900D01*
X110340701Y-74784900D01*
X110546537Y-74746423D01*
X110741798Y-74670778D01*
X110919834Y-74560543D01*
X111074584Y-74419470D01*
X111200776Y-74252364D01*
X111294114Y-74064916D01*
X111351420Y-73863508D01*
X111370741Y-73655000D01*
X111351420Y-73446492D01*
X111294114Y-73245084D01*
X111293126Y-73243100D01*
X111232797Y-73121943D01*
X111200776Y-73057636D01*
X111074584Y-72890530D01*
X111074581Y-72890527D01*
X111074578Y-72890524D01*
X110919834Y-72749457D01*
X110919832Y-72749455D01*
X110741801Y-72639223D01*
X110741795Y-72639221D01*
X110740644Y-72638775D01*
X110546537Y-72563577D01*
X110340701Y-72525100D01*
X110131299Y-72525100D01*
X109925463Y-72563577D01*
X109801981Y-72611414D01*
X109730204Y-72639221D01*
X109730198Y-72639223D01*
X109552167Y-72749455D01*
X109552165Y-72749457D01*
X109397421Y-72890524D01*
X109397418Y-72890527D01*
X109271224Y-73057635D01*
X109177890Y-73245073D01*
X109177885Y-73245086D01*
X109120579Y-73446492D01*
X109101259Y-73654999D01*
X108737900Y-73654999D01*
X108737900Y-71114999D01*
X109101259Y-71114999D01*
X109101259Y-71115000D01*
X109120579Y-71323507D01*
X109177885Y-71524913D01*
X109177890Y-71524926D01*
X109271224Y-71712364D01*
X109368388Y-71841031D01*
X109397418Y-71879472D01*
X109397421Y-71879475D01*
X109447832Y-71925430D01*
X109545235Y-72014225D01*
X109552165Y-72020542D01*
X109552167Y-72020544D01*
X109730198Y-72130776D01*
X109730199Y-72130776D01*
X109730202Y-72130778D01*
X109925463Y-72206423D01*
X110131299Y-72244900D01*
X110131301Y-72244900D01*
X110340699Y-72244900D01*
X110340701Y-72244900D01*
X110546537Y-72206423D01*
X110741798Y-72130778D01*
X110919834Y-72020543D01*
X111074584Y-71879470D01*
X111200776Y-71712364D01*
X111294114Y-71524916D01*
X111351420Y-71323508D01*
X111370741Y-71115000D01*
X111351420Y-70906492D01*
X111294114Y-70705084D01*
X111285790Y-70688368D01*
X111241832Y-70600088D01*
X111200776Y-70517636D01*
X111074584Y-70350530D01*
X111074581Y-70350527D01*
X111074578Y-70350524D01*
X110919834Y-70209457D01*
X110919832Y-70209455D01*
X110741801Y-70099223D01*
X110741795Y-70099221D01*
X110546537Y-70023577D01*
X110340701Y-69985100D01*
X110131299Y-69985100D01*
X109925463Y-70023577D01*
X109805875Y-70069906D01*
X109730204Y-70099221D01*
X109730198Y-70099223D01*
X109552167Y-70209455D01*
X109552165Y-70209457D01*
X109397421Y-70350524D01*
X109397418Y-70350527D01*
X109271224Y-70517635D01*
X109177890Y-70705073D01*
X109177885Y-70705086D01*
X109120579Y-70906492D01*
X109101259Y-71114999D01*
X108737900Y-71114999D01*
X108737900Y-70196906D01*
X108757585Y-70129867D01*
X108774219Y-70109225D01*
X109225225Y-69658219D01*
X109286548Y-69624734D01*
X109312906Y-69621900D01*
X125275567Y-69621900D01*
X125275570Y-69621900D01*
X125379058Y-69594170D01*
X125471843Y-69540601D01*
X126563601Y-68448843D01*
X126617170Y-68356058D01*
X126644900Y-68252570D01*
X126644900Y-68145430D01*
X126644900Y-63700001D01*
X126664585Y-63632962D01*
X126717389Y-63587207D01*
X126786547Y-63577263D01*
X126823356Y-63588599D01*
X126853102Y-63603141D01*
X126902331Y-63610313D01*
X126926945Y-63613900D01*
X126926946Y-63613900D01*
X127449055Y-63613900D01*
X127485976Y-63608520D01*
X127522898Y-63603141D01*
X127636803Y-63547456D01*
X127726456Y-63457803D01*
X127782141Y-63343898D01*
X127792900Y-63270054D01*
X127792900Y-62997946D01*
X127782141Y-62924102D01*
X127726456Y-62810197D01*
X127726455Y-62810196D01*
X127726455Y-62810195D01*
X127636804Y-62720544D01*
X127522897Y-62664858D01*
X127449055Y-62654100D01*
X127449054Y-62654100D01*
X127309270Y-62654100D01*
X127242231Y-62634415D01*
X127196476Y-62581611D01*
X127185272Y-62530834D01*
X127184726Y-62438634D01*
X127204013Y-62371479D01*
X127256545Y-62325413D01*
X127308724Y-62313900D01*
X127449055Y-62313900D01*
X127485976Y-62308520D01*
X127522898Y-62303141D01*
X127624440Y-62253500D01*
X127678901Y-62240900D01*
X128162095Y-62240900D01*
X128229134Y-62260585D01*
G37*
%TD.AperFunction*%
%TD*%
M02*
